<svg xmlns="http://www.w3.org/2000/svg" viewBox="0 0 47.78 42.47"><defs><style>.cls-1{fill:#0fd37d;}.cls-2{fill:#e6e6da;}</style></defs><title>WaterManagement_lock_unlock</title><g id="Layer_2" data-name="Layer 2"><g id="Layer_1-2" data-name="Layer 1"><path class="cls-1" d="M4,42A3.48,3.48,0,0,1,.5,38.49V22.56A3.48,3.48,0,0,1,4,19.08H23.06V12.73a12.11,12.11,0,1,1,24.22-.12v6.64a1.49,1.49,0,0,1-1.49,1.49H43.14a1.49,1.49,0,0,1-1.49-1.49V12.61a6.48,6.48,0,1,0-12.95.07v6.4h4.48a3.48,3.48,0,0,1,3.48,3.48V38.49A3.48,3.48,0,0,1,33.18,42Z"/><path class="cls-2" d="M35.18,0V1a11.62,11.62,0,0,1,11.6,11.61v6.64a1,1,0,0,1-1,1H43.14a1,1,0,0,1-1-1V12.61a7,7,0,0,0-7-7H35.1a7,7,0,0,0-6.9,7v6.9h5a3,3,0,0,1,3,3V38.49a3,3,0,0,1-3,3H4a3,3,0,0,1-3-3V22.56a3,3,0,0,1,3-3H23.56V12.73A11.7,11.7,0,0,1,35.14,1l0-1m0,0h0A12.69,12.69,0,0,0,22.56,12.73v5.85H4a4,4,0,0,0-4,4V38.49a4,4,0,0,0,4,4h29.2a4,4,0,0,0,4-4V22.56a4,4,0,0,0-4-4h-4v-5.9a6,6,0,0,1,5.92-6h.06a6,6,0,0,1,6,6v6.64a2,2,0,0,0,2,2h2.65a2,2,0,0,0,2-2V12.61A12.62,12.62,0,0,0,35.18,0Z"/></g></g></svg>