<svg xmlns="http://www.w3.org/2000/svg" viewBox="0 0 37.16 42.47"><defs><style>.cls-1{fill:#ff4c42;}.cls-2{fill:#e6e6da;}</style></defs><title>WaterManagement_lock_lock</title><g id="Layer_2" data-name="Layer 2"><g id="Layer_1-2" data-name="Layer 1"><path class="cls-1" d="M4,42A3.48,3.48,0,0,1,.5,38.49V22.56A3.48,3.48,0,0,1,4,19.08H6.47V12.61a12.11,12.11,0,0,1,24.22,0v6.47h2.49a3.48,3.48,0,0,1,3.48,3.48V38.49A3.48,3.48,0,0,1,33.18,42ZM18.58,6.14a6.47,6.47,0,0,0-6.47,6.47v6.47H25.05V12.61A6.47,6.47,0,0,0,18.58,6.14Z"/><path class="cls-2" d="M18.58,1A11.63,11.63,0,0,1,30.19,12.61v7h3a3,3,0,0,1,3,3V38.49a3,3,0,0,1-3,3H4a3,3,0,0,1-3-3V22.56a3,3,0,0,1,3-3H7v-7A11.63,11.63,0,0,1,18.58,1m-7,18.58H25.55v-7a7,7,0,0,0-13.94,0v7M18.58,0A12.63,12.63,0,0,0,6,12.61v6H4a4,4,0,0,0-4,4V38.49a4,4,0,0,0,4,4h29.2a4,4,0,0,0,4-4V22.56a4,4,0,0,0-4-4h-2v-6A12.63,12.63,0,0,0,18.58,0Zm-6,18.58v-6a6,6,0,0,1,11.94,0v6Z"/></g></g></svg>