<svg xmlns="http://www.w3.org/2000/svg" viewBox="0 0 31.05 19.84"><defs><style>.cls-1{fill:#0fd37d;}.cls-2{fill:#e6e6da;}</style></defs><title>WaterManagement_eye_visble</title><g id="Layer_2" data-name="Layer 2"><g id="Layer_1-2" data-name="Layer 1"><path class="cls-1" d="M15.53,19.59a17.42,17.42,0,0,1-15-8.48,2.36,2.36,0,0,1,0-2.38,17.43,17.43,0,0,1,29.91,0,2.36,2.36,0,0,1,0,2.38A17.39,17.39,0,0,1,15.53,19.59ZM14.22,2.39A15.23,15.23,0,0,0,2.37,9.79l-.07.13.07.13a15.34,15.34,0,0,0,26.31,0l.08-.13-.08-.13a15.15,15.15,0,0,0-7.23-6.27l-.86-.36.57.74a7,7,0,0,1,1.45,4.29A7.09,7.09,0,1,1,8.93,5.62a3.27,3.27,0,0,0,6.42-.88,3.23,3.23,0,0,0-.93-2.27l-.08-.09Z"/><path class="cls-2" d="M15.53.5A17.14,17.14,0,0,1,30.27,8.86a2.11,2.11,0,0,1,0,2.12A17.17,17.17,0,0,1,.79,11a2.07,2.07,0,0,1,0-2.12A17.14,17.14,0,0,1,15.53.5m0,17.25A15.55,15.55,0,0,0,28.9,10.17l.15-.25-.15-.25a15.57,15.57,0,0,0-7.35-6.39l-1.73-.71L21,4.05a6.75,6.75,0,0,1,1.4,4.15A6.83,6.83,0,0,1,8.7,8.2,6.77,6.77,0,0,1,9,6.35,3.52,3.52,0,1,0,14.6,2.29l-.16-.17-.24,0a15.49,15.49,0,0,0-12,7.53L2,9.92l.15.25a15.52,15.52,0,0,0,13.37,7.58M15.53,0A17.58,17.58,0,0,0,.36,8.61a2.56,2.56,0,0,0,0,2.62,17.67,17.67,0,0,0,30.34,0,2.61,2.61,0,0,0,0-2.62A17.58,17.58,0,0,0,15.53,0Zm0,17.25A15,15,0,0,1,2.59,9.92,15,15,0,0,1,14.24,2.64a3,3,0,1,1-5.18,2.1h0a7.33,7.33,0,1,0,12.3-1,14.93,14.93,0,0,1,7.11,6.17,15,15,0,0,1-12.94,7.33Z"/></g></g></svg>