<svg xmlns="http://www.w3.org/2000/svg" viewBox="0 0 21.46 24.74"><defs><style>.cls-1{fill:#0f667d;}</style></defs><title>WaterManagement_lock_unlock_1</title><g id="Layer_2" data-name="Layer 2"><g id="Layer_1-2" data-name="Layer 1"><rect class="cls-1" y="8.17" width="21.46" height="16.58" rx="2.41" ry="2.41"/><path class="cls-1" d="M12.05,3.4a3.41,3.41,0,0,1,3.41,3.41V9.64a3.41,3.41,0,0,1-3.41,3.41H9.41A3.41,3.41,0,0,1,6,9.64V6.81A3.41,3.41,0,0,1,9.41,3.4h2.64m0-3.4H9.41A6.84,6.84,0,0,0,2.59,6.81V9.64a6.84,6.84,0,0,0,6.82,6.82h2.64a6.84,6.84,0,0,0,6.82-6.82V6.81A6.84,6.84,0,0,0,12.05,0Z"/></g></g></svg>