<svg xmlns="http://www.w3.org/2000/svg" viewBox="0 0 31.13 27.67"><defs><style>.cls-1{fill:#ff4c42;}.cls-2{fill:#e6e6da;}</style></defs><title>WaterManagement_eye_unvisble</title><g id="Layer_2" data-name="Layer 2"><g id="Layer_1-2" data-name="Layer 1"><path class="cls-1" d="M24,27.42a.37.37,0,0,1-.32-.17L5.72,1.66a.4.4,0,0,1,.1-.55L6.94.32A.48.48,0,0,1,7.17.25.4.4,0,0,1,7.5.42l3.1,4.43.17,0a17.52,17.52,0,0,1,19.79,7.85,2.36,2.36,0,0,1,0,2.38,17.21,17.21,0,0,1-7.65,6.89l-.27.13,2.77,4a.39.39,0,0,1,.06.3.39.39,0,0,1-.16.26l-1.12.78A.39.39,0,0,1,24,27.42ZM22.18,9.52a7.07,7.07,0,0,1-2.28,8.21l-.19.14,1.7,2.43.19-.08A15.3,15.3,0,0,0,28.75,14l.08-.12-.08-.13A15.25,15.25,0,0,0,16.87,6.29h-.11l-.09.08A3.28,3.28,0,0,0,19,11.92,3.27,3.27,0,0,0,22.18,9.52Zm-6.61,14A17.44,17.44,0,0,1,.58,15a2.31,2.31,0,0,1,0-2.38A17.15,17.15,0,0,1,5.82,7.1L7,8.81a15.18,15.18,0,0,0-4.64,4.9l-.08.13.08.12a15.35,15.35,0,0,0,13.19,7.48h.28l1.41,2C16.7,23.5,16.13,23.53,15.57,23.53ZM14.2,19.07A7.09,7.09,0,0,1,8.55,11Z"/><path class="cls-2" d="M7.17.5a.17.17,0,0,1,.12.06l3,4.29.21.29.34-.09a17.22,17.22,0,0,1,19.5,7.72,2.09,2.09,0,0,1,0,2.13,17,17,0,0,1-7.54,6.8l-.54.25.34.49,2.6,3.71a.16.16,0,0,1,0,.21l-1.12.79-.09,0a.14.14,0,0,1-.12-.06L5.93,1.52a.18.18,0,0,1,0-.11A.18.18,0,0,1,6,1.31L7.08.53a.16.16,0,0,1,.09,0M19,12.17a3.52,3.52,0,0,0,3.14-1.92,6.83,6.83,0,0,1-2.41,7.28l-.38.29.28.39,1.44,2.06.23.34.37-.16A15.56,15.56,0,0,0,29,14.09l.15-.25L29,13.58A15.53,15.53,0,0,0,16.9,6l-.24,0-.17.17a3.53,3.53,0,0,0,2.53,6M5.75,7.44l.92,1.31a15.4,15.4,0,0,0-4.51,4.83L2,13.84l.15.25a15.59,15.59,0,0,0,13.41,7.6h.15l1.09,1.55c-.42,0-.83,0-1.24,0A17.19,17.19,0,0,1,.79,14.9a2.09,2.09,0,0,1,0-2.13,17.17,17.17,0,0,1,5-5.33m3,4.25,4.88,7a6.85,6.85,0,0,1-4.88-7M7.17,0A.63.63,0,0,0,6.8.12L5.68.9a.65.65,0,0,0-.16.91L23.43,27.4a.65.65,0,0,0,.53.27.63.63,0,0,0,.37-.12l1.12-.78a.64.64,0,0,0,.16-.9L23,22.15a17.5,17.5,0,0,0,7.76-7,2.58,2.58,0,0,0,0-2.63,17.61,17.61,0,0,0-15.2-8.63,18.18,18.18,0,0,0-4.87.67L7.7.28A.66.66,0,0,0,7.17,0ZM19,11.67a3,3,0,0,1-2.17-5.13,15,15,0,0,1,11.69,7.3,15,15,0,0,1-7,6.15l-1.44-2.06a7.34,7.34,0,0,0,2-9.28h0a3,3,0,0,1-3,3ZM5.88,6.76A17.47,17.47,0,0,0,.36,12.52a2.58,2.58,0,0,0,0,2.63,17.63,17.63,0,0,0,15.21,8.63,17.07,17.07,0,0,0,2.14-.13L16,21.18h-.41a15,15,0,0,1-13-7.35,14.91,14.91,0,0,1,4.78-5L5.88,6.76Zm2.54,3.62a7.36,7.36,0,0,0,6.32,9l-6.32-9Z"/></g></g></svg>