<svg xmlns="http://www.w3.org/2000/svg" viewBox="0 0 956.83 593.97"><defs><style>.cls-1{fill:#fcfcf0;}.cls-2,.cls-3,.cls-7,.cls-8{fill:#e6e6da;stroke:#fcfcf0;}.cls-2,.cls-3,.cls-7,.cls-8,.cls-9{stroke-miterlimit:10;}.cls-2{stroke-width:2.83px;}.cls-3{stroke-width:4.91px;}.cls-4{fill:#f2f2e7;}.cls-5{fill:#c4c4bb;}.cls-6{fill:#e0e0d5;}.cls-7{stroke-width:2.8px;}.cls-8,.cls-9{stroke-width:2.69px;}.cls-9{fill:none;stroke:#e6e6da;}.cls-10,.cls-20,.cls-22{font-size:20px;}.cls-10,.cls-20,.cls-22,.cls-24{fill:#0f667d;font-family:SourceSansPro-Regular, Source Sans Pro;}.cls-10,.cls-21,.cls-24{letter-spacing:-0.07em;}.cls-11{letter-spacing:-0.09em;}.cls-12{letter-spacing:-0.08em;}.cls-13{letter-spacing:-0.08em;}.cls-14,.cls-22{letter-spacing:-0.09em;}.cls-15{letter-spacing:-0.09em;}.cls-16{letter-spacing:-0.06em;}.cls-17{letter-spacing:-0.08em;}.cls-18{letter-spacing:-0.06em;}.cls-19{letter-spacing:-0.09em;}.cls-20{letter-spacing:-0.14em;}.cls-23{letter-spacing:-0.1em;}.cls-24{font-size:30px;}.cls-25{letter-spacing:-0.08em;}.cls-26{letter-spacing:-0.08em;}</style></defs><title>WaterManagement_background</title><g id="Layer_2" data-name="Layer 2"><g id="Layer_1-2" data-name="Layer 1"><rect class="cls-1" x="1.42" y="55.95" width="954" height="488.42"/><rect class="cls-1" x="1.42" y="544.37" width="357.75" height="48.25"/><rect class="cls-2" x="1.42" y="55.95" width="119.25" height="53.5"/><rect class="cls-2" x="120.67" y="55.95" width="119.25" height="53.5"/><rect class="cls-2" x="239.92" y="55.95" width="119.25" height="53.5"/><rect class="cls-3" x="359.17" y="2.45" width="357.75" height="53.5"/><path class="cls-4" d="M716.92,56V77.55A18.33,18.33,0,0,1,704,82.71H610.57a18.38,18.38,0,0,1-12.9-5.15V56Z"/><rect class="cls-5" x="357.76" y="53.3" width="120.65" height="56.15"/><rect class="cls-5" x="478.42" y="53.3" width="119.25" height="56.15"/><rect class="cls-5" x="597.67" y="53.3" width="119.25" height="56.15"/><rect class="cls-6" x="361.18" y="55.95" width="115.22" height="50.27"/><path class="cls-1" d="M476.4,56V77.55a17.39,17.39,0,0,1-12.46,5.16H373.65a17.44,17.44,0,0,1-12.46-5.15V56Z"/><rect class="cls-6" x="480.43" y="55.95" width="115.22" height="50.27"/><path class="cls-1" d="M595.65,56V77.55a17.39,17.39,0,0,1-12.46,5.16H492.9a17.44,17.44,0,0,1-12.46-5.15V56Z"/><rect class="cls-6" x="599.68" y="55.95" width="115.22" height="50.27"/><path class="cls-1" d="M714.9,56V77.55a17.39,17.39,0,0,1-12.46,5.16H612.15a17.44,17.44,0,0,1-12.46-5.15V56Z"/><rect class="cls-7" x="719.41" y="55.95" width="116.76" height="53.5"/><rect class="cls-2" x="836.17" y="55.95" width="119.25" height="53.5"/><rect class="cls-8" x="1.42" y="109.45" width="119.25" height="48.32"/><polyline class="cls-9" points="239.92 109.45 239.92 157.78 120.67 157.78"/><polyline class="cls-9" points="359.17 109.45 359.17 157.78 239.92 157.78 239.92 109.45"/><polyline class="cls-9" points="478.42 109.45 478.42 157.78 359.17 157.78 359.17 109.45"/><polyline class="cls-9" points="597.67 109.45 597.67 157.78 478.42 157.78 478.42 109.45"/><polyline class="cls-9" points="716.92 109.45 716.92 157.78 597.67 157.78 597.67 109.45"/><polyline class="cls-9" points="836.17 109.45 836.17 157.78 716.92 157.78 716.92 109.45"/><polyline class="cls-9" points="955.42 109.45 955.42 157.78 836.17 157.78 836.17 109.45"/><rect class="cls-8" x="1.42" y="157.78" width="119.25" height="48.32"/><polyline class="cls-9" points="120.67 157.78 239.92 157.78 239.92 206.1 120.67 206.1"/><rect class="cls-9" x="239.92" y="157.78" width="119.25" height="48.32"/><rect class="cls-9" x="359.17" y="157.78" width="119.25" height="48.32"/><rect class="cls-9" x="478.42" y="157.78" width="119.25" height="48.32"/><rect class="cls-9" x="597.67" y="157.78" width="119.25" height="48.32"/><rect class="cls-9" x="716.92" y="157.78" width="119.25" height="48.32"/><rect class="cls-9" x="836.17" y="157.78" width="119.25" height="48.32"/><rect class="cls-8" x="1.42" y="206.1" width="119.25" height="48.32"/><polyline class="cls-9" points="120.67 206.1 239.92 206.1 239.92 254.43 120.67 254.43"/><rect class="cls-9" x="239.92" y="206.1" width="119.25" height="48.32"/><rect class="cls-9" x="359.17" y="206.1" width="119.25" height="48.32"/><rect class="cls-9" x="478.42" y="206.1" width="119.25" height="48.32"/><rect class="cls-9" x="597.67" y="206.1" width="119.25" height="48.32"/><rect class="cls-9" x="716.92" y="206.1" width="119.25" height="48.32"/><rect class="cls-9" x="836.17" y="206.1" width="119.25" height="48.32"/><rect class="cls-8" x="1.42" y="254.43" width="119.25" height="48.32"/><polyline class="cls-9" points="120.67 254.43 239.92 254.43 239.92 302.75 120.67 302.75"/><rect class="cls-9" x="239.92" y="254.43" width="119.25" height="48.32"/><rect class="cls-9" x="359.17" y="254.43" width="119.25" height="48.32"/><rect class="cls-9" x="478.42" y="254.43" width="119.25" height="48.32"/><rect class="cls-9" x="597.67" y="254.43" width="119.25" height="48.32"/><rect class="cls-9" x="716.92" y="254.43" width="119.25" height="48.32"/><rect class="cls-9" x="836.17" y="254.43" width="119.25" height="48.32"/><rect class="cls-8" x="1.42" y="302.75" width="119.25" height="48.32"/><polyline class="cls-9" points="120.67 302.75 239.92 302.75 239.92 351.08 120.67 351.08"/><rect class="cls-9" x="239.92" y="302.75" width="119.25" height="48.32"/><rect class="cls-9" x="359.17" y="302.75" width="119.25" height="48.32"/><rect class="cls-9" x="478.42" y="302.75" width="119.25" height="48.32"/><rect class="cls-9" x="597.67" y="302.75" width="119.25" height="48.32"/><rect class="cls-9" x="716.92" y="302.75" width="119.25" height="48.32"/><rect class="cls-9" x="836.17" y="302.75" width="119.25" height="48.32"/><rect class="cls-8" x="1.42" y="351.08" width="119.25" height="48.32"/><polyline class="cls-9" points="120.67 351.08 239.92 351.08 239.92 399.4 120.67 399.4"/><rect class="cls-9" x="239.92" y="351.08" width="119.25" height="48.32"/><rect class="cls-9" x="359.17" y="351.08" width="119.25" height="48.32"/><rect class="cls-9" x="478.42" y="351.08" width="119.25" height="48.32"/><rect class="cls-9" x="597.67" y="351.08" width="119.25" height="48.32"/><rect class="cls-9" x="716.92" y="351.08" width="119.25" height="48.32"/><rect class="cls-9" x="836.17" y="351.08" width="119.25" height="48.32"/><rect class="cls-8" x="1.42" y="399.4" width="119.25" height="48.32"/><polyline class="cls-9" points="120.67 399.4 239.92 399.4 239.92 447.73 120.67 447.73"/><rect class="cls-9" x="239.92" y="399.4" width="119.25" height="48.32"/><rect class="cls-9" x="359.17" y="399.4" width="119.25" height="48.32"/><rect class="cls-9" x="478.42" y="399.4" width="119.25" height="48.32"/><rect class="cls-9" x="597.67" y="399.4" width="119.25" height="48.32"/><rect class="cls-9" x="716.92" y="399.4" width="119.25" height="48.32"/><rect class="cls-9" x="836.17" y="399.4" width="119.25" height="48.32"/><rect class="cls-8" x="1.42" y="447.72" width="119.25" height="48.32"/><polyline class="cls-9" points="120.67 447.73 239.92 447.73 239.92 496.05 120.67 496.05"/><rect class="cls-9" x="239.92" y="447.72" width="119.25" height="48.32"/><rect class="cls-9" x="359.17" y="447.72" width="119.25" height="48.32"/><rect class="cls-9" x="478.42" y="447.72" width="119.25" height="48.32"/><rect class="cls-9" x="597.67" y="447.72" width="119.25" height="48.32"/><rect class="cls-9" x="716.92" y="447.72" width="119.25" height="48.32"/><rect class="cls-9" x="836.17" y="447.72" width="119.25" height="48.32"/><rect class="cls-8" x="1.42" y="496.05" width="119.25" height="48.32"/><polyline class="cls-9" points="120.67 496.05 239.92 496.05 239.92 544.37 120.67 544.37"/><rect class="cls-9" x="239.92" y="496.05" width="119.25" height="48.32"/><rect class="cls-8" x="1.42" y="544.3" width="119.25" height="48.32"/><polyline class="cls-9" points="120.67 544.3 239.92 544.3 239.92 592.63 120.67 592.63"/><rect class="cls-9" x="239.92" y="544.3" width="119.25" height="48.32"/><rect class="cls-9" x="359.17" y="496.05" width="119.25" height="48.32"/><rect class="cls-9" x="478.42" y="496.05" width="119.25" height="48.32"/><rect class="cls-9" x="597.67" y="496.05" width="119.25" height="48.32"/><rect class="cls-9" x="716.92" y="496.05" width="119.25" height="48.32"/><rect class="cls-9" x="836.17" y="496.05" width="119.25" height="48.32"/><text class="cls-10" transform="translate(38.99 88.12)">Villa<tspan class="cls-11" x="28.06" y="0">g</tspan><tspan x="36.36" y="0">e</tspan></text><text class="cls-10" transform="translate(26.95 142)">Ri<tspan class="cls-12" x="13.44" y="0">v</tspan><tspan x="21.2" y="0">e</tspan><tspan class="cls-13" x="29.62" y="0">r</tspan><tspan class="cls-14" x="34.86" y="0">g</tspan><tspan x="43.12" y="0">a</tspan><tspan class="cls-15" x="51.86" y="0">t</tspan><tspan x="56.92" y="0">e</tspan></text><text class="cls-10" transform="translate(26.33 187)">Sunc<tspan class="cls-15" x="35.52" y="0">r</tspan><tspan x="40.76" y="0">eek</tspan></text><text class="cls-10" transform="translate(21.05 234.59)">Cl<tspan class="cls-11" x="13.42" y="0">e</tspan><tspan x="21.56" y="0">a</tspan><tspan class="cls-16" x="30.3" y="0">r</tspan><tspan class="cls-13" x="36" y="0">w</tspan><tspan class="cls-17" x="48.66" y="0">a</tspan><tspan class="cls-13" x="57.4" y="0">t</tspan><tspan class="cls-17" x="62.46" y="0">er</tspan></text><text class="cls-10" transform="translate(17.46 285.8)">Blueha<tspan class="cls-18" x="49.68" y="0">r</tspan><tspan class="cls-12" x="55.5" y="0">v</tspan><tspan x="63.26" y="0">est</tspan></text><text class="cls-10" transform="translate(27.35 337.01)">S<tspan class="cls-19" x="9.08" y="0">t</tspan><tspan class="cls-17" x="13.98" y="0">arfields</tspan></text><text class="cls-10" transform="translate(29.42 382.85)">Aquarun</text><text class="cls-10" transform="translate(12.8 427.8)">G<tspan class="cls-15" x="10.74" y="0">r</tspan><tspan x="15.98" y="0">eenbounty</tspan></text><text class="cls-10" transform="translate(17.64 478.94)">Moon<tspan class="cls-11" x="41.06" y="0">b</tspan><tspan x="50.38" y="0">anks</tspan></text><text class="cls-10" transform="translate(26.95 525.75)">Ri<tspan class="cls-12" x="13.44" y="0">v</tspan><tspan x="21.2" y="0">e</tspan><tspan class="cls-13" x="29.62" y="0">r</tspan><tspan class="cls-14" x="34.86" y="0">g</tspan><tspan x="43.12" y="0">a</tspan><tspan class="cls-15" x="51.86" y="0">t</tspan><tspan x="56.92" y="0">e</tspan></text><text class="cls-20" transform="translate(42.43 573.88)">T<tspan class="cls-21" x="7.8" y="0">o</tspan><tspan class="cls-19" x="17.14" y="0">t</tspan><tspan class="cls-17" x="22.04" y="0">al</tspan></text><text class="cls-10" transform="translate(135.45 78.67)">Plan<tspan class="cls-13" x="31.7" y="0">t</tspan><tspan x="36.76" y="0">ed a</tspan><tspan class="cls-13" x="66.06" y="0">r</tspan><tspan class="cls-11" x="71.3" y="0">e</tspan><tspan x="79.44" y="0">a</tspan><tspan x="30.47" y="23">(ha)</tspan></text><text class="cls-22" transform="translate(278.19 76.27)">W<tspan class="cls-21" x="13.8" y="0">a</tspan><tspan class="cls-15" x="22.54" y="0">t</tspan><tspan class="cls-21" x="27.6" y="0">er</tspan><tspan class="cls-13"><tspan x="-8.11" y="23">R</tspan><tspan class="cls-17" x="1.71" y="23">equest</tspan></tspan></text><text class="cls-10" transform="translate(386.21 78.12)">A<tspan class="cls-23" x="9.26" y="0">cc</tspan><tspan x="23.66" y="0">o</tspan><tspan class="cls-15" x="33" y="0">r</tspan><tspan x="38.24" y="0">ding</tspan><tspan class="cls-15"><tspan x="-17.76" y="19">t</tspan><tspan class="cls-21" x="-12.7" y="19">o plan</tspan><tspan x="30.56" y="19">t</tspan><tspan class="cls-21" x="35.62" y="19">ed a</tspan><tspan class="cls-13" x="64.92" y="19">r</tspan><tspan class="cls-11" x="70.16" y="19">e</tspan><tspan class="cls-17" x="78.3" y="19">a</tspan></tspan></text><text class="cls-24" transform="translate(425.24 37.33)">A<tspan class="cls-23" x="13.89" y="0">cc</tspan><tspan x="35.49" y="0">o</tspan><tspan class="cls-13" x="49.5" y="0">r</tspan><tspan x="57.36" y="0">ding </tspan><tspan class="cls-25" x="107.73" y="0">t</tspan><tspan x="115.32" y="0">o </tspan><tspan class="cls-13" x="133.14" y="0">r</tspan><tspan class="cls-26" x="141" y="0">equests</tspan></text><text class="cls-10" transform="translate(759.44 87.77)">Final</text><text class="cls-22" transform="translate(848.09 78.27)">W<tspan class="cls-21" x="13.8" y="0">a</tspan><tspan class="cls-13" x="22.54" y="0">t</tspan><tspan class="cls-21" x="27.6" y="0">er Main</tspan><tspan class="cls-21"><tspan x="-6.93" y="19" xml:space="preserve">Canal  = </tspan></tspan></text><text class="cls-10" transform="translate(639.26 78.12)">E<tspan class="cls-12" x="8.94" y="0">v</tspan><tspan x="16.7" y="0">en</tspan><tspan x="-22.95" y="19">distribution</tspan></text><text class="cls-10" transform="translate(502.65 78.12)">A<tspan class="cls-23" x="9.26" y="0">cc</tspan><tspan x="23.66" y="0">o</tspan><tspan class="cls-15" x="33" y="0">r</tspan><tspan x="38.24" y="0">ding</tspan><tspan class="cls-13"><tspan x="-3.82" y="19">t</tspan><tspan class="cls-21" x="1.24" y="19">o </tspan><tspan x="13.12" y="19">r</tspan><tspan class="cls-21" x="18.36" y="19">equests</tspan></tspan></text></g></g></svg>