<svg xmlns="http://www.w3.org/2000/svg" viewBox="0 0 24.34 24.53"><defs><style>.cls-1{fill:#e6e6da;}.cls-2{font-size:20px;fill:#0f667d;font-family:SourceSansPro-Semibold, Source Sans Pro;font-weight:700;}</style></defs><title>CropState_Medium_Unselected</title><g id="Layer_2" data-name="Layer 2"><g id="Layer_1-2" data-name="Layer 1"><path class="cls-1" d="M15.29,2.83a6.23,6.23,0,0,1,6.22,6.22v6.24a6.23,6.23,0,0,1-6.22,6.22H9.05a6.23,6.23,0,0,1-6.22-6.22V9.05A6.23,6.23,0,0,1,9.05,2.83h6.24m0-2.83H9.05A9,9,0,0,0,0,9.05v6.24a9,9,0,0,0,9.05,9.05h6.24a9,9,0,0,0,9.05-9V9.05a9,9,0,0,0-9-9Z"/><text class="cls-2" transform="translate(4.72 18.43)">M</text></g></g></svg>