<svg xmlns="http://www.w3.org/2000/svg" viewBox="0 0 1753 458.29"><defs><style>.cls-1{fill:none;stroke:#3bbec9;stroke-miterlimit:10;stroke-width:14.17px;}.cls-1,.cls-3,.cls-4{fill-rule:evenodd;}.cls-2,.cls-3{fill:#3bbec9;}.cls-4{fill:#64d3de;}.cls-5{fill:#74e4ed;}</style></defs><title>Canal_Smallcanals</title><g id="Layer_2" data-name="Layer 2"><g id="Layer_1-2" data-name="Layer 1"><path class="cls-1" d="M521.5,188.26c46.5,42.61,61,81.3,65,110,7,50.2-15.73,84.85,4.36,111,16.74,21.75,52,23,80.06,20.48"/><path class="cls-1" d="M191,220.76c73.68-27.13,148.05-7.93,181.2,41,17.73,26.16,29.63,69.61,10.26,106.67-23.11,44.22-84.38,67.19-146.46,47.34"/><path class="cls-1" d="M414,100.76a226.1,226.1,0,0,1,59-45C541.25,19.81,608.75,29.94,633.69,35"/><path class="cls-1" d="M99,185.76c35.64-36.63,40.7-64,39-82-2.9-30.85-21.17-45.84-15-64C128.26,24.3,151.41,9.14,226,7.08"/><path class="cls-1" d="M1347,333.76c50.43,15.6,65.44,34.6,69,50,4.65,20.09-2.62,33.57,6.17,47.2,7.92,12.29,29.12,22.29,86.55,13.64"/><path class="cls-1" d="M1434.25,27.56c-24.67,27.21-72,70.76-143.25,90.2a279.5,279.5,0,0,1-52,9"/><path class="cls-1" d="M1067.48,452.05c-12-6.47-57.11-32.6-78.48-89.29-24.78-65.77,1.17-122.85,6-133"/><path class="cls-1" d="M1041.41,31.29C980,2.17,912.47,10.88,874,50.76c-27.19,28.2-31.94,63.76-33,79"/><path class="cls-2" d="M1753,44.21V92.08a40.49,40.49,0,0,0-4.62,4.18,57.81,57.81,0,0,0-7.23,9.58c-4.51,7.34-8.29,16.31-11.61,25.93s-6.24,20-9.21,30.65-6,21.76-9.82,33.16-8.37,23.2-15.42,35.14A99.16,99.16,0,0,1,1682,248.25,78.06,78.06,0,0,1,1663.16,263a75.05,75.05,0,0,1-11.2,5.08c-1.92.68-3.86,1.3-5.8,1.82l-1.45.39-1.34.31-2.68.6c-1.78.41-3.67.67-5.5,1s-3.76.47-5.65.68-3.82.26-5.74.3-3.86.06-5.77-.07a98.43,98.43,0,0,1-21.83-3.55c-6.69-1.82-12.63-4-18-6s-10.23-3.82-14.83-5.3a118.79,118.79,0,0,0-13.37-3.56,97,97,0,0,0-13.11-1.7c-1.11,0-2.21-.14-3.33-.15l-3.35,0c-2.25.06-4.5.09-6.8.27a114.81,114.81,0,0,0-26.82,5,125,125,0,0,0-25.21,11.2A183.64,183.64,0,0,0,1447.5,286c-7.85,6.37-15.59,13.45-23.68,21s-16.5,15.53-26.8,23.61c-2.58,2-5.29,4-8.24,6a107.84,107.84,0,0,1-9.49,5.76,85,85,0,0,1-11.23,5.05,68.48,68.48,0,0,1-13.23,3.42,65.08,65.08,0,0,1-14.53.6,69,69,0,0,1-7.23-.91c-2.34-.47-4.66-1-6.94-1.68a65.78,65.78,0,0,1-13.24-5.58,68.76,68.76,0,0,1-11.46-8,85.88,85.88,0,0,1-16.13-18.83,133.74,133.74,0,0,1-9.91-18.79,289.41,289.41,0,0,1-12.16-35.07c-3.24-11.19-6.07-22-9-32.22a273.4,273.4,0,0,0-9.64-28.54c-3.54-8.56-7.7-15.9-11.81-20.43a24.11,24.11,0,0,0-5.82-4.92,17.39,17.39,0,0,0-2.83-1.34,22.09,22.09,0,0,0-2.91-.8,13.52,13.52,0,0,0-5.2.15,20.82,20.82,0,0,0-3.42,1,35.87,35.87,0,0,0-4.26,1.89c-1.53.78-3.18,1.71-4.9,2.79s-3.51,2.28-5.35,3.59c-3.67,2.62-7.52,5.63-11.49,8.9-7.94,6.53-16.34,13.95-25.3,21.43a354.4,354.4,0,0,1-29.16,22.18,204.1,204.1,0,0,1-34.61,18.93,165,165,0,0,1-39.79,11.23,162.83,162.83,0,0,1-20.77,1.74,153.59,153.59,0,0,1-21.11-1,144.1,144.1,0,0,1-41.44-11.3,191.43,191.43,0,0,1-34.83-20.28c-10.28-7.39-19.37-14.91-27.91-21.82s-16.52-13.24-24.38-18.6a136.54,136.54,0,0,0-23.34-13,103.55,103.55,0,0,0-24.06-7,117.46,117.46,0,0,0-12.76-1.36,115.37,115.37,0,0,0-12.89,0,94.65,94.65,0,0,0-12.06,1.47,84.5,84.5,0,0,0-11.34,3,115.4,115.4,0,0,0-23,11.2c-8.17,4.95-17.13,11.2-27.36,17.72a245.45,245.45,0,0,1-34.31,18.62,189.94,189.94,0,0,1-39.42,12.24c-6.71,1.31-13.42,2.27-20.08,2.91s-13.14,1-20.06,1a173.86,173.86,0,0,1-42.13-4.75,166.25,166.25,0,0,1-20.69-6.52A183.08,183.08,0,0,1,544.66,222c-12.12-6.39-22.62-13.47-32.07-19.9s-17.89-12.28-26-17.07a148.39,148.39,0,0,0-23.81-11.62A128.91,128.91,0,0,0,438,167c-4.3-.69-8.7-1.18-13.19-1.51s-9.05-.43-13.36-.41a117.73,117.73,0,0,0-12.52.81A105.43,105.43,0,0,0,386.85,168a202.75,202.75,0,0,0-26.46,8.53c-4.76,1.81-9.72,3.81-14.81,5.86l-15.52,6.28c-10.54,4.25-21.35,8.47-32.26,12.5s-21.93,7.86-33,11.49-22.12,7.08-33.31,10.27Q198,232.63,163.9,240c-26.68,5.79-44.34,9.64-68.56,12.47a504.5,504.5,0,0,1-69.26,3.27l-.51-6.5-5.14-65-1.7-15.51a486.29,486.29,0,0,0,64.83-1.92c22.85-2.22,39.64-5.52,63.17-10.1q31.38-6.12,62.28-14.37c10.31-2.69,20.58-5.68,30.76-8.76s20.28-6.38,30.34-9.86,20.1-7.15,30.31-11L316,106.82c5.29-2,10.72-4.06,16.4-6.09s11.55-4.06,17.81-5.94,12.8-3.62,19.6-5.05a192.69,192.69,0,0,1,41.7-4.06c6.82.09,13.44.41,20,1s13.26,1.52,19.94,2.74a206.18,206.18,0,0,1,39.58,11.3,225.2,225.2,0,0,1,35.82,18.35c10.93,6.81,20.64,13.9,29.48,20.2s16.78,11.79,24.3,15.94a95,95,0,0,0,22.17,9.2,99,99,0,0,0,24.06,3.2c4.22.07,8.89-.08,13.31-.41s8.79-.85,13-1.58a115.34,115.34,0,0,0,24.46-7,172.82,172.82,0,0,0,24.61-12.78c8.69-5.25,18.14-11.58,29.15-18,5.5-3.19,11.4-6.35,17.67-9.26a163.88,163.88,0,0,1,19.81-7.72A154.66,154.66,0,0,1,790,105.86a168.83,168.83,0,0,1,21.15-2.1,189.06,189.06,0,0,1,40.91,3,173.11,173.11,0,0,1,39.71,12.48,206.34,206.34,0,0,1,34.54,20.17c10.39,7.43,19.7,15.2,28.31,22.49s16.6,14.12,24.3,19.9a126.1,126.1,0,0,0,22.45,13.9,78.37,78.37,0,0,0,22.65,6.76,94.94,94.94,0,0,0,24.76.08,100,100,0,0,0,24.51-6.36,140.83,140.83,0,0,0,24.19-12.62,290.36,290.36,0,0,0,24.37-17.79c8.3-6.61,16.74-13.78,26.17-21.22,4.71-3.71,9.7-7.48,15.17-11.21,2.75-1.86,5.6-3.71,8.67-5.52s6.27-3.57,9.74-5.23a95.94,95.94,0,0,1,11.15-4.56,81.55,81.55,0,0,1,12.72-3.24,73.38,73.38,0,0,1,28,.54c2.26.52,4.52,1.07,6.67,1.77s4.28,1.44,6.39,2.28a78.42,78.42,0,0,1,12,6.22,84.52,84.52,0,0,1,19.3,16.92,111.13,111.13,0,0,1,12.75,18.81,164,164,0,0,1,8.52,18.5,328.5,328.5,0,0,1,11.06,35c3,11.22,5.59,22.05,8.34,32.32a237.6,237.6,0,0,0,9,28.27,76.81,76.81,0,0,0,5.36,10.89,31,31,0,0,0,5.24,6.7,11.66,11.66,0,0,0,4.24,2.64c.38.15.78.22,1.16.34s.72.15,1,.18a10.09,10.09,0,0,0,2.13,0,21,21,0,0,0,7-2.38,52,52,0,0,0,4.85-2.81c1.71-1.08,3.5-2.35,5.34-3.72,7.38-5.5,15.36-12.69,23.72-20.12,16.74-14.93,35.53-31.19,58.13-43.58a176.21,176.21,0,0,1,36.11-15.05,165.82,165.82,0,0,1,38.89-6.34,149.38,149.38,0,0,1,39.85,3.39,168.36,168.36,0,0,1,18.81,5.41c6,2.07,11.46,4.3,16.51,6.28s9.58,3.71,13.62,4.91a49.87,49.87,0,0,0,11,2.12,40.28,40.28,0,0,0,10.57-.65l1.4-.28.7-.14.57-.14c.76-.17,1.48-.39,2.19-.62a26.29,26.29,0,0,0,4-1.7,30.13,30.13,0,0,0,7.47-5.61,52.72,52.72,0,0,0,7-9.08c4.48-7.15,8.35-16.13,11.79-25.77s6.56-20,9.79-30.72,6.58-21.79,10.76-33.13,9.19-23,16.59-34.51a101.42,101.42,0,0,1,13.32-16.7A80.83,80.83,0,0,1,1735,51.43a76.31,76.31,0,0,1,10.57-4.85C1748,45.67,1750.5,44.88,1753,44.21Z"/><path class="cls-3" d="M69.83,254.8l-1.66,1H14v-87H69.83Z"/><path class="cls-4" d="M1753,50.06V85.22c-6.48,3.9-12,9.93-16.71,17.53-4.88,7.89-8.82,17.2-12.26,27s-6.4,20.29-9.41,31-6,21.67-9.81,32.85-8.23,22.61-15,33.93A93.69,93.69,0,0,1,1677.56,244a72.23,72.23,0,0,1-17.38,13.6,68.15,68.15,0,0,1-10.28,4.64q-2.65.94-5.33,1.67l-1.34.35-1.26.29-2.52.56a82.57,82.57,0,0,1-21.1,1.74,92.69,92.69,0,0,1-20.43-3.36c-6.35-1.75-12.1-3.85-17.41-5.83s-10.27-3.87-15-5.43a123.28,123.28,0,0,0-14.07-3.79,105.12,105.12,0,0,0-28.3-1.86,120.74,120.74,0,0,0-28.37,5.14,131,131,0,0,0-26.62,11.7,189.3,189.3,0,0,0-24.86,17.27c-8.08,6.51-16,13.69-24.09,21.2s-16.49,15.41-26.41,23.16c-2.48,1.93-5.08,3.85-7.86,5.71a99.21,99.21,0,0,1-8.89,5.38,79.14,79.14,0,0,1-10.3,4.62,62.65,62.65,0,0,1-11.9,3.07,58.32,58.32,0,0,1-25.56-1.8,59.19,59.19,0,0,1-11.81-5,62.31,62.31,0,0,1-10.25-7.18,79.15,79.15,0,0,1-14.73-17.26,125.72,125.72,0,0,1-9.32-17.78,283.43,283.43,0,0,1-11.76-34.19c-3.18-11.07-6-21.86-8.95-32.23a280,280,0,0,0-9.82-29.38c-3.7-9-8.11-17.05-13-22.6a32.09,32.09,0,0,0-7.56-6.47,25.79,25.79,0,0,0-4-2,28.39,28.39,0,0,0-4.22-1.21,23.84,23.84,0,0,0-4-.38,23.39,23.39,0,0,0-4.14.43,27.84,27.84,0,0,0-4.62,1.3,44.6,44.6,0,0,0-5.15,2.23c-1.78.89-3.63,1.93-5.53,3.11s-3.82,2.46-5.77,3.83c-3.91,2.77-7.91,5.88-12,9.21-8.13,6.64-16.53,14-25.41,21.4a351.09,351.09,0,0,1-28.54,21.62,196.89,196.89,0,0,1-33.27,18.11,156.79,156.79,0,0,1-37.82,10.6,151.57,151.57,0,0,1-39.66.63,135.79,135.79,0,0,1-39-10.71,182.35,182.35,0,0,1-33.24-19.46c-9.94-7.18-18.89-14.61-27.44-21.57s-16.7-13.47-24.89-19.1a145.92,145.92,0,0,0-24.78-14,112.9,112.9,0,0,0-26.08-7.69,129.14,129.14,0,0,0-13.74-1.52,126.09,126.09,0,0,0-13.88,0,105.35,105.35,0,0,0-13.23,1.55,92.14,92.14,0,0,0-12.6,3.27,124,124,0,0,0-24.84,11.95c-8.54,5.14-17.56,11.39-27.59,17.75a237.57,237.57,0,0,1-33.06,17.87A179.65,179.65,0,0,1,665,228.75c-6.4,1.24-12.8,2.14-19.17,2.74s-12.62.93-19.19,1a164.55,164.55,0,0,1-39.8-4.55,152.69,152.69,0,0,1-19.45-6.17,172.06,172.06,0,0,1-18.1-8.35A320.7,320.7,0,0,1,518.24,194c-9.36-6.42-18-12.42-26.44-17.47A157.13,157.13,0,0,0,466.43,164,138.34,138.34,0,0,0,439.78,157c-4.61-.76-9.31-1.3-14.07-1.67s-9.58-.5-14.22-.49a123.33,123.33,0,0,0-26.84,3.09,210.61,210.61,0,0,0-27.87,8.84c-9.77,3.7-20.07,8-30.55,12.13s-21.2,8.35-32,12.3Q261.79,203,228.6,212.52t-66.92,16.76c-30.36,6.55-61.1,11.59-91.85,15.37l-1,.12H0v-65H69.69c5.14-.58,10.26-1.2,15.39-1.87,21.41-2.78,42.72-6.2,63.87-10.42s42.16-9.09,63-14.72,41.43-11.95,61.77-19c10.17-3.55,20.3-7.29,30.55-11.2l15.58-6c5.26-2,10.63-4.06,16.19-6.06a268.36,268.36,0,0,1,36-10.67,182.72,182.72,0,0,1,39.5-3.92c6.5.08,12.84.36,19.15,1s12.71,1.43,19.07,2.58a197,197,0,0,1,37.67,10.67,215.31,215.31,0,0,1,34.27,17.48c10.57,6.55,20.12,13.49,29,19.8s17.19,12,25.3,16.46a104.91,104.91,0,0,0,24.45,10,108.81,108.81,0,0,0,26.4,3.4c4.56.06,9.46-.12,14.18-.49s9.38-.95,13.93-1.75a125.33,125.33,0,0,0,26.39-7.68,183.51,183.51,0,0,0,25.86-13.53c8.89-5.42,18.27-11.74,28.92-17.94a176.23,176.23,0,0,1,35.6-16.24,147.32,147.32,0,0,1,19.81-4.8,158.6,158.6,0,0,1,20-2,181,181,0,0,1,38.94,2.83,164.44,164.44,0,0,1,37.69,11.77,196.68,196.68,0,0,1,33.1,19.25c20.14,14.37,36.48,30.21,52.57,42.14a133.73,133.73,0,0,0,24,14.72,86.84,86.84,0,0,0,25.08,7.35,104.06,104.06,0,0,0,27,0,108.23,108.23,0,0,0,26.47-7,149.09,149.09,0,0,0,25.54-13.43,302.63,302.63,0,0,0,25-18.36c8.38-6.72,16.82-13.93,26-21.24,4.62-3.66,9.46-7.33,14.71-10.92,2.63-1.79,5.34-3.56,8.23-5.27s5.9-3.37,9.12-4.91a86.87,86.87,0,0,1,10.26-4.22,72.71,72.71,0,0,1,11.52-2.95,67.69,67.69,0,0,1,12.48-1,68.57,68.57,0,0,1,12.58,1.43c2,.47,4.06,1,6,1.59s3.86,1.28,5.76,2a70,70,0,0,1,10.86,5.59A76.5,76.5,0,0,1,1272,147.58a103,103,0,0,1,11.89,17.51,156,156,0,0,1,8.16,17.62A323.64,323.64,0,0,1,1303,216.85c3,11.1,5.61,21.92,8.42,32.31a244,244,0,0,0,9.44,29.15,84.72,84.72,0,0,0,5.94,11.91,37.56,37.56,0,0,0,6.66,8.27,18.81,18.81,0,0,0,6.87,4.05,16.73,16.73,0,0,0,7.49.7,28.52,28.52,0,0,0,9.23-3.16,79.45,79.45,0,0,0,11.16-7.21c7.76-5.83,15.78-13.13,24.12-20.57,16.65-14.95,35-30.82,56.77-42.82a169.13,169.13,0,0,1,34.69-14.55,158.9,158.9,0,0,1,37.34-6.16,142.46,142.46,0,0,1,38.14,3.15,164.72,164.72,0,0,1,18.11,5.18c5.78,2,11.2,4.17,16.29,6.15s9.8,3.77,14.18,5a55.76,55.76,0,0,0,12.43,2.31,46.34,46.34,0,0,0,12.12-.81l1.57-.33.78-.15.68-.17c.91-.22,1.79-.49,2.66-.78a31.82,31.82,0,0,0,5-2.14,36.31,36.31,0,0,0,8.93-6.79,58.14,58.14,0,0,0,7.81-10.17c4.82-7.77,8.77-17.11,12.26-27s6.6-20.34,9.79-31,6.49-21.68,10.57-32.8S1701.29,96,1708.31,85a96.38,96.38,0,0,1,12.54-15.78,75.69,75.69,0,0,1,16.9-12.88,70.92,70.92,0,0,1,9.79-4.51Q1750.26,50.86,1753,50.06Z"/><path class="cls-5" d="M105.69,220.91a4.14,4.14,0,0,1,3.38-4.73c3.77-.59,7.51-1.3,11.27-2s7.5-1.35,11.24-2.07a4.08,4.08,0,1,1,1.49,8c-3.77.74-7.54,1.46-11.33,2.12s-7.55,1.39-11.34,2A4.09,4.09,0,0,1,105.69,220.91Z"/><path class="cls-5" d="M98.4,205.93a4.11,4.11,0,0,1,3.34-4.71l1.59-.24a4.12,4.12,0,0,1,1.3,8.13l-1.6.26A4.08,4.08,0,0,1,98.4,205.93Z"/><path class="cls-5" d="M144.9,219.22h0a4.13,4.13,0,0,1,3.23-4.81l1.61-.33a4.05,4.05,0,1,1,1.61,7.94l-1.62.33A4,4,0,0,1,144.9,219.22Z"/><path class="cls-5" d="M135,199.64a4.08,4.08,0,0,1,3.19-4.75l9.86-1.94c3.29-.65,6.56-1.38,9.84-2.06,6.57-1.35,13.09-2.89,19.63-4.36a4,4,0,1,1,1.84,7.78c-6.59,1.5-13.15,3.08-19.77,4.46-3.3.7-6.6,1.44-9.91,2.1l-9.93,2A4,4,0,0,1,135,199.64Z"/><path class="cls-5" d="M202.6,169.18a3.9,3.9,0,0,1,2.83-4.79l16.08-4.33,16-4.61a4,4,0,0,1,4.95,2.59,3.86,3.86,0,0,1-2.67,4.84l-16.1,4.71L207.48,172A4,4,0,0,1,202.6,169.18Z"/><path class="cls-5" d="M328.37,158.17a3.93,3.93,0,0,1,2.38-5c3.52-1.4,7-2.78,10.5-4.12l5.24-2,5.22-1.92a3.78,3.78,0,0,1,5,2.12,3.91,3.91,0,0,1-2.44,4.85L349.1,154l-5.18,2-5.19,2-5.25,2.1A3.87,3.87,0,0,1,328.37,158.17Z"/><path class="cls-5" d="M318.54,146.44a3.92,3.92,0,0,1,2.4-5l1.51-.58a3.76,3.76,0,1,1,2.74,7l-1.51.59A3.92,3.92,0,0,1,318.54,146.44Z"/><path class="cls-5" d="M365,149.59h0a3.8,3.8,0,0,1,2.53-4.71l1.45-.42a3.68,3.68,0,0,1,4.61,2.5,3.75,3.75,0,0,1-2.52,4.56l-1.4.41A3.71,3.71,0,0,1,365,149.59Z"/><path class="cls-5" d="M353.48,133.2a3.86,3.86,0,0,1,2.73-4.78l4.92-1.61,5-1.41,5-1.4,5.13-1.13c1.72-.37,3.42-.79,5.15-1.1l5.21-.82c1.74-.24,3.46-.6,5.22-.75l5.25-.47c2.32-.2,4.3,1.26,4.41,3.24a4,4,0,0,1-3.79,4l-5,.46c-1.67.14-3.32.49-5,.73l-5,.79c-1.65.3-3.28.72-4.91,1.07l-4.91,1.1-4.85,1.37-4.85,1.37-4.79,1.58A4,4,0,0,1,353.48,133.2Z"/><path class="cls-5" d="M427.76,110c.14-2,2.25-3.38,4.69-3.15a199.85,199.85,0,0,1,36.91,7.34c2.4.68,3.84,2.86,3.24,4.7a3.16,3.16,0,0,1-2,1.94,5.11,5.11,0,0,1-3.25.11,191.81,191.81,0,0,0-35.61-7C429.41,113.79,427.61,112,427.76,110Z"/><path class="cls-5" d="M532.36,182.11c1-1.53,3.44-1.74,5.3-.47,6.37,4.28,12.94,8.46,19.84,12.25,2,1.12,3,3.34,2.17,5s-3.3,2-5.41.89c-7.16-3.9-13.91-8.18-20.38-12.51C532,185.94,531.3,183.64,532.36,182.11Z"/><path class="cls-5" d="M535.79,168.58c1.07-1.53,3.42-1.73,5.24-.47l1.32.91c1.81,1.25,2.44,3.53,1.41,5.07s-3.4,1.76-5.24.5l-1.34-.92C535.35,172.41,534.73,170.11,535.79,168.58Z"/><path class="cls-5" d="M565.09,206.38c.78-1.66,3.2-2.21,5.4-1.24.53.24,1.09.44,1.63.65,2.25.88,3.58,3,3,4.69s-3.09,2.35-5.46,1.44c-.57-.23-1.16-.44-1.71-.68C565.58,210.22,564.32,208,565.09,206.38Z"/><path class="cls-5" d="M567.06,188.14a3.67,3.67,0,0,1,5-1.2,135.75,135.75,0,0,0,18,7l4.66,1.3c1.54.45,3.13.71,4.7,1.08,3.13.78,6.35,1.15,9.53,1.7,2.11.26,3.7,1.86,3.53,3.65s-2.15,3.08-4.38,2.81c-3.35-.56-6.73-.95-10-1.75-1.65-.39-3.33-.66-5-1.14l-4.92-1.35a138.68,138.68,0,0,1-19-7.33C567.17,191.94,566.22,189.77,567.06,188.14Z"/><path class="cls-5" d="M636.26,190.22a3.45,3.45,0,0,1,3.51-3.37,144.92,144.92,0,0,0,30-5,3.56,3.56,0,0,1,4.41,2c.53,1.65-.67,3.46-2.67,4a150.56,150.56,0,0,1-31.23,5.32C638.14,193.34,636.35,192,636.26,190.22Z"/><path class="cls-5" d="M754.42,166.86c-.84-1.41,0-3.54,1.87-4.58a147,147,0,0,1,19.53-9.49c2-.74,4-.09,4.58,1.45s-.57,3.38-2.44,4.08a143.1,143.1,0,0,0-18.71,9.18C757.44,168.52,755.27,168.3,754.42,166.86Z"/><path class="cls-5" d="M744.31,159.35c-.87-1.41,0-3.55,2-4.69l1.43-.84c1.95-1.17,4.27-.87,5.07.57s-.14,3.48-2,4.62l-1.39.83C747.43,161,745.18,160.77,744.31,159.35Z"/><path class="cls-5" d="M788.1,155.89c-.45-1.56.8-3.26,2.78-3.78l1.43-.38c2-.41,3.89.55,4.19,2.13a3.35,3.35,0,0,1-2.88,3.6l-1.35.37A3.32,3.32,0,0,1,788.1,155.89Z"/><path class="cls-5" d="M778.18,142.9c-.52-1.54.87-3.37,3.09-4.06a131.56,131.56,0,0,1,20.65-4.23c1.74-.2,3.49-.33,5.23-.49.88-.07,1.75-.16,2.62-.22l2.62-.09c1.75-.05,3.49-.15,5.24-.16l5.22.08c2.31,0,4.12,1.46,4,3s-2,2.72-4.16,2.73l-5-.06c-1.67,0-3.35.11-5,.17l-2.51.1c-.84,0-1.67.14-2.51.21-1.67.17-3.34.29-5,.48A125.52,125.52,0,0,0,783,144.5C780.86,145.16,778.71,144.44,778.18,142.9Z"/><path class="cls-5" d="M854.09,129.66c.33-1.55,2.57-2.27,5-1.65a156.76,156.76,0,0,1,35,13.73,5.33,5.33,0,0,1,2.35,2.21,2.46,2.46,0,0,1,.17,2.36h0a2.44,2.44,0,0,1-2.05,1.08,6.41,6.41,0,0,1-3.06-.74,151.79,151.79,0,0,0-33.78-13.15C855.39,132.92,853.77,131.17,854.09,129.66Z"/><path class="cls-5" d="M950.4,212.45c.88-1.15,3.06-1,4.92.36,1.57,1.12,3.11,2.29,4.72,3.38l4.83,3.26c3.31,2.07,6.6,4.17,10.07,6a5.87,5.87,0,0,1,2.23,2.12,2.2,2.2,0,0,1,.28,2.18,2.28,2.28,0,0,1-2,1.05,6,6,0,0,1-3.05-.81c-3.6-1.92-7-4.07-10.41-6.2l-5-3.33c-1.65-1.11-3.22-2.29-4.83-3.43C950.28,215.71,949.52,213.61,950.4,212.45Z"/><path class="cls-5" d="M952.74,201.37c.91-1.14,3.06-1,4.8.36l1.26,1c1.73,1.34,2.49,3.32,1.64,4.5s-3,1.07-4.82-.28l-1.29-1C952.56,204.57,951.84,202.52,952.74,201.37Z"/><path class="cls-5" d="M983.3,236.37c.59-1.29,2.87-1.59,5.06-.66.54.22,1.06.47,1.62.65,2.25.8,3.72,2.55,3.27,3.88s-2.77,1.75-5.14.91c-.58-.19-1.12-.45-1.68-.67C984.12,239.51,982.72,237.66,983.3,236.37Z"/><path class="cls-5" d="M983.5,221.6c.64-1.27,2.74-1.52,4.65-.55,3,1.25,5.92,2.69,9,3.7l2.29.83c.76.28,1.52.57,2.3.78l4.67,1.36,1.16.34,1.19.26,2.37.52,2.38.52,1.18.26,1.21.18,4.81.71,1.2.18,1.22.11,2.43.19c2.13.17,3.82,1.44,3.77,2.82s-1.94,2.37-4.18,2.2l-2.53-.2-1.27-.1-1.26-.19-5-.73-1.26-.18-1.24-.27-2.49-.54-2.49-.53-1.24-.27-1.23-.36-4.89-1.41c-.82-.21-1.62-.51-2.42-.8l-2.39-.86c-3.23-1.06-6.29-2.54-9.43-3.84C984,224.73,982.85,222.87,983.5,221.6Z"/><path class="cls-5" d="M1052.41,223.49c-.19-1.34,1.27-2.64,3.22-3a122.09,122.09,0,0,0,29.28-8.92c1.85-.83,3.84-.57,4.42.62h0c.59,1.18-.5,2.89-2.42,3.77a127.69,127.69,0,0,1-30.41,9.38C1054.45,225.72,1052.6,224.84,1052.41,223.49Z"/><path class="cls-5" d="M1164.44,180.14c-.8-1-.06-2.91,1.64-4.32,5.78-4.76,11.6-9.43,17.62-13.61,1.78-1.22,3.79-1.35,4.46-.32s-.22,2.81-1.93,4c-5.84,4.08-11.55,8.69-17.27,13.44C1167.27,180.73,1165.24,181.1,1164.44,180.14Z"/><path class="cls-5" d="M1155.09,176.5c-.8-1-.06-2.91,1.67-4.34l1.25-1c1.73-1.43,3.79-1.8,4.58-.84s0,2.91-1.68,4.33l-1.25,1C1158,177.08,1155.9,177.46,1155.09,176.5Z"/><path class="cls-5" d="M1195.63,160.77c-.6-1.06.38-2.75,2.19-3.67l1.32-.65c1.82-.86,3.68-.58,4.12.56s-.56,2.61-2.24,3.42l-1.23.61C1198.1,161.91,1196.23,161.82,1195.63,160.77Z"/><path class="cls-5" d="M1184.87,153.8c-.66-1,.41-2.87,2.4-4a73.37,73.37,0,0,1,19.65-8.17,47.93,47.93,0,0,1,21.74-.24c2.38.52,3.94,2.09,3.58,3.18s-2.37,1.46-4.5,1a43.75,43.75,0,0,0-19.81.29,69.38,69.38,0,0,0-18.43,7.75C1187.59,154.71,1185.52,154.83,1184.87,153.8Z"/><path class="cls-5" d="M1259.31,152.51c.84-.83,3,.09,4.71,2.08a93.39,93.39,0,0,1,10.77,16,143.32,143.32,0,0,1,7.64,16.73c.86,2.21.65,4.33-.4,4.72s-2.54-1.06-3.39-3.21a140.14,140.14,0,0,0-7.47-16.25,89,89,0,0,0-10.33-15.3C1259.23,155.46,1258.51,153.31,1259.31,152.51Z"/><path class="cls-5" d="M1290.79,275.09c1-.33,2.39,1.15,3.16,3.28a138.7,138.7,0,0,0,9.52,21.3,7.85,7.85,0,0,1,1,2.86c.13.83,0,1.49-.43,1.76s-1.09.1-1.81-.4a8.09,8.09,0,0,1-2-2.4,143.57,143.57,0,0,1-9.84-21.84C1289.59,277.47,1289.8,275.42,1290.79,275.09Z"/><path class="cls-5" d="M1296.25,268.14c1-.31,2.37,1.15,3,3.24l.51,1.51c.69,2.08.51,4.05-.47,4.41s-2.41-1.07-3.13-3.18l-.52-1.54C1295,270.46,1295.25,268.46,1296.25,268.14Z"/><path class="cls-5" d="M1306.92,312.49c.39-.31,1.09-.2,1.87.21a10.94,10.94,0,0,1,2.53,2.05l1.25,1.32a9.64,9.64,0,0,1,2,2.63c.42.79.54,1.48.21,1.86s-1,.38-1.94.05a9.58,9.58,0,0,1-2.87-2l-1.33-1.39a8,8,0,0,1-1.83-2.88C1306.5,313.5,1306.52,312.81,1306.92,312.49Z"/><path class="cls-5" d="M1311,301.82c.86-.56,2.51.45,3.76,2.14a43.24,43.24,0,0,0,13.9,12.56,35,35,0,0,0,17.85,4.31,8.19,8.19,0,0,1,2.67.33c.72.26,1.21.61,1.28,1.1s-.3,1-1,1.38a6,6,0,0,1-2.82.74,38.7,38.7,0,0,1-19.71-4.68,46.92,46.92,0,0,1-15.12-13.53C1310.45,304.36,1310.15,302.36,1311,301.82Z"/><path class="cls-5" d="M1369.11,307.56c-.52-.8.44-2.33,2.12-3.51,8.59-6,16.89-13.46,25.33-21,1.66-1.48,3.52-2.14,4.14-1.47s-.24,2.45-1.9,3.94c-8.42,7.54-16.75,15.07-25.57,21.31C1371.49,308.09,1369.62,308.35,1369.11,307.56Z"/><path class="cls-5" d="M1473.36,244.33c-.34-.77,1-2.13,3-3,3.4-1.43,6.87-2.72,10.37-3.89s7-2.21,10.65-3c2.11-.55,4-.21,4.16.57s-1.42,1.78-3.47,2.32c-3.52.83-7,1.9-10.41,3s-6.8,2.43-10.13,3.85C1475.58,245,1473.71,245.1,1473.36,244.33Z"/><path class="cls-5" d="M1466.5,241c-.38-.77,1-2.17,3.06-3.12.5-.24,1-.45,1.51-.67,2.07-.92,4-1,4.37-.19s-1.11,2.08-3.13,3c-.5.22-1,.42-1.48.65C1468.82,241.6,1466.87,241.74,1466.5,241Z"/><path class="cls-5" d="M1509,235.58c-.13-.79,1.5-1.75,3.64-2l1.55-.19c2.13-.29,4,.26,4,1s-1.61,1.57-3.69,1.86l-1.51.19C1511,236.73,1509.16,236.39,1509,235.58Z"/><path class="cls-5" d="M1502,229c-.16-.81,1.54-1.78,3.78-2.17a146.69,146.69,0,0,1,20.5-1.88,127.72,127.72,0,0,1,20.58,1.21c2.26.29,4,1.26,3.84,2s-2,1-4.23.76a124.25,124.25,0,0,0-20.13-1.11,143.92,143.92,0,0,0-20.08,1.9C1504.05,230.16,1502.13,229.83,1502,229Z"/><path class="cls-5" d="M1576.47,230c.25-.71,2.21-.64,4.35.17,10.82,4.13,20.91,8.59,31,10.55,2,.35,3.52,1.19,3.44,1.86s-1.84,1.05-3.91.7c-10.47-2-20.7-6.51-31.45-10.57C1577.76,231.9,1576.22,230.68,1576.47,230Z"/><path class="cls-5" d="M1682.67,211.58c-.56-.29-.21-2.19.72-4.24a214.74,214.74,0,0,0,8.22-21.4c.7-2.13,1.74-3.72,2.32-3.54s.49,2.1-.2,4.25a216.48,216.48,0,0,1-8.24,21.65C1684.54,210.4,1683.25,211.87,1682.67,211.58Z"/><path class="cls-5" d="M1676.42,213.86c-.58-.32-.14-2.12.83-4.08l.72-1.42c1-2,2.18-3.39,2.76-3.13s.29,2.13-.68,4.14l-.72,1.46C1678.34,212.83,1677,214.17,1676.42,213.86Z"/><path class="cls-5" d="M1697.57,175.55c-.58-.17-.53-2.07.1-4.22l.46-1.56c.63-2.15,1.59-3.77,2.16-3.6s.55,2.06-.07,4.22l-.45,1.56C1699.14,174.11,1698.15,175.73,1697.57,175.55Z"/><path class="cls-5" d="M1690.33,179.54c-.58-.18-.49-2.06.16-4.18,4-12.84,7.56-25.87,11.65-38.78.69-2.13,1.69-3.73,2.23-3.55s.42,2.05-.25,4.17c-4,12.87-7.54,25.91-11.52,38.81C1692,178.14,1690.91,179.73,1690.33,179.54Z"/><path class="cls-5" d="M1709.77,108.22c-.51-.22-.12-2.11.87-4.19a120.45,120.45,0,0,1,8.88-15.41,81.16,81.16,0,0,1,11.83-13.76,15.86,15.86,0,0,1,2.51-1.82c.72-.38,1.26-.49,1.42-.29s-.09.66-.57,1.29a15.32,15.32,0,0,1-2.1,2.19,78.74,78.74,0,0,0-11.51,13.46,119.26,119.26,0,0,0-8.68,15.18C1711.45,106.93,1710.25,108.44,1709.77,108.22Z"/></g></g></svg>