<svg xmlns="http://www.w3.org/2000/svg" viewBox="0 0 230.08 243.91"><defs><style>.cls-1{fill:#0f667d;}.cls-1,.cls-10,.cls-11,.cls-12,.cls-13,.cls-14,.cls-15,.cls-16,.cls-27,.cls-28,.cls-29,.cls-30,.cls-31,.cls-32,.cls-35,.cls-36,.cls-4,.cls-45,.cls-7,.cls-8,.cls-9{fill-rule:evenodd;}.cls-2,.cls-45{fill:#fff;}.cls-3,.cls-4{fill:#005e42;}.cls-13,.cls-5{fill:#cc9b45;}.cls-6{fill:#66400a;}.cls-7{fill:#4a9c49;}.cls-46,.cls-8{fill:#50a63f;}.cls-9{fill:#51ab50;}.cls-10{fill:#55bf44;}.cls-11,.cls-42{fill:#71ad3b;}.cls-12{fill:#80c342;}.cls-14{fill:#735921;}.cls-15{fill:#006e4d;}.cls-16{fill:#007a55;}.cls-17{fill:#9c7725;}.cls-18{fill:#82641c;}.cls-19,.cls-31{fill:#6b370d;}.cls-20,.cls-28{fill:#ab652b;}.cls-21,.cls-27{fill:#8c4b17;}.cls-22{fill:#f5f2d7;}.cls-23,.cls-32{fill:#dedab6;}.cls-24{fill:#c4c099;}.cls-25{fill:#9cc;}.cls-26{fill:#699;}.cls-29{fill:#ba1f00;}.cls-30{fill:#9e1e05;}.cls-33{fill:#9e9a79;}.cls-34{fill:#c47e44;}.cls-35{fill:#093;}.cls-36{fill:#063;}.cls-37{fill:#008a5e;}.cls-38{fill:#e6be79;}.cls-39{fill:#5b3e19;}.cls-40{fill:#916d40;}.cls-41{fill:#a37b48;}.cls-43{fill:#e5e5e5;}.cls-44{fill:#b2b2b2;}</style></defs><title>Village_empty_WM</title><g id="Layer_2" data-name="Layer 2"><g id="Layer_1-2" data-name="Layer 1"><g id="Layer_1-2-2" data-name="Layer 1-2"><path class="cls-1" d="M230.08,123.81v18a8.34,8.34,0,0,1-8.32,8.32H154l.72-34.64h67a8.32,8.32,0,0,1,8.36,8.28Z"/><path class="cls-2" d="M207.28,137.49a27.72,27.72,0,0,1-10.44-2.1,1.47,1.47,0,0,0-.53.76c-.68,2.38,5.07,7.84,11.14,8s12.18-5.36,11.55-7.66a1.91,1.91,0,0,0-1.1-1.11A27.42,27.42,0,0,1,207.28,137.49Z"/><path class="cls-2" d="M214.85,124.64c-5.35-2.87-5.33-3.75-7.26-3.82s-2.05.67-8.32,4.17c-3.94,2.17-6.27,3.23-6.12,4.4s2.14,1.16,2.69,3.07a11.22,11.22,0,0,1,.27,1.83c.09.85.12,1.56.14,2.06a1.14,1.14,0,0,1,1-.76,3.05,3.05,0,0,0-.06-.6c0-.33-.06-.65-.08-1a57.45,57.45,0,0,0,20.7,0,5.89,5.89,0,0,1-.11.8c0,.28-.08.43-.12.63a2.35,2.35,0,0,1,.72.24,2.15,2.15,0,0,1,.6.48A5.88,5.88,0,0,1,219,132c.92-1.83,2.56-1.94,2.62-3C221.73,127.72,219.23,127,214.85,124.64Zm-5.47,5.27a4.84,4.84,0,0,1-.7,1.39,1.77,1.77,0,0,1-1.22.65,1.86,1.86,0,0,1-1.37-.84c-.31-.4-.22-.55-.62-1.39s-.62-.91-.64-1.23a2.59,2.59,0,0,1,2.56-2c1.36,0,2.71,1,2.74,1.87C210.14,128.68,209.93,128.67,209.38,129.91Z"/></g><rect class="cls-3" x="23" y="37.57" width="3.13" height="5.48" rx="1.57"/><path class="cls-4" d="M173,8.41v8.18a1.28,1.28,0,0,1-1.29,1.27h-2.42a1.27,1.27,0,0,1-1.26-1,1,1,0,0,1,0-.25V8.41a1.28,1.28,0,0,1,1.29-1.27h2.42a1.33,1.33,0,0,1,.6.14A1.28,1.28,0,0,1,173,8.41Z"/><path class="cls-5" d="M182,82.39V102H0V82.39A10.37,10.37,0,0,1,10.39,72H171.61A10.37,10.37,0,0,1,182,82.39Z"/><rect class="cls-6" x="160" y="36" width="5" height="25" rx="1.84"/><path class="cls-7" d="M131.22,72H40.42A57.7,57.7,0,0,1,54.61,49a50.27,50.27,0,0,1,4.21-3.67,43.72,43.72,0,0,1,27-9.54A42.48,42.48,0,0,1,102,39a46.48,46.48,0,0,1,13.51,8.58A57.14,57.14,0,0,1,131.22,72Z"/><path class="cls-8" d="M82.65,72H10A52,52,0,0,1,22.11,50.06C28.73,43.14,37.16,39,46.33,39c9.92,0,19,4.85,25.81,12.82A53,53,0,0,1,82.65,72Z"/><path class="cls-9" d="M102,39C98,46,88.53,51,77.5,51a31.78,31.78,0,0,1-18.68-5.67,43.72,43.72,0,0,1,27-9.54A42.48,42.48,0,0,1,102,39Z"/><path class="cls-10" d="M82.65,72h-28C37.76,68.47,25.12,60.17,22.11,50.06,28.73,43.14,37.16,39,46.33,39c9.92,0,19,4.85,25.81,12.82A53,53,0,0,1,82.65,72Z"/><path class="cls-11" d="M170,72H71A53.73,53.73,0,0,1,85.19,47.57a50,50,0,0,1,61-7.43A53.26,53.26,0,0,1,170,72Z"/><path class="cls-12" d="M146.81,45c0,11-9.19,20.79-23.43,27H71A53.73,53.73,0,0,1,85.19,47.57a50,50,0,0,1,61-7.43A19.38,19.38,0,0,1,146.81,45Z"/><path class="cls-13" d="M181.74,102.13H.24L13.62,228.28a15.55,15.55,0,0,0,15.56,15.57l123.46.06a15.58,15.58,0,0,0,15.58-15.57Q175,165.24,181.74,102.13Z"/><path class="cls-14" d="M171.86,110.2q-2.34,20.52-4.66,41-4,35.52-8.08,71a14.19,14.19,0,0,1-14.25,14.12L37,236.36a14.18,14.18,0,0,1-14.24-14.13L15.18,151Q13,130.34,10.82,109.73a7,7,0,0,1,7-7.71l147.18.42A7,7,0,0,1,171.86,110.2Z"/><path class="cls-15" d="M171,4.38V32.62A4.38,4.38,0,0,1,166.62,37h-8.24a4.38,4.38,0,0,1-4.29-3.51,4.14,4.14,0,0,1-.09-.87V4.38A4.38,4.38,0,0,1,158.38,0h8.24a4.43,4.43,0,0,1,2,.49A4.39,4.39,0,0,1,171,4.38Z"/><path class="cls-16" d="M169,7c0,14.91-5.6,27-12.5,27a6,6,0,0,1-2.41-.51,4.14,4.14,0,0,1-.09-.87V4.38A4.38,4.38,0,0,1,158.38,0h8.24a4.43,4.43,0,0,1,2,.49A59.3,59.3,0,0,1,169,7Z"/><polygon class="cls-17" points="13 81 5 81 9 77 13 81"/><polygon class="cls-18" points="13 81 9 85 5 81 13 81"/><polygon class="cls-17" points="162 237 154 237 158 233 162 237"/><polygon class="cls-18" points="162 237 158 241 154 237 162 237"/><polygon class="cls-17" points="11 98 3 98 7 94 11 98"/><polygon class="cls-18" points="11 98 7 102 3 98 11 98"/><polygon class="cls-17" points="164 95 160 95 162 93 164 95"/><polygon class="cls-18" points="164 95 162 97 160 95 164 95"/><rect class="cls-19" x="97.25" y="35.01" width="2.95" height="7.12"/><rect class="cls-19" x="99.89" y="35.01" width="0.93" height="7.12"/><rect class="cls-20" x="130.26" y="35.01" width="2.95" height="7.12"/><rect class="cls-21" x="132.9" y="35.01" width="0.93" height="7.12"/><rect class="cls-20" x="113.1" y="21.32" width="24.17" height="1.85" transform="translate(5.65 65.57) rotate(-30)"/><rect class="cls-20" x="137.14" y="10.16" width="1.85" height="24.17" transform="translate(49.77 130.7) rotate(-60)"/><rect class="cls-22" x="98.21" y="27.4" width="19.13" height="14.73"/><rect class="cls-23" x="117.34" y="27.4" width="24.05" height="14.73"/><rect class="cls-21" x="97.41" y="26.74" width="2.63" height="15.4"/><rect class="cls-23" x="100.04" y="27.4" width="1" height="14.73"/><rect class="cls-20" x="97.41" y="26.74" width="2.04" height="15.4"/><rect class="cls-21" x="114.71" y="26.74" width="2.63" height="15.4"/><rect class="cls-24" x="117.34" y="27.4" width="1.71" height="14.73"/><rect class="cls-20" x="114.71" y="26.74" width="2.04" height="15.4"/><rect class="cls-21" x="139.35" y="26.74" width="2.04" height="15.4"/><rect class="cls-20" x="140.04" y="26.74" width="1.35" height="15.4"/><rect class="cls-20" x="102.46" y="30.84" width="8.93" height="1.6"/><rect class="cls-21" x="102.46" y="32.01" width="8.93" height="0.44"/><rect class="cls-21" x="111.39" y="30.84" width="0.8" height="1.6"/><rect class="cls-20" x="102.46" y="36.6" width="8.93" height="1.6"/><rect class="cls-21" x="102.46" y="37.76" width="8.93" height="0.44"/><rect class="cls-21" x="111.39" y="36.6" width="0.8" height="1.6"/><rect class="cls-24" x="102.46" y="32.45" width="9.73" height="0.55"/><rect class="cls-25" x="104.09" y="32.99" width="6" height="3.6"/><rect class="cls-26" x="104.09" y="32.45" width="6" height="0.55"/><rect class="cls-20" x="103.58" y="32.45" width="0.94" height="4.15"/><rect class="cls-21" x="104.43" y="32.45" width="0.4" height="4.15"/><rect class="cls-20" x="109.62" y="32.45" width="0.94" height="4.15"/><rect class="cls-21" x="110.46" y="32.45" width="0.4" height="4.15"/><rect class="cls-20" x="124.65" y="30.84" width="8.93" height="1.6"/><rect class="cls-21" x="124.65" y="32.01" width="8.93" height="0.44"/><rect class="cls-21" x="123.85" y="30.84" width="0.8" height="1.6"/><rect class="cls-20" x="124.65" y="36.6" width="8.93" height="1.6"/><rect class="cls-21" x="124.65" y="37.76" width="8.93" height="0.44"/><rect class="cls-21" x="123.85" y="36.6" width="0.8" height="1.6"/><rect class="cls-24" x="123.85" y="32.45" width="9.73" height="0.55"/><rect class="cls-25" x="125.94" y="32.99" width="6" height="3.6"/><rect class="cls-26" x="125.94" y="32.45" width="6" height="0.55"/><rect class="cls-20" x="131.51" y="32.45" width="0.94" height="4.15"/><rect class="cls-21" x="131.21" y="32.45" width="0.4" height="4.15"/><rect class="cls-20" x="125.47" y="32.45" width="0.94" height="4.15"/><rect class="cls-21" x="125.17" y="32.45" width="0.4" height="4.15"/><rect class="cls-20" x="106.66" y="32.45" width="0.63" height="4.15"/><rect class="cls-21" x="107.29" y="32.45" width="0.22" height="4.15"/><rect class="cls-20" x="128.74" y="32.45" width="0.63" height="4.15"/><rect class="cls-21" x="128.52" y="32.45" width="0.22" height="4.15"/><rect class="cls-21" x="117.34" y="25.09" width="27.45" height="1.65"/><rect class="cls-24" x="117.34" y="26.74" width="22.01" height="1.3"/><polygon class="cls-27" points="130.35 29.77 129.59 29.77 129.59 28.89 128.08 28.89 128.08 29.77 127.32 29.77 127.32 30.84 128.08 30.84 129.59 30.84 130.35 30.84 130.35 29.77"/><polygon class="cls-28" points="130.79 29.77 130.03 29.77 130.03 28.89 128.52 28.89 128.52 29.77 127.76 29.77 127.76 30.84 128.52 30.84 130.03 30.84 130.79 30.84 130.79 29.77"/><rect class="cls-23" x="100.04" y="26.74" width="14.66" height="1.3"/><polygon class="cls-27" points="105.62 29.77 106.37 29.77 106.37 28.89 107.88 28.89 107.88 29.77 108.64 29.77 108.64 30.84 107.88 30.84 106.37 30.84 105.62 30.84 105.62 29.77"/><polygon class="cls-28" points="105.18 29.77 105.93 29.77 105.93 28.89 107.44 28.89 107.44 29.77 108.2 29.77 108.2 30.84 107.44 30.84 105.93 30.84 105.18 30.84 105.18 29.77"/><polygon class="cls-27" points="97.87 25.09 107.37 19.6 116.88 25.09 97.87 25.09"/><polygon class="cls-29" points="107.37 17.45 131.63 17.45 144.79 25.09 120.59 25.09 107.37 17.45"/><polygon class="cls-30" points="107.37 17.45 109.17 17.45 122.38 25.09 120.59 25.09 107.37 17.45"/><polygon class="cls-30" points="112.44 17.45 114.23 17.45 127.45 25.09 125.65 25.09 112.44 17.45"/><polygon class="cls-30" points="117.5 17.45 119.3 17.45 132.51 25.09 130.72 25.09 117.5 17.45"/><polygon class="cls-30" points="122.57 17.45 124.36 17.45 137.58 25.09 135.78 25.09 122.57 17.45"/><polygon class="cls-30" points="127.63 17.45 129.43 17.45 142.64 25.09 140.85 25.09 127.63 17.45"/><polygon class="cls-31" points="102.4 23.78 107.37 20.91 112.35 23.78 102.4 23.78"/><path class="cls-28" d="M119.9,26.41h1.26V42.13H119.9V26.41ZM94.52,25.09h22.82v1.65H95V42.13H93.75V26.41h.77Z"/><rect class="cls-19" x="94.69" y="27.25" width="0.32" height="14.89"/><path class="cls-31" d="M119.9,26.41h1.26v2l-1.26-.73V26.41ZM95.62,25.09l-1.1.63v.69h-.77v1.9L95,27.58v-.84h1.46l2.86-1.65Zm19.79,0,1.93,1.11V25.09Z"/><rect class="cls-20" x="143.53" y="26.74" width="1.26" height="15.4"/><polygon class="cls-32" points="121.83 13 126.46 13 126.46 20.56 124.67 20.56 121.83 18.92 121.83 13"/><rect class="cls-24" x="124.69" y="13" width="1.78" height="7.56"/><rect class="cls-23" x="121.21" y="11.97" width="3.48" height="2.11"/><rect class="cls-24" x="121.83" y="14.09" width="2.86" height="0.58"/><rect class="cls-24" x="124.69" y="11.97" width="2.27" height="2.11"/><rect class="cls-33" x="124.69" y="14.09" width="1.78" height="0.58"/><rect class="cls-24" x="134.46" y="32.77" width="2.8" height="1.75" rx="0.53"/><rect class="cls-24" x="133.54" y="34.85" width="1.99" height="1.24" rx="0.38"/><rect class="cls-24" x="136.05" y="34.79" width="1.99" height="1.24" rx="0.38"/><rect class="cls-24" x="134.81" y="36.33" width="1.99" height="1.24" rx="0.38"/><rect class="cls-24" x="127.52" y="38.38" width="2.8" height="1.75" rx="0.53"/><rect class="cls-24" x="130.56" y="38.36" width="1.99" height="1.24" rx="0.38"/><rect class="cls-24" x="125.18" y="38.44" width="1.99" height="1.24" rx="0.38"/><rect class="cls-24" x="121.59" y="33.63" width="1.99" height="1.24" rx="0.38"/><rect class="cls-24" x="122.75" y="35.06" width="1.99" height="1.24" rx="0.38"/><rect class="cls-23" x="109.04" y="38.65" width="1.99" height="1.24" rx="0.38"/><rect class="cls-23" x="101.71" y="38.6" width="1.99" height="1.24" rx="0.38"/><rect class="cls-23" x="101.32" y="34.12" width="1.36" height="0.85" rx="0.26"/><rect class="cls-23" x="103.42" y="29.78" width="1.36" height="0.85" rx="0.26"/><rect class="cls-23" x="101.92" y="35.07" width="1.36" height="0.85" rx="0.26"/><rect class="cls-23" x="111.41" y="34.28" width="1.74" height="1.09" rx="0.33"/><rect class="cls-24" x="112.43" y="35.51" width="1.29" height="0.81" rx="0.24"/><rect class="cls-24" x="110.86" y="32.45" width="0.53" height="4.15"/><rect class="cls-20" x="88.84" y="21.32" width="24.17" height="1.85" transform="translate(2.4 53.45) rotate(-30)"/><rect class="cls-20" x="112.89" y="10.16" width="1.85" height="24.17" transform="translate(37.64 109.69) rotate(-60)"/><rect class="cls-19" x="97.41" y="26.74" width="2.63" height="0.65"/><rect class="cls-19" x="114.71" y="26.74" width="2.63" height="0.65"/><rect class="cls-34" x="98.72" y="26.03" width="8.15" height="0.32"/><rect class="cls-34" x="104.76" y="25.47" width="8.15" height="0.32"/><rect class="cls-34" x="107.24" y="14.74" width="0.32" height="8.15" transform="translate(37.41 102.41) rotate(-60)"/><rect class="cls-34" x="115.44" y="18.81" width="0.32" height="8.15" transform="translate(37.98 111.55) rotate(-60)"/><rect class="cls-34" x="92.3" y="24.55" width="8.15" height="0.32" transform="translate(0.56 51.5) rotate(-30)"/><rect class="cls-34" x="115.41" y="28.12" width="0.42" height="9.1"/><rect class="cls-34" x="98.73" y="32.21" width="0.42" height="9.92"/><rect class="cls-19" x="120.74" y="27.77" width="0.42" height="14.36"/><rect class="cls-19" x="143.32" y="26.74" width="0.42" height="15.4"/><rect class="cls-19" x="143.32" y="26.74" width="1.47" height="0.46"/><rect class="cls-19" x="139.35" y="26.74" width="2.04" height="0.46"/><path class="cls-35" d="M141.62,42.13a1.92,1.92,0,0,1-.42-1.2,4.49,4.49,0,0,1,2-3.23v4.43Z"/><path class="cls-36" d="M144.68,42.13a1.91,1.91,0,0,0,.41-1.2,4.51,4.51,0,0,0-1.94-3.23v4.43Z"/><path class="cls-35" d="M119.6,42.13a2.33,2.33,0,0,1-.51-1.46,5.52,5.52,0,0,1,2.38-4v5.43Z"/><path class="cls-36" d="M123.34,42.13a2.33,2.33,0,0,0,.51-1.46,5.52,5.52,0,0,0-2.38-4v5.43Z"/><path class="cls-12" d="M92,43a54.28,54.28,0,0,1,25-1,106.8,106.8,0,0,1,23,0c2.43.26,4.77.6,7,1"/><polygon class="cls-17" points="175 154 171 154 173 152 175 154"/><polygon class="cls-18" points="175 154 173 156 171 154 175 154"/><polygon class="cls-17" points="15 163 11 163 13 161 15 163"/><polygon class="cls-18" points="15 163 13 165 11 163 15 163"/><polygon class="cls-17" points="62 240 58 240 60 238 62 240"/><polygon class="cls-18" points="62 240 60 242 58 240 62 240"/><polygon class="cls-17" points="20 96 16 96 18 94 20 96"/><polygon class="cls-18" points="20 96 18 98 16 96 20 96"/><rect class="cls-37" x="150" y="12" width="8" height="14" rx="2.71"/><rect class="cls-6" x="19.91" y="43.96" width="1.96" height="9.78" rx="0.98"/><path class="cls-15" d="M24.22,31.58V42.63a1.72,1.72,0,0,1-1.72,1.72H19.28A1.72,1.72,0,0,1,17.6,43a1.87,1.87,0,0,1,0-.34V31.58a1.71,1.71,0,0,1,1.71-1.71H22.5a1.71,1.71,0,0,1,1.72,1.71Z"/><path class="cls-16" d="M23.43,32.61c0,5.83-2.19,10.56-4.89,10.56a2.24,2.24,0,0,1-.94-.2,1.87,1.87,0,0,1,0-.34V31.58a1.71,1.71,0,0,1,1.71-1.71H22.5a1.71,1.71,0,0,1,.79.19A23.35,23.35,0,0,1,23.43,32.61Z"/><path class="cls-38" d="M180.5,77H1.5a10.39,10.39,0,0,1,8.89-5H171.61A10.39,10.39,0,0,1,180.5,77Z"/><polygon class="cls-17" points="177 79 169 79 173 75 177 79"/><polygon class="cls-18" points="177 79 173 83 169 79 177 79"/><path class="cls-39" d="M12.13,56.83h4.09a1.44,1.44,0,0,1,1.44,1.44V73.09a0,0,0,0,1,0,0h-7a0,0,0,0,1,0,0V58.27A1.44,1.44,0,0,1,12.13,56.83Z"/><rect class="cls-40" x="15.33" y="61.48" width="48.78" height="3.55" transform="translate(79.44 126.5) rotate(180)"/><rect class="cls-41" x="15.33" y="60.19" width="48.78" height="3.23" transform="translate(79.44 123.6) rotate(180)"/><rect class="cls-40" x="15.33" y="67.93" width="48.78" height="3.55" transform="translate(79.44 139.41) rotate(180)"/><rect class="cls-41" x="15.33" y="66.64" width="48.78" height="3.23" transform="translate(79.44 136.5) rotate(180)"/><path class="cls-40" d="M12.13,56.83H13a0,0,0,0,1,0,0V73.09a0,0,0,0,1,0,0H10.69a0,0,0,0,1,0,0V58.27A1.44,1.44,0,0,1,12.13,56.83Z"/><path class="cls-39" d="M63.23,56.83h4.09a1.44,1.44,0,0,1,1.44,1.44V73.09a0,0,0,0,1,0,0h-7a0,0,0,0,1,0,0V58.27A1.44,1.44,0,0,1,63.23,56.83Z"/><path class="cls-40" d="M63.23,56.83h.88a0,0,0,0,1,0,0V73.09a0,0,0,0,1,0,0H61.79a0,0,0,0,1,0,0V58.27A1.44,1.44,0,0,1,63.23,56.83Z"/><path class="cls-39" d="M63.75,56.83h4.09a1.44,1.44,0,0,1,1.44,1.44V73.09a0,0,0,0,1,0,0h-7a0,0,0,0,1,0,0V58.27A1.44,1.44,0,0,1,63.75,56.83Z"/><rect class="cls-40" x="66.95" y="61.48" width="48.78" height="3.55" transform="translate(182.69 126.5) rotate(180)"/><rect class="cls-41" x="66.95" y="60.19" width="48.78" height="3.23" transform="translate(182.69 123.6) rotate(180)"/><rect class="cls-40" x="66.95" y="67.93" width="48.78" height="3.55" transform="translate(182.69 139.41) rotate(180)"/><rect class="cls-41" x="66.95" y="66.64" width="48.78" height="3.23" transform="translate(182.69 136.5) rotate(180)"/><path class="cls-40" d="M63.75,56.83h.88a0,0,0,0,1,0,0V73.09a0,0,0,0,1,0,0H62.31a0,0,0,0,1,0,0V58.27A1.44,1.44,0,0,1,63.75,56.83Z"/><path class="cls-39" d="M114.85,56.83h4.09a1.44,1.44,0,0,1,1.44,1.44V73.09a0,0,0,0,1,0,0h-7a0,0,0,0,1,0,0V58.27A1.44,1.44,0,0,1,114.85,56.83Z"/><path class="cls-40" d="M114.85,56.83h.88a0,0,0,0,1,0,0V73.09a0,0,0,0,1,0,0h-2.32a0,0,0,0,1,0,0V58.27A1.44,1.44,0,0,1,114.85,56.83Z"/><path class="cls-39" d="M115.37,56.83h4.09a1.44,1.44,0,0,1,1.44,1.44V73.09a0,0,0,0,1,0,0h-7a0,0,0,0,1,0,0V58.27A1.44,1.44,0,0,1,115.37,56.83Z"/><rect class="cls-40" x="118.57" y="61.48" width="48.78" height="3.55" transform="translate(285.93 126.5) rotate(180)"/><rect class="cls-41" x="118.57" y="60.19" width="48.78" height="3.23" transform="translate(285.93 123.6) rotate(180)"/><rect class="cls-40" x="118.57" y="67.93" width="48.78" height="3.55" transform="translate(285.93 139.41) rotate(180)"/><rect class="cls-41" x="118.57" y="66.64" width="48.78" height="3.23" transform="translate(285.93 136.5) rotate(180)"/><path class="cls-40" d="M115.37,56.83h.88a0,0,0,0,1,0,0V73.09a0,0,0,0,1,0,0h-2.32a0,0,0,0,1,0,0V58.27A1.44,1.44,0,0,1,115.37,56.83Z"/><path class="cls-39" d="M166.47,56.83h4.09A1.44,1.44,0,0,1,172,58.27V73.09a0,0,0,0,1,0,0h-7a0,0,0,0,1,0,0V58.27A1.44,1.44,0,0,1,166.47,56.83Z"/><path class="cls-40" d="M166.47,56.83h.88a0,0,0,0,1,0,0V73.09a0,0,0,0,1,0,0H165a0,0,0,0,1,0,0V58.27A1.44,1.44,0,0,1,166.47,56.83Z"/><rect class="cls-37" x="16" y="32" width="3" height="5" rx="1.5"/><rect class="cls-3" x="58.84" y="28.56" width="2.16" height="3.79" rx="1.08"/><rect class="cls-3" x="58.84" y="33.37" width="2.16" height="2.16" rx="1.08"/><rect class="cls-6" x="56.7" y="36.98" width="1.35" height="6.76" rx="0.68"/><path class="cls-15" d="M59.68,28.43v7.64a1.18,1.18,0,0,1-1.19,1.18H56.27a1.17,1.17,0,0,1-1.16-1,.85.85,0,0,1,0-.23V28.43a1.18,1.18,0,0,1,1.19-1.18h2.22a1.12,1.12,0,0,1,.55.13A1.18,1.18,0,0,1,59.68,28.43Z"/><path class="cls-16" d="M59.14,29.14c0,4-1.52,7.3-3.38,7.3a1.65,1.65,0,0,1-.65-.14.85.85,0,0,1,0-.23V28.43a1.18,1.18,0,0,1,1.19-1.18h2.22a1.12,1.12,0,0,1,.55.13A16.52,16.52,0,0,1,59.14,29.14Z"/><rect class="cls-37" x="54" y="31.72" width="2.07" height="3.45" rx="1.04"/><ellipse class="cls-42" cx="102.27" cy="54.93" rx="6.28" ry="0.95"/><rect class="cls-19" x="52.33" y="40.27" width="1.35" height="3.26"/><rect class="cls-19" x="52.05" y="40.27" width="0.43" height="3.26"/><rect class="cls-20" x="37.23" y="40.27" width="1.35" height="3.26"/><rect class="cls-21" x="36.94" y="40.27" width="0.43" height="3.26"/><rect class="cls-20" x="40.48" y="28.9" width="0.85" height="11.06" transform="translate(-9.37 52.64) rotate(-60)"/><rect class="cls-20" x="29.47" y="34.01" width="11.06" height="0.85" transform="translate(-12.53 22.11) rotate(-30)"/><rect class="cls-22" x="44.49" y="36.79" width="8.75" height="6.74"/><rect class="cls-23" x="33.48" y="36.79" width="11.01" height="6.74"/><rect class="cls-21" x="52.4" y="36.49" width="1.2" height="7.05"/><rect class="cls-23" x="51.95" y="36.79" width="0.46" height="6.74"/><rect class="cls-20" x="52.67" y="36.49" width="0.93" height="7.05"/><rect class="cls-21" x="44.49" y="36.49" width="1.2" height="7.05"/><rect class="cls-24" x="43.7" y="36.79" width="0.78" height="6.74"/><rect class="cls-20" x="44.76" y="36.49" width="0.93" height="7.05"/><rect class="cls-21" x="33.48" y="36.49" width="0.93" height="7.05"/><rect class="cls-20" x="33.48" y="36.49" width="0.62" height="7.05"/><rect class="cls-20" x="47.21" y="38.37" width="4.09" height="0.73"/><rect class="cls-21" x="47.21" y="38.9" width="4.09" height="0.2"/><rect class="cls-21" x="46.85" y="38.37" width="0.37" height="0.73"/><rect class="cls-20" x="47.21" y="41" width="4.09" height="0.73"/><rect class="cls-21" x="47.21" y="41.53" width="4.09" height="0.2"/><rect class="cls-21" x="46.85" y="41" width="0.37" height="0.73"/><rect class="cls-24" x="46.85" y="39.1" width="4.45" height="0.25"/><rect class="cls-25" x="47.8" y="39.35" width="2.75" height="1.65"/><rect class="cls-26" x="47.8" y="39.1" width="2.75" height="0.25"/><rect class="cls-20" x="50.35" y="39.1" width="0.43" height="1.9"/><rect class="cls-21" x="50.21" y="39.1" width="0.18" height="1.9"/><rect class="cls-20" x="47.59" y="39.1" width="0.43" height="1.9"/><rect class="cls-21" x="47.45" y="39.1" width="0.18" height="1.9"/><rect class="cls-20" x="37.06" y="38.37" width="4.09" height="0.73"/><rect class="cls-21" x="37.06" y="38.9" width="4.09" height="0.2"/><rect class="cls-21" x="41.14" y="38.37" width="0.37" height="0.73"/><rect class="cls-20" x="37.06" y="41" width="4.09" height="0.73"/><rect class="cls-21" x="37.06" y="41.53" width="4.09" height="0.2"/><rect class="cls-21" x="41.14" y="41" width="0.37" height="0.73"/><rect class="cls-24" x="37.06" y="39.1" width="4.45" height="0.25"/><rect class="cls-25" x="37.81" y="39.35" width="2.75" height="1.65"/><rect class="cls-26" x="37.81" y="39.1" width="2.75" height="0.25"/><rect class="cls-20" x="37.57" y="39.1" width="0.43" height="1.9"/><rect class="cls-21" x="37.96" y="39.1" width="0.18" height="1.9"/><rect class="cls-20" x="40.33" y="39.1" width="0.43" height="1.9"/><rect class="cls-21" x="40.72" y="39.1" width="0.18" height="1.9"/><rect class="cls-20" x="49.09" y="39.1" width="0.29" height="1.9"/><rect class="cls-21" x="48.99" y="39.1" width="0.1" height="1.9"/><rect class="cls-20" x="38.98" y="39.1" width="0.29" height="1.9"/><rect class="cls-21" x="39.27" y="39.1" width="0.1" height="1.9"/><rect class="cls-21" x="31.93" y="35.73" width="12.56" height="0.76"/><rect class="cls-24" x="34.42" y="36.49" width="10.07" height="0.59"/><polygon class="cls-27" points="38.54 37.88 38.88 37.88 38.88 37.47 39.57 37.47 39.57 37.88 39.92 37.88 39.92 38.37 39.57 38.37 38.88 38.37 38.54 38.37 38.54 37.88"/><polygon class="cls-28" points="38.34 37.88 38.68 37.88 38.68 37.47 39.37 37.47 39.37 37.88 39.72 37.88 39.72 38.37 39.37 38.37 38.68 38.37 38.34 38.37 38.34 37.88"/><rect class="cls-23" x="45.69" y="36.49" width="6.71" height="0.59"/><polygon class="cls-27" points="49.85 37.88 49.51 37.88 49.51 37.47 48.82 37.47 48.82 37.88 48.47 37.88 48.47 38.37 48.82 38.37 49.51 38.37 49.85 38.37 49.85 37.88"/><polygon class="cls-28" points="50.05 37.88 49.71 37.88 49.71 37.47 49.02 37.47 49.02 37.88 48.67 37.88 48.67 38.37 49.02 38.37 49.71 38.37 50.05 38.37 50.05 37.88"/><polygon class="cls-27" points="53.4 35.73 49.05 33.22 44.7 35.73 53.4 35.73"/><polygon class="cls-29" points="49.05 32.24 37.95 32.24 31.93 35.73 43 35.73 49.05 32.24"/><polygon class="cls-30" points="49.05 32.24 48.23 32.24 42.18 35.73 43 35.73 49.05 32.24"/><polygon class="cls-30" points="46.73 32.24 45.91 32.24 39.86 35.73 40.68 35.73 46.73 32.24"/><polygon class="cls-30" points="44.41 32.24 43.59 32.24 37.55 35.73 38.37 35.73 44.41 32.24"/><polygon class="cls-30" points="42.1 32.24 41.27 32.24 35.23 35.73 36.05 35.73 42.1 32.24"/><polygon class="cls-30" points="39.78 32.24 38.96 32.24 32.91 35.73 33.73 35.73 39.78 32.24"/><polygon class="cls-31" points="51.33 35.13 49.05 33.82 46.77 35.13 51.33 35.13"/><path class="cls-28" d="M43.31,36.34v7.19h-.57V36.34Zm11.62,0h.36v7.19h-.58v-7H44.49v-.76H54.93Z"/><rect class="cls-19" x="54.71" y="36.72" width="0.15" height="6.81"/><path class="cls-31" d="M43.31,36.34v.58l-.57.33v-.91Zm11.12-.61h-1.7l1.31.76h.67v.38l.58.34v-.87h-.36V36l-.5-.29Zm-9.94,0v.51l.88-.51Z"/><rect class="cls-20" x="31.93" y="36.49" width="0.58" height="7.05"/><polygon class="cls-32" points="42.43 30.2 40.31 30.2 40.31 33.66 41.13 33.66 42.43 32.91 42.43 30.2"/><rect class="cls-24" x="40.31" y="30.2" width="0.81" height="3.46"/><rect class="cls-23" x="41.13" y="29.73" width="1.59" height="0.97"/><rect class="cls-24" x="41.13" y="30.7" width="1.31" height="0.27"/><rect class="cls-24" x="40.09" y="29.73" width="1.04" height="0.97"/><rect class="cls-33" x="40.31" y="30.7" width="0.81" height="0.27"/><rect class="cls-24" x="35.38" y="39.25" width="1.28" height="0.8" rx="0.24"/><rect class="cls-24" x="36.16" y="40.2" width="0.91" height="0.57" rx="0.17"/><rect class="cls-24" x="35.02" y="40.17" width="0.91" height="0.57" rx="0.17"/><rect class="cls-24" x="35.58" y="40.88" width="0.91" height="0.57" rx="0.17"/><rect class="cls-24" x="38.55" y="41.81" width="1.28" height="0.8" rx="0.24"/><rect class="cls-24" x="37.53" y="41.81" width="0.91" height="0.57" rx="0.17"/><rect class="cls-24" x="39.99" y="41.84" width="0.91" height="0.57" rx="0.17"/><rect class="cls-24" x="41.63" y="39.64" width="0.91" height="0.57" rx="0.17"/><rect class="cls-24" x="41.1" y="40.29" width="0.91" height="0.57" rx="0.17"/><rect class="cls-23" x="47.38" y="41.94" width="0.91" height="0.57" rx="0.17"/><rect class="cls-23" x="50.73" y="41.92" width="0.91" height="0.57" rx="0.17"/><rect class="cls-23" x="51.2" y="39.87" width="0.62" height="0.39" rx="0.12"/><rect class="cls-23" x="50.23" y="37.88" width="0.62" height="0.39" rx="0.12"/><rect class="cls-23" x="50.92" y="40.3" width="0.62" height="0.39" rx="0.12"/><rect class="cls-23" x="46.41" y="39.94" width="0.8" height="0.5" rx="0.15"/><rect class="cls-24" x="46.14" y="40.5" width="0.59" height="0.37" rx="0.11"/><rect class="cls-24" x="47.21" y="39.1" width="0.24" height="1.9"/><rect class="cls-20" x="51.57" y="28.9" width="0.85" height="11.06" transform="translate(-3.82 62.25) rotate(-60)"/><rect class="cls-20" x="40.57" y="34.01" width="11.06" height="0.85" transform="translate(-11.04 27.66) rotate(-30)"/><rect class="cls-19" x="52.4" y="36.49" width="1.2" height="0.3"/><rect class="cls-19" x="44.49" y="36.49" width="1.2" height="0.3"/><rect class="cls-34" x="49.28" y="36.17" width="3.73" height="0.15"/><rect class="cls-34" x="46.52" y="35.91" width="3.73" height="0.15"/><rect class="cls-34" x="47.17" y="32.79" width="3.73" height="0.15" transform="translate(-9.86 28.92) rotate(-30)"/><rect class="cls-34" x="43.42" y="34.65" width="3.73" height="0.15" transform="translate(-11.29 27.3) rotate(-30)"/><rect class="cls-34" x="54.01" y="33.7" width="0.15" height="3.73" transform="translate(-3.75 64.62) rotate(-60)"/><rect class="cls-34" x="45.18" y="37.12" width="0.19" height="4.16"/><rect class="cls-34" x="52.81" y="38.99" width="0.19" height="4.54"/><rect class="cls-19" x="42.74" y="36.96" width="0.19" height="6.57"/><rect class="cls-19" x="32.41" y="36.49" width="0.19" height="7.05"/><rect class="cls-19" x="31.93" y="36.49" width="0.67" height="0.21"/><rect class="cls-19" x="33.48" y="36.49" width="0.93" height="0.21"/><path class="cls-10" d="M56,44a11.73,11.73,0,0,0-7-1,11,11,0,0,0-3,1,28.5,28.5,0,0,0-15,0"/><rect class="cls-19" x="67.6" y="39.39" width="0.65" height="1.57"/><rect class="cls-19" x="68.18" y="39.39" width="0.21" height="1.57"/><rect class="cls-20" x="74.87" y="39.39" width="0.65" height="1.57"/><rect class="cls-21" x="75.45" y="39.39" width="0.21" height="1.57"/><rect class="cls-20" x="71.09" y="36.37" width="5.32" height="0.41" transform="translate(-8.41 41.78) rotate(-30)"/><rect class="cls-20" x="76.39" y="33.91" width="0.41" height="5.32" transform="translate(6.62 84.62) rotate(-60)"/><rect class="cls-22" x="67.81" y="37.71" width="4.22" height="3.25"/><rect class="cls-23" x="72.02" y="37.71" width="5.3" height="3.25"/><rect class="cls-21" x="67.63" y="37.56" width="0.58" height="3.39"/><rect class="cls-23" x="68.21" y="37.71" width="0.22" height="3.25"/><rect class="cls-20" x="67.63" y="37.56" width="0.45" height="3.39"/><rect class="cls-21" x="71.44" y="37.56" width="0.58" height="3.39"/><rect class="cls-24" x="72.02" y="37.71" width="0.38" height="3.25"/><rect class="cls-20" x="71.44" y="37.56" width="0.45" height="3.39"/><rect class="cls-21" x="76.87" y="37.56" width="0.45" height="3.39"/><rect class="cls-20" x="77.03" y="37.56" width="0.3" height="3.39"/><rect class="cls-20" x="68.74" y="38.47" width="1.97" height="0.35"/><rect class="cls-21" x="68.74" y="38.72" width="1.97" height="0.1"/><rect class="cls-21" x="70.71" y="38.47" width="0.18" height="0.35"/><rect class="cls-20" x="68.74" y="39.73" width="1.97" height="0.35"/><rect class="cls-21" x="68.74" y="39.99" width="1.97" height="0.1"/><rect class="cls-21" x="70.71" y="39.73" width="0.18" height="0.35"/><rect class="cls-24" x="68.74" y="38.82" width="2.14" height="0.12"/><rect class="cls-25" x="69.11" y="38.94" width="1.32" height="0.79"/><rect class="cls-26" x="69.11" y="38.82" width="1.32" height="0.12"/><rect class="cls-20" x="68.99" y="38.82" width="0.21" height="0.91"/><rect class="cls-21" x="69.18" y="38.82" width="0.09" height="0.91"/><rect class="cls-20" x="70.32" y="38.82" width="0.21" height="0.91"/><rect class="cls-21" x="70.51" y="38.82" width="0.09" height="0.91"/><rect class="cls-20" x="73.63" y="38.47" width="1.97" height="0.35"/><rect class="cls-21" x="73.63" y="38.72" width="1.97" height="0.1"/><rect class="cls-21" x="73.46" y="38.47" width="0.18" height="0.35"/><rect class="cls-20" x="73.63" y="39.73" width="1.97" height="0.35"/><rect class="cls-21" x="73.63" y="39.99" width="1.97" height="0.1"/><rect class="cls-21" x="73.46" y="39.73" width="0.18" height="0.35"/><rect class="cls-24" x="73.46" y="38.82" width="2.14" height="0.12"/><rect class="cls-25" x="73.92" y="38.94" width="1.32" height="0.79"/><rect class="cls-26" x="73.92" y="38.82" width="1.32" height="0.12"/><rect class="cls-20" x="75.15" y="38.82" width="0.21" height="0.91"/><rect class="cls-21" x="75.08" y="38.82" width="0.09" height="0.91"/><rect class="cls-20" x="73.82" y="38.82" width="0.21" height="0.91"/><rect class="cls-21" x="73.75" y="38.82" width="0.09" height="0.91"/><rect class="cls-20" x="69.67" y="38.82" width="0.14" height="0.91"/><rect class="cls-21" x="69.81" y="38.82" width="0.05" height="0.91"/><rect class="cls-20" x="74.54" y="38.82" width="0.14" height="0.91"/><rect class="cls-21" x="74.49" y="38.82" width="0.05" height="0.91"/><rect class="cls-21" x="72.02" y="37.2" width="6.05" height="0.36"/><rect class="cls-24" x="72.02" y="37.56" width="4.85" height="0.29"/><polygon class="cls-27" points="74.89 38.23 74.72 38.23 74.72 38.03 74.39 38.03 74.39 38.23 74.22 38.23 74.22 38.47 74.39 38.47 74.72 38.47 74.89 38.47 74.89 38.23"/><polygon class="cls-28" points="74.99 38.23 74.82 38.23 74.82 38.03 74.49 38.03 74.49 38.23 74.32 38.23 74.32 38.47 74.49 38.47 74.82 38.47 74.99 38.47 74.99 38.23"/><rect class="cls-23" x="68.21" y="37.56" width="3.23" height="0.29"/><polygon class="cls-27" points="69.44 38.23 69.61 38.23 69.61 38.03 69.94 38.03 69.94 38.23 70.11 38.23 70.11 38.47 69.94 38.47 69.61 38.47 69.44 38.47 69.44 38.23"/><polygon class="cls-28" points="69.34 38.23 69.51 38.23 69.51 38.03 69.84 38.03 69.84 38.23 70.01 38.23 70.01 38.47 69.84 38.47 69.51 38.47 69.34 38.47 69.34 38.23"/><polygon class="cls-27" points="67.73 37.2 69.83 35.99 71.92 37.2 67.73 37.2"/><polygon class="cls-29" points="69.83 35.52 75.17 35.52 78.07 37.2 72.74 37.2 69.83 35.52"/><polygon class="cls-30" points="69.83 35.52 70.22 35.52 73.14 37.2 72.74 37.2 69.83 35.52"/><polygon class="cls-30" points="70.94 35.52 71.34 35.52 74.25 37.2 73.86 37.2 70.94 35.52"/><polygon class="cls-30" points="72.06 35.52 72.45 35.52 75.37 37.2 74.97 37.2 72.06 35.52"/><polygon class="cls-30" points="73.18 35.52 73.57 35.52 76.48 37.2 76.09 37.2 73.18 35.52"/><polygon class="cls-30" points="74.29 35.52 74.69 35.52 77.6 37.2 77.2 37.2 74.29 35.52"/><polygon class="cls-31" points="68.73 36.91 69.83 36.28 70.92 36.91 68.73 36.91"/><path class="cls-28" d="M72.59,37.49h.28V41h-.28V37.49ZM67,37.2h5v.36H67.1V41h-.27V37.49H67Z"/><rect class="cls-19" x="67.03" y="37.67" width="0.07" height="3.28"/><path class="cls-31" d="M72.59,37.49h.28v.44l-.28-.16v-.28Zm-5.35-.29-.24.14v.15h-.17v.42l.27-.16v-.19h.33l.63-.36Zm4.36,0,.42.24V37.2Z"/><rect class="cls-20" x="77.79" y="37.56" width="0.28" height="3.39"/><polygon class="cls-32" points="73.01 34.54 74.03 34.54 74.03 36.2 73.64 36.2 73.01 35.84 73.01 34.54"/><rect class="cls-24" x="73.64" y="34.54" width="0.39" height="1.67"/><rect class="cls-23" x="72.88" y="34.31" width="0.77" height="0.47"/><rect class="cls-24" x="73.01" y="34.77" width="0.63" height="0.13"/><rect class="cls-24" x="73.64" y="34.31" width="0.5" height="0.47"/><rect class="cls-33" x="73.64" y="34.77" width="0.39" height="0.13"/><rect class="cls-24" x="75.8" y="38.89" width="0.62" height="0.38" rx="0.12"/><rect class="cls-24" x="75.59" y="39.35" width="0.44" height="0.27" rx="0.08"/><rect class="cls-24" x="76.15" y="39.34" width="0.44" height="0.27" rx="0.08"/><rect class="cls-24" x="75.87" y="39.68" width="0.44" height="0.27" rx="0.08"/><rect class="cls-24" x="74.27" y="40.13" width="0.62" height="0.38" rx="0.12"/><rect class="cls-24" x="74.94" y="40.12" width="0.44" height="0.27" rx="0.08"/><rect class="cls-24" x="73.75" y="40.14" width="0.44" height="0.27" rx="0.08"/><rect class="cls-24" x="72.96" y="39.08" width="0.44" height="0.27" rx="0.08"/><rect class="cls-24" x="73.22" y="39.4" width="0.44" height="0.27" rx="0.08"/><rect class="cls-23" x="70.2" y="40.19" width="0.44" height="0.27" rx="0.08"/><rect class="cls-23" x="68.58" y="40.18" width="0.44" height="0.27" rx="0.08"/><rect class="cls-23" x="68.49" y="39.19" width="0.3" height="0.19" rx="0.06"/><rect class="cls-23" x="68.96" y="38.23" width="0.3" height="0.19" rx="0.06"/><rect class="cls-23" x="68.63" y="39.4" width="0.3" height="0.19" rx="0.06"/><rect class="cls-23" x="70.72" y="39.22" width="0.38" height="0.24" rx="0.07"/><rect class="cls-24" x="70.94" y="39.49" width="0.28" height="0.18" rx="0.05"/><rect class="cls-24" x="70.6" y="38.82" width="0.12" height="0.91"/><rect class="cls-20" x="65.75" y="36.37" width="5.32" height="0.41" transform="translate(-9.12 39.1) rotate(-30)"/><rect class="cls-20" x="71.04" y="33.91" width="0.41" height="5.32" transform="translate(3.95 79.99) rotate(-60)"/><rect class="cls-19" x="67.63" y="37.56" width="0.58" height="0.14"/><rect class="cls-19" x="71.44" y="37.56" width="0.58" height="0.14"/><rect class="cls-34" x="67.92" y="37.41" width="1.8" height="0.07"/><rect class="cls-34" x="69.25" y="37.28" width="1.8" height="0.07"/><rect class="cls-34" x="69.8" y="34.92" width="0.07" height="1.8" transform="translate(3.9 78.38) rotate(-60)"/><rect class="cls-34" x="71.6" y="35.81" width="0.07" height="1.8" transform="translate(4.02 80.4) rotate(-60)"/><rect class="cls-34" x="66.51" y="37.08" width="1.8" height="0.07" transform="translate(-9.53 38.67) rotate(-30)"/><rect class="cls-34" x="71.6" y="37.87" width="0.09" height="2"/><rect class="cls-34" x="67.92" y="38.77" width="0.09" height="2.19"/><rect class="cls-19" x="72.77" y="37.79" width="0.09" height="3.16"/><rect class="cls-19" x="77.75" y="37.56" width="0.09" height="3.39"/><rect class="cls-19" x="77.75" y="37.56" width="0.32" height="0.1"/><rect class="cls-19" x="76.87" y="37.56" width="0.45" height="0.1"/><path class="cls-35" d="M77.37,41a.45.45,0,0,1-.09-.26,1,1,0,0,1,.43-.71v1Z"/><path class="cls-36" d="M78.05,41a.45.45,0,0,0,.09-.26,1,1,0,0,0-.43-.71v1Z"/><path class="cls-35" d="M72.52,41a.5.5,0,0,1-.11-.32,1.19,1.19,0,0,1,.52-.87V41Z"/><path class="cls-36" d="M73.35,41a.5.5,0,0,0,.11-.32,1.21,1.21,0,0,0-.53-.87V41Z"/><rect class="cls-19" x="82.6" y="36.39" width="0.65" height="1.57"/><rect class="cls-19" x="83.18" y="36.39" width="0.21" height="1.57"/><rect class="cls-20" x="89.87" y="36.39" width="0.65" height="1.57"/><rect class="cls-21" x="90.45" y="36.39" width="0.21" height="1.57"/><rect class="cls-20" x="86.09" y="33.37" width="5.32" height="0.41" transform="translate(-4.9 48.87) rotate(-30)"/><rect class="cls-20" x="91.39" y="30.91" width="0.41" height="5.32" transform="translate(16.72 96.11) rotate(-60)"/><rect class="cls-22" x="82.81" y="34.71" width="4.22" height="3.25"/><rect class="cls-23" x="87.02" y="34.71" width="5.3" height="3.25"/><rect class="cls-21" x="82.63" y="34.56" width="0.58" height="3.39"/><rect class="cls-23" x="83.21" y="34.71" width="0.22" height="3.25"/><rect class="cls-20" x="82.63" y="34.56" width="0.45" height="3.39"/><rect class="cls-21" x="86.44" y="34.56" width="0.58" height="3.39"/><rect class="cls-24" x="87.02" y="34.71" width="0.38" height="3.25"/><rect class="cls-20" x="86.44" y="34.56" width="0.45" height="3.39"/><rect class="cls-21" x="91.87" y="34.56" width="0.45" height="3.39"/><rect class="cls-20" x="92.03" y="34.56" width="0.3" height="3.39"/><rect class="cls-21" x="87.02" y="34.2" width="6.05" height="0.36"/><rect class="cls-24" x="87.02" y="34.56" width="4.85" height="0.29"/><rect class="cls-23" x="83.21" y="34.56" width="3.23" height="0.29"/><polygon class="cls-27" points="82.73 34.2 84.83 32.99 86.92 34.2 82.73 34.2"/><polygon class="cls-29" points="84.83 32.52 90.17 32.52 93.07 34.2 87.74 34.2 84.83 32.52"/><polygon class="cls-30" points="84.83 32.52 85.22 32.52 88.14 34.2 87.74 34.2 84.83 32.52"/><polygon class="cls-30" points="85.94 32.52 86.34 32.52 89.25 34.2 88.86 34.2 85.94 32.52"/><polygon class="cls-30" points="87.06 32.52 87.45 32.52 90.37 34.2 89.97 34.2 87.06 32.52"/><polygon class="cls-30" points="88.18 32.52 88.57 32.52 91.48 34.2 91.09 34.2 88.18 32.52"/><polygon class="cls-30" points="89.29 32.52 89.69 32.52 92.6 34.2 92.2 34.2 89.29 32.52"/><polygon class="cls-31" points="83.73 33.91 84.83 33.28 85.92 33.91 83.73 33.91"/><path class="cls-28" d="M87.59,34.49h.28V38h-.28V34.49ZM82,34.2h5v.36H82.1V38h-.27V34.49H82Z"/><rect class="cls-19" x="82.03" y="34.67" width="0.07" height="3.28"/><path class="cls-31" d="M87.59,34.49h.28v.44l-.28-.16v-.28Zm-5.35-.29-.24.14v.15h-.17v.42l.27-.16v-.19h.33l.63-.36Zm4.36,0,.42.24V34.2Z"/><rect class="cls-20" x="92.79" y="34.56" width="0.28" height="3.39"/><polygon class="cls-32" points="88.01 31.54 89.03 31.54 89.03 33.2 88.64 33.2 88.01 32.84 88.01 31.54"/><rect class="cls-24" x="88.64" y="31.54" width="0.39" height="1.67"/><rect class="cls-23" x="87.88" y="31.31" width="0.77" height="0.47"/><rect class="cls-24" x="88.01" y="31.77" width="0.63" height="0.13"/><rect class="cls-24" x="88.64" y="31.31" width="0.5" height="0.47"/><rect class="cls-33" x="88.64" y="31.77" width="0.39" height="0.13"/><rect class="cls-24" x="90.8" y="35.89" width="0.62" height="0.38" rx="0.12"/><rect class="cls-24" x="90.59" y="36.35" width="0.44" height="0.27" rx="0.08"/><rect class="cls-24" x="91.15" y="36.34" width="0.44" height="0.27" rx="0.08"/><rect class="cls-24" x="90.87" y="36.68" width="0.44" height="0.27" rx="0.08"/><rect class="cls-24" x="89.27" y="37.13" width="0.62" height="0.38" rx="0.12"/><rect class="cls-24" x="89.94" y="37.12" width="0.44" height="0.27" rx="0.08"/><rect class="cls-24" x="88.75" y="37.14" width="0.44" height="0.27" rx="0.08"/><rect class="cls-24" x="87.96" y="36.08" width="0.44" height="0.27" rx="0.08"/><rect class="cls-24" x="88.22" y="36.4" width="0.44" height="0.27" rx="0.08"/><rect class="cls-23" x="85.2" y="37.19" width="0.44" height="0.27" rx="0.08"/><rect class="cls-23" x="83.58" y="37.18" width="0.44" height="0.27" rx="0.08"/><rect class="cls-23" x="83.49" y="36.19" width="0.3" height="0.19" rx="0.06"/><rect class="cls-23" x="83.96" y="35.23" width="0.3" height="0.19" rx="0.06"/><rect class="cls-23" x="83.63" y="36.4" width="0.3" height="0.19" rx="0.06"/><rect class="cls-23" x="85.72" y="36.22" width="0.38" height="0.24" rx="0.07"/><rect class="cls-24" x="85.94" y="36.49" width="0.28" height="0.18" rx="0.05"/><rect class="cls-20" x="80.75" y="33.37" width="5.32" height="0.41" transform="translate(-5.61 46.2) rotate(-30)"/><rect class="cls-20" x="86.04" y="30.91" width="0.41" height="5.32" transform="translate(14.05 91.48) rotate(-60)"/><rect class="cls-19" x="82.63" y="34.56" width="0.58" height="0.14"/><rect class="cls-19" x="86.44" y="34.56" width="0.58" height="0.14"/><rect class="cls-34" x="82.92" y="34.41" width="1.8" height="0.07"/><rect class="cls-34" x="84.25" y="34.28" width="1.8" height="0.07"/><rect class="cls-34" x="84.8" y="31.92" width="0.07" height="1.8" transform="translate(14 89.87) rotate(-60)"/><rect class="cls-34" x="86.6" y="32.81" width="0.07" height="1.8" transform="translate(14.12 91.89) rotate(-60)"/><rect class="cls-34" x="81.51" y="34.08" width="1.8" height="0.07" transform="translate(-6.02 45.77) rotate(-30)"/><rect class="cls-34" x="86.6" y="34.87" width="0.09" height="2"/><rect class="cls-34" x="82.92" y="35.77" width="0.09" height="2.19"/><rect class="cls-19" x="87.77" y="34.79" width="0.09" height="3.16"/><rect class="cls-19" x="92.75" y="34.56" width="0.09" height="3.39"/><rect class="cls-19" x="92.75" y="34.56" width="0.32" height="0.1"/><rect class="cls-19" x="91.87" y="34.56" width="0.45" height="0.1"/><rect class="cls-2" x="96.12" y="45.81" width="11.3" height="7.03" rx="1.91"/><rect class="cls-2" x="103.59" y="51.93" width="1.61" height="3.15"/><rect class="cls-2" x="98.58" y="51.93" width="1.61" height="3.15"/><rect class="cls-2" x="105.22" y="44.15" width="4.78" height="2.97" rx="0.81"/><rect class="cls-43" x="103.63" y="46.79" width="0.54" height="4.37"/><rect class="cls-43" x="102.02" y="46.79" width="0.54" height="4.37"/><rect class="cls-43" x="100.42" y="46.79" width="0.54" height="4.37"/><rect class="cls-43" x="98.81" y="46.79" width="0.54" height="4.37"/><rect class="cls-44" x="103.59" y="54.36" width="1.61" height="0.71"/><rect class="cls-44" x="98.58" y="54.36" width="1.61" height="0.71"/><path class="cls-45" d="M96.47,47.05h-.72a.25.25,0,0,0-.25.25v1.08a.25.25,0,0,0,.25.25h.72Z"/><ellipse class="cls-46" cx="45.5" cy="54.92" rx="2.5" ry="0.51"/><ellipse class="cls-46" cx="56.74" cy="49.97" rx="2.5" ry="0.51"/><rect class="cls-2" x="43.67" y="52.47" width="3.18" height="1.98" rx="0.54"/><rect class="cls-2" x="45.78" y="54.19" width="0.45" height="0.89"/><rect class="cls-2" x="44.37" y="54.19" width="0.45" height="0.89"/><rect class="cls-2" x="46.23" y="52" width="1.35" height="0.84" rx="0.23"/><rect class="cls-43" x="45.79" y="52.74" width="0.15" height="1.23"/><rect class="cls-43" x="45.33" y="52.74" width="0.15" height="1.23"/><rect class="cls-43" x="44.88" y="52.74" width="0.15" height="1.23"/><rect class="cls-43" x="44.43" y="52.74" width="0.15" height="1.23"/><rect class="cls-44" x="45.78" y="54.87" width="0.45" height="0.2"/><rect class="cls-44" x="44.37" y="54.87" width="0.45" height="0.2"/><path class="cls-45" d="M43.77,52.82h-.2a.07.07,0,0,0-.07.07v.3a.07.07,0,0,0,.07.07h.2Z"/><rect class="cls-2" x="55.22" y="47.47" width="3.18" height="1.98" rx="0.54"/><rect class="cls-2" x="55.85" y="49.19" width="0.45" height="0.89"/><rect class="cls-2" x="57.26" y="49.19" width="0.45" height="0.89"/><rect class="cls-2" x="54.5" y="47" width="1.35" height="0.84" rx="0.23"/><rect class="cls-43" x="56.14" y="47.74" width="0.15" height="1.23"/><rect class="cls-43" x="56.59" y="47.74" width="0.15" height="1.23"/><rect class="cls-43" x="57.04" y="47.74" width="0.15" height="1.23"/><rect class="cls-43" x="57.5" y="47.74" width="0.15" height="1.23"/><rect class="cls-44" x="55.85" y="49.87" width="0.45" height="0.2"/><rect class="cls-44" x="57.26" y="49.87" width="0.45" height="0.2"/><path class="cls-45" d="M58.3,47.82h.21a.07.07,0,0,1,.07.07v.3a.07.07,0,0,1-.07.07H58.3Z"/></g></g></svg>