<svg xmlns="http://www.w3.org/2000/svg" viewBox="0 0 97 126"><defs><style>.cls-1,.cls-2,.cls-3{fill-rule:evenodd;}.cls-1,.cls-3{opacity:0.2;}.cls-2,.cls-3{fill:#fff;}.cls-4{fill:#64d3de;}</style></defs><title>Button_drop_house</title><g id="Layer_2" data-name="Layer 2"><g id="Layer_1-2" data-name="Layer 1"><path class="cls-1" d="M97,80A46,46,0,0,1,5,80c0-4.25,1.29-9.2,3.43-14.5C19.09,39.09,51,4,51,4S82.91,39.09,93.57,65.5C95.71,70.8,97,75.75,97,80Z"/><path class="cls-2" d="M92,76A46,46,0,0,1,0,76c0-4.25,1.29-9.2,3.43-14.5C14.09,35.09,46,0,46,0S77.91,35.09,88.57,61.5C90.71,66.8,92,71.75,92,76Z"/><path class="cls-3" d="M88.57,61.5H3.43C14.09,35.09,46,0,46,0S77.91,35.09,88.57,61.5Z"/><path class="cls-4" d="M68.82,70.84V86a2.53,2.53,0,0,1-2.54,2.53H54a1.27,1.27,0,0,1-1.27-1.27V75.41a1.27,1.27,0,0,0-1.27-1.27H43.9a1.27,1.27,0,0,0-1.27,1.27V87.23a1.27,1.27,0,0,1-1.26,1.27H29.12A2.53,2.53,0,0,1,26.59,86V70.84a1.31,1.31,0,0,1,.46-1L46.9,53.51a1.28,1.28,0,0,1,1.61,0L68.36,69.85a1.31,1.31,0,0,1,.46,1Zm8.82-6.43-8.82-7.28V42.51a1.27,1.27,0,0,0-1.27-1.27H61.64a1.27,1.27,0,0,0-1.27,1.27v7.67l-9.45-7.79a5.07,5.07,0,0,0-6.44,0l-26.72,22a1.27,1.27,0,0,0-.17,1.78l2.69,3.27a1.27,1.27,0,0,0,1.79.17L46.9,49.18a1.28,1.28,0,0,1,1.61,0L73.35,69.63a1.26,1.26,0,0,0,1.78-.17l2.69-3.27A1.26,1.26,0,0,0,77.64,64.41Z"/></g></g></svg>