<svg xmlns="http://www.w3.org/2000/svg" viewBox="0 0 97 126"><defs><style>.cls-1,.cls-2,.cls-3{fill-rule:evenodd;}.cls-1,.cls-3{opacity:0.2;}.cls-2,.cls-3{fill:#fff;}.cls-4{fill:#64d3de;}</style></defs><title>Button_drop_files</title><g id="Layer_2" data-name="Layer 2"><g id="Layer_1-2" data-name="Layer 1"><path class="cls-1" d="M97,80A46,46,0,0,1,5,80c0-4.25,1.29-9.2,3.43-14.5C19.09,39.09,51,4,51,4S82.91,39.09,93.57,65.5C95.71,70.8,97,75.75,97,80Z"/><path class="cls-2" d="M92,76A46,46,0,0,1,0,76c0-4.25,1.29-9.2,3.43-14.5C14.09,35.09,46,0,46,0S77.91,35.09,88.57,61.5C90.71,66.8,92,71.75,92,76Z"/><path class="cls-3" d="M88.57,61.5H3.43C14.09,35.09,46,0,46,0S77.91,35.09,88.57,61.5Z"/><path class="cls-4" d="M49.08,54.66V40.3H28a2.53,2.53,0,0,0-2.54,2.54v49A2.53,2.53,0,0,0,28,94.36H63.44A2.53,2.53,0,0,0,66,91.82V57.19H51.62A2.54,2.54,0,0,1,49.08,54.66Zm6.76,24.92a1.27,1.27,0,0,1-1.27,1.26H36.84a1.27,1.27,0,0,1-1.27-1.26v-.85a1.27,1.27,0,0,1,1.27-1.27H54.57a1.27,1.27,0,0,1,1.27,1.27Zm0-6.76a1.27,1.27,0,0,1-1.27,1.27H36.84a1.27,1.27,0,0,1-1.27-1.27V72a1.27,1.27,0,0,1,1.27-1.26H54.57A1.27,1.27,0,0,1,55.84,72Zm0-7.6v.84a1.27,1.27,0,0,1-1.27,1.27H36.84a1.27,1.27,0,0,1-1.27-1.27v-.84A1.27,1.27,0,0,1,36.84,64H54.57A1.27,1.27,0,0,1,55.84,65.22ZM66,53.17v.65H52.46V40.3h.65A2.54,2.54,0,0,1,54.9,41L65.24,51.39A2.54,2.54,0,0,1,66,53.17Z"/></g></g></svg>