<svg xmlns="http://www.w3.org/2000/svg" viewBox="0 0 97 126"><defs><style>.cls-1,.cls-2{fill-rule:evenodd;}.cls-1{opacity:0.2;}.cls-2{fill:#fff;}.cls-3{fill:#64d3de;}</style></defs><title>Button_control</title><g id="Layer_2" data-name="Layer 2"><g id="Layer_1-2" data-name="Layer 1"><path class="cls-1" d="M97,80A46,46,0,0,1,5,80c0-4.25,1.29-9.2,3.43-14.5C19.09,39.09,51,4,51,4S82.91,39.09,93.57,65.5C95.71,70.8,97,75.75,97,80Z"/><path class="cls-2" d="M92,76A46,46,0,0,1,0,76c0-4.25,1.29-9.2,3.43-14.5C14.09,35.09,46,0,46,0S77.91,35.09,88.57,61.5C90.71,66.8,92,71.75,92,76Z"/><path class="cls-3" d="M67.27,79.38l4.8,2.77a1.36,1.36,0,0,1,.62,1.58,28,28,0,0,1-6.16,10.65,1.37,1.37,0,0,1-1.68.26l-4.79-2.77a21.61,21.61,0,0,1-6.85,3.95v5.54a1.36,1.36,0,0,1-1.06,1.33,28.2,28.2,0,0,1-12.3,0,1.36,1.36,0,0,1-1.06-1.33V95.82a21.43,21.43,0,0,1-6.85-3.95l-4.79,2.77a1.37,1.37,0,0,1-1.68-.26,28,28,0,0,1-6.16-10.65,1.36,1.36,0,0,1,.62-1.58l4.8-2.77a21.91,21.91,0,0,1,0-7.91l-4.8-2.77a1.36,1.36,0,0,1-.62-1.58,28.1,28.1,0,0,1,6.16-10.66,1.37,1.37,0,0,1,1.68-.25L31.94,59a21.64,21.64,0,0,1,6.85-4V49.48a1.36,1.36,0,0,1,1.06-1.32,28.2,28.2,0,0,1,12.3,0,1.36,1.36,0,0,1,1.06,1.32V55a21.64,21.64,0,0,1,6.85,4l4.79-2.77a1.37,1.37,0,0,1,1.68.25,28.1,28.1,0,0,1,6.16,10.66,1.36,1.36,0,0,1-.62,1.58l-4.8,2.77a21.91,21.91,0,0,1,0,7.91ZM55,75.42a9,9,0,1,0-9,9A9,9,0,0,0,55,75.42Z"/></g></g></svg>