<svg xmlns="http://www.w3.org/2000/svg" viewBox="0 0 97 126"><defs><style>.cls-1,.cls-2,.cls-3{fill-rule:evenodd;}.cls-1,.cls-3{opacity:0.2;}.cls-2,.cls-3{fill:#fff;}.cls-4{fill:#64d3de;}</style></defs><title>Button_drop_map</title><g id="Layer_2" data-name="Layer 2"><g id="Layer_1-2" data-name="Layer 1"><path class="cls-1" d="M97,80A46,46,0,0,1,5,80c0-4.25,1.29-9.2,3.43-14.5C19.09,39.09,51,4,51,4S82.91,39.09,93.57,65.5C95.71,70.8,97,75.75,97,80Z"/><path class="cls-2" d="M92,76A46,46,0,0,1,0,76c0-4.25,1.29-9.2,3.43-14.5C14.09,35.09,46,0,46,0S77.91,35.09,88.57,61.5C90.71,66.8,92,71.75,92,76Z"/><path class="cls-3" d="M88.57,61.5H3.43C14.09,35.09,46,0,46,0S77.91,35.09,88.57,61.5Z"/><path class="cls-4" d="M17.3,58.54V95.11a1.7,1.7,0,0,0,2.32,1.57L34.19,90V49.5L19.42,55.41A3.37,3.37,0,0,0,17.3,58.54ZM37.57,90,57.84,96.8V56.26L37.57,49.5ZM75.8,49.62,61.22,56.26V96.8L76,90.89a3.37,3.37,0,0,0,2.12-3.13V51.19A1.69,1.69,0,0,0,75.8,49.62Z"/></g></g></svg>