<svg xmlns="http://www.w3.org/2000/svg" viewBox="0 0 97 126"><defs><style>.cls-1,.cls-2{fill-rule:evenodd;}.cls-1{opacity:0.2;}.cls-2{fill:#fff;}</style></defs><title>Button_drop_empty</title><g id="Layer_2" data-name="Layer 2"><g id="Layer_1-2" data-name="Layer 1"><path class="cls-1" d="M97,80A46,46,0,0,1,5,80c0-4.25,1.29-9.2,3.43-14.5C19.09,39.09,51,4,51,4S82.91,39.09,93.57,65.5C95.71,70.8,97,75.75,97,80Z"/><path class="cls-2" d="M92,76A46,46,0,0,1,0,76c0-4.25,1.29-9.2,3.43-14.5C14.09,35.09,46,0,46,0S77.91,35.09,88.57,61.5C90.71,66.8,92,71.75,92,76Z"/></g></g></svg>