<svg xmlns="http://www.w3.org/2000/svg" viewBox="0 0 97 126"><defs><style>.cls-1,.cls-2,.cls-3{fill-rule:evenodd;}.cls-1,.cls-3{opacity:0.2;}.cls-2,.cls-3{fill:#fff;}.cls-4{fill:#64d3de;}</style></defs><title>Button_drop_water</title><g id="Layer_2" data-name="Layer 2"><g id="Layer_1-2" data-name="Layer 1"><path class="cls-1" d="M97,80A46,46,0,0,1,5,80c0-4.25,1.29-9.2,3.43-14.5C19.09,39.09,51,4,51,4S82.91,39.09,93.57,65.5C95.71,70.8,97,75.75,97,80Z"/><path class="cls-2" d="M92,76A46,46,0,0,1,0,76c0-4.25,1.29-9.2,3.43-14.5C14.09,35.09,46,0,46,0S77.91,35.09,88.57,61.5C90.71,66.8,92,71.75,92,76Z"/><path class="cls-3" d="M88.57,61.5H3.43C14.09,35.09,46,0,46,0S77.91,35.09,88.57,61.5Z"/><path class="cls-4" d="M48.79,42a3.21,3.21,0,0,0-6.17,0c-4.94,16.66-15.5,21.19-15.5,32.92a18.59,18.59,0,1,0,37.17,0C64.29,63.12,53.75,58.73,48.79,42ZM45.71,87A11.85,11.85,0,0,1,33.88,75.14a1.69,1.69,0,0,1,3.38,0,8.46,8.46,0,0,0,8.45,8.44,1.69,1.69,0,0,1,0,3.38Z"/></g></g></svg>