<svg xmlns="http://www.w3.org/2000/svg" viewBox="0 0 97 126"><defs><style>.cls-1,.cls-2{fill-rule:evenodd;}.cls-1{opacity:0.2;}.cls-2{fill:#fff;}.cls-3{fill:#64d3de;}</style></defs><title>Button_drop_shop</title><g id="Layer_2" data-name="Layer 2"><g id="Layer_1-2" data-name="Layer 1"><path class="cls-1" d="M97,80A46,46,0,0,1,5,80c0-4.25,1.29-9.2,3.43-14.5C19.09,39.09,51,4,51,4S82.91,39.09,93.57,65.5C95.71,70.8,97,75.75,97,80Z"/><path class="cls-2" d="M92,76A46,46,0,0,1,0,76c0-4.25,1.29-9.2,3.43-14.5C14.09,35.09,46,0,46,0S77.91,35.09,88.57,61.5C90.71,66.8,92,71.75,92,76Z"/><path class="cls-3" d="M71.06,79.29l5-22a2.53,2.53,0,0,0-2.47-3.09H32.11l-1-4.73a2.54,2.54,0,0,0-2.48-2H17.83A2.54,2.54,0,0,0,15.3,50V51.7a2.54,2.54,0,0,0,2.53,2.54h7.38L32.63,90.5a5.9,5.9,0,1,0,7.08.9H61.84a5.91,5.91,0,1,0,6.71-1.1l.59-2.56a2.54,2.54,0,0,0-2.47-3.1H38.33l-.69-3.37h31A2.54,2.54,0,0,0,71.06,79.29Z"/></g></g></svg>