<svg xmlns="http://www.w3.org/2000/svg" viewBox="0 0 235 969.45"><defs><style>.cls-1{fill:#fff;}.cls-1,.cls-2,.cls-3{fill-rule:evenodd;}.cls-2,.cls-5{fill:#64d3de;}.cls-3,.cls-4{fill:#3bbec9;}.cls-6{fill:#74e4ed;}</style></defs><title>Canal</title><g id="Layer_2" data-name="Layer 2"><g id="Layer_1-2" data-name="Layer 1"><path class="cls-1" d="M235,16.63V967H181.5L181,32.29q0-9,0-18,17.3.88,35.49,1.62Q225.88,16.33,235,16.63Z"/><path class="cls-2" d="M181,14.33V967.45H0V0C40.81,4.4,98,9.78,167,13.59Q173.92,14,181,14.33Z"/><path class="cls-3" d="M181,14.34V575.45H167V13.59C171.61,13.86,176.28,14.1,181,14.34Z"/><rect class="cls-4" x="167" y="640.45" width="14" height="329"/><rect class="cls-4" x="181" y="564.45" width="54" height="87"/><rect class="cls-5" x="181" y="575.45" width="54" height="65"/><rect class="cls-6" x="122" y="113.45" width="15" height="130" rx="7.5" ry="7.5"/><rect class="cls-6" x="25" y="178.45" width="15" height="208" rx="7.5" ry="7.5"/><rect class="cls-6" x="87" y="378.45" width="15" height="96" rx="6.45" ry="6.45"/><rect class="cls-6" x="117" y="555.45" width="15" height="150" rx="7.5" ry="7.5"/><rect class="cls-6" x="32" y="675.45" width="15" height="78" rx="5.81" ry="5.81"/><path class="cls-6" d="M145,912v55.5H130V912a7.5,7.5,0,0,1,15,0Z"/></g></g></svg>