<svg xmlns="http://www.w3.org/2000/svg" viewBox="0 0 1921 159.57"><defs><style>.cls-1{fill:none;}.cls-2{opacity:0.5;}.cls-3{fill:#fff;}</style></defs><title>header_smallpart</title><g id="Layer_2" data-name="Layer 2"><g id="Layer_1-2" data-name="Layer 1"><path class="cls-1" d="M1921,108.5c-43.9-4.44-109-10.37-188-15-211.29-12.38-366.07-5.36-667,9-45.63,2.18-328.13,15.23-590,25-43.65,1.63-136.51,4.9-259,0-91.61-3.66-166.79-10.58-217-16L.5,0h1920Q1920.76,54.26,1921,108.5Z"/><g class="cls-2"><path class="cls-3" d="M1921,108.5c-42.94-4.36-108.3-10.36-188-15-136.54-8-270.19-9.93-667,9-45.63,2.18-328.13,15.23-590,25-43.65,1.63-136.51,4.9-259,0-91.61-3.66-166.79-10.58-217-16L.5,128c128,10,315,33,547.5,31.5,154-3.37,331-19.79,468-32,123.48-11,176.15-17.76,280-21,30.78-1,157.47-4.47,326,6,82.8,5.14,183.75,14.16,298.5,30.5Q1920.76,125.75,1921,108.5Z"/></g></g></g></svg>