<svg xmlns="http://www.w3.org/2000/svg" viewBox="0 0 419.36 337.78"><defs><style>.cls-1,.cls-2,.cls-3{fill:none;}.cls-2,.cls-3{stroke:#fff;stroke-miterlimit:10;stroke-width:1.42px;}.cls-2{stroke-linecap:round;}</style></defs><title>Pattern_Crop</title><g id="Layer_2" data-name="Layer 2"><g id="Layer_1-2" data-name="Layer 1"><rect class="cls-1" width="419.36" height="337.78"/><line class="cls-2" x1="213.74" y1="21.92" x2="234.96" y2="0.71"/><path class="cls-3" d="M224.35,12c2.92.32,5.07,14.7,2.83,15.56-1.63.62-7.35-5.12-6-11C221.6,14.7,223,11.88,224.35,12Z"/><path class="cls-3" d="M219.05,15.91c-.32-2.92-14.7-5.07-15.56-2.83-.62,1.63,5.12,7.35,11,6C216.37,18.66,219.19,17.25,219.05,15.91Z"/><path class="cls-3" d="M217.28,19.09c2.92.32,5.07,14.7,2.83,15.56-1.63.62-7.35-5.12-6-11C214.53,21.77,215.94,19,217.28,19.09Z"/><path class="cls-3" d="M212,23c-.31-2.92-14.69-5.07-15.55-2.83-.63,1.63,5.12,7.35,11,6C209.3,25.73,212.12,24.32,212,23Z"/><path class="cls-3" d="M211.27,25.1c2.92.32,5.07,14.7,2.83,15.56-1.63.62-7.35-5.12-6-11C208.52,27.78,209.93,25,211.27,25.1Z"/><path class="cls-3" d="M206,29c-.31-2.92-14.69-5.07-15.55-2.83-.63,1.63,5.12,7.35,11,6C203.29,31.74,206.11,30.33,206,29Z"/><path class="cls-3" d="M205.23,33.15c-2.86-.7-9.79,12.07-8,13.65,1.31,1.14,8.65-2.3,9.4-8.24C206.89,36.6,206.54,33.47,205.23,33.15Z"/><line class="cls-2" x1="395.27" y1="202.39" x2="374.06" y2="223.61"/><path class="cls-3" d="M384.66,212.29c-2.92-.31-5.07-14.69-2.82-15.55,1.62-.63,7.34,5.11,6,11C387.41,209.61,386,212.44,384.66,212.29Z"/><path class="cls-3" d="M390,208.4c.31,2.93,14.69,5.08,15.55,2.83.63-1.62-5.11-7.34-11-6C392.65,205.66,389.82,207.06,390,208.4Z"/><path class="cls-3" d="M391.73,205.22c-2.92-.32-5.07-14.69-2.82-15.55,1.62-.63,7.34,5.11,6,11C394.48,202.54,393.08,205.37,391.73,205.22Z"/><path class="cls-3" d="M397,201.33c.32,2.93,14.69,5.08,15.55,2.83.63-1.62-5.11-7.34-11-6C399.72,198.59,396.89,200,397,201.33Z"/><path class="cls-3" d="M397.75,199.21c-2.93-.32-5.08-14.69-2.83-15.56,1.62-.62,7.34,5.12,6,11C400.49,196.53,399.09,199.36,397.75,199.21Z"/><path class="cls-3" d="M403.05,195.32c.32,2.93,14.69,5.07,15.56,2.83.62-1.62-5.12-7.34-11-6C405.73,192.58,402.9,194,403.05,195.32Z"/><path class="cls-3" d="M403.78,191.17c2.86.7,9.79-12.08,8-13.65-1.31-1.14-8.65,2.29-9.4,8.24C402.12,187.71,402.47,190.84,403.78,191.17Z"/><path class="cls-2" d="M194.26,121.08c1.84-.18,14.58-1.22,24.23,8.3,8,7.87,10.73,19.89,7.21,31.05"/><path class="cls-2" d="M243.31,155.78a22.4,22.4,0,0,0-4.1-14.36c-6.39-8.76-16.93-9-18.15-9"/><path class="cls-2" d="M49.79,311.8C48,312,35.21,313,25.57,303.49c-8-7.86-10.73-19.89-7.21-31"/><path class="cls-2" d="M.75,277.1a22.32,22.32,0,0,0,4.1,14.35c6.38,8.76,16.92,9,18.15,9"/><path class="cls-2" d="M153.37,247.29a13,13,0,1,1,3.81-9.19A12.92,12.92,0,0,1,153.37,247.29Z"/><line class="cls-2" x1="144.18" y1="251.1" x2="144.18" y2="263.1"/><line class="cls-2" x1="144.18" y1="213.1" x2="144.18" y2="225.1"/><line class="cls-2" x1="153.37" y1="247.29" x2="161.86" y2="255.78"/><line class="cls-2" x1="126.5" y1="220.42" x2="134.99" y2="228.91"/><line class="cls-2" x1="157.18" y1="238.1" x2="169.18" y2="238.1"/><line class="cls-2" x1="119.18" y1="238.1" x2="131.18" y2="238.1"/><line class="cls-2" x1="153.37" y1="228.91" x2="161.86" y2="220.42"/><line class="cls-2" x1="126.5" y1="255.78" x2="134.99" y2="247.29"/><path class="cls-2" d="M356.2,117a13,13,0,1,1,3.81-9.19A12.92,12.92,0,0,1,356.2,117Z"/><line class="cls-2" x1="347.01" y1="120.78" x2="347.01" y2="132.78"/><line class="cls-2" x1="347.01" y1="82.78" x2="347.01" y2="94.78"/><line class="cls-2" x1="356.2" y1="116.97" x2="364.69" y2="125.46"/><line class="cls-2" x1="329.33" y1="90.1" x2="337.82" y2="98.59"/><line class="cls-2" x1="360.01" y1="107.78" x2="372.01" y2="107.78"/><line class="cls-2" x1="322.01" y1="107.78" x2="334.01" y2="107.78"/><line class="cls-2" x1="356.2" y1="98.59" x2="364.69" y2="90.1"/><line class="cls-2" x1="329.33" y1="125.46" x2="337.82" y2="116.97"/><path class="cls-2" d="M324.64,337.07a24.46,24.46,0,0,0-11-5.3,25.17,25.17,0,0,0-17,2.83"/><path class="cls-2" d="M324.64,337.07a17.88,17.88,0,0,1-3.88-8,18.35,18.35,0,0,1,2.07-12.43"/><path class="cls-2" d="M324.29,336.72l-24-23.34"/><circle class="cls-2" cx="293.88" cy="307.02" r="8.21"/><circle class="cls-2" cx="293.88" cy="307.02" r="4.59"/><path class="cls-2" d="M77.64,98.57a24.46,24.46,0,0,0-11-5.3,25.17,25.17,0,0,0-17,2.83"/><path class="cls-2" d="M77.64,98.57a17.88,17.88,0,0,1-3.88-8,18.35,18.35,0,0,1,2.07-12.43"/><path class="cls-2" d="M77.29,98.22l-24-23.34"/><circle class="cls-2" cx="46.88" cy="68.52" r="8.21"/><circle class="cls-2" cx="46.88" cy="68.52" r="4.59"/></g></g></svg>