<svg xmlns="http://www.w3.org/2000/svg" viewBox="0 0 1026.03 572.65"><defs><style>.cls-1{fill:#fcfcf0;}.cls-2,.cls-4{fill:#e6e6da;stroke:#fcfcf0;}.cls-2,.cls-3,.cls-4{stroke-miterlimit:10;}.cls-3{fill:none;stroke:#e6e6da;}.cls-4{opacity:0.5;}.cls-5{font-size:40px;fill:#0f667d;font-family:SourceSansPro-ExtraLight, Source Sans Pro;letter-spacing:-0.07em;}.cls-6{letter-spacing:-0.08em;}.cls-7{letter-spacing:-0.08em;}.cls-8{fill:#64d3de;}.cls-9{fill:#e6be79;fill-rule:evenodd;}</style></defs><title>CropSeeds_background</title><g id="Layer_2" data-name="Layer 2"><g id="Layer_1-2" data-name="Layer 1"><rect class="cls-1" x="0.5" y="164.74" width="1025.03" height="407.91"/><rect class="cls-2" x="171.34" y="0.5" width="170.84" height="163.28"/><rect class="cls-2" x="342.18" y="0.5" width="170.84" height="163.28"/><rect class="cls-2" x="513.01" y="0.5" width="170.84" height="163.28"/><rect class="cls-2" x="683.85" y="0.5" width="170.84" height="163.28"/><rect class="cls-2" x="854.69" y="82.14" width="170.84" height="81.64"/><rect class="cls-2" x="0.5" y="163.78" width="170.84" height="81.64"/><rect class="cls-3" x="171.34" y="163.78" width="170.84" height="81.64"/><rect class="cls-3" x="342.18" y="163.78" width="170.84" height="81.64"/><rect class="cls-3" x="513.01" y="163.78" width="170.84" height="81.64"/><rect class="cls-3" x="683.85" y="163.78" width="170.84" height="81.64"/><rect class="cls-4" x="854.69" y="163.78" width="170.84" height="81.64"/><rect class="cls-2" x="0.5" y="245.42" width="170.84" height="81.64"/><rect class="cls-3" x="171.34" y="245.42" width="170.84" height="81.64"/><rect class="cls-3" x="342.18" y="245.42" width="170.84" height="81.64"/><rect class="cls-3" x="513.01" y="245.42" width="170.84" height="81.64"/><rect class="cls-3" x="683.85" y="245.42" width="170.84" height="81.64"/><rect class="cls-4" x="854.69" y="245.42" width="170.84" height="81.64"/><rect class="cls-2" x="0.5" y="327.06" width="170.84" height="81.64"/><rect class="cls-3" x="171.34" y="327.06" width="170.84" height="81.64"/><rect class="cls-3" x="342.18" y="327.06" width="170.84" height="81.64"/><rect class="cls-3" x="513.01" y="327.06" width="170.84" height="81.64"/><rect class="cls-3" x="683.85" y="327.06" width="170.84" height="81.64"/><rect class="cls-4" x="854.69" y="327.06" width="170.84" height="81.64"/><rect class="cls-2" x="0.5" y="408.7" width="170.84" height="81.64"/><rect class="cls-4" x="171.34" y="408.7" width="170.84" height="81.64"/><rect class="cls-4" x="342.18" y="408.7" width="170.84" height="81.64"/><rect class="cls-4" x="513.01" y="408.7" width="170.84" height="81.64"/><rect class="cls-4" x="683.85" y="408.7" width="170.84" height="81.64"/><rect class="cls-4" x="854.69" y="408.7" width="170.84" height="81.64"/><rect class="cls-2" x="0.5" y="490.34" width="170.84" height="81.64"/><rect class="cls-3" x="171.34" y="490.34" width="170.84" height="81.64"/><rect class="cls-3" x="342.18" y="490.34" width="170.84" height="81.64"/><rect class="cls-3" x="513.01" y="490.34" width="170.84" height="81.64"/><rect class="cls-3" x="683.85" y="490.34" width="170.84" height="81.64"/><rect class="cls-3" x="854.69" y="490.34" width="170.84" height="81.64"/><text class="cls-5" transform="translate(213.6 59.39)">C<tspan class="cls-6" x="19.48" y="0">r</tspan><tspan class="cls-7" x="28.32" y="0">op 1</tspan></text><text class="cls-5" transform="translate(383.06 59.39)">C<tspan class="cls-6" x="19.48" y="0">r</tspan><tspan class="cls-7" x="28.32" y="0">op 2</tspan></text><text class="cls-5" transform="translate(552.51 59.39)">C<tspan class="cls-6" x="19.48" y="0">r</tspan><tspan class="cls-7" x="28.32" y="0">op 3</tspan></text><text class="cls-5" transform="translate(721.96 59.39)">C<tspan class="cls-6" x="19.48" y="0">r</tspan><tspan class="cls-7" x="28.32" y="0">op 4</tspan></text><path class="cls-8" d="M127.89,429.06a2.1,2.1,0,0,0-4,0C120.6,440,113.66,443,113.66,450.68a12.21,12.21,0,1,0,24.41,0C138.07,442.93,131.15,440.05,127.89,429.06Zm-2,29.53a7.78,7.78,0,0,1-7.77-7.77,1.11,1.11,0,1,1,2.22,0,5.56,5.56,0,0,0,5.55,5.55,1.11,1.11,0,0,1,0,2.22Z"/><path class="cls-9" d="M121.86,522.49H118.4a.18.18,0,0,0-.19.17l-.63,5.16c0,.1,0,.16.14.16h3.46a3,3,0,0,0,3.14-2.72A2.29,2.29,0,0,0,121.86,522.49Zm0,0H118.4a.18.18,0,0,0-.19.17l-.63,5.16c0,.1,0,.16.14.16h3.46a3,3,0,0,0,3.14-2.72A2.29,2.29,0,0,0,121.86,522.49Zm4-13.1a20.25,20.25,0,1,0,20.25,20.25A20.25,20.25,0,0,0,125.87,509.39Zm-4.66,21.8h-3.88a.2.2,0,0,0-.2.16l-.85,7a.5.5,0,0,1-.54.48h-2.95c-.27,0-.42-.17-.39-.48l2.32-18.88a.49.49,0,0,1,.51-.49h7.62c3.66,0,5.78,2.47,5.32,6.15A6.7,6.7,0,0,1,121.21,531.19Zm18.83-3-7.14,6.88c-.08.11-.05.2.06.2h6.12c.31,0,.45.17.39.48l-.31,2.66a.5.5,0,0,1-.54.48h-10.3c-.28,0-.43-.17-.4-.48l.34-2.8a1.07,1.07,0,0,1,.28-.6l7-6.88c.08-.11.06-.2-.06-.2h-5.6c-.32,0-.46-.17-.43-.48l.34-2.63a.49.49,0,0,1,.51-.48h10c.32,0,.46.17.43.48l-.34,2.77A.88.88,0,0,1,140,528.18Zm-18.18-5.69H118.4a.18.18,0,0,0-.19.17l-.63,5.16c0,.1,0,.16.14.16h3.46a3,3,0,0,0,3.14-2.72A2.29,2.29,0,0,0,121.86,522.49Z"/></g></g></svg>