<?xml version="1.0" encoding="UTF-8" standalone="no"?>
<!-- Created with Inkscape (http://www.inkscape.org/) -->

<svg
   xmlns:dc="http://purl.org/dc/elements/1.1/"
   xmlns:cc="http://creativecommons.org/ns#"
   xmlns:rdf="http://www.w3.org/1999/02/22-rdf-syntax-ns#"
   xmlns:svg="http://www.w3.org/2000/svg"
   xmlns="http://www.w3.org/2000/svg"
   xmlns:sodipodi="http://sodipodi.sourceforge.net/DTD/sodipodi-0.dtd"
   xmlns:inkscape="http://www.inkscape.org/namespaces/inkscape"
   width="103.25134mm"
   height="71.617455mm"
   viewBox="0 0 103.25134 71.617455"
   version="1.1"
   id="svg8"
   inkscape:version="0.92.2 5c3e80d, 2017-08-06"
   sodipodi:docname="image-storage.svg">
  <defs
     id="defs2">
    <clipPath
       clipPathUnits="userSpaceOnUse"
       id="clipPath893">
      <path
         style="fill:none;stroke:#000000;stroke-width:0.43013617px;stroke-linecap:butt;stroke-linejoin:miter;stroke-opacity:1"
         d="m 40.812404,154.13786 20.549817,25.92584 53.822259,-1.38243 30.96882,-18.50814 4.92686,-39.83276 -38.2418,-21.726965 -49.033958,1.207043 -27.215024,22.531672 0.46923,4.02351 z"
         id="path895"
         inkscape:connector-curvature="0" />
    </clipPath>
    <clipPath
       clipPathUnits="userSpaceOnUse"
       id="clipPath899">
      <path
         style="fill:none;stroke:#000000;stroke-width:0.26458332px;stroke-linecap:butt;stroke-linejoin:miter;stroke-opacity:1"
         d="m 37.797618,154.31399 36.096726,21.16666 33.072916,-0.75595 29.86012,-4.91369 11.33928,-15.875 2.45685,-27.21428 -9.63839,-18.70983 -29.10417,-9.071423 -36.096724,-3.779763 -27.78125,9.449406 -12.851191,22.67857 z"
         id="path901"
         inkscape:connector-curvature="0" />
    </clipPath>
  </defs>
  <sodipodi:namedview
     id="base"
     pagecolor="#ffffff"
     bordercolor="#666666"
     borderopacity="1.0"
     inkscape:pageopacity="0.0"
     inkscape:pageshadow="2"
     inkscape:zoom="1.4"
     inkscape:cx="-234.12234"
     inkscape:cy="100.71427"
     inkscape:document-units="mm"
     inkscape:current-layer="layer1"
     showgrid="false"
     inkscape:window-width="1672"
     inkscape:window-height="781"
     inkscape:window-x="442"
     inkscape:window-y="317"
     inkscape:window-maximized="0" />
  <metadata
     id="metadata5">
    <rdf:RDF>
      <cc:Work
         rdf:about="">
        <dc:format>image/svg+xml</dc:format>
        <dc:type
           rdf:resource="http://purl.org/dc/dcmitype/StillImage" />
        <dc:title />
      </cc:Work>
    </rdf:RDF>
  </metadata>
  <g
     inkscape:label="Calque 1"
     inkscape:groupmode="layer"
     id="layer1"
     transform="translate(-42.802474,-103.8632)">
    <g
       id="g885"
       clip-path="url(#clipPath899)"
       style="fill:#c4c4c4;fill-opacity:1;stroke:#797979;stroke-opacity:1;stroke-width:0.5;stroke-miterlimit:4;stroke-dasharray:none"
       inkscape:export-xdpi="90"
       inkscape:export-ydpi="90">
      <path
         inkscape:connector-curvature="0"
         id="path882"
         d="m 42.802474,174.28996 v -5.83982 l 3.224486,2.57637 c 1.773467,1.41701 5.949409,4.03006 9.279871,5.80679 l 6.055386,3.23041 -9.279871,0.033 -9.279872,0.033 z m 91.434446,1.96032 c 3.78648,-2.05559 7.76376,-4.63973 8.83841,-5.74253 2.74397,-2.81586 2.83683,-2.69119 2.83683,3.80846 v 5.81357 l -9.27987,-0.071 -9.27987,-0.071 z m -56.646309,-5.22143 c -14.685851,-2.8778 -27.095334,-9.4717 -32.107285,-17.06051 -2.641183,-3.99913 -2.680852,-4.23447 -2.680852,-15.90463 0,-14.62138 1.046356,-17.19827 9.440246,-23.24882 16.419664,-11.83575 51.32909,-14.57661 73.45994,-5.76759 9.16385,3.6476 16.40282,9.41876 18.50897,14.75599 2.4608,6.23601 2.45501,23.47014 -0.01,28.37726 -3.56601,7.10018 -12.97868,13.20235 -26.33575,17.07328 -8.32912,2.41381 -31.748703,3.44595 -40.275716,1.77502 z"
         style="fill:#c4c4c4;fill-opacity:1;stroke-width:0.5;stroke:#797979;stroke-opacity:1;stroke-miterlimit:4;stroke-dasharray:none" />
    </g>
    <path
       style="fill:#000000;stroke-width:1.03230906"
       d=""
       id="path880"
       inkscape:connector-curvature="0" />
    <ellipse
       style="fill:#6173b3;fill-opacity:1;stroke:none;stroke-width:0.24522761;stroke-miterlimit:4;stroke-dasharray:none;stroke-opacity:1"
       id="path903"
       cx="95.06102"
       cy="123.98138"
       rx="40.821426"
       ry="17.4814"
       inkscape:export-xdpi="90"
       inkscape:export-ydpi="90" />
  </g>
</svg>
