<?xml version="1.0" encoding="UTF-8" standalone="no"?>
<!-- Created with Inkscape (http://www.inkscape.org/) -->

<svg
   xmlns:dc="http://purl.org/dc/elements/1.1/"
   xmlns:cc="http://creativecommons.org/ns#"
   xmlns:rdf="http://www.w3.org/1999/02/22-rdf-syntax-ns#"
   xmlns:svg="http://www.w3.org/2000/svg"
   xmlns="http://www.w3.org/2000/svg"
   xmlns:sodipodi="http://sodipodi.sourceforge.net/DTD/sodipodi-0.dtd"
   xmlns:inkscape="http://www.inkscape.org/namespaces/inkscape"
   width="84.435593mm"
   height="69.222763mm"
   viewBox="0 0 84.435593 69.222763"
   version="1.1"
   id="svg8"
   inkscape:version="0.92.2 5c3e80d, 2017-08-06"
   sodipodi:docname="Cap_water_manager_positive.svg">
  <defs
     id="defs2" />
  <sodipodi:namedview
     id="base"
     pagecolor="#ffffff"
     bordercolor="#666666"
     borderopacity="1.0"
     inkscape:pageopacity="0.0"
     inkscape:pageshadow="2"
     inkscape:zoom="0.98994949"
     inkscape:cx="156.59056"
     inkscape:cy="93.309453"
     inkscape:document-units="mm"
     inkscape:current-layer="layer1"
     showgrid="false"
     fit-margin-top="0"
     fit-margin-left="0"
     fit-margin-right="0"
     fit-margin-bottom="0"
     inkscape:window-width="1459"
     inkscape:window-height="843"
     inkscape:window-x="782"
     inkscape:window-y="111"
     inkscape:window-maximized="0" />
  <metadata
     id="metadata5">
    <rdf:RDF>
      <cc:Work
         rdf:about="">
        <dc:format>image/svg+xml</dc:format>
        <dc:type
           rdf:resource="http://purl.org/dc/dcmitype/StillImage" />
        <dc:title></dc:title>
      </cc:Work>
    </rdf:RDF>
  </metadata>
  <g
     inkscape:label="Calque 1"
     inkscape:groupmode="layer"
     id="layer1"
     transform="translate(-70.226199,-104.27218)">
    <path
       style="fill:#000000;stroke-width:2.28388333;stroke:#000f10;stroke-opacity:0;stroke-miterlimit:4;stroke-dasharray:none"
       d="m 106.84144,172.95848 c -6.3672,-1.15274 -12.824911,-4.29949 -17.928318,-8.73622 -6.488697,-5.64106 -11.389838,-13.33896 -9.061562,-14.23241 1.14401,-0.43899 3.042137,-0.22271 6.494154,0.74 8.948897,2.49569 22.291586,3.64679 33.795366,2.91558 7.77698,-0.49433 14.48343,-1.50436 17.93843,-2.70165 5.67671,-1.96719 8.7235,-1.86958 8.7235,0.27949 0,2.56792 -6.29012,10.01209 -12.22123,14.46346 -8.69231,6.52368 -18.16156,9.00591 -27.74034,7.27175 z m -6.67692,-26.67926 c -6.087984,-0.5532 -17.926175,-2.30927 -19.238584,-2.85384 -1.58508,-0.65771 -2.449266,-1.96418 -2.449266,-3.70279 0,-0.78024 -0.101831,-1.68399 -0.226291,-2.00832 -0.12446,-0.32434 -1.844776,-1.92138 -3.822924,-3.54897 -3.779546,-3.10976 -4.646395,-4.42708 -4.011706,-6.09643 0.41882,-1.10158 1.947547,-2.10624 8.636705,-5.67594 8.324273,-4.44227 14.672314,-8.23081 20.878761,-12.46052 7.464045,-5.08676 8.615845,-5.61354 12.334195,-5.64108 3.26367,-0.0242 2.09552,-0.59006 13.80938,6.68973 8.22741,5.11307 15.07693,8.85097 19.38472,10.57859 5.59135,2.24238 8.25101,4.17742 9.04391,6.57993 0.57394,1.73907 -0.43566,3.76066 -2.64597,5.29816 -0.91467,0.63625 -2.46879,1.87888 -3.45359,2.76141 -1.70365,1.52672 -1.79993,1.72218 -1.9836,4.02719 -0.17523,2.19916 -0.29364,2.47063 -1.28389,2.94354 -1.36504,0.65191 -6.76656,1.76033 -12.53603,2.57247 -5.22062,0.73487 -26.39903,1.08542 -32.43582,0.53687 z m 14.85915,-9.63909 c 1.24514,-0.87684 2.28761,-2.32886 2.98435,-4.15678 0.28165,-0.73893 0.93023,-1.79925 1.44129,-2.35627 0.51527,-0.56161 1.01984,-1.68844 1.13264,-2.52951 0.17718,-1.32096 0.0373,-1.70593 -1.08359,-2.98257 -1.45441,-1.65648 -4.54654,-3.25411 -6.30903,-3.25972 -2.15303,-0.007 -4.98244,1.09385 -6.43296,2.50258 -2.16974,2.10723 -2.32603,4.00755 -0.50966,6.1968 0.49519,0.59686 1.00898,1.64584 1.14175,2.33108 0.352,1.8167 1.35586,3.14924 3.30245,4.38373 1.84434,1.16964 2.51668,1.14957 4.33276,-0.12934 z"
       id="path3764"
       inkscape:connector-curvature="0"
       inkscape:export-xdpi="96"
       inkscape:export-ydpi="96" />
    <path
       style="fill:none;fill-opacity:1;stroke:#000000;stroke-width:0.79374999;stroke-linecap:butt;stroke-linejoin:miter;stroke-miterlimit:4;stroke-dasharray:none;stroke-opacity:1"
       d="m 78.997022,140.51785 0.755952,10.77233 32.978426,6.2366 33.16741,-7.27604 -0.18899,-8.69345 z"
       id="path3766"
       inkscape:connector-curvature="0"
       sodipodi:nodetypes="cccccc"
       inkscape:export-xdpi="96"
       inkscape:export-ydpi="96" />
  </g>
</svg>
