<svg xmlns="http://www.w3.org/2000/svg" viewBox="0 0 172.09 107.6"><defs><style>.cls-1{fill:#fff;}.cls-2{fill:#d6e4e6;}</style></defs><title>Cloud</title><g id="Layer_2" data-name="Layer 2"><g id="Layer_1-2" data-name="Layer 1"><path class="cls-1" d="M99.55,106.64A30.52,30.52,0,0,1,74.44,93.47a1,1,0,0,0-.79-.42,1,1,0,0,0-.53.17,30.55,30.55,0,0,1-42.88-9.34,1,1,0,0,0-.81-.46,1,1,0,0,0-.37.08,20,20,0,0,1-7.83,1.56,20.27,20.27,0,1,1,6.23-39.57.93.93,0,0,0,.29,0,1,1,0,0,0,.66-.27,1,1,0,0,0,.26-.94,30.53,30.53,0,0,1,49.41-31.1,1,1,0,0,0,.63.24h.1a1,1,0,0,0,.66-.37A30.55,30.55,0,0,1,129,14.17a1,1,0,0,0,.79.42l.18,0a16.74,16.74,0,0,1,3.11-.28,17.22,17.22,0,0,1,17.17,16,1,1,0,0,0,.66.85,29,29,0,0,1-8.74,56.6,28.48,28.48,0,0,1-12.27-2.73,1,1,0,0,0-.41-.09,1,1,0,0,0-.38.08,1,1,0,0,0-.53.58A30.47,30.47,0,0,1,99.55,106.64Z"/><path class="cls-2" d="M103.84,1.91a29.63,29.63,0,0,1,24.37,12.81,1.91,1.91,0,0,0,1.57.82,2.07,2.07,0,0,0,.35,0,15.84,15.84,0,0,1,2.94-.27,16.27,16.27,0,0,1,16.21,15.15,1.9,1.9,0,0,0,1.33,1.7,28,28,0,1,1-20.32,52.1,1.88,1.88,0,0,0-.81-.18,2,2,0,0,0-.76.15,1.93,1.93,0,0,0-1.06,1.16,29.57,29.57,0,0,1-52.44,7.6,1.91,1.91,0,0,0-1.57-.82,1.86,1.86,0,0,0-1.06.32,29.57,29.57,0,0,1-41.54-9,1.91,1.91,0,0,0-2.36-.75,19.11,19.11,0,0,1-7.46,1.49A19.32,19.32,0,1,1,27.16,46.4a2,2,0,0,0,.59.09,1.91,1.91,0,0,0,1.84-2.41A29.57,29.57,0,0,1,77.46,14a1.87,1.87,0,0,0,1.25.47h.2a1.83,1.83,0,0,0,1.32-.75A29.42,29.42,0,0,1,103.84,1.91m0-1.91A31.43,31.43,0,0,0,78.71,12.51a31.48,31.48,0,0,0-51,32.07,21.23,21.23,0,1,0,1.68,39.8A31.48,31.48,0,0,0,73.65,94a31.49,31.49,0,0,0,55.83-8.09,29.93,29.93,0,1,0,21.71-55.65,18.15,18.15,0,0,0-18.12-16.94,17.9,17.9,0,0,0-3.29.3A31.47,31.47,0,0,0,103.84,0Z"/></g></g></svg>