<svg xmlns="http://www.w3.org/2000/svg" viewBox="0 0 41.84 43"><defs><style>.cls-1{fill:#4fc0dd;}</style></defs><title>Crop_beans_blue</title><g id="Layer_2" data-name="Layer 2"><g id="Layer_1-2" data-name="Layer 1"><path class="cls-1" d="M40.89,2.25,40.81,2A1.5,1.5,0,0,0,40.56.5a1.91,1.91,0,0,0-1.8-.44l-.15.05-.37.15a18.19,18.19,0,0,0-2.81,1.33l-.07,0A7.78,7.78,0,0,0,22.85,7.8v0a7.79,7.79,0,0,0-6.07,7.1,7.79,7.79,0,0,0-6.85,7.21c-.21,0-.41,0-.62,0a7.8,7.8,0,0,0-7.79,7.79,7.72,7.72,0,0,0,1,3.68l-.22.29L2,34.19c-.11.15-.21.29-.3.43l-.19.27-.4.56-.08.12-.32.48,0,.05h0c-.14.21-.25.38-.32.5l-.08.07a.93.93,0,0,0-.24,1,3.42,3.42,0,0,0,.74,1A12.57,12.57,0,0,0,10.19,43a15.85,15.85,0,0,0,9.54-3.53C30.12,31.56,39,18.5,39.14,18.34,43.38,11.6,41.5,4.57,40.89,2.25ZM37.28,3.76l-.13-.2-.29-.42L36.77,3c.34-.17.67-.34,1-.49C37.62,2.94,37.45,3.35,37.28,3.76ZM30.63,1.89a5.93,5.93,0,0,1,4.09,1.65,1.8,1.8,0,0,1,.19.2,5,5,0,0,1,.37.43l.19.24c.11.16.21.33.3.49s.1.16.14.24a7.75,7.75,0,0,1,.33.79c-.48.92-1,1.84-1.58,2.72l-.15.23,0,.08-.12.17-.13.19L34,9.58l-.16.24-.21.3-.21.31c-.08.11-.17.23-.25.36l-.25.34c-.09.14-.19.29-.3.43s-.17.25-.27.38l-.35.49-.2.27-.07-.15-.07-.15a4.9,4.9,0,0,0-.24-.52c-.06-.13-.13-.25-.2-.37v0l0,0v0a.06.06,0,0,0,0,0l-.07-.09c-.05-.09-.11-.17-.17-.26s-.23-.33-.36-.49l0-.05,0,0h0v0h0l-.1-.1-.19-.21-.42-.43-.24-.2h0l-.29-.24L28.92,9,28.86,9h0l0,0-.08-.05-.3-.17c-.16-.09-.32-.18-.49-.26l-.1-.06h-.05l0,0a1.45,1.45,0,0,1-.22-.09l-.17-.06a1.09,1.09,0,0,0-.23-.09L26.94,8l-.27-.09h0A5,5,0,0,0,26,7.77l-.2,0a7,7,0,0,0-.92-.09l-.13,0A5.92,5.92,0,0,1,30.63,1.89ZM24,9.53a5.68,5.68,0,0,1,.59,0,5.87,5.87,0,0,1,1.92.34l.33.12a5.59,5.59,0,0,1,.65.32l.21.12a5.51,5.51,0,0,1,.73.54l.07.05a5.47,5.47,0,0,1,.7.74.21.21,0,0,1,0,.06,4.89,4.89,0,0,1,.5.75l.15.29a5.22,5.22,0,0,1,.25.59l.12.36c.05.19.09.38.13.58a2.47,2.47,0,0,1,.06.29l0,0c-.1.15-.22.29-.32.43-.32.41-.62.82-.94,1.21l-.5.64-.81,1c-.19.23-.38.45-.56.68l-.77.93-.57.66-.6.7a8.84,8.84,0,0,0-.35-1.14v0a8.27,8.27,0,0,0-.5-1l-.05-.07A7.54,7.54,0,0,0,23,17l-.12-.11a8,8,0,0,0-.86-.68h0a8.56,8.56,0,0,0-.93-.53l-.17-.08a8.53,8.53,0,0,0-1-.37l-.15,0a6.43,6.43,0,0,0-1-.2l-.11,0A5.94,5.94,0,0,1,24,9.53Zm-12.18,13a5.94,5.94,0,0,1,5.92-5.77h0a6.39,6.39,0,0,1,1,.1l.15,0,.38.09.18,0,.35.12.18.07.34.16.17.08.32.19.15.09.32.23.13.1.3.26a.52.52,0,0,1,.11.1,2.76,2.76,0,0,1,.29.3l.09.09a3,3,0,0,1,.27.35l.07.08c.09.13.17.26.25.39a.16.16,0,0,1,0,.07c.09.14.16.29.24.44v0a5.32,5.32,0,0,1,.21.5h0a5.77,5.77,0,0,1,.34,1.67h0c0,.11,0,.21,0,.32a1.48,1.48,0,0,1,0,.21,73.36,73.36,0,0,1-5.77,5.71c-.21,0-.41,0-.62,0l-.2,0h0a0,0,0,0,1,0,0,7.79,7.79,0,0,0-.24-1l0-.08a6.51,6.51,0,0,0-.31-.77,2.59,2.59,0,0,0-.14-.29c-.09-.18-.19-.36-.29-.53s-.12-.2-.19-.3-.31-.43-.48-.64-.2-.22-.3-.33l-.32-.33L14.34,24c-.17-.15-.35-.28-.53-.41l-.27-.19c-.22-.14-.46-.27-.69-.4l-.21-.1a7.92,7.92,0,0,0-.85-.34ZM9.31,24a5.92,5.92,0,0,1,1.34.16h0a5.78,5.78,0,0,1,1.66.67l.16.09a5.79,5.79,0,0,1,.62.45l.16.15a4.07,4.07,0,0,1,.42.41,1.54,1.54,0,0,1,.17.19,6.31,6.31,0,0,1,.44.58,2,2,0,0,1,.11.2,6.7,6.7,0,0,1,.37.7h0a6.73,6.73,0,0,1,.28.83l0,.09a6.5,6.5,0,0,1,.15.9h0c0,.16,0,.33,0,.49a6.11,6.11,0,0,1-.06.86c-.9.68-1.81,1.32-2.71,1.89l-.53.32-.59.34-.56.32h0l-.58.29c-.2.11-.41.21-.61.3h0l-.77.34h0l-.42.17c-.24.09-.48.18-.72.25l-.38.12h0l-.51.14c-.16-.07-.3-.17-.45-.25s-.17-.09-.25-.15-.18-.14-.28-.21-.24-.17-.36-.27a6.26,6.26,0,0,1-1.06-1.23l-.05-.06a5.92,5.92,0,0,1,5-9.09ZM3.61,35.18l.06.06a4.78,4.78,0,0,0,.39.39l-.83.08Zm34-17.86c-.09.12-8.83,12.94-19,20.66-5.72,4.36-11.94,4.2-16.27-.38h.13a18.08,18.08,0,0,0,1.82-.11,12.92,12.92,0,0,0,2.52-.35h.1c.42-.1.85-.23,1.29-.37h0l.42-.15.87-.33h0l.5-.22c.26-.11.51-.23.77-.36h0l.43-.22.4-.21h0l.39-.22,0,0h0l.39-.23.37-.21.09-.05,0,0,.28-.17,0,0,.13-.08.17-.11q.43-.27.87-.57c.28-.18.55-.37.82-.56l.07,0c6.63-4.67,12-11.22,16.52-17.14a2.69,2.69,0,0,0,.2-.27l.06-.08h0l.24-.33h0l0,0C35,11.71,37.68,8,39.32,3.68,40,6.39,40.91,12,37.58,17.32Z"/></g></g></svg>