<svg xmlns="http://www.w3.org/2000/svg" viewBox="0 0 51.74 51.25"><defs><style>.cls-1{fill:#fff;stroke:#fff;stroke-miterlimit:10;stroke-width:0.74px;}</style></defs><title>Crop_Wheat</title><g id="Layer_2" data-name="Layer 2"><g id="Layer_1-2" data-name="Layer 1"><path class="cls-1" d="M7.06,48.38a29,29,0,0,0,1.83-2.87,9.48,9.48,0,0,1,.82-1.27c.18-.23.42-.41.57-.63a10.69,10.69,0,0,0,7.8,1.56c3.24-.62,5.58-3,8.52-4.25a.56.56,0,0,0,.22-.78A3.76,3.76,0,0,0,25.34,39a8.88,8.88,0,0,0,1.16-.42,12,12,0,0,0,2.76-1.52,12.29,12.29,0,0,0,3.82-4.36.56.56,0,0,0-.5-.83l-.34,0c.27-.15.53-.31.79-.48a11.88,11.88,0,0,0,2.33-1.9,10.7,10.7,0,0,0,1.71-2.56,14.53,14.53,0,0,0,1.32-2.61.57.57,0,0,0-.57-.71l-.92.07a8.74,8.74,0,0,0,1.83-1.76c1.07-1.32,1.74-2.84,2.68-4.24a.53.53,0,0,0-.21-.73c.73-.78,1.14-2,.61-2.81a.93.93,0,0,0-.21-.23l.51-.14c1.11-.28,2.2-.66,3.28-1a16.15,16.15,0,0,0,5.54-2.86.37.37,0,0,0,0-.53c-1.42-1.17-4,.06-5.35.68l-.49.22L46,9.61c.87-.63,1.74-1.25,2.55-1.95a15.81,15.81,0,0,0,2.14-2.19c.42-.54.9-1.25.57-1.93a.39.39,0,0,0-.45-.17,10.12,10.12,0,0,0-4.47,3.09c-.41.44-.81.9-1.2,1.36A13.92,13.92,0,0,0,47.28.72a.38.38,0,0,0-.63-.25,11.94,11.94,0,0,0-1.77,2.87c-.7,1.25-1.45,2.5-2.22,3.72s-1.51,2.32-2.33,3.45A14.38,14.38,0,0,1,39,12.18c-.12.12-.23.23-.33.35a4.4,4.4,0,0,0-.25-1.29.53.53,0,0,0-.62-.34,5.51,5.51,0,0,0-2.05,1.23c-.08.07-.23.2-.39.36,0-.17-.06-.35-.1-.52a.54.54,0,0,0-.78-.3,15.88,15.88,0,0,0-1.87,1.61,9.67,9.67,0,0,1-1.85,1.31,7.07,7.07,0,0,0-1.92,1.32q-.06-.39-.09-.78a.63.63,0,0,0-.94-.51c-.55.34-1,.8-1.55,1.19s-1.08.77-1.64,1.13c-.76.49-1.56.93-2.31,1.42a9,9,0,0,0-1.94,1.57,3,3,0,0,0-.32.47,5.08,5.08,0,0,0-1.4-1.17.63.63,0,0,0-.9.35c-.57,1.79-2.19,3-3.47,4.37a8.22,8.22,0,0,0-1.47,2,3.74,3.74,0,0,0-.28-.52.62.62,0,0,0-.83-.21A11,11,0,0,0,6.72,31a12.08,12.08,0,0,0-.44,4.67,13.84,13.84,0,0,0,.72,4c.12.32.5.72.5,1.07s-.45.48-.69.68c-.63.52-1.08,1.2-1.71,1.73-.82.69-1.72,1.3-2.59,1.95a5.35,5.35,0,0,0-2,2.14c-.56,1.57,1.21,3.37,2.76,3.66C5,51.16,6.19,49.51,7.06,48.38ZM31.67,33a11.49,11.49,0,0,1-3.11,3.22,12,12,0,0,1-2.38,1.32c-.71.31-1.48.49-2.16.86-1-.51-1.82-1.16-2.79-1.66a7.52,7.52,0,0,0-5.88-.29,5.61,5.61,0,0,1,.67-.84c.64-.59,1.38-1.07,2-1.64a19.93,19.93,0,0,0,2.05-2.06,9.63,9.63,0,0,1,1-.52,6.51,6.51,0,0,1,1.4-.34,9.35,9.35,0,0,1,2.89.12C27.51,31.56,29.5,32.82,31.67,33ZM37,24.8c-.25.54-.59,1-.86,1.57a9.69,9.69,0,0,1-1.71,2.46,12.25,12.25,0,0,1-2.21,1.7,11.38,11.38,0,0,0-1.56,1.08,15.25,15.25,0,0,1-2-.61A16.69,16.69,0,0,0,24.91,30a10.43,10.43,0,0,0-2.37,0c.68-.54,1.32-1.13,1.91-1.69s1.15-1.38,1.78-2a5.71,5.71,0,0,1,2-1A9.05,9.05,0,0,1,31,24.71C33,24.62,35,25,37,24.8Zm2.34-6.86.75,0A17.74,17.74,0,0,1,38,21.09a8.34,8.34,0,0,1-1.65,1.6,4,4,0,0,1-2.45.89,21.53,21.53,0,0,0-3.5,0c-.34,0-.67.09-1,.16.48-.38.94-.79,1.38-1.15A17,17,0,0,0,34,19.36a3,3,0,0,0,.2-.29,7.23,7.23,0,0,1,1.32-.77A6.65,6.65,0,0,1,37.4,18C38,17.91,38.68,17.93,39.32,17.94ZM41,14.58c.55.4-.52,1.65-1.05,2.25l-.84,0a16.69,16.69,0,0,0-1.87.06,5.2,5.2,0,0,0,.34-.55,10.4,10.4,0,0,0,.69-1.57,7.57,7.57,0,0,0,1.05-.15C39.69,14.58,40.66,14.33,41,14.58ZM49.76,9.8A17.68,17.68,0,0,1,44.9,12c-1,.33-2,.65-3,.93-.29.08-.58.14-.88.2.61-.3,1.21-.61,1.81-.88.93-.41,1.86-.79,2.78-1.21A9.64,9.64,0,0,1,49.76,9.8ZM46.69,7.24a11,11,0,0,1,3.91-3,4.32,4.32,0,0,1-1,1.33,18.52,18.52,0,0,1-2,1.85c-.84.67-1.74,1.29-2.64,1.89l-.14.09C45.46,8.68,46.05,7.93,46.69,7.24ZM40.9,11.3c.87-1.13,1.64-2.32,2.41-3.51s1.52-2.45,2.18-3.72c.36-.69.65-1.43,1-2.12-.25,2.41-1.61,4.67-2.9,6.71A10.48,10.48,0,0,1,41,11.92c-.63.44-1.26.78-1.83,1.23h0l-.07,0A13,13,0,0,0,40.9,11.3Zm-3.27.76a4.91,4.91,0,0,1-.43,2.6,12.5,12.5,0,0,1-.65,1.39A2.75,2.75,0,0,1,36,17c-.18.14-.93.27-1,.42a9.4,9.4,0,0,0,.42-1.64,8.19,8.19,0,0,0,.05-2.26,3.54,3.54,0,0,0,1.07-.7A9,9,0,0,1,37.63,12.06Zm-5.78,3.25a12.54,12.54,0,0,0,2.73-2.26,6.45,6.45,0,0,1-.19,2.88,8.16,8.16,0,0,1-1.53,3.23,17.71,17.71,0,0,1-3,2.82c-.59.46-1.31.92-1.91,1.46a10.55,10.55,0,0,0,1-3.63,20.2,20.2,0,0,0,0-2.46A.18.18,0,0,0,29,17.3a6.3,6.3,0,0,1,1.22-1.14C30.77,15.85,31.33,15.61,31.85,15.31Zm-10.23,5a13.87,13.87,0,0,1,1.8-1.22c.78-.46,1.57-.9,2.32-1.39a21.38,21.38,0,0,0,2.07-1.44c.05.43,0,.89,0,1.25a19.61,19.61,0,0,1,0,2.3,10.08,10.08,0,0,1-1.61,4.39,16,16,0,0,1-2.92,3.5c-.41.37-.87.72-1.32,1.09a6,6,0,0,0,.36-2.52,11.47,11.47,0,0,0-1-3.74,10.61,10.61,0,0,0-.63-1.2A3.13,3.13,0,0,1,21.62,20.31Zm-5.87,3.78a13.27,13.27,0,0,0,2.84-3.44,7.45,7.45,0,0,1,2,3.16A6.78,6.78,0,0,1,21,28.13a11.21,11.21,0,0,1-3.26,4.56c-.73.68-1.55,1.26-2.3,1.92a2.39,2.39,0,0,0-.23.22A10,10,0,0,0,14.75,30a12.62,12.62,0,0,0-1.13-2.23,1.74,1.74,0,0,1-.11-.18C13.62,26.12,14.75,25.08,15.75,24.09ZM8.58,40a8.85,8.85,0,0,1-.9-3.19,14.75,14.75,0,0,1-.06-4.35,9,9,0,0,1,4.12-6A13.31,13.31,0,0,0,12.36,28a14.91,14.91,0,0,1,1.15,2.11A8.83,8.83,0,0,1,14,34.66a7.84,7.84,0,0,1-1.84,4,24.82,24.82,0,0,1-2.82,2.5A6.7,6.7,0,0,1,8.58,40Zm5.36-1.91a18,18,0,0,1,3.4-1,5.54,5.54,0,0,1,3.56.71c.91.49,1.74,1.12,2.66,1.59a13.15,13.15,0,0,1,1.74.84c-2.16,1-4,2.6-6.26,3.4a9.23,9.23,0,0,1-6,0,8.42,8.42,0,0,1-3-1.76A12.67,12.67,0,0,0,13.94,38.13ZM2.8,49.43c-.58-.36-1.35-1-1.26-1.74s1.21-1.43,1.79-1.87,1.48-1.07,2.18-1.65A14.7,14.7,0,0,0,7,42.62l.74-.84c.09-.09.17-.2.26-.31a8.33,8.33,0,0,0,1.31,1.41,3,3,0,0,0-.72.75c-.46.61-.82,1.3-1.21,1.94a12.44,12.44,0,0,1-2.85,3.79A1.39,1.39,0,0,1,2.8,49.43Z"/></g></g></svg>