<svg xmlns="http://www.w3.org/2000/svg" viewBox="0 0 45.94 51.22"><defs><style>.cls-1{fill:#fff;}</style></defs><title>Crop_Rice</title><g id="Layer_2" data-name="Layer 2"><g id="Layer_1-2" data-name="Layer 1"><path class="cls-1" d="M45.86,24.91a1,1,0,0,0-.49-.78,1,1,0,0,0-.93,0,23.05,23.05,0,0,0-3.14,1.8,36.61,36.61,0,0,0,.26-17.44,1,1,0,0,0-.71-.72,1,1,0,0,0-1,.26,31.19,31.19,0,0,0-4.41,5.79c0-.23,0-.47,0-.71A23.5,23.5,0,0,0,32.07.46,1,1,0,0,0,31.23,0a1,1,0,0,0-.84.46A21.61,21.61,0,0,0,27.45,8,10.79,10.79,0,0,0,20.37,5.4,10.59,10.59,0,0,0,16.75,6h0A8.1,8.1,0,0,0,11,1.49c-2.52-.43-5.12.56-7.32,2.81a1,1,0,0,0-.2,1.12,10.33,10.33,0,0,0,2.06,3,7.74,7.74,0,0,0-1,.36C2.22,9.83.61,12.1,0,15.19a1,1,0,0,0,.46,1,10.65,10.65,0,0,0,2.6,1.17l-.16.15C1.12,19.36.43,22.06,1,25.16a1,1,0,0,0,.8.8l.71.11A8.48,8.48,0,0,0,1,33.21a1,1,0,0,0,.8.81,12.31,12.31,0,0,0,2.05.19,9.16,9.16,0,0,0,2.32-.29,6.81,6.81,0,0,0-.23,1.74c0,2.56,1.42,5,4,6.74a1,1,0,0,0,1.14,0c2.59-1.79,4-4.18,4-6.74a6.81,6.81,0,0,0-.23-1.74,9.16,9.16,0,0,0,2.32.29,12.31,12.31,0,0,0,2-.19,1,1,0,0,0,.8-.81,8.51,8.51,0,0,0-1.51-7.14l.71-.11a1,1,0,0,0,.8-.8,8.83,8.83,0,0,0-1-6.47,10.87,10.87,0,0,0,1.47-.17,1,1,0,0,0,.8-.8,10.6,10.6,0,0,0,.18-1.9c.21,0,.43,0,.65,0A10.09,10.09,0,0,0,24,15.67a1,1,0,0,0,.81-.8A7.64,7.64,0,0,0,23,7.9l-.14-.13a8.86,8.86,0,0,1,6.35,8.49V34.32a18.74,18.74,0,0,0-4.83-6.44,1,1,0,0,0-1.56.37A19.63,19.63,0,0,0,22,40.46a20.34,20.34,0,0,0,4.43,8.76H10.52a1,1,0,1,0,0,2h32a1,1,0,0,0,0-2H34a26.62,26.62,0,0,0,5.67-5.38,1,1,0,0,0-.16-1.4,1,1,0,0,0-1.41.16,23.9,23.9,0,0,1-6.88,6v-.07a23.14,23.14,0,0,1,1-6.65l0-.08A27.39,27.39,0,0,1,34.77,36a26.87,26.87,0,0,1,5.37-6.64l.1-.09a22.06,22.06,0,0,1,3.7-2.65,24.21,24.21,0,0,1-1.79,9,1,1,0,0,0,.56,1.3,1,1,0,0,0,1.3-.56A25.3,25.3,0,0,0,45.86,24.91ZM10.69,3.46A6.09,6.09,0,0,1,14.85,6.8a6.1,6.1,0,0,1-5,1.74A6,6,0,0,1,5.65,5.21,6.07,6.07,0,0,1,10.69,3.46Zm1.84,12c-.32,0-.65,0-1,.05a9.18,9.18,0,0,1,.31-1.66A6.58,6.58,0,0,0,12.53,15.43ZM2.14,14.87a6.07,6.07,0,0,1,3.22-4.25,6.07,6.07,0,0,1,5.32.47,6.12,6.12,0,0,1-3.23,4.25,4.81,4.81,0,0,1-.86.28l-.13,0A6.59,6.59,0,0,1,2.14,14.87ZM4.34,19a5.16,5.16,0,0,1,2.53-1.36h0a7.85,7.85,0,0,1,2.54-.11A6.07,6.07,0,0,1,8,22.62a5.06,5.06,0,0,1-2.14,1.25l-.1,0a7.56,7.56,0,0,1-2.89.19A6.06,6.06,0,0,1,4.34,19ZM2.86,32.15A6.09,6.09,0,0,1,4.34,27a5,5,0,0,1,2.19-1.27h0a7.38,7.38,0,0,1,2.89-.2A6.34,6.34,0,0,1,8.4,30.2c-.21.21-.4.42-.59.63A6.12,6.12,0,0,1,2.86,32.15Zm7.66,8.18a6.08,6.08,0,0,1-2.58-4.67,5.44,5.44,0,0,1,1.35-3.47l.11-.1c.17-.17.33-.35.49-.54a7,7,0,0,1,.63-.56,7,7,0,0,1,.63.56c.16.19.32.37.49.54l.11.1a5.44,5.44,0,0,1,1.35,3.47A6.08,6.08,0,0,1,10.52,40.33Zm7.66-8.18a6.12,6.12,0,0,1-4.95-1.32c-.19-.21-.38-.42-.59-.63a6.34,6.34,0,0,1-1.06-4.65,7.58,7.58,0,0,1,2.89.19l0,0A5,5,0,0,1,16.7,27,6.09,6.09,0,0,1,18.18,32.15Zm0-8.06a7.63,7.63,0,0,1-2.9-.19l-.09,0a5.12,5.12,0,0,1-2.14-1.25,6.07,6.07,0,0,1-1.47-5.13A6.09,6.09,0,0,1,16.7,19,6.09,6.09,0,0,1,18.18,24.09Zm1.26-7.44A5.35,5.35,0,0,1,15,15.33a5.38,5.38,0,0,1-1.32-4.49,5.4,5.4,0,0,1,4.49,1.32A5.4,5.4,0,0,1,19.44,16.65Zm3.49-2.84a7.4,7.4,0,0,1-1.7,0,6.5,6.5,0,0,0-1.7-3,6.7,6.7,0,0,0-4-1.88A8.3,8.3,0,0,1,17.21,8a5.33,5.33,0,0,1,4.4,1.33A5.38,5.38,0,0,1,22.93,13.81Zm5.52,34.67A18.09,18.09,0,0,1,23.93,40a18,18,0,0,1,.24-9.6,18.86,18.86,0,0,1,4.28,18.08ZM29.17,9.9s0-.08,0-.12a21.16,21.16,0,0,1,2-6.77,22.39,22.39,0,0,1,2.25,10.06,24,24,0,0,1-1,6.87c-.24.63-.47,1.26-.68,1.91-.19.44-.38.86-.59,1.27V16.26A10.83,10.83,0,0,0,29.17,9.9ZM39.1,26.46c-.14.51-.29,1-.45,1.52A29.17,29.17,0,0,0,33,35c-.49.85-.93,1.71-1.33,2.58A38.7,38.7,0,0,1,33,24.83c.21-.78.44-1.54.69-2.29s.48-1.28.69-1.94A34.21,34.21,0,0,1,40,10.8,36.63,36.63,0,0,1,39.1,26.46Z"/></g></g></svg>