<svg xmlns="http://www.w3.org/2000/svg" viewBox="0 0 43 43"><defs><style>.cls-1{fill:#4fc0dd;}</style></defs><title>Crop_corn_blue</title><g id="Layer_2" data-name="Layer 2"><g id="Layer_1-2" data-name="Layer 1"><path class="cls-1" d="M22.7,29.79a.83.83,0,0,0-1.18,0,.84.84,0,0,0,0,1.19.83.83,0,0,0,1.18,0A.84.84,0,0,0,22.7,29.79Z"/><path class="cls-1" d="M20.17,32A.84.84,0,0,0,19,31.91c-3.76,3.3-7.39,3.82-9.36,3.26a.84.84,0,1,0-.46,1.61,7.27,7.27,0,0,0,2,.26,11,11,0,0,0,3-.46,16.18,16.18,0,0,0,5.94-3.4A.84.84,0,0,0,20.17,32Z"/><path class="cls-1" d="M41.92,9.51c1.46-4,1.44-6.86-.07-8.37S37.59-.38,33.6,1.05a48.07,48.07,0,0,0-10.23,5.4A43.57,43.57,0,0,0,18.6,10.2a14.32,14.32,0,0,0-2.74-3.88.84.84,0,0,0-1.29,1.07c.32.45.37,1.72-.52,3.8a32,32,0,0,1-6,8.56c-3.59,3.94-6.36,9.33-5.2,14.46L.74,36.32a2.5,2.5,0,0,0,0,3.56l2.37,2.38a2.52,2.52,0,0,0,3.56,0l2.11-2.11c4.92,1.11,10.28-1.43,14-4.89A33.65,33.65,0,0,1,31.63,29c2.15-.94,3.46-.9,3.93-.58a.84.84,0,0,0,1.12-.15.85.85,0,0,0,0-1.13,12,12,0,0,0-4-2.56,43,43,0,0,0,3.71-4.65A48.75,48.75,0,0,0,41.92,9.51ZM5.49,41.07a.84.84,0,0,1-1.19,0L1.92,38.7a.86.86,0,0,1,0-1.19L3.45,36a7.22,7.22,0,0,0,1.36,2A7.31,7.31,0,0,0,7,39.55ZM33.23,26.65a12.34,12.34,0,0,0-2.27.76A36.35,36.35,0,0,0,21.65,34C15.86,39.41,9,39.87,6.08,36.91a6,6,0,0,1-1.49-2.67c-1.11-3.92.65-8.92,4.7-13.36a34.51,34.51,0,0,0,6.3-9,11,11,0,0,0,.73-2.28A13.17,13.17,0,0,1,18.13,14a13.78,13.78,0,0,1-.88,7.37,25.64,25.64,0,0,1-5.19,8.36.84.84,0,0,0,0,1.16.83.83,0,0,0,1.16,0c5.39-4.94,12-6.88,17.67-5.18A12.56,12.56,0,0,1,33.23,26.65ZM30.91,24a19,19,0,0,0-14.17,2.28c2.62-4.35,3.8-9,3-12.61a14.72,14.72,0,0,0-.48-1.76,39.75,39.75,0,0,1,5-4,46.4,46.4,0,0,1,9.85-5.21c3.23-1.16,5.53-1.26,6.5-.3s.86,3.33-.33,6.61a46.75,46.75,0,0,1-5.35,10A40.44,40.44,0,0,1,30.91,24Z"/><path class="cls-1" d="M23.91,14.39,22.72,13.2a.84.84,0,0,0-1.19,1.19l1.19,1.18a.84.84,0,0,0,1.19-1.18Z"/><path class="cls-1" d="M29.84,20.32l-1.18-1.18a.84.84,0,0,0-1.19,0,.83.83,0,0,0,0,1.18l1.19,1.19a.83.83,0,0,0,1.18,0A.84.84,0,0,0,29.84,20.32Z"/><path class="cls-1" d="M29.25,15l-1.19-1.19a.84.84,0,0,0-1.19,0,.86.86,0,0,0,0,1.19l1.19,1.19A.84.84,0,1,0,29.25,15Z"/><path class="cls-1" d="M24.5,19.73l-1.19-1.19a.84.84,0,0,0-1.19,0,.86.86,0,0,0,0,1.19l1.19,1.19a.84.84,0,1,0,1.19-1.19Z"/><path class="cls-1" d="M34,10.23,32.81,9a.84.84,0,0,0-1.19,0,.86.86,0,0,0,0,1.19l1.19,1.19A.84.84,0,0,0,34,10.23Z"/><path class="cls-1" d="M37.56,6.67,36.37,5.48a.83.83,0,0,0-1.18,0,.84.84,0,0,0,0,1.19l1.18,1.19a.86.86,0,0,0,1.19,0A.84.84,0,0,0,37.56,6.67Z"/><path class="cls-1" d="M28.66,9.64,27.47,8.45a.84.84,0,0,0-1.19,1.19l1.19,1.18a.84.84,0,0,0,1.19-1.18Z"/><path class="cls-1" d="M34.59,15.57l-1.18-1.18a.84.84,0,0,0-1.19,0,.83.83,0,0,0,0,1.18l1.19,1.19a.83.83,0,0,0,1.18,0A.84.84,0,0,0,34.59,15.57Z"/></g></g></svg>