<svg xmlns="http://www.w3.org/2000/svg" viewBox="0 0 89.19 78.37"><defs><style>.cls-1{fill:#fff;}</style></defs><title>Crop_fallow</title><g id="Layer_2" data-name="Layer 2"><g id="Layer_1-2" data-name="Layer 1"><path class="cls-1" d="M8.78,14.81a1.11,1.11,0,0,0,1.11,1H28.8A1.11,1.11,0,0,0,29.88,15,5.15,5.15,0,0,0,30,13.78,5.31,5.31,0,0,0,22.53,9a6.16,6.16,0,0,0-10.18,1.13,4.56,4.56,0,0,0-3.58,4.45,1.93,1.93,0,0,0,0,.24Zm4.4-2.6a1.1,1.1,0,0,0,1-.71,3.94,3.94,0,0,1,7.1-.52,1.09,1.09,0,0,0,.74.54,1.13,1.13,0,0,0,.89-.2,3,3,0,0,1,1.85-.62,3.08,3.08,0,0,1,3.07,2.93H11.17A2.33,2.33,0,0,1,13.18,12.21Z"/><path class="cls-1" d="M43.7,20.91H60.38a1.1,1.1,0,0,0,1.11-1v0c0-.07,0-.14,0-.22a4.15,4.15,0,0,0-3.22-4,5.56,5.56,0,0,0-9.1-1.05,4.93,4.93,0,0,0-1.9-.39A4.82,4.82,0,0,0,42.48,19a4.75,4.75,0,0,0,.14,1.11A1.1,1.1,0,0,0,43.7,20.91Zm3.59-4.54a2.56,2.56,0,0,1,1.55.52,1.14,1.14,0,0,0,.89.2,1.16,1.16,0,0,0,.75-.54,3.33,3.33,0,0,1,6,.44,1.12,1.12,0,0,0,1,.71,1.92,1.92,0,0,1,1.58,1H44.72A2.58,2.58,0,0,1,47.29,16.37Z"/><path class="cls-1" d="M64.33,9.16H83.42a1.1,1.1,0,0,0,1.11-1v0c0-.08,0-.16,0-.25a4.59,4.59,0,0,0-3.62-4.47A6.2,6.2,0,0,0,70.66,2.22a5.25,5.25,0,0,0-2.22-.49,5.32,5.32,0,0,0-5.19,6.58A1.1,1.1,0,0,0,64.33,9.16ZM68.44,4a3,3,0,0,1,1.87.63,1.11,1.11,0,0,0,1.63-.34,4,4,0,0,1,7.19.52,1.1,1.1,0,0,0,1,.71,2.39,2.39,0,0,1,2.05,1.46H65.33A3.11,3.11,0,0,1,68.44,4Z"/><path class="cls-1" d="M88.08,42.2A1.11,1.11,0,0,0,88.4,40,150.44,150.44,0,0,0,68.24,35.4c4-3.9,7.4-5.95,10.2-6q4.69,1.09,9.32,2.5a1.17,1.17,0,0,0,.32,0,1.09,1.09,0,0,0,1.06-.78,1.11,1.11,0,0,0-.74-1.39,151.3,151.3,0,0,0-87.61,0,1.11,1.11,0,0,0,.64,2.13A148.89,148.89,0,0,1,23,27a52.88,52.88,0,0,0-9.78,9.8Q6.94,38.16.79,40a1.11,1.11,0,0,0,.64,2.13l1.89-.55a18.64,18.64,0,0,1,8.9,3.32,17.34,17.34,0,0,1,6.91,8.23A150.67,150.67,0,0,0,.79,57.47a1.11,1.11,0,0,0,.64,2.13,148.52,148.52,0,0,1,27.19-5.53,39.21,39.21,0,0,0-5.47,3.72A44.81,44.81,0,0,0,9.31,76.86,1.11,1.11,0,0,0,10,78.3a1.07,1.07,0,0,0,.39.07,1.12,1.12,0,0,0,1-.72A42.58,42.58,0,0,1,24.54,59.52c4.08-3.29,8.56-5.56,11.89-6.08q4.08-.22,8.17-.23l2.09,0c-6.46,3.12-14.33,10-19.45,21a1.12,1.12,0,0,0,1,1.58,1.12,1.12,0,0,0,1-.64c6.53-14,18.29-21.58,24.39-21.7q5.22.32,10.39,1a28.37,28.37,0,0,0-6,3.59,52.08,52.08,0,0,0-13.29,16,1.11,1.11,0,0,0,.42,1.51,1.1,1.1,0,0,0,.55.14,1.12,1.12,0,0,0,1-.56A50,50,0,0,1,59.33,59.85c5.32-4.05,9.07-4.49,10.43-4.49h0q5.63,1,11.17,2.36c-6.17,2.12-12.34,8.1-18.74,18.11a1.11,1.11,0,0,0,.94,1.71,1.11,1.11,0,0,0,.94-.51c7.67-12,14.81-17.89,21.83-18l1.82.54a1.19,1.19,0,0,0,.32,0,1.11,1.11,0,0,0,.32-2.18c-4.64-1.41-9.35-2.59-14.1-3.54-1.1-5.33-4.51-10.47-9.63-14.5a32,32,0,0,0-4.22-2.82,149,149,0,0,1,27.31,5.54A1.19,1.19,0,0,0,88.08,42.2ZM46.29,25.48q5.43.06,10.83.52a37,37,0,0,0-8.91,7.59c-1.2,0-2.41-.05-3.61-.05q-5.34,0-10.64.38C38.78,28.62,43,25.72,46.29,25.48Zm-17,.78c3.59-.37,7.2-.61,10.81-.72a44.45,44.45,0,0,0-9.32,8.63q-7.11.66-14.11,2C21.55,30.44,25.85,27,29.28,26.26ZM21.36,52.78c-2-6.14-8-10.61-13.33-12.46q5.16-1.3,10.39-2.24l.95-.16c2.7,0,6.59,1.54,9.91,3.93a19.45,19.45,0,0,1,7.34,9.35A152.58,152.58,0,0,0,21.36,52.78ZM44.6,51c-1.9,0-3.8,0-5.69.11A21.27,21.27,0,0,0,30.58,40a27.29,27.29,0,0,0-5.39-3c3.54-.46,7.11-.79,10.68-1,2.92.19,6.92,2,10.4,4.58,2.4,1.8,6.5,5.53,7.83,10.68Q49.36,51,44.6,51Zm18.7-9.81a23.84,23.84,0,0,1,8.61,12.29,151.88,151.88,0,0,0-15.49-2c-1-4.59-4.09-9.07-8.82-12.62a29,29,0,0,0-5-3l2,0c2.69,0,5.37.08,8,.22C55.79,36.45,59.81,38.43,63.3,41.18ZM65.51,35q-7.13-1-14.35-1.31c4.43-4.58,8.33-7,11.36-7.13q5.76.69,11.44,1.84A31.23,31.23,0,0,0,65.51,35Z"/></g></g></svg>