<svg xmlns="http://www.w3.org/2000/svg" viewBox="0 0 51 51"><defs><style>.cls-1{fill:#f17548;}</style></defs><title>Crop_corn_orange</title><g id="Layer_2" data-name="Layer 2"><g id="Layer_1-2" data-name="Layer 1"><path class="cls-1" d="M26.93,35.33a1,1,0,1,0,0,1.41A1,1,0,0,0,26.93,35.33Z"/><path class="cls-1" d="M23.92,37.94a1,1,0,0,0-1.4-.09c-4.46,3.91-8.77,4.52-11.1,3.86a1,1,0,0,0-.55,1.91,8.4,8.4,0,0,0,2.35.31,12.78,12.78,0,0,0,3.56-.54,19.18,19.18,0,0,0,7-4A1,1,0,0,0,23.92,37.94Z"/><path class="cls-1" d="M49.71,11.28c1.74-4.8,1.72-8.14-.07-9.93s-5.06-1.8-9.79-.11A57.13,57.13,0,0,0,27.72,7.65a51.16,51.16,0,0,0-5.66,4.45,17,17,0,0,0-3.25-4.6,1,1,0,0,0-1.53,1.26c.38.54.44,2.05-.62,4.51-.87,2-2.8,5.44-7.11,10.16S2,34.49,3.38,40.57L.87,43.08a3,3,0,0,0,0,4.22l2.82,2.82a3,3,0,0,0,4.23,0l2.5-2.5c5.83,1.31,12.19-1.69,16.61-5.8,4.87-4.52,8.39-6.56,10.49-7.48,2.54-1.12,4.1-1.07,4.65-.69a1,1,0,0,0,1.27-1.52,14,14,0,0,0-4.7-3,52.74,52.74,0,0,0,4.4-5.52A57.6,57.6,0,0,0,49.71,11.28ZM6.51,48.71a1,1,0,0,1-1.41,0L2.28,45.9a1,1,0,0,1,0-1.41l1.81-1.81A8.33,8.33,0,0,0,8.3,46.91Zm32.9-17.1a14.63,14.63,0,0,0-2.69.9,42.78,42.78,0,0,0-11,7.85c-6.87,6.38-15,6.93-18.47,3.42a7.25,7.25,0,0,1-1.77-3.17C4.13,36,6.22,30,11,24.77a41.2,41.2,0,0,0,7.47-10.71,13.18,13.18,0,0,0,.87-2.71,15.79,15.79,0,0,1,2.15,5.21,16.45,16.45,0,0,1-1.05,8.75,30.52,30.52,0,0,1-6.15,9.91,1,1,0,0,0,0,1.38,1,1,0,0,0,1.37,0c6.4-5.86,14.24-8.16,21-6.15A14,14,0,0,1,39.41,31.61Zm-2.75-3.2a22.53,22.53,0,0,0-16.8,2.7c3.1-5.16,4.5-10.69,3.59-15a17,17,0,0,0-.58-2.09,50.13,50.13,0,0,1,6-4.77A55,55,0,0,1,40.52,3.12c3.83-1.37,6.57-1.5,7.71-.36s1,4-.39,7.84A55.74,55.74,0,0,1,41.5,22.45,48.12,48.12,0,0,1,36.66,28.41Z"/><path class="cls-1" d="M28.35,17.06,27,15.65a1,1,0,0,0-1.41,0,1,1,0,0,0,0,1.41l1.4,1.41a1,1,0,1,0,1.41-1.41Z"/><path class="cls-1" d="M35.4,24.11,34,22.7a1,1,0,1,0-1.41,1.41L34,25.51a1,1,0,1,0,1.41-1.4Z"/><path class="cls-1" d="M34.69,17.77l-1.41-1.41a1,1,0,0,0-1.41,0,1,1,0,0,0,0,1.41l1.41,1.41a1,1,0,0,0,1.41,0A1,1,0,0,0,34.69,17.77Z"/><path class="cls-1" d="M29.06,23.4,27.65,22a1,1,0,0,0-1.41,1.41l1.41,1.41a1,1,0,0,0,1.41-1.41Z"/><path class="cls-1" d="M40.32,12.13l-1.4-1.4a1,1,0,0,0-1.41,0,1,1,0,0,0,0,1.4l1.41,1.41a1,1,0,0,0,1.4,0A1,1,0,0,0,40.32,12.13Z"/><path class="cls-1" d="M44.55,7.91,43.14,6.5a1,1,0,0,0-1.41,1.41l1.41,1.41a1,1,0,0,0,1.41-1.41Z"/><path class="cls-1" d="M34,11.43,32.58,10a1,1,0,0,0-1.41,1.41l1.41,1.41A1,1,0,0,0,34,11.43Z"/><path class="cls-1" d="M41,18.47l-1.41-1.41a1,1,0,0,0-1.41,1.41l1.41,1.41A1,1,0,1,0,41,18.47Z"/></g></g></svg>