<svg xmlns="http://www.w3.org/2000/svg" viewBox="0 0 50.54 51.95"><defs><style>.cls-1{fill:#d3d3d3;}</style></defs><title>Crop_beans_black</title><g id="Layer_2" data-name="Layer 2"><g id="Layer_1-2" data-name="Layer 1"><path class="cls-1" d="M49.4,2.72a3.15,3.15,0,0,1-.09-.36A1.8,1.8,0,0,0,49,.6,2.32,2.32,0,0,0,46.83.07a.76.76,0,0,0-.18.06l-.46.19a22,22,0,0,0-3.39,1.6l-.08,0A9.4,9.4,0,0,0,27.6,9.43v0A9.43,9.43,0,0,0,20.27,18,9.42,9.42,0,0,0,12,26.74c-.24,0-.49,0-.74,0A9.38,9.38,0,0,0,3,40.56l-.26.35-.28.4-.37.51-.23.33-.47.68-.1.15-.39.57a.21.21,0,0,1,0,.06h0l-.38.61-.09.08a1.14,1.14,0,0,0-.3,1.23A4.52,4.52,0,0,0,1,46.77,15.21,15.21,0,0,0,12.31,52a19.21,19.21,0,0,0,11.53-4.26C36.4,38.12,47.16,22.35,47.29,22.16,52.41,14,50.14,5.52,49.4,2.72ZM45,4.54c0-.08-.09-.15-.14-.23s-.24-.35-.36-.51l-.11-.16L45.63,3C45.45,3.55,45.24,4.05,45,4.54ZM37,2.28a7.13,7.13,0,0,1,4.93,2c.09.08.16.17.24.25s.31.34.45.51l.22.3c.13.19.25.39.37.59l.16.29a7.94,7.94,0,0,1,.4,1c-.58,1.12-1.22,2.22-1.9,3.29a2.08,2.08,0,0,0-.18.27l-.07.11-.14.2-.15.23c-.07.09-.14.21-.21.31l-.2.29-.25.36-.25.38c-.1.13-.21.28-.31.43l-.29.42-.37.52-.33.46-.42.59-.24.33-.09-.19A1.42,1.42,0,0,0,38.3,15c-.09-.21-.19-.42-.29-.63s-.15-.3-.24-.45v0l0,0,0,0v0l0-.05a.76.76,0,0,0-.08-.11,3.37,3.37,0,0,0-.21-.31c-.14-.2-.27-.4-.43-.6,0,0,0,0,0-.05s0,0,0,0h0s0,0,0,0h0l-.12-.13-.23-.25c-.17-.17-.33-.35-.51-.51s-.2-.16-.29-.25h0l-.35-.29a3.91,3.91,0,0,0-.41-.3l-.07-.06h0l0,0-.1-.05a4.05,4.05,0,0,0-.35-.21c-.2-.11-.39-.22-.6-.32l-.12-.07h-.06l0,0L33.25,10l-.2-.08-.29-.11-.21-.07-.33-.11h0c-.27-.08-.54-.14-.81-.2l-.25,0A8,8,0,0,0,30,9.24l-.16,0A7.15,7.15,0,0,1,37,2.28Zm-8.08,9.23.72,0a6.9,6.9,0,0,1,2.32.41l.39.14a8.29,8.29,0,0,1,.79.39l.26.14a8,8,0,0,1,.88.65l.08.07a7.16,7.16,0,0,1,.85.89l.05.07a7.16,7.16,0,0,1,.6.91,3.84,3.84,0,0,1,.18.35,7.56,7.56,0,0,1,.3.71c.06.14.1.29.15.44s.11.46.15.69.06.23.08.35l0,.06-.39.52c-.38.49-.75,1-1.13,1.46l-.61.78c-.33.41-.65.82-1,1.22l-.68.83c-.31.37-.61.75-.92,1.11l-.69.81c-.25.28-.49.57-.73.85a10.64,10.64,0,0,0-.42-1.39v0a9.63,9.63,0,0,0-.61-1.25l-.06-.09a9.46,9.46,0,0,0-1.68-2.09l-.15-.14a9.06,9.06,0,0,0-1-.81h0a9.58,9.58,0,0,0-1.13-.63l-.2-.1A8.47,8.47,0,0,0,24,18.35l-.17-.05a9.44,9.44,0,0,0-1.2-.24l-.13,0A7.18,7.18,0,0,1,28.93,11.51ZM14.22,27.19a7.16,7.16,0,0,1,7.15-7h0a7,7,0,0,1,1.21.11l.18,0,.45.11a1.8,1.8,0,0,1,.22.06,3.52,3.52,0,0,1,.42.15l.22.08a3.75,3.75,0,0,1,.41.19l.2.09c.14.07.27.15.4.23l.18.12a4.44,4.44,0,0,1,.38.27l.16.12.36.31.14.12.35.37.1.11q.18.21.33.42l.08.1c.11.15.21.31.31.47l0,.08a5.45,5.45,0,0,1,.29.53l0,.05c.09.19.17.39.25.6h0a7,7,0,0,1,.41,2h0c0,.12,0,.25,0,.39v.24a90,90,0,0,1-7,6.9,4.7,4.7,0,0,1-.75,0l-.24,0h0s0,0,0,0a9.39,9.39,0,0,0-.29-1.19l0-.09a7.5,7.5,0,0,0-.37-.93,3.78,3.78,0,0,0-.17-.35c-.11-.22-.23-.43-.35-.64s-.14-.24-.22-.36a7.47,7.47,0,0,0-.59-.77c-.11-.14-.24-.27-.36-.4l-.39-.4-.39-.36a7.89,7.89,0,0,0-.65-.49l-.32-.23q-.4-.26-.84-.48l-.25-.12a9.1,9.1,0,0,0-1-.42Zm-3,1.77a7.16,7.16,0,0,1,1.61.19h0a7.37,7.37,0,0,1,2,.81l.19.11q.39.25.75.54l.19.18a6,6,0,0,1,.51.5,2.2,2.2,0,0,1,.2.23,6.24,6.24,0,0,1,.53.71c.05.07.09.15.14.23a8.53,8.53,0,0,1,.44.85h0a6.93,6.93,0,0,1,.34,1,.43.43,0,0,0,0,.11,6.53,6.53,0,0,1,.18,1.09h0a5.83,5.83,0,0,1,0,.59,7.17,7.17,0,0,1-.08,1c-1.08.82-2.17,1.59-3.27,2.28l-.64.4c-.23.14-.47.27-.71.4s-.45.27-.68.39h0l-.7.35-.74.36h0l-.92.4h0l-.51.19c-.29.11-.58.22-.87.31l-.45.14h0l-.62.17c-.19-.09-.36-.2-.54-.3l-.31-.17C7.2,42,7.1,41.91,7,41.83s-.3-.21-.44-.33A7.05,7.05,0,0,1,5.27,40l-.07-.07a7.17,7.17,0,0,1,6.05-11ZM4.36,42.5l.07.08c.16.16.31.32.47.46-.21,0-.57.07-1,.1Zm41-21.58c-.1.16-10.67,15.63-22.93,25C15.56,51.15,8.05,51,2.81,45.42H3a19.36,19.36,0,0,0,2.2-.14,15.29,15.29,0,0,0,3-.42l.12,0h0c.51-.12,1-.27,1.56-.44h0l.5-.18c.35-.12.7-.25,1.05-.4h0l.6-.27c.31-.13.62-.28.94-.43h0l.51-.26.49-.24h0l.46-.27h.06l.48-.28c.15-.08.3-.16.44-.25l.12-.07h0l.33-.22h0l.16-.1.21-.14,1.05-.68,1-.68.08-.06c8-5.64,14.55-13.56,20-20.7l.24-.33.08-.09h0l.3-.4h0l0-.05c3.09-4.1,6.38-8.64,8.37-13.8C48.3,7.72,49.43,14.51,45.4,20.92Z"/></g></g></svg>