<svg xmlns="http://www.w3.org/2000/svg" viewBox="0 0 51 44.81"><defs><style>.cls-1{fill:#d9454b;}</style></defs><title>Crop_fallow_red</title><g id="Layer_2" data-name="Layer 2"><g id="Layer_1-2" data-name="Layer 1"><path class="cls-1" d="M5,8.47a.63.63,0,0,0,.63.59H16.47a.64.64,0,0,0,.62-.48,3.42,3.42,0,0,0,.08-.7,3,3,0,0,0-4.29-2.76,3.5,3.5,0,0,0-2.69-1.26A3.55,3.55,0,0,0,7.06,5.77,2.6,2.6,0,0,0,5,8.31a.71.71,0,0,0,0,.14ZM7.53,7a.63.63,0,0,0,.56-.4,2.25,2.25,0,0,1,4.06-.3.63.63,0,0,0,.42.31.66.66,0,0,0,.51-.12A1.77,1.77,0,0,1,15.9,7.79H6.39A1.32,1.32,0,0,1,7.53,7Z"/><path class="cls-1" d="M25,12h9.54a.63.63,0,0,0,.63-.6v0a.53.53,0,0,0,0-.13,2.37,2.37,0,0,0-1.84-2.3,3.17,3.17,0,0,0-5.2-.6A2.69,2.69,0,0,0,27,8.09a2.75,2.75,0,0,0-2.75,2.75,2.79,2.79,0,0,0,.08.63A.63.63,0,0,0,25,12ZM27,9.36a1.45,1.45,0,0,1,.89.3.61.61,0,0,0,.51.11.63.63,0,0,0,.42-.31,1.91,1.91,0,0,1,3.45.25.61.61,0,0,0,.55.41,1.09,1.09,0,0,1,.9.57H25.57A1.48,1.48,0,0,1,27,9.36Z"/><path class="cls-1" d="M36.78,5.24H47.7a.64.64,0,0,0,.64-.6V4.48a2.62,2.62,0,0,0-2.07-2.56,3.55,3.55,0,0,0-5.87-.65A3,3,0,0,0,39.13,1a3.06,3.06,0,0,0-3.05,3.06,2.86,2.86,0,0,0,.09.7A.62.62,0,0,0,36.78,5.24Zm2.35-3a1.79,1.79,0,0,1,1.07.36.68.68,0,0,0,.51.12.65.65,0,0,0,.43-.31,2.26,2.26,0,0,1,2-1.16,2.3,2.3,0,0,1,2.13,1.46.64.64,0,0,0,.55.41A1.34,1.34,0,0,1,47,4H37.35A1.79,1.79,0,0,1,39.13,2.26Z"/><path class="cls-1" d="M50.36,24.13a.63.63,0,0,0,.19-1.24A86.67,86.67,0,0,0,39,20.24c2.27-2.23,4.23-3.4,5.83-3.45,1.79.42,3.57.89,5.33,1.43l.18,0a.62.62,0,0,0,.61-.45.63.63,0,0,0-.42-.79A86.42,86.42,0,0,0,.45,17a.64.64,0,0,0-.42.79.63.63,0,0,0,.79.43,84.16,84.16,0,0,1,12.31-2.76,30.89,30.89,0,0,0-5.59,5.6c-2.38.51-4.75,1.12-7.09,1.83A.63.63,0,0,0,.82,24.1l1.08-.32A10.82,10.82,0,0,1,7,25.68a10,10,0,0,1,3.95,4.71A86.32,86.32,0,0,0,.45,32.86a.64.64,0,0,0-.42.79.63.63,0,0,0,.79.43,84.33,84.33,0,0,1,15.54-3.16A22.64,22.64,0,0,0,13.24,33,25.73,25.73,0,0,0,5.32,44a.64.64,0,0,0,.37.82.62.62,0,0,0,.23,0,.64.64,0,0,0,.59-.41A24.47,24.47,0,0,1,14,34a16.35,16.35,0,0,1,6.8-3.48c1.55-.08,3.11-.12,4.67-.12h1.2a24.9,24.9,0,0,0-11.13,12,.64.64,0,0,0,.31.84.66.66,0,0,0,.27.06.65.65,0,0,0,.58-.37c3.73-8,10.45-12.33,13.94-12.4q3,.18,5.94.57a16.37,16.37,0,0,0-3.45,2.05,29.78,29.78,0,0,0-7.6,9.15.65.65,0,0,0,.24.87.71.71,0,0,0,.31.08.65.65,0,0,0,.56-.32,28.7,28.7,0,0,1,7.26-8.77c3-2.32,5.18-2.57,6-2.57h0q3.23.56,6.39,1.35c-3.53,1.22-7.06,4.64-10.71,10.36a.63.63,0,0,0,.19.88.61.61,0,0,0,.34.1.64.64,0,0,0,.54-.29C41,37.18,45.13,33.82,49.14,33.77l1,.31a.57.57,0,0,0,.18,0,.63.63,0,0,0,.61-.46.64.64,0,0,0-.42-.79c-2.66-.8-5.35-1.48-8.06-2A14.68,14.68,0,0,0,37,22.55a18.15,18.15,0,0,0-2.41-1.62A85.75,85.75,0,0,1,50.18,24.1.57.57,0,0,0,50.36,24.13ZM26.47,14.57q3.11,0,6.19.29a21.2,21.2,0,0,0-5.09,4.34l-2.07,0q-3,0-6.08.21C22.17,16.37,24.6,14.7,26.47,14.57ZM16.74,15c2.06-.21,4.12-.34,6.19-.41a25.6,25.6,0,0,0-5.34,4.94c-2.7.25-5.4.62-8.07,1.13C12.32,17.41,14.78,15.46,16.74,15ZM12.21,30.18c-1.16-3.51-4.59-6.07-7.62-7.13q3-.74,5.94-1.28l.55-.09a11,11,0,0,1,5.66,2.25,11.13,11.13,0,0,1,4.2,5.35A84.92,84.92,0,0,0,12.21,30.18Zm13.29-1c-1.09,0-2.17,0-3.25.06a12.11,12.11,0,0,0-4.77-6.32,15,15,0,0,0-3.08-1.72q3-.41,6.11-.58a12.45,12.45,0,0,1,5.94,2.62,11.86,11.86,0,0,1,4.48,6.11C29.13,29.21,27.32,29.16,25.5,29.16Zm10.69-5.62a13.69,13.69,0,0,1,4.93,7,84.86,84.86,0,0,0-8.86-1.16,12.6,12.6,0,0,0-5-7.22,16.6,16.6,0,0,0-2.88-1.74H25.5c1.54,0,3.07,0,4.61.12A14.24,14.24,0,0,1,36.19,23.54ZM37.46,20q-4.08-.57-8.21-.75c2.54-2.62,4.77-4,6.5-4.08,2.19.27,4.38.62,6.54,1.05A17.89,17.89,0,0,0,37.46,20Z"/></g></g></svg>