<svg xmlns="http://www.w3.org/2000/svg" viewBox="0 0 39.42 43.95"><defs><style>.cls-1{fill:#4fc0dd;}</style></defs><title>Crop_Wheat_blue</title><g id="Layer_2" data-name="Layer 2"><g id="Layer_1-2" data-name="Layer 1"><path class="cls-1" d="M39.35,21.37a.85.85,0,0,0-.42-.67.87.87,0,0,0-.8,0,18.68,18.68,0,0,0-2.69,1.55,31.56,31.56,0,0,0,.22-15,.87.87,0,0,0-.61-.62.85.85,0,0,0-.83.23,26.42,26.42,0,0,0-3.78,5v-.62A20.26,20.26,0,0,0,27.52.39a.87.87,0,0,0-1.45,0,18.61,18.61,0,0,0-2.52,6.5,9.29,9.29,0,0,0-6.07-2.25,9.15,9.15,0,0,0-3.11.53h0A7,7,0,0,0,9.46,1.28,7.12,7.12,0,0,0,3.18,3.69a.85.85,0,0,0-.17,1A9,9,0,0,0,4.78,7.24a6.38,6.38,0,0,0-.87.3A7.11,7.11,0,0,0,0,13a.85.85,0,0,0,.39.89,9.17,9.17,0,0,0,2.23,1l-.13.13A7.14,7.14,0,0,0,.85,21.58a.86.86,0,0,0,.69.69l.61.1A7.32,7.32,0,0,0,.85,28.5a.88.88,0,0,0,.69.69,10,10,0,0,0,1.77.16,7.46,7.46,0,0,0,2-.25,5.82,5.82,0,0,0-.19,1.5,7.13,7.13,0,0,0,3.44,5.78.86.86,0,0,0,.49.15.83.83,0,0,0,.48-.15A7.14,7.14,0,0,0,13,30.6a5.83,5.83,0,0,0-.2-1.5,7.54,7.54,0,0,0,2,.25,9.93,9.93,0,0,0,1.76-.16.88.88,0,0,0,.69-.69,7.32,7.32,0,0,0-1.3-6.13l.61-.1a.86.86,0,0,0,.69-.69A7.62,7.62,0,0,0,16.33,16a8,8,0,0,0,1.26-.14.86.86,0,0,0,.69-.69,9.21,9.21,0,0,0,.15-1.62l.56,0a9,9,0,0,0,1.6-.15.88.88,0,0,0,.69-.69,6.52,6.52,0,0,0-1.53-6l-.12-.12A7.61,7.61,0,0,1,25.08,14v15.5a16.12,16.12,0,0,0-4.14-5.53.85.85,0,0,0-.75-.17.82.82,0,0,0-.59.49,16.82,16.82,0,0,0-.74,10.48,17.44,17.44,0,0,0,3.8,7.51H9A.86.86,0,0,0,9,44H36.49a.86.86,0,1,0,0-1.72H29.18a22.75,22.75,0,0,0,4.87-4.61.86.86,0,1,0-1.35-1.07,20.48,20.48,0,0,1-5.91,5.16v-.05A20,20,0,0,1,27.64,36a.19.19,0,0,0,0-.07,23.89,23.89,0,0,1,2.17-5,23.15,23.15,0,0,1,4.61-5.7l.09-.07a18.51,18.51,0,0,1,3.17-2.28,20.51,20.51,0,0,1-1.54,7.76.86.86,0,0,0,1.6.63A21.77,21.77,0,0,0,39.35,21.37ZM9.17,3a5.23,5.23,0,0,1,3.57,2.86,5.19,5.19,0,0,1-4.32,1.5A5.21,5.21,0,0,1,4.85,4.47,5.19,5.19,0,0,1,9.17,3Zm1.58,10.27c-.28,0-.55,0-.84,0a8.29,8.29,0,0,1,.27-1.42A5.42,5.42,0,0,0,10.75,13.24Zm-8.91-.48A5.19,5.19,0,0,1,4.6,9.11a5.24,5.24,0,0,1,4.56.4,5.2,5.2,0,0,1-2.77,3.65,4.46,4.46,0,0,1-.73.24l-.11,0A5.66,5.66,0,0,1,1.84,12.76Zm1.88,3.52a4.46,4.46,0,0,1,2.17-1.17h.05A6.51,6.51,0,0,1,8.12,15a5.23,5.23,0,0,1-1.27,4.4A4.48,4.48,0,0,1,5,20.48l-.08,0a6.33,6.33,0,0,1-2.49.17A5.21,5.21,0,0,1,3.72,16.28ZM2.45,27.59a5.22,5.22,0,0,1,1.27-4.4A4.3,4.3,0,0,1,5.61,22.1h0a6.52,6.52,0,0,1,2.49-.17,5.41,5.41,0,0,1-.92,4c-.17.18-.34.36-.5.55A5.34,5.34,0,0,1,2.45,27.59ZM9,34.6a5.19,5.19,0,0,1-2.22-4,4.7,4.7,0,0,1,1.16-3l.1-.09c.14-.15.28-.3.41-.46A5.11,5.11,0,0,1,9,26.59a6.17,6.17,0,0,1,.54.48,6,6,0,0,0,.42.46l.09.09a4.65,4.65,0,0,1,1.16,3A5.21,5.21,0,0,1,9,34.6Zm6.57-7a5.34,5.34,0,0,1-4.25-1.13c-.16-.19-.33-.37-.5-.55a5.41,5.41,0,0,1-.92-4,6.45,6.45,0,0,1,2.48.17h0a4.37,4.37,0,0,1,1.88,1.09A5.22,5.22,0,0,1,15.6,27.59Zm0-6.92a6.33,6.33,0,0,1-2.49-.17l-.07,0a4.45,4.45,0,0,1-1.84-1.07A5.23,5.23,0,0,1,9.93,15a5.23,5.23,0,0,1,4.4,1.27A5.21,5.21,0,0,1,15.6,20.67Zm1.08-6.38a4.66,4.66,0,0,1-3.86-1.13A4.66,4.66,0,0,1,11.69,9.3a4.63,4.63,0,0,1,3.85,1.14A4.6,4.6,0,0,1,16.68,14.29Zm3-2.44a6.35,6.35,0,0,1-1.45,0,5.63,5.63,0,0,0-1.46-2.61A5.77,5.77,0,0,0,13.3,7.61a7.86,7.86,0,0,1,1.47-.76A4.62,4.62,0,0,1,18.54,8,4.63,4.63,0,0,1,19.67,11.85Zm4.74,29.74a15.48,15.48,0,0,1-3.88-7.27,15.49,15.49,0,0,1,.21-8.24,16.16,16.16,0,0,1,3.67,15.51ZM25,8.49l0-.1a18.32,18.32,0,0,1,1.74-5.81,19.1,19.1,0,0,1,1.94,8.63,20.23,20.23,0,0,1-.85,5.9c-.2.54-.4,1.08-.58,1.64-.16.37-.33.74-.51,1.09V14A9.23,9.23,0,0,0,25,8.49ZM33.54,22.7c-.11.44-.24.88-.37,1.31a24.69,24.69,0,0,0-4.82,6,24.31,24.31,0,0,0-1.14,2.21,33.25,33.25,0,0,1,1.11-10.92c.18-.67.38-1.33.59-2s.42-1.1.6-1.67a29.32,29.32,0,0,1,4.84-8.4A31.44,31.44,0,0,1,33.54,22.7Z"/></g></g></svg>