<svg xmlns="http://www.w3.org/2000/svg" viewBox="0 0 2033.37 574.56"><defs><style>.cls-1{fill:#e6ab2b;}.cls-1,.cls-10,.cls-11,.cls-19,.cls-2,.cls-20,.cls-21,.cls-22,.cls-23,.cls-25,.cls-27,.cls-28,.cls-29,.cls-3,.cls-30,.cls-31,.cls-32,.cls-33,.cls-34,.cls-37,.cls-4,.cls-40,.cls-42,.cls-45,.cls-47,.cls-48,.cls-50,.cls-53,.cls-56,.cls-57,.cls-6,.cls-61,.cls-62,.cls-64,.cls-68,.cls-69,.cls-7,.cls-8,.cls-9{fill-rule:evenodd;}.cls-2,.cls-54{fill:#db9809;}.cls-3{fill:#feb418;}.cls-4{fill:#f5c04f;}.cls-22,.cls-5{fill:#6b370d;}.cls-6{fill:#f0a608;}.cls-7{fill:#c77c3d;}.cls-12,.cls-8{fill:#ab652b;}.cls-9{fill:#fac75a;}.cls-10,.cls-38{fill:#d6a946;}.cls-11{fill:#c98c08;}.cls-13,.cls-19{fill:#8c4b17;}.cls-14{fill:#f5f2d7;}.cls-15,.cls-23{fill:#dedab6;}.cls-16,.cls-25{fill:#c4c099;}.cls-17{fill:#9cc;}.cls-18{fill:#699;}.cls-20{fill:#ba1f00;}.cls-21{fill:#9e1e05;}.cls-24{fill:#9e9a79;}.cls-26{fill:#c47e44;}.cls-27{fill:#13a9d6;}.cls-28{fill:#42d3ff;}.cls-29{fill:#3bbec9;}.cls-30{fill:#64d3de;}.cls-31{fill:#995a26;}.cls-32{fill:#7d9408;}.cls-33{fill:#7f4618;}.cls-34,.cls-36{fill:#333;}.cls-35,.cls-37{fill:#9b6130;}.cls-39{fill:#9bb51b;}.cls-40{fill:#bbd923;}.cls-41,.cls-48{fill:#063;}.cls-42{fill:#093;}.cls-43{fill:#11b046;}.cls-44{fill:#dc0e00;}.cls-45{fill:#fe3b00;}.cls-46,.cls-47{fill:#f60;}.cls-49,.cls-50{fill:#fff;}.cls-51{fill:#e5e5e5;}.cls-52{fill:#b2b2b2;}.cls-53{fill:#dc3300;}.cls-55{fill:#ffe241;}.cls-56{fill:#ba830d;}.cls-57{fill:#b07c0a;}.cls-58{fill:#dc0000;}.cls-59{fill:red;}.cls-60,.cls-61{fill:#ff4141;}.cls-62{fill:#4c4c4c;}.cls-63,.cls-68{fill:#666;}.cls-64,.cls-65{fill:#231f20;}.cls-66,.cls-69{fill:#414042;}.cls-67{fill:#ccc;}</style></defs><title>Village_nomill_notank</title><g id="Layer_2" data-name="Layer 2"><g id="Layer_1-2" data-name="Layer 1"><path class="cls-1" d="M4.6,497.43H2033.37V536a38.69,38.69,0,0,1-38.57,38.57H43.16A38.68,38.68,0,0,1,4.6,536Z"/><path class="cls-2" d="M699.83,45.2c141.82,0,266.85,72,340.54,181.42H359.3C433,117.2,558,45.2,699.83,45.2Z"/><path class="cls-1" d="M928.35,226.62h-569C423.12,131.86,525.44,65.18,643.82,49,762.21,65.18,864.53,131.86,928.35,226.62Z"/><path class="cls-1" d="M1322.23,45.2c141.82,0,266.84,72,340.54,181.42H981.7C1055.39,117.2,1180.42,45.2,1322.23,45.2Z"/><path class="cls-2" d="M990.14,45.2c141.81,0,266.84,72,340.53,181.42H649.6C723.3,117.2,848.32,45.2,990.14,45.2Z"/><path class="cls-3" d="M1200.84,226.62H649.6c62.21-92.38,161-158.08,275.62-176.3C1039.82,68.54,1138.62,134.24,1200.84,226.62Z"/><path class="cls-4" d="M1329.17,226.62H311.43a89.38,89.38,0,0,0-83.72,58.8H1412.88A89.36,89.36,0,0,0,1329.17,226.62Z"/><rect class="cls-5" x="1075.27" y="173.11" width="22.15" height="53.51"/><rect class="cls-5" x="1095.14" y="173.11" width="7.02" height="53.51"/><rect class="cls-5" x="1098.3" y="185.57" width="133.36" height="10.03"/><rect class="cls-5" x="1098.3" y="205.41" width="133.36" height="10.03"/><rect class="cls-5" x="1230.86" y="173.11" width="22.15" height="53.51"/><rect class="cls-5" x="1250.73" y="173.11" width="7.02" height="53.51"/><rect class="cls-5" x="919.67" y="173.11" width="22.14" height="53.51"/><rect class="cls-5" x="939.54" y="173.11" width="7.02" height="53.51"/><rect class="cls-5" x="942.71" y="185.57" width="133.36" height="10.03"/><rect class="cls-5" x="942.71" y="205.41" width="133.36" height="10.03"/><rect class="cls-5" x="1075.27" y="173.11" width="22.15" height="53.51"/><rect class="cls-5" x="1095.14" y="173.11" width="7.02" height="53.51"/><path class="cls-6" d="M1693,226.62H675.22a89.36,89.36,0,0,0-83.71,58.8H1776.68A89.39,89.39,0,0,0,1693,226.62Z"/><path class="cls-3" d="M1371.54,226.42H674.89a89.36,89.36,0,0,0-83.71,58.81h864.08A89.36,89.36,0,0,0,1371.54,226.42Z"/><path class="cls-2" d="M1511.72,280.13h26.89L1531,267.67h129l7.65,12.46h26.89l-32.85-53.51h-26.89l6.87,11.18H1512.63l-6.86-11.18h-26.89l32.84,53.51Zm142-22.49H1524.81l-6-9.82h129Z"/><path class="cls-7" d="M102.13,344.23h1823.8c56.17,0,102.13,46,102.13,102.13v51.07H0V446.36C0,390.19,46,344.23,102.13,344.23Z"/><path class="cls-8" d="M106.73,344.23H1365.47c56.18,0,102.14,46,102.14,102.14v51.06H4.6V446.37C4.6,390.19,50.55,344.23,106.73,344.23Z"/><path class="cls-9" d="M834.33,119.06A107.56,107.56,0,0,1,941.88,226.62H726.77A107.56,107.56,0,0,1,834.33,119.06Z"/><path class="cls-10" d="M843,119.41l2.6.24a107.58,107.58,0,0,0-96.3,107h-5.15A107.57,107.57,0,0,1,843,119.41Zm10.09,1.29a107.59,107.59,0,0,0-88.77,105.92h5.15a107.59,107.59,0,0,1,86.2-105.43c-.86-.18-1.71-.34-2.58-.49ZM863.2,123a107.61,107.61,0,0,0-78.69,103.63h5.15a107.62,107.62,0,0,1,76.11-102.88c-.85-.26-1.71-.51-2.57-.75Zm10.08,3.35a107.61,107.61,0,0,0-68.6,100.28h5.15a107.6,107.6,0,0,1,66-99.24C875,127,874.14,126.68,873.28,126.34Z"/><path class="cls-10" d="M880.76,129.58a107.58,107.58,0,0,1,61.12,97H819.64A107.58,107.58,0,0,1,880.76,129.58Z"/><path class="cls-8" d="M1802.55,285.42H212.83a89.37,89.37,0,0,0-83.71,58.81H1886.26A89.37,89.37,0,0,0,1802.55,285.42Z"/><path class="cls-7" d="M1539.68,285.42H212.84a89.38,89.38,0,0,0-83.72,58.81H1623.4A89.39,89.39,0,0,0,1539.68,285.42Z"/><path class="cls-8" d="M1183.18,285.43H1149.7l-8.57,8.92H980.85l8.56-8.92H955.92l-36.16,37.68h33.49l4.72-4.92h160.29l-4.72,4.92H1147l36.16-37.68Zm-57.24,24.75H965.65l7.52-7.83h160.29Z"/><path class="cls-7" d="M221.49,344.23H321.2c-56.17,0-102.13,46-102.13,102.13v51.07H119.36V446.36C119.36,390.19,165.31,344.23,221.49,344.23Z"/><path class="cls-8" d="M321.2,344.23h99.72c-56.18,0-102.13,46-102.13,102.13v51.07H219.07V446.36C219.07,390.19,265,344.23,321.2,344.23Z"/><path class="cls-7" d="M417.3,344.23H517c-56.17,0-102.13,46-102.13,102.13v51.07H315.17V446.36C315.17,390.19,361.12,344.23,417.3,344.23Z"/><path class="cls-8" d="M517,344.23h99.72c-56.17,0-102.13,46-102.13,102.13v51.07H414.88V446.36C414.88,390.19,460.84,344.23,517,344.23Z"/><path class="cls-7" d="M613.11,344.23h99.71c-56.17,0-102.13,46-102.13,102.13v51.07H511V446.36C511,390.19,556.93,344.23,613.11,344.23Z"/><path class="cls-8" d="M712.82,344.23h99.72c-56.18,0-102.13,46-102.13,102.13v51.07H610.69V446.36C610.69,390.19,656.65,344.23,712.82,344.23Z"/><path class="cls-7" d="M808.92,344.23h99.71c-56.17,0-102.13,46-102.13,102.13v51.07H706.79V446.36C706.79,390.19,752.74,344.23,808.92,344.23Z"/><path class="cls-8" d="M908.63,344.23h99.72c-56.18,0-102.13,46-102.13,102.13v51.07H806.5V446.36C806.5,390.19,852.46,344.23,908.63,344.23Z"/><polygon class="cls-11" points="253.53 292.85 263.45 318.54 273.37 344.23 253.53 344.23 233.68 344.23 243.6 318.54 253.53 292.85"/><polygon class="cls-3" points="228.56 307.95 238.48 333.64 248.4 359.32 228.56 359.32 208.72 359.32 218.64 333.64 228.56 307.95"/><polygon class="cls-4" points="203.59 323.04 213.51 348.73 223.43 374.42 203.59 374.42 183.75 374.42 193.67 348.73 203.59 323.04"/><polygon class="cls-2" points="178.63 338.13 188.55 363.83 198.47 389.52 178.63 389.52 158.79 389.52 168.7 363.83 178.63 338.13"/><polygon class="cls-11" points="451.24 292.85 461.16 318.54 471.08 344.23 451.24 344.23 431.4 344.23 441.32 318.54 451.24 292.85"/><polygon class="cls-3" points="426.27 307.95 436.2 333.64 446.12 359.32 426.27 359.32 406.43 359.32 416.35 333.64 426.27 307.95"/><polygon class="cls-4" points="401.31 323.04 411.23 348.73 421.15 374.42 401.31 374.42 381.47 374.42 391.39 348.73 401.31 323.04"/><polygon class="cls-2" points="376.34 338.13 386.26 363.83 396.18 389.52 376.34 389.52 356.5 389.52 366.42 363.83 376.34 338.13"/><polygon class="cls-11" points="641.9 292.85 651.83 318.54 661.74 344.23 641.9 344.23 622.06 344.23 631.98 318.54 641.9 292.85"/><polygon class="cls-3" points="616.94 307.95 626.86 333.64 636.78 359.32 616.94 359.32 597.1 359.32 607.01 333.64 616.94 307.95"/><polygon class="cls-4" points="591.97 323.04 601.89 348.73 611.81 374.42 591.97 374.42 572.13 374.42 582.05 348.73 591.97 323.04"/><polygon class="cls-2" points="567 338.13 576.92 363.83 586.85 389.52 567 389.52 547.16 389.52 557.08 363.83 567 338.13"/><polygon class="cls-11" points="841.44 292.85 851.36 318.54 861.28 344.23 841.44 344.23 821.6 344.23 831.52 318.54 841.44 292.85"/><polygon class="cls-3" points="816.48 307.95 826.4 333.64 836.32 359.32 816.48 359.32 796.63 359.32 806.55 333.64 816.48 307.95"/><rect class="cls-12" x="133.79" y="423.02" width="7.91" height="74.4"/><rect class="cls-12" x="154.35" y="423.02" width="7.91" height="74.4"/><rect class="cls-12" x="174.92" y="423.02" width="7.91" height="74.4"/><rect class="cls-12" x="195.48" y="423.02" width="7.91" height="74.4"/><rect class="cls-12" x="329.79" y="423.02" width="7.91" height="74.4"/><rect class="cls-12" x="350.35" y="423.02" width="7.91" height="74.4"/><rect class="cls-12" x="370.91" y="423.02" width="7.91" height="74.4"/><rect class="cls-12" x="391.47" y="423.02" width="7.91" height="74.4"/><rect class="cls-12" x="526.71" y="423.02" width="7.91" height="74.4"/><rect class="cls-12" x="547.27" y="423.02" width="7.91" height="74.4"/><rect class="cls-12" x="567.84" y="423.02" width="7.91" height="74.4"/><rect class="cls-12" x="588.4" y="423.02" width="7.91" height="74.4"/><rect class="cls-12" x="722.85" y="423.02" width="7.91" height="74.4"/><rect class="cls-12" x="743.41" y="423.02" width="7.91" height="74.4"/><rect class="cls-12" x="763.97" y="423.02" width="7.91" height="74.4"/><rect class="cls-12" x="784.53" y="423.02" width="7.91" height="74.4"/><path class="cls-8" d="M1821.14,344.23h-99.71c56.18,0,102.13,46,102.13,102.13v51.07h99.72V446.36C1923.28,390.19,1877.32,344.23,1821.14,344.23Z"/><path class="cls-8" d="M1594.26,344.23h-99.72c56.18,0,102.13,46,102.13,102.13v51.07h99.72V446.36C1696.39,390.19,1650.43,344.23,1594.26,344.23Z"/><rect class="cls-12" x="1478.88" y="173.11" width="22.15" height="53.51"/><rect class="cls-13" x="1498.75" y="173.11" width="7.02" height="53.51"/><rect class="cls-12" x="1502.15" y="185.57" width="133.36" height="10.03"/><rect class="cls-12" x="1502.15" y="205.41" width="133.36" height="10.03"/><rect class="cls-12" x="1634.71" y="173.11" width="22.14" height="53.51"/><rect class="cls-13" x="1654.58" y="173.11" width="7.02" height="53.51"/><rect class="cls-12" x="681.65" y="173.11" width="22.15" height="53.51"/><rect class="cls-13" x="701.52" y="173.11" width="7.02" height="53.51"/><rect class="cls-12" x="704.92" y="185.57" width="133.36" height="10.03"/><rect class="cls-12" x="704.92" y="205.41" width="133.36" height="10.03"/><rect class="cls-12" x="837.48" y="173.11" width="22.14" height="53.51"/><rect class="cls-13" x="857.35" y="173.11" width="7.02" height="53.51"/><rect class="cls-12" x="860.52" y="185.57" width="133.36" height="10.03"/><rect class="cls-12" x="860.52" y="205.41" width="133.36" height="10.03"/><rect class="cls-12" x="993.08" y="173.11" width="22.14" height="53.51"/><rect class="cls-13" x="1012.95" y="173.11" width="7.02" height="53.51"/><path class="cls-2" d="M645.66,267.67h26.88l8.39-9.56H809.87l-8.38,9.56h26.89l8.38-9.56H965.47l-8.38,9.56H984l36-41.05H993.08l-7.52,8.57H856.85l7.52-8.57H837.48L830,235.19H701l7.52-8.57H681.65l-36,41.05Zm326.55-17.26H843.5l6.61-7.52h128.7l-6.6,7.52Zm-155.59,0h-129l6.61-7.52H823.22Z"/><rect class="cls-12" x="1349.97" y="70.24" width="181.58" height="13.93" transform="translate(154.42 730.72) rotate(-30)"/><rect class="cls-12" x="1530.63" y="-13.59" width="13.93" height="181.58" transform="translate(701.94 1370.2) rotate(-60)"/><rect class="cls-14" x="1238.08" y="115.92" width="143.74" height="110.7"/><rect class="cls-15" x="1381.82" y="115.92" width="180.72" height="110.7"/><rect class="cls-13" x="1232.09" y="110.94" width="19.78" height="115.68"/><rect class="cls-15" x="1251.88" y="115.92" width="7.5" height="110.7"/><rect class="cls-12" x="1232.09" y="110.94" width="15.35" height="115.68"/><rect class="cls-13" x="1362.04" y="110.94" width="19.78" height="115.68"/><rect class="cls-16" x="1381.82" y="115.92" width="12.88" height="110.7"/><rect class="cls-12" x="1362.04" y="110.94" width="15.35" height="115.68"/><rect class="cls-13" x="1547.19" y="110.94" width="15.35" height="115.68"/><rect class="cls-12" x="1552.4" y="110.94" width="10.14" height="115.68"/><rect class="cls-12" x="1270.01" y="141.79" width="67.12" height="12.04"/><rect class="cls-13" x="1270.01" y="150.54" width="67.12" height="3.29"/><rect class="cls-13" x="1337.14" y="141.79" width="6" height="12.04"/><rect class="cls-12" x="1270.01" y="185.01" width="67.12" height="12.04"/><rect class="cls-13" x="1270.01" y="193.76" width="67.12" height="3.29"/><rect class="cls-13" x="1337.14" y="185.01" width="6" height="12.04"/><rect class="cls-16" x="1270.02" y="153.83" width="73.12" height="4.11"/><rect class="cls-17" x="1282.31" y="157.93" width="45.09" height="27.08"/><rect class="cls-18" x="1282.31" y="153.83" width="45.09" height="4.11"/><rect class="cls-12" x="1278.48" y="153.82" width="7.09" height="31.18"/><rect class="cls-13" x="1284.83" y="153.82" width="3" height="31.18"/><rect class="cls-12" x="1323.83" y="153.82" width="7.09" height="31.18"/><rect class="cls-13" x="1330.18" y="153.82" width="3.01" height="31.18"/><rect class="cls-12" x="1436.74" y="141.79" width="67.12" height="12.04"/><rect class="cls-13" x="1436.74" y="150.54" width="67.12" height="3.29"/><rect class="cls-13" x="1430.73" y="141.79" width="6" height="12.04"/><rect class="cls-12" x="1436.74" y="185.01" width="67.12" height="12.04"/><rect class="cls-13" x="1436.74" y="193.76" width="67.12" height="3.29"/><rect class="cls-13" x="1430.73" y="185.01" width="6" height="12.04"/><rect class="cls-16" x="1430.74" y="153.83" width="73.12" height="4.11"/><rect class="cls-17" x="1446.47" y="157.93" width="45.09" height="27.08"/><rect class="cls-18" x="1446.47" y="153.83" width="45.09" height="4.11"/><rect class="cls-12" x="1488.31" y="153.82" width="7.09" height="31.18"/><rect class="cls-13" x="1486.05" y="153.82" width="3" height="31.18"/><rect class="cls-12" x="1442.95" y="153.82" width="7.09" height="31.18"/><rect class="cls-13" x="1440.7" y="153.82" width="3" height="31.18"/><rect class="cls-12" x="1301.57" y="153.82" width="4.73" height="31.18"/><rect class="cls-13" x="1306.3" y="153.82" width="1.65" height="31.18"/><rect class="cls-12" x="1467.47" y="153.82" width="4.73" height="31.18"/><rect class="cls-13" x="1465.81" y="153.82" width="1.65" height="31.18"/><rect class="cls-13" x="1381.82" y="98.53" width="206.25" height="12.41"/><rect class="cls-16" x="1381.82" y="110.94" width="165.37" height="9.73"/><polygon class="cls-19" points="1479.56 133.72 1473.88 133.72 1473.88 127.08 1462.52 127.08 1462.52 133.72 1456.84 133.72 1456.84 141.79 1462.52 141.79 1473.88 141.79 1479.56 141.79 1479.56 133.72"/><polygon class="cls-8" points="1482.86 133.72 1477.18 133.72 1477.18 127.08 1465.83 127.08 1465.83 133.72 1460.15 133.72 1460.15 141.79 1465.83 141.79 1477.18 141.79 1482.86 141.79 1482.86 133.72"/><rect class="cls-15" x="1251.88" y="110.94" width="110.16" height="9.73"/><polygon class="cls-19" points="1293.76 133.72 1299.43 133.72 1299.43 127.08 1310.79 127.08 1310.79 133.72 1316.47 133.72 1316.47 141.79 1310.79 141.79 1299.43 141.79 1293.76 141.79 1293.76 133.72"/><polygon class="cls-8" points="1290.44 133.72 1296.12 133.72 1296.12 127.08 1307.48 127.08 1307.48 133.72 1313.16 133.72 1313.16 141.79 1307.48 141.79 1296.12 141.79 1290.44 141.79 1290.44 133.72"/><polygon class="cls-19" points="1235.52 98.53 1306.95 57.29 1378.37 98.53 1235.52 98.53"/><polygon class="cls-20" points="1306.95 41.2 1489.18 41.2 1588.06 98.53 1406.24 98.53 1306.95 41.2"/><polygon class="cls-21" points="1306.95 41.2 1320.44 41.2 1419.73 98.53 1406.24 98.53 1306.95 41.2"/><polygon class="cls-21" points="1345 41.2 1358.49 41.2 1457.79 98.53 1444.29 98.53 1345 41.2"/><polygon class="cls-21" points="1383.05 41.2 1396.54 41.2 1495.84 98.53 1482.35 98.53 1383.05 41.2"/><polygon class="cls-21" points="1421.1 41.2 1434.59 41.2 1533.89 98.53 1520.39 98.53 1421.1 41.2"/><polygon class="cls-21" points="1459.15 41.2 1472.64 41.2 1571.94 98.53 1558.45 98.53 1459.15 41.2"/><polygon class="cls-22" points="1269.57 88.7 1306.94 67.12 1344.32 88.7 1269.57 88.7"/><path class="cls-8" d="M1401.11,108.47h9.46V226.62h-9.46V108.47Zm-190.74-9.94h171.44v12.41H1214V226.62h-9.46V108.47h5.81Z"/><rect class="cls-5" x="1211.62" y="114.77" width="2.4" height="111.85"/><path class="cls-22" d="M1401.11,108.47h9.46v15l-9.46-5.47v-9.54Zm-182.45-9.94-8.29,4.79v5.15h-5.81v14.29l9.46-5.46v-6.36h11l21.5-12.41Zm148.7,0,14.45,8.34V98.53Z"/><rect class="cls-12" x="1578.6" y="110.94" width="9.47" height="115.68"/><polygon class="cls-23" points="1415.59 7.75 1450.39 7.75 1450.39 64.53 1436.92 64.53 1415.59 52.2 1415.59 7.75"/><rect class="cls-16" x="1437.05" y="7.75" width="13.34" height="56.78"/><rect class="cls-15" x="1410.9" width="26.16" height="15.89"/><rect class="cls-16" x="1415.59" y="15.89" width="21.46" height="4.37"/><rect class="cls-16" x="1437.05" width="17.04" height="15.89"/><rect class="cls-24" x="1437.05" y="15.89" width="13.34" height="4.37"/><rect class="cls-16" x="1510.43" y="156.26" width="21.01" height="13.11" rx="3.97" ry="3.97"/><rect class="cls-16" x="1503.56" y="171.87" width="14.95" height="9.33" rx="2.83" ry="2.83"/><rect class="cls-16" x="1522.39" y="171.47" width="14.95" height="9.33" rx="2.83" ry="2.83"/><path class="cls-25" d="M1515.9,183h9.29a2.83,2.83,0,0,1,2.83,2.83v3.68a2.83,2.83,0,0,1-2.83,2.82h-9.29a2.83,2.83,0,0,1-2.83-2.82v-3.68A2.83,2.83,0,0,1,1515.9,183Z"/><rect class="cls-16" x="1458.32" y="198.38" width="21" height="13.11" rx="3.97" ry="3.97"/><rect class="cls-16" x="1481.17" y="198.29" width="14.95" height="9.33" rx="2.83" ry="2.83"/><rect class="cls-16" x="1440.74" y="198.88" width="14.95" height="9.33" rx="2.83" ry="2.83"/><rect class="cls-16" x="1413.8" y="162.72" width="14.95" height="9.33" rx="2.83" ry="2.83"/><rect class="cls-16" x="1422.51" y="173.45" width="14.95" height="9.33" rx="2.83" ry="2.83"/><rect class="cls-15" x="1328.58" y="210.8" width="14.95" height="9.33" rx="2.83" ry="2.83"/><rect class="cls-15" x="1319.48" y="200.47" width="14.95" height="9.33" rx="2.83" ry="2.83"/><rect class="cls-16" x="1311.15" y="211" width="14.95" height="9.33" rx="2.83" ry="2.83"/><rect class="cls-15" x="1264.39" y="200.07" width="14.95" height="9.33" rx="2.83" ry="2.83"/><rect class="cls-15" x="1261.45" y="166.44" width="10.25" height="6.4" rx="1.94" ry="1.94"/><rect class="cls-15" x="1277.25" y="133.81" width="10.25" height="6.39" rx="1.94" ry="1.94"/><path class="cls-23" d="M1267.92,173.54h6.37a2,2,0,0,1,1.94,1.93V178a2,2,0,0,1-1.94,1.93h-6.37A1.94,1.94,0,0,1,1266,178v-2.53A1.94,1.94,0,0,1,1267.92,173.54Z"/><path class="cls-15" d="M1339.76,167.59h8.14a2.47,2.47,0,0,1,2.47,2.47v3.22a2.47,2.47,0,0,1-2.47,2.47h-8.13a2.48,2.48,0,0,1-2.48-2.48v-3.22A2.47,2.47,0,0,1,1339.76,167.59Z"/><path class="cls-16" d="M1346.82,176.82h6a1.84,1.84,0,0,1,1.84,1.84V181a1.83,1.83,0,0,1-1.83,1.83h-6A1.84,1.84,0,0,1,1345,181v-2.39A1.84,1.84,0,0,1,1346.82,176.82Z"/><rect class="cls-16" x="1333.18" y="153.82" width="3.96" height="31.18"/><rect class="cls-12" x="1167.74" y="70.23" width="181.58" height="13.93" transform="translate(130.01 639.61) rotate(-30)"/><rect class="cls-12" x="1348.4" y="-13.59" width="13.93" height="181.58" transform="translate(610.82 1212.38) rotate(-60)"/><rect class="cls-5" x="1232.09" y="110.94" width="19.78" height="4.87"/><rect class="cls-5" x="1362.04" y="110.94" width="19.78" height="4.87"/><rect class="cls-26" x="1241.96" y="105.66" width="61.22" height="2.43"/><rect class="cls-26" x="1287.34" y="101.39" width="61.22" height="2.44"/><rect class="cls-26" x="1305.92" y="20.77" width="2.44" height="61.22" transform="matrix(0.5, -0.87, 0.87, 0.5, 609.06, 1157.7)"/><rect class="cls-26" x="1367.54" y="51.37" width="2.43" height="61.22" transform="translate(613.34 1226.34) rotate(-60)"/><rect class="cls-26" x="1193.73" y="94.49" width="61.22" height="2.44" transform="translate(116.16 624.97) rotate(-30)"/><rect class="cls-26" x="1367.37" y="121.3" width="3.17" height="68.34"/><rect class="cls-26" x="1241.98" y="152.09" width="3.17" height="74.53"/><rect class="cls-5" x="1407.4" y="118.72" width="3.17" height="107.9"/><rect class="cls-5" x="1577.02" y="110.94" width="3.17" height="115.68"/><rect class="cls-5" x="1577.02" y="110.93" width="11.05" height="3.44"/><rect class="cls-5" x="1547.19" y="110.93" width="15.35" height="3.44"/><path class="cls-27" d="M644.37,226.62h-34a89.38,89.38,0,0,0-83.71,58.8h34A89.36,89.36,0,0,1,644.37,226.62Z"/><path class="cls-28" d="M644.37,226.62H616.31a89.36,89.36,0,0,0-83.71,58.8h28.06A89.36,89.36,0,0,1,644.37,226.62Z"/><path class="cls-27" d="M653.25,285.42h62.94a89.36,89.36,0,0,1,83.71,58.81H737A89.36,89.36,0,0,0,653.25,285.42Z"/><path class="cls-28" d="M653.25,285.42h53.82a89.36,89.36,0,0,1,83.71,58.81H737A89.36,89.36,0,0,0,653.25,285.42Z"/><polygon class="cls-4" points="791.51 323.04 801.43 348.73 811.35 374.42 791.51 374.42 771.67 374.42 781.59 348.73 791.51 323.04"/><path class="cls-29" d="M1031.49,344.23h94.9c56.18,0,102.13,46,102.13,102.13v51.07h-94.9V446.36C1133.62,390.19,1087.67,344.23,1031.49,344.23Z"/><path class="cls-30" d="M1031.49,344.23h85.39c56.18,0,102.13,46,102.13,102.13v51.07h-85.39V446.36C1133.62,390.19,1087.67,344.23,1031.49,344.23Z"/><path class="cls-8" d="M1385.81,315.46c22.09,0,40.11-3.62,40.11-8.07s-18-8.08-40.11-8.08-40.12,3.63-40.12,8.08S1363.71,315.46,1385.81,315.46Z"/><path class="cls-9" d="M1388.75,307.91H1365.2a26.45,26.45,0,0,1,0-52.9h23.55Z"/><path class="cls-10" d="M1388.75,307.91a26.45,26.45,0,1,0-26.45-26.45A26.51,26.51,0,0,0,1388.75,307.91Z"/><path class="cls-11" d="M1388.75,303.21A21.76,21.76,0,1,0,1367,281.46,21.79,21.79,0,0,0,1388.75,303.21Z"/><path class="cls-10" d="M1388.75,296.6a15.14,15.14,0,1,0-15.14-15.14A15.17,15.17,0,0,0,1388.75,296.6Z"/><path class="cls-11" d="M1388.75,289.86a8.4,8.4,0,1,0-8.4-8.4A8.41,8.41,0,0,0,1388.75,289.86Z"/><path class="cls-10" d="M1374.07,307.91h-4.24a26.45,26.45,0,1,1,0-52.9h4.24a26.45,26.45,0,0,0,0,52.9Z"/><path class="cls-10" d="M1382.16,307.91h-4.24a26.45,26.45,0,0,1,0-52.9h4.24a26.45,26.45,0,1,0,0,52.9Z"/><path class="cls-31" d="M1528.74,369.24c32.91,0,59.75-5.4,59.75-12s-26.84-12-59.75-12-59.76,5.41-59.76,12S1495.82,369.24,1528.74,369.24Z"/><path class="cls-9" d="M1538.72,358H1500.9a42.49,42.49,0,1,1,0-85h37.82Z"/><path class="cls-10" d="M1538.73,358a42.48,42.48,0,1,0-42.49-42.48A42.56,42.56,0,0,0,1538.73,358Z"/><path class="cls-11" d="M1538.73,350.45a34.94,34.94,0,1,0-35-34.94A35,35,0,0,0,1538.73,350.45Z"/><path class="cls-10" d="M1538.73,339.83a24.32,24.32,0,1,0-24.32-24.32A24.36,24.36,0,0,0,1538.73,339.83Z"/><path class="cls-11" d="M1538.73,329a13.49,13.49,0,1,0-13.49-13.49A13.51,13.51,0,0,0,1538.73,329Z"/><path class="cls-10" d="M1515.14,358h-6.81a42.49,42.49,0,0,1,0-85h6.81a42.49,42.49,0,1,0,0,85Z"/><path class="cls-10" d="M1528.12,358h-6.8a42.49,42.49,0,0,1,0-85h6.8a42.49,42.49,0,0,0,0,85Z"/><path class="cls-32" d="M1633.17,299.28c17,0,30.8-2.79,30.8-6.21s-13.84-6.2-30.8-6.2-30.8,2.79-30.8,6.2S1616.21,299.28,1633.17,299.28Z"/><path class="cls-9" d="M1636.61,294.48h-19.72a22.15,22.15,0,1,1,0-44.29h19.72Z"/><path class="cls-10" d="M1636.62,294.48a22.15,22.15,0,1,0-22.15-22.15A22.18,22.18,0,0,0,1636.62,294.48Z"/><path class="cls-11" d="M1636.62,290.55a18.22,18.22,0,1,0-18.22-18.22A18.25,18.25,0,0,0,1636.62,290.55Z"/><path class="cls-10" d="M1636.61,285a12.68,12.68,0,1,0-12.68-12.68A12.71,12.71,0,0,0,1636.61,285Z"/><path class="cls-11" d="M1636.62,279.36a7,7,0,1,0-7-7A7,7,0,0,0,1636.62,279.36Z"/><path class="cls-10" d="M1624.32,294.48h-3.55a22.15,22.15,0,1,1,0-44.29h3.55a22.15,22.15,0,1,0,0,44.29Z"/><path class="cls-10" d="M1631.09,294.48h-3.55a22.15,22.15,0,1,1,0-44.29h3.55a22.15,22.15,0,1,0,0,44.29Z"/><path class="cls-31" d="M1787.67,363.13c22.62,0,41.07-3.71,41.07-8.27s-18.45-8.27-41.07-8.27-41.08,3.72-41.08,8.27S1765.05,363.13,1787.67,363.13Z"/><path class="cls-32" d="M1279.07,384.41c27.84,0,50.55-3.63,50.55-8.08s-22.71-8.07-50.55-8.07-50.56,3.63-50.56,8.07S1251.22,384.41,1279.07,384.41Z"/><path class="cls-33" d="M1305.79,258.94H1309l0,9.86h-6.45v-6.63A3.2,3.2,0,0,1,1305.79,258.94Z"/><path class="cls-34" d="M1303.42,261.86h-10.57a10.6,10.6,0,0,0-10.58,10.57v31.51h13V277.2a10.6,10.6,0,0,1,8.2-10.3Z"/><path class="cls-34" d="M1247.65,308.9h-10.57a10.6,10.6,0,0,0-10.57,10.58V351h12.94V324.24a10.61,10.61,0,0,1,8.2-10.3Z"/><rect class="cls-35" x="1241.6" y="333.59" width="9.74" height="44.38" transform="translate(-0.53 1.85) rotate(-0.08)"/><polygon class="cls-33" points="1256.56 333.58 1266.29 333.57 1266.32 377.94 1256.58 377.96 1256.56 333.58"/><rect class="cls-35" x="1285.78" y="330.6" width="9.74" height="47.33" transform="translate(-0.48 1.76) rotate(-0.08)"/><polygon class="cls-33" points="1300.73 333.54 1310.47 333.53 1310.49 377.91 1300.75 377.92 1300.73 333.54"/><rect class="cls-36" x="1256.57" y="372.32" width="9.74" height="5.64"/><rect class="cls-36" x="1241.61" y="372.33" width="9.74" height="5.64"/><rect class="cls-36" x="1300.75" y="372.28" width="9.74" height="5.64"/><rect class="cls-36" x="1285.79" y="372.29" width="9.74" height="5.64"/><path class="cls-37" d="M1260.34,303.92l50.1,0,0,32.28-68.88.06v-13.5A18.83,18.83,0,0,1,1260.34,303.92Z"/><path class="cls-37" d="M1287.13,306.19l23.32,0V283.72h15.68v-9.33a7.55,7.55,0,0,0-7.52-7.51h-19.83a11.7,11.7,0,0,0-11.65,11.68Z"/><path class="cls-37" d="M1297.34,258.94h3.22l0,9.86h-6.44l0-6.63A3.22,3.22,0,0,1,1297.34,258.94Z"/><path class="cls-34" d="M1307.35,271.38h3.83a.86.86,0,0,1,.87.86v1.05a.87.87,0,0,1-.87.87h-3.82a.86.86,0,0,1-.87-.86v-1.05A.87.87,0,0,1,1307.35,271.38Z"/><rect class="cls-36" x="1302.26" y="261.85" width="9.05" height="5.03"/><path class="cls-9" d="M1817.42,354.86h-29.75a33.42,33.42,0,1,1,0-66.84h29.75Z"/><path class="cls-10" d="M1817.43,354.86A33.42,33.42,0,1,0,1784,321.44,33.48,33.48,0,0,0,1817.43,354.86Z"/><path class="cls-11" d="M1817.43,348.93a27.49,27.49,0,1,0-27.5-27.49A27.54,27.54,0,0,0,1817.43,348.93Z"/><circle class="cls-38" cx="1817.43" cy="321.44" r="19.13" transform="translate(-28.02 295.27) rotate(-9.22)"/><path class="cls-11" d="M1817.43,332.05a10.61,10.61,0,1,0-10.62-10.61A10.63,10.63,0,0,0,1817.43,332.05Z"/><path class="cls-10" d="M1798.87,354.86h-5.35a33.42,33.42,0,0,1,0-66.84h5.35a33.42,33.42,0,1,0,0,66.84Z"/><path class="cls-10" d="M1809.09,354.86h-5.35a33.42,33.42,0,1,1,0-66.84h5.35a33.42,33.42,0,1,0,0,66.84Z"/><rect class="cls-12" x="955.93" y="218.78" width="27.58" height="66.64"/><rect class="cls-13" x="980.67" y="218.78" width="8.75" height="66.64"/><rect class="cls-12" x="984.61" y="234.31" width="166.08" height="12.49"/><rect class="cls-12" x="984.61" y="259.01" width="166.08" height="12.49"/><rect class="cls-12" x="1149.7" y="218.78" width="27.58" height="66.64"/><rect class="cls-13" x="1174.44" y="218.78" width="8.75" height="66.64"/><path class="cls-9" d="M1663.45,266.81a77.43,77.43,0,0,1,77.41,77.42H1586A77.43,77.43,0,0,1,1663.45,266.81Z"/><path class="cls-10" d="M1669.71,267.06l1.87.18a77.43,77.43,0,0,0-69.32,77h-3.71a77.44,77.44,0,0,1,71.16-77.17Zm7.26.93a77.45,77.45,0,0,0-63.9,76.24h3.71a77.43,77.43,0,0,1,62-75.88c-.61-.13-1.23-.25-1.85-.36Zm7.26,1.65a77.46,77.46,0,0,0-56.64,74.59h3.71a77.47,77.47,0,0,1,54.78-74.05c-.61-.19-1.23-.37-1.85-.54Zm7.25,2.42a77.44,77.44,0,0,0-49.38,72.17h3.72a77.45,77.45,0,0,1,47.52-71.43C1692.72,272.55,1692.11,272.3,1691.48,272.06Z"/><path class="cls-10" d="M1696.87,274.39a77.41,77.41,0,0,1,44,69.84h-88A77.42,77.42,0,0,1,1696.87,274.39Z"/><path class="cls-8" d="M1665.29,175.93h15.51v42.35a3.61,3.61,0,0,1-3.6,3.61h-8.3a3.61,3.61,0,0,1-3.61-3.61Z"/><path class="cls-39" d="M1666.07,61h13.84a25.29,25.29,0,0,1,25.29,25.29v80.55a25.29,25.29,0,0,1-25.29,25.29h-13.84a25.28,25.28,0,0,1-25.28-25.28V86.31A25.29,25.29,0,0,1,1666.07,61Z"/><path class="cls-40" d="M1663.8,192.05a25.37,25.37,0,0,1-23-25.18V86.31a23.11,23.11,0,1,1,46,0v80.56A25.37,25.37,0,0,1,1663.8,192.05Z"/><rect class="cls-39" x="1624.68" y="106.45" width="32.21" height="65.56" rx="12.64" ry="12.64"/><path class="cls-39" d="M1705.17,90.58h4.2a7.67,7.67,0,0,1,7.67,7.67v24.45a7.67,7.67,0,0,1-7.67,7.67h-4.2a7.67,7.67,0,0,1-7.67-7.67V98.26A7.68,7.68,0,0,1,1705.17,90.58Z"/><path class="cls-8" d="M1864.84,312.47h18.74v51.18a4.37,4.37,0,0,1-4.36,4.36h-10a4.37,4.37,0,0,1-4.36-4.36Z"/><path class="cls-41" d="M1865.78,173.64h16.72a30.56,30.56,0,0,1,30.56,30.56v97.33a30.56,30.56,0,0,1-30.56,30.56h-16.72a30.56,30.56,0,0,1-30.56-30.56V204.19a30.55,30.55,0,0,1,30.55-30.55Z"/><path class="cls-42" d="M1863,332a30.67,30.67,0,0,1-27.81-30.44V204.19a27.92,27.92,0,1,1,55.62,0v97.33A30.66,30.66,0,0,1,1863,332Z"/><rect class="cls-43" x="1815.77" y="228.53" width="38.91" height="79.22" rx="15.28" ry="15.28"/><path class="cls-41" d="M1913,209.35h5.07a9.28,9.28,0,0,1,9.28,9.28v29.54a9.28,9.28,0,0,1-9.28,9.28H1913a9.27,9.27,0,0,1-9.27-9.27V218.63a9.28,9.28,0,0,1,9.28-9.28Z"/><path class="cls-8" d="M132.24,320.28h13.44V357a3.12,3.12,0,0,1-3.12,3.12h-7.19a3.13,3.13,0,0,1-3.13-3.12Z"/><rect class="cls-44" x="111" y="220.71" width="55.82" height="113.63" rx="21.91" ry="21.91"/><path class="cls-45" d="M131,334.25A22,22,0,0,1,111,312.42v-69.8A22,22,0,0,1,131,220.8a22,22,0,0,1,19.94,21.82v69.8A22,22,0,0,1,131,334.25Z"/><path class="cls-46" d="M108,260.07h6a11,11,0,0,1,11,11v34.9a11,11,0,0,1-11,11h-6a11,11,0,0,1-11-11V271A11,11,0,0,1,108,260.07Z"/><rect class="cls-44" x="160.16" y="246.32" width="16.94" height="34.49" rx="6.65" ry="6.65"/><path class="cls-40" d="M1658.18,206.63h25.36a10,10,0,0,1,10,10v10h-45.36v-10A10,10,0,0,1,1658.18,206.63Z"/><path class="cls-47" d="M90,386.27a24.77,24.77,0,0,1-24.77-24.76c0-13.68,11.07-32,24.77-41.28Z"/><path class="cls-45" d="M90,386.27a24.77,24.77,0,0,0,24.76-24.76c0-13.68-11.06-32-24.76-41.28Z"/><path class="cls-47" d="M116.18,392.43a12.38,12.38,0,0,1-12.38-12.38c0-6.84,5.53-16,12.38-20.64Z"/><path class="cls-45" d="M116.18,392.43a12.38,12.38,0,0,0,12.38-12.38c0-6.84-5.53-16-12.38-20.64Z"/><path class="cls-42" d="M537.5,295.07a25.17,25.17,0,0,1-25.17-25.17c0-13.89,11.25-32.54,25.17-41.94Z"/><path class="cls-48" d="M537.5,295.07a25.18,25.18,0,0,0,25.17-25.17c0-13.89-11.25-32.54-25.17-41.94Z"/><path class="cls-42" d="M512.34,295.07a14,14,0,0,1-14-14c0-7.74,6.26-18.12,14-23.36Z"/><path class="cls-48" d="M512.34,295.07a14,14,0,0,0,14-14c0-7.74-6.25-18.12-14-23.36Z"/><path class="cls-42" d="M1586.91,226.62a29.05,29.05,0,0,1-6.22-18c0-16.12,13-37.76,29.2-48.66v66.68Z"/><path class="cls-48" d="M1632.86,226.62a29.05,29.05,0,0,0,6.22-18c0-16.12-13-37.76-29.19-48.66v66.68Z"/><path class="cls-42" d="M1564.25,226.62a14.53,14.53,0,0,1-3.11-9c0-8.06,6.52-18.88,14.6-24.33v33.34Z"/><path class="cls-48" d="M1587.23,226.62a14.53,14.53,0,0,0,3.11-9c0-8.06-6.52-18.88-14.6-24.33v33.34Z"/><path class="cls-42" d="M1398.8,226.62a17.85,17.85,0,0,1-3.81-11c0-9.87,8-23.13,17.89-29.8v40.84Z"/><path class="cls-48" d="M1427,226.62a17.79,17.79,0,0,0,3.81-11c0-9.87-8-23.13-17.88-29.8v40.84Z"/><path class="cls-32" d="M934.26,114.05c9.85,0,17.88-1.28,17.88-2.86s-8-2.85-17.88-2.85-17.88,1.28-17.88,2.85S924.42,114.05,934.26,114.05Z"/><rect class="cls-49" x="921.87" y="88.49" width="27.66" height="17.19" rx="4.68" ry="4.68"/><rect class="cls-49" x="927.3" y="103.47" width="3.94" height="7.7"/><rect class="cls-49" x="939.57" y="103.47" width="3.94" height="7.7"/><rect class="cls-49" x="915.55" y="84.44" width="11.71" height="7.28" rx="1.98" ry="1.98"/><rect class="cls-49" x="929.83" y="90.89" width="1.31" height="10.7"/><rect class="cls-49" x="933.76" y="90.89" width="1.31" height="10.7"/><rect class="cls-49" x="937.69" y="90.89" width="1.31" height="10.7"/><rect class="cls-49" x="941.63" y="90.89" width="1.31" height="10.7"/><rect class="cls-49" x="927.3" y="109.42" width="3.94" height="1.74"/><rect class="cls-49" x="939.57" y="109.42" width="3.94" height="1.74"/><path class="cls-50" d="M948.65,91.55h1.78a.61.61,0,0,1,.61.6v2.64a.62.62,0,0,1-.61.61h-1.78Z"/><path class="cls-32" d="M1011.32,139.29c11.66,0,21.17-1.52,21.17-3.38s-9.51-3.38-21.17-3.38-21.17,1.52-21.17,3.38S999.66,139.29,1011.32,139.29Z"/><rect class="cls-49" x="993.71" y="107.08" width="35.64" height="22.16" rx="6.03" ry="6.03"/><rect class="cls-49" x="1017.29" y="126.39" width="5.07" height="9.92"/><rect class="cls-49" x="1001.48" y="126.39" width="5.07" height="9.92"/><rect class="cls-49" x="1022.41" y="101.86" width="15.09" height="9.38" rx="2.55" ry="2.55"/><rect class="cls-51" x="1017.4" y="110.17" width="1.69" height="13.79"/><rect class="cls-51" x="1012.34" y="110.17" width="1.69" height="13.79"/><rect class="cls-51" x="1007.27" y="110.17" width="1.69" height="13.79"/><rect class="cls-51" x="1002.21" y="110.17" width="1.69" height="13.79"/><rect class="cls-52" x="1017.29" y="134.06" width="5.07" height="2.25"/><rect class="cls-52" x="1001.48" y="134.06" width="5.07" height="2.25"/><path class="cls-50" d="M994.84,111h-2.29a.78.78,0,0,0-.79.78v3.39a.79.79,0,0,0,.79.79h2.29Z"/><path class="cls-32" d="M721.16,85.65c9.84,0,17.87-1.28,17.87-2.86s-8-2.85-17.87-2.85-17.89,1.28-17.89,2.85S711.31,85.65,721.16,85.65Z"/><rect class="cls-49" x="705.4" y="60.47" width="27.22" height="16.92" rx="4.6" ry="4.6"/><rect class="cls-49" x="723.4" y="75.22" width="3.87" height="7.58"/><rect class="cls-49" x="711.33" y="75.22" width="3.87" height="7.58"/><rect class="cls-49" x="727.31" y="56.49" width="11.52" height="7.16" rx="1.95" ry="1.95"/><rect class="cls-49" x="723.49" y="62.84" width="1.29" height="10.53"/><rect class="cls-49" x="719.62" y="62.84" width="1.29" height="10.53"/><rect class="cls-49" x="715.75" y="62.84" width="1.29" height="10.53"/><rect class="cls-49" x="711.89" y="62.84" width="1.29" height="10.53"/><rect class="cls-49" x="723.4" y="81.07" width="3.87" height="1.72"/><rect class="cls-49" x="711.33" y="81.07" width="3.87" height="1.72"/><path class="cls-50" d="M706.26,63.48h-1.75a.6.6,0,0,0-.6.6v2.59a.6.6,0,0,0,.6.6h1.75Z"/><polygon class="cls-2" points="766.54 338.13 776.47 363.83 786.38 389.52 766.54 389.52 746.7 389.52 756.62 363.83 766.54 338.13"/><path class="cls-31" d="M281.86,410.51c16,0,29-3.62,29-8.07s-13-8.08-29-8.08-29,3.63-29,8.08S265.89,410.51,281.86,410.51Z"/><path class="cls-47" d="M277.12,407c13.17,0,23.92-7.12,23.92-15.84s-10.75-15.84-23.92-15.84-23.92,7.12-23.92,15.84S263.94,407,277.12,407Z"/><path class="cls-53" d="M277.12,407c7,0,12.76-7.12,12.76-15.84s-5.73-15.84-12.76-15.84-12.76,7.12-12.76,15.84S270.09,407,277.12,407Z"/><path class="cls-47" d="M277.12,407c3.22,0,5.85-7.12,5.85-15.84s-2.63-15.84-5.85-15.84-5.85,7.12-5.85,15.84S273.9,407,277.12,407Z"/><path class="cls-31" d="M312,376.27c12.61,0,22.9-2.87,22.9-6.38s-10.29-6.38-22.9-6.38-22.91,2.87-22.91,6.38S299.36,376.27,312,376.27Z"/><path class="cls-47" d="M307.5,372.08c9.7,0,17.6-5.24,17.6-11.65s-7.9-11.66-17.6-11.66-17.6,5.24-17.6,11.66S297.81,372.08,307.5,372.08Z"/><path class="cls-53" d="M307.5,372.08c5.18,0,9.4-5.24,9.4-11.65s-4.22-11.66-9.4-11.66-9.39,5.24-9.39,11.66S302.33,372.08,307.5,372.08Z"/><path class="cls-47" d="M307.51,372.08c2.37,0,4.3-5.24,4.3-11.65s-1.93-11.66-4.3-11.66-4.3,5.24-4.3,11.66S305.14,372.08,307.51,372.08Z"/><path class="cls-31" d="M473.22,410.51c16,0,29-3.62,29-8.07s-13-8.08-29-8.08-29,3.63-29,8.08S457.25,410.51,473.22,410.51Z"/><path class="cls-47" d="M468.48,407c13.17,0,23.92-7.12,23.92-15.84s-10.75-15.84-23.92-15.84-23.92,7.12-23.92,15.84S455.31,407,468.48,407Z"/><path class="cls-53" d="M468.48,407c7,0,12.76-7.12,12.76-15.84s-5.73-15.84-12.76-15.84-12.76,7.12-12.76,15.84S461.45,407,468.48,407Z"/><path class="cls-47" d="M468.48,407c3.22,0,5.85-7.12,5.85-15.84s-2.63-15.84-5.85-15.84-5.85,7.12-5.85,15.84S465.26,407,468.48,407Z"/><path class="cls-31" d="M503.34,376.27c12.61,0,22.9-2.87,22.9-6.38s-10.29-6.38-22.9-6.38-22.91,2.87-22.91,6.38S490.72,376.27,503.34,376.27Z"/><path class="cls-47" d="M498.87,372.08c9.69,0,17.6-5.24,17.6-11.65s-7.91-11.66-17.6-11.66-17.61,5.24-17.61,11.66S489.17,372.08,498.87,372.08Z"/><path class="cls-53" d="M498.87,372.08c5.17,0,9.39-5.24,9.39-11.65s-4.22-11.66-9.39-11.66-9.4,5.24-9.4,11.66S493.69,372.08,498.87,372.08Z"/><path class="cls-47" d="M498.87,372.08c2.37,0,4.3-5.24,4.3-11.65s-1.93-11.66-4.3-11.66-4.3,5.24-4.3,11.66S496.5,372.08,498.87,372.08Z"/><rect class="cls-54" x="698.78" y="317.08" width="3.74" height="53.63"/><rect class="cls-55" x="693.88" y="293.55" width="12.73" height="39.43" rx="5.26" ry="5.26"/><rect class="cls-54" x="721.2" y="317.08" width="3.74" height="53.63"/><rect class="cls-55" x="716.3" y="293.55" width="12.73" height="39.43" rx="5.26" ry="5.26"/><rect class="cls-54" x="662.09" y="356.75" width="3.74" height="53.63"/><rect class="cls-55" x="657.19" y="333.21" width="12.73" height="39.43" rx="5.26" ry="5.26"/><rect class="cls-54" x="684.5" y="356.75" width="3.74" height="53.63"/><rect class="cls-55" x="679.61" y="333.21" width="12.73" height="39.43" rx="5.26" ry="5.26"/><rect class="cls-54" x="890.02" y="317.08" width="3.74" height="53.63"/><rect class="cls-55" x="885.13" y="293.55" width="12.73" height="39.43" rx="5.26" ry="5.26"/><rect class="cls-54" x="912.44" y="317.08" width="3.74" height="53.63"/><rect class="cls-55" x="907.54" y="293.55" width="12.73" height="39.43" rx="5.26" ry="5.26"/><rect class="cls-54" x="853.33" y="356.75" width="3.74" height="53.63"/><rect class="cls-55" x="848.43" y="333.21" width="12.73" height="39.43" rx="5.26" ry="5.26"/><rect class="cls-54" x="875.75" y="356.75" width="3.74" height="53.63"/><rect class="cls-55" x="870.85" y="333.21" width="12.74" height="39.43" rx="5.26" ry="5.26"/><path class="cls-56" d="M1573.26,512H1769.1a15,15,0,0,1,15,15h0a15,15,0,0,1-15,14.95H1573.26a15,15,0,0,1-15-14.95h0A15,15,0,0,1,1573.26,512Z"/><rect class="cls-54" x="383.06" y="517.99" width="32.89" height="32.89" transform="translate(-260.89 439.03) rotate(-45)"/><polygon class="cls-57" points="422.76 534.44 399.51 557.69 376.25 534.44 422.76 534.44"/><rect class="cls-54" x="332.98" y="537.84" width="16.44" height="16.44" transform="translate(-286.18 401.18) rotate(-45)"/><polygon class="cls-57" points="352.83 546.07 341.21 557.69 329.58 546.07 352.83 546.07"/><rect class="cls-54" x="261.98" y="517.99" width="32.89" height="32.89" transform="translate(-296.35 353.4) rotate(-45)"/><polygon class="cls-57" points="301.68 534.44 278.42 557.69 255.16 534.44 301.68 534.44"/><rect class="cls-54" x="197.69" y="537.84" width="16.44" height="16.44" transform="translate(-325.82 305.55) rotate(-45)"/><polygon class="cls-57" points="217.54 546.07 205.92 557.69 194.28 546.07 217.54 546.07"/><rect class="cls-54" x="974.14" y="517.99" width="32.89" height="32.89" transform="translate(-87.77 856.98) rotate(-45)"/><polygon class="cls-57" points="1013.84 534.44 990.59 557.69 967.32 534.44 1013.84 534.44"/><rect class="cls-54" x="924.06" y="537.84" width="16.44" height="16.44" transform="translate(-113.07 819.17) rotate(-45)"/><polygon class="cls-57" points="943.9 546.07 932.28 557.69 920.65 546.07 943.9 546.07"/><rect class="cls-54" x="853.05" y="517.99" width="32.89" height="32.89" transform="translate(-123.23 771.36) rotate(-45)"/><polygon class="cls-57" points="892.75 534.44 869.5 557.69 846.23 534.44 892.75 534.44"/><rect class="cls-54" x="788.77" y="537.84" width="16.44" height="16.44" transform="translate(-152.69 723.5) rotate(-45)"/><polygon class="cls-57" points="808.61 546.07 796.99 557.69 785.36 546.07 808.61 546.07"/><rect class="cls-54" x="1136.32" y="513.81" width="16.44" height="16.44" transform="translate(-33.91 962.22) rotate(-45)"/><polygon class="cls-57" points="1156.16 522.04 1144.54 533.67 1132.91 522.04 1156.16 522.04"/><rect class="cls-54" x="1213.01" y="546.1" width="16.44" height="16.44" transform="translate(-34.28 1025.9) rotate(-45)"/><polygon class="cls-57" points="1232.86 554.33 1221.23 565.96 1209.6 554.33 1232.86 554.33"/><rect class="cls-54" x="1251.96" y="513.82" width="16.44" height="16.44" transform="translate(-0.01 1044.05) rotate(-45)"/><polygon class="cls-57" points="1271.81 522.04 1260.19 533.67 1248.56 522.04 1271.81 522.04"/><rect class="cls-54" x="1523.73" y="541.91" width="16.44" height="16.44" transform="translate(59.66 1244.31) rotate(-45)"/><polygon class="cls-57" points="1543.57 550.13 1531.95 561.76 1520.32 550.13 1543.57 550.13"/><rect class="cls-54" x="1495.32" y="513.82" width="16.44" height="16.44" transform="translate(71.28 1216.14) rotate(-45)"/><polygon class="cls-57" points="1515.17 522.04 1503.55 533.67 1491.92 522.04 1515.17 522.04"/><rect class="cls-54" x="1837.3" y="525.68" width="29.89" height="29.89" transform="translate(160.28 1468.17) rotate(-45)"/><polygon class="cls-57" points="1873.37 540.62 1852.24 561.76 1831.1 540.62 1873.37 540.62"/><path class="cls-34" d="M1605.26,385.23h42.29a5.08,5.08,0,0,1,5.06,5.07h0a5.08,5.08,0,0,1-5.06,5.06h-42.29a5.08,5.08,0,0,1-5.06-5.06h0A5.08,5.08,0,0,1,1605.26,385.23Z"/><rect class="cls-58" x="1607.31" y="433.08" width="144.88" height="33.67"/><rect class="cls-59" x="1607.31" y="399.38" width="89.12" height="33.7"/><rect class="cls-60" x="1736.42" y="389.69" width="15.77" height="77.05"/><rect class="cls-52" x="1752.19" y="401.38" width="7.69" height="65.36"/><rect class="cls-59" x="1686.9" y="399.38" width="49.52" height="33.7"/><path class="cls-61" d="M1715.7,436.65h2.22a6.67,6.67,0,0,1,6.65,6.66v23.45h-15.52V443.3A6.67,6.67,0,0,1,1715.7,436.65Z"/><rect class="cls-59" x="1713.64" y="466.74" width="9.44" height="27.94"/><path class="cls-34" d="M1616.71,410.39A58.64,58.64,0,1,1,1558.07,469,58.65,58.65,0,0,1,1616.71,410.39Z"/><path class="cls-62" d="M1616.71,428.1A40.93,40.93,0,1,1,1575.78,469,40.94,40.94,0,0,1,1616.71,428.1Z"/><circle class="cls-63" cx="1616.71" cy="469.03" r="35.3"/><path class="cls-64" d="M1611.88,406.12l2-1.15a2.55,2.55,0,0,1,3.48.94l5.1,8.84a2.54,2.54,0,0,1-.93,3.48l-2,1.15a2.57,2.57,0,0,1-3.49-.93l-5.1-8.85A2.56,2.56,0,0,1,1611.88,406.12Z"/><path class="cls-64" d="M1611.89,519.83l2-1.15a2.55,2.55,0,0,1,3.48.93l5.1,8.84a2.55,2.55,0,0,1-.93,3.48l-2,1.15a2.55,2.55,0,0,1-3.47-.93l-5.11-8.84A2.55,2.55,0,0,1,1611.89,519.83Z"/><path class="cls-64" d="M1595.77,409.52l1.63-1.63a2.53,2.53,0,0,1,3.6,0l7.22,7.21a2.57,2.57,0,0,1,0,3.61l-1.63,1.63a2.57,2.57,0,0,1-3.61,0l-7.21-7.22A2.55,2.55,0,0,1,1595.77,409.52Z"/><path class="cls-64" d="M1625.2,519.35l1.62-1.63a2.56,2.56,0,0,1,3.61,0l7.22,7.22a2.55,2.55,0,0,1,0,3.6l-1.63,1.63a2.57,2.57,0,0,1-3.61,0L1625.2,523A2.54,2.54,0,0,1,1625.2,519.35Z"/><path class="cls-64" d="M1581.08,417l1.15-2a2.55,2.55,0,0,1,3.48-.93l8.84,5.1a2.55,2.55,0,0,1,.94,3.48l-1.16,2a2.56,2.56,0,0,1-3.48.93l-8.84-5.11A2.56,2.56,0,0,1,1581.08,417Z"/><path class="cls-64" d="M1637.93,515.43l1.15-2a2.55,2.55,0,0,1,3.48-.93l8.84,5.1a2.55,2.55,0,0,1,.94,3.48l-1.15,2a2.57,2.57,0,0,1-3.49.93l-8.84-5.1A2.57,2.57,0,0,1,1637.93,515.43Z"/><path class="cls-64" d="M1568.82,428l.6-2.23a2.55,2.55,0,0,1,3.11-1.8l9.86,2.64a2.57,2.57,0,0,1,1.81,3.13l-.6,2.22a2.56,2.56,0,0,1-3.12,1.81l-9.86-2.65A2.54,2.54,0,0,1,1568.82,428Z"/><path class="cls-64" d="M1649.22,508.36l.59-2.22a2.55,2.55,0,0,1,3.13-1.8l9.86,2.64a2.55,2.55,0,0,1,1.8,3.12l-.6,2.22a2.54,2.54,0,0,1-3.12,1.8l-9.86-2.64A2.55,2.55,0,0,1,1649.22,508.36Z"/><path class="cls-64" d="M1559.82,441.75v-2.3a2.56,2.56,0,0,1,2.55-2.55h10.21a2.53,2.53,0,0,1,2.54,2.54v2.3a2.55,2.55,0,0,1-2.55,2.55h-10.21A2.55,2.55,0,0,1,1559.82,441.75Z"/><path class="cls-64" d="M1658.29,498.61V496.3a2.56,2.56,0,0,1,2.55-2.55h10.21a2.56,2.56,0,0,1,2.55,2.55v2.31a2.56,2.56,0,0,1-2.55,2.55h-10.21A2.56,2.56,0,0,1,1658.29,498.61Z"/><path class="cls-64" d="M1554.7,457.41l-.6-2.23a2.56,2.56,0,0,1,1.81-3.12l9.86-2.64a2.56,2.56,0,0,1,3.12,1.8l.59,2.23a2.56,2.56,0,0,1-1.8,3.12l-9.86,2.64A2.55,2.55,0,0,1,1554.7,457.41Z"/><path class="cls-64" d="M1664.53,486.84l-.59-2.22a2.55,2.55,0,0,1,1.8-3.13l9.85-2.64a2.56,2.56,0,0,1,3.13,1.8l.59,2.23a2.55,2.55,0,0,1-1.8,3.12l-9.86,2.64A2.56,2.56,0,0,1,1664.53,486.84Z"/><path class="cls-64" d="M1553.8,473.85l-1.14-2a2.54,2.54,0,0,1,.93-3.48l8.84-5.1a2.55,2.55,0,0,1,3.48.93l1.15,2a2.56,2.56,0,0,1-.93,3.48l-8.84,5.11A2.56,2.56,0,0,1,1553.8,473.85Z"/><path class="cls-64" d="M1667.51,473.86l-1.15-2a2.56,2.56,0,0,1,.93-3.49l8.84-5.09a2.54,2.54,0,0,1,3.48.93l1.15,2a2.56,2.56,0,0,1-.93,3.48l-8.84,5.11A2.56,2.56,0,0,1,1667.51,473.86Z"/><path class="cls-64" d="M1557.19,490l-1.62-1.63a2.55,2.55,0,0,1,0-3.61l7.21-7.21a2.57,2.57,0,0,1,3.61,0l1.63,1.63a2.55,2.55,0,0,1,0,3.6L1560.8,490A2.56,2.56,0,0,1,1557.19,490Z"/><path class="cls-64" d="M1667,460.54l-1.63-1.63a2.53,2.53,0,0,1,0-3.6l7.21-7.22a2.57,2.57,0,0,1,3.61,0l1.63,1.63a2.55,2.55,0,0,1,0,3.6l-7.22,7.22A2.54,2.54,0,0,1,1667,460.54Z"/><path class="cls-64" d="M1564.64,504.66l-2-1.15a2.54,2.54,0,0,1-.93-3.48l5.1-8.84a2.54,2.54,0,0,1,3.48-.93l2,1.14a2.57,2.57,0,0,1,.93,3.49l-5.1,8.84A2.57,2.57,0,0,1,1564.64,504.66Z"/><path class="cls-64" d="M1663.11,447.81l-2-1.15a2.56,2.56,0,0,1-.93-3.49l5.1-8.83a2.55,2.55,0,0,1,3.48-.94l2,1.15a2.56,2.56,0,0,1,.94,3.48l-5.1,8.85A2.57,2.57,0,0,1,1663.11,447.81Z"/><rect class="cls-65" x="1568.85" y="505.53" width="15.31" height="7.4" rx="2.55" ry="2.55" transform="translate(677.13 1900.57) rotate(-75.02)"/><path class="cls-64" d="M1656,436.52l-2.23-.59a2.57,2.57,0,0,1-1.8-3.13l2.65-9.86a2.55,2.55,0,0,1,3.12-1.8l2.22.6a2.55,2.55,0,0,1,1.8,3.12l-2.64,9.86A2.55,2.55,0,0,1,1656,436.52Z"/><path class="cls-64" d="M1589.43,525.92h-2.3a2.55,2.55,0,0,1-2.55-2.55V513.16a2.55,2.55,0,0,1,2.55-2.55h2.31a2.55,2.55,0,0,1,2.54,2.55v10.21A2.55,2.55,0,0,1,1589.43,525.92Z"/><path class="cls-64" d="M1646.28,427.45H1644a2.57,2.57,0,0,1-2.55-2.55V414.69a2.56,2.56,0,0,1,2.55-2.55h2.3a2.55,2.55,0,0,1,2.55,2.55V424.9A2.55,2.55,0,0,1,1646.28,427.45Z"/><path class="cls-64" d="M1605.08,531l-2.22.6a2.55,2.55,0,0,1-3.12-1.81L1597.1,520a2.54,2.54,0,0,1,1.8-3.11l2.22-.6a2.55,2.55,0,0,1,3.13,1.8l2.64,9.86A2.56,2.56,0,0,1,1605.08,531Z"/><path class="cls-64" d="M1634.52,421.21l-2.23.59a2.54,2.54,0,0,1-3.12-1.8l-2.64-9.86a2.55,2.55,0,0,1,1.8-3.12l2.22-.59a2.55,2.55,0,0,1,3.12,1.8l2.65,9.86A2.56,2.56,0,0,1,1634.52,421.21Z"/><circle class="cls-66" cx="1616.71" cy="469.03" r="27.41"/><rect class="cls-60" x="1678.73" y="372.88" width="8.16" height="26.5"/><rect class="cls-67" x="1752.19" y="430.68" width="17.33" height="6.38"/><rect class="cls-67" x="1752.19" y="440.75" width="17.33" height="6.38"/><rect class="cls-67" x="1752.19" y="450.83" width="17.33" height="6.38"/><rect class="cls-67" x="1752.19" y="460.91" width="17.33" height="6.38"/><path class="cls-61" d="M1616.71,392.1a76.92,76.92,0,0,1,76.89,74.64h-9.35A67.63,67.63,0,0,0,1594,405.36v-9.85A76.72,76.72,0,0,1,1616.71,392.1Z"/><path class="cls-68" d="M1616.71,476.8a7.78,7.78,0,1,0-7.77-7.77A7.79,7.79,0,0,0,1616.71,476.8Z"/><path class="cls-68" d="M1616.71,448.18a3.12,3.12,0,1,1-3.12,3.12,3.11,3.11,0,0,1,3.12-3.12Zm0,35.46a3.12,3.12,0,1,1-3.12,3.12A3.12,3.12,0,0,1,1616.71,483.64Z"/><path class="cls-68" d="M1631.45,454.28a3.12,3.12,0,1,1-4.41,0,3.11,3.11,0,0,1,4.41,0Zm-25.07,25.08a3.12,3.12,0,1,1-4.41,0A3.13,3.13,0,0,1,1606.38,479.36Z"/><path class="cls-68" d="M1637.56,469a3.12,3.12,0,1,1-3.12-3.12,3.12,3.12,0,0,1,3.12,3.12Zm-35.46,0a3.12,3.12,0,1,1-3.12-3.12A3.12,3.12,0,0,1,1602.1,469Z"/><path class="cls-68" d="M1631.45,483.77a3.12,3.12,0,1,1,0-4.41,3.11,3.11,0,0,1,0,4.41Zm-25.07-25.08a3.12,3.12,0,1,1,0-4.41A3.11,3.11,0,0,1,1606.38,458.69Z"/><path class="cls-34" d="M1741.15,468.8a31.47,31.47,0,1,1-31.47,31.46A31.47,31.47,0,0,1,1741.15,468.8Z"/><path class="cls-62" d="M1741.15,478.3a22,22,0,1,1-22,22A22,22,0,0,1,1741.15,478.3Z"/><path class="cls-68" d="M1741.15,519.2a18.94,18.94,0,1,0-18.94-18.94A19,19,0,0,0,1741.15,519.2Z"/><path class="cls-64" d="M1738.56,466.51l1.07-.62a1.37,1.37,0,0,1,1.87.5l2.74,4.74a1.37,1.37,0,0,1-.5,1.87l-1.07.62a1.37,1.37,0,0,1-1.87-.5l-2.74-4.75A1.37,1.37,0,0,1,1738.56,466.51Z"/><path class="cls-65" d="M1740.53,526.67h1.24a1.37,1.37,0,0,1,1.37,1.37v5.48a1.37,1.37,0,0,1-1.37,1.37h-1.23a1.37,1.37,0,0,1-1.37-1.37V528A1.36,1.36,0,0,1,1740.53,526.67Z" transform="translate(-33.02 937.78) rotate(-29.87)"/><path class="cls-64" d="M1729.91,468.33l.88-.88a1.37,1.37,0,0,1,1.93,0l3.87,3.88a1.35,1.35,0,0,1,0,1.93l-.87.87a1.35,1.35,0,0,1-1.93,0l-3.88-3.87A1.37,1.37,0,0,1,1729.91,468.33Z"/><path class="cls-64" d="M1745.71,527.27l.87-.88a1.37,1.37,0,0,1,1.93,0l3.88,3.88a1.37,1.37,0,0,1,0,1.93l-.88.88a1.37,1.37,0,0,1-1.93,0l-3.87-3.88A1.35,1.35,0,0,1,1745.71,527.27Z"/><path class="cls-64" d="M1722,472.32l.62-1.06a1.37,1.37,0,0,1,1.87-.51l4.74,2.74a1.37,1.37,0,0,1,.5,1.87l-.62,1.07a1.37,1.37,0,0,1-1.87.5l-4.74-2.74A1.37,1.37,0,0,1,1722,472.32Z"/><path class="cls-64" d="M1752.54,525.17l.62-1.07a1.37,1.37,0,0,1,1.87-.5l4.74,2.74a1.36,1.36,0,0,1,.5,1.86l-.62,1.07a1.36,1.36,0,0,1-1.86.51L1753,527A1.37,1.37,0,0,1,1752.54,525.17Z"/><path class="cls-64" d="M1715.45,478.22l.32-1.19a1.38,1.38,0,0,1,1.68-1l5.29,1.42a1.37,1.37,0,0,1,1,1.68l-.32,1.19a1.37,1.37,0,0,1-1.67,1l-5.29-1.42A1.38,1.38,0,0,1,1715.45,478.22Z"/><path class="cls-64" d="M1758.6,521.37l.32-1.19a1.37,1.37,0,0,1,1.67-1l5.29,1.42a1.36,1.36,0,0,1,1,1.68l-.32,1.19a1.37,1.37,0,0,1-1.67,1l-5.29-1.41A1.37,1.37,0,0,1,1758.6,521.37Z"/><path class="cls-64" d="M1710.62,485.63V484.4A1.37,1.37,0,0,1,1712,483h5.48a1.36,1.36,0,0,1,1.36,1.37v1.23a1.37,1.37,0,0,1-1.37,1.36H1712A1.38,1.38,0,0,1,1710.62,485.63Z"/><path class="cls-64" d="M1763.47,516.14V514.9a1.37,1.37,0,0,1,1.36-1.37h5.48a1.36,1.36,0,0,1,1.37,1.36v1.24a1.37,1.37,0,0,1-1.37,1.36h-5.47A1.36,1.36,0,0,1,1763.47,516.14Z"/><path class="cls-64" d="M1707.87,494l-.32-1.2a1.37,1.37,0,0,1,1-1.67l5.29-1.42a1.38,1.38,0,0,1,1.68,1l.32,1.19a1.38,1.38,0,0,1-1,1.68l-5.29,1.42A1.39,1.39,0,0,1,1707.87,494Z"/><path class="cls-64" d="M1766.81,509.82l-.32-1.19a1.38,1.38,0,0,1,1-1.68l5.29-1.41a1.37,1.37,0,0,1,1.68,1l.32,1.2a1.37,1.37,0,0,1-1,1.67l-5.29,1.42A1.37,1.37,0,0,1,1766.81,509.82Z"/><path class="cls-65" d="M1707.9,498.28h5.48a1.37,1.37,0,0,1,1.37,1.37v1.24a1.37,1.37,0,0,1-1.37,1.37h-5.48a1.36,1.36,0,0,1-1.36-1.36v-1.24a1.37,1.37,0,0,1,1.37-1.37Z" transform="translate(-20.8 922.94) rotate(-30.02)"/><path class="cls-64" d="M1768.41,502.85l-.62-1.07a1.38,1.38,0,0,1,.5-1.87l4.75-2.73a1.37,1.37,0,0,1,1.87.5l.61,1.07a1.36,1.36,0,0,1-.49,1.86l-4.75,2.75A1.38,1.38,0,0,1,1768.41,502.85Z"/><path class="cls-64" d="M1709.21,511.5l-.87-.87a1.38,1.38,0,0,1,0-1.94l3.87-3.87a1.38,1.38,0,0,1,1.94,0l.87.87a1.37,1.37,0,0,1,0,1.94l-3.87,3.87A1.36,1.36,0,0,1,1709.21,511.5Z"/><path class="cls-64" d="M1768.15,495.71l-.87-.87a1.38,1.38,0,0,1,0-1.94l3.87-3.87a1.37,1.37,0,0,1,1.93,0l.88.87a1.38,1.38,0,0,1,0,1.94l-3.87,3.87A1.37,1.37,0,0,1,1768.15,495.71Z"/><path class="cls-64" d="M1713.21,519.39l-1.07-.62a1.38,1.38,0,0,1-.5-1.87l2.74-4.74a1.37,1.37,0,0,1,1.87-.51l1.07.62a1.37,1.37,0,0,1,.5,1.87l-2.74,4.74A1.38,1.38,0,0,1,1713.21,519.39Z"/><path class="cls-64" d="M1766.05,488.88l-1.07-.62a1.37,1.37,0,0,1-.49-1.87l2.73-4.74a1.36,1.36,0,0,1,1.87-.5l1.07.62a1.36,1.36,0,0,1,.5,1.86l-2.74,4.75A1.38,1.38,0,0,1,1766.05,488.88Z"/><path class="cls-64" d="M1719.11,526l-1.19-.32a1.37,1.37,0,0,1-1-1.68l1.42-5.29a1.37,1.37,0,0,1,1.67-1l1.2.32a1.37,1.37,0,0,1,1,1.68l-1.42,5.29A1.37,1.37,0,0,1,1719.11,526Z"/><path class="cls-64" d="M1762.26,482.82l-1.2-.32a1.37,1.37,0,0,1-1-1.68l1.42-5.29a1.36,1.36,0,0,1,1.67-1l1.19.32a1.36,1.36,0,0,1,1,1.67l-1.42,5.29A1.36,1.36,0,0,1,1762.26,482.82Z"/><path class="cls-64" d="M1726.51,530.79h-1.23a1.36,1.36,0,0,1-1.37-1.36V524a1.37,1.37,0,0,1,1.37-1.37h1.23a1.38,1.38,0,0,1,1.37,1.37v5.48A1.36,1.36,0,0,1,1726.51,530.79Z"/><path class="cls-64" d="M1757,478h-1.23a1.37,1.37,0,0,1-1.37-1.37v-5.47a1.37,1.37,0,0,1,1.37-1.37H1757a1.37,1.37,0,0,1,1.37,1.37v5.47A1.37,1.37,0,0,1,1757,478Z"/><path class="cls-64" d="M1734.91,533.54l-1.19.32a1.37,1.37,0,0,1-1.68-1l-1.41-5.3a1.36,1.36,0,0,1,1-1.67l1.19-.32a1.36,1.36,0,0,1,1.67,1l1.42,5.29A1.37,1.37,0,0,1,1734.91,533.54Z"/><path class="cls-64" d="M1750.7,474.6l-1.19.32a1.36,1.36,0,0,1-1.67-1l-1.42-5.29a1.37,1.37,0,0,1,1-1.67l1.19-.32a1.38,1.38,0,0,1,1.68,1l1.41,5.29A1.35,1.35,0,0,1,1750.7,474.6Z"/><path class="cls-69" d="M1741.15,515a14.71,14.71,0,1,0-14.71-14.71A14.74,14.74,0,0,0,1741.15,515Z"/><path class="cls-68" d="M1741.15,504.44a4.18,4.18,0,1,0-4.17-4.18A4.19,4.19,0,0,0,1741.15,504.44Z"/><path class="cls-68" d="M1741.15,489.08a1.67,1.67,0,1,1-1.67,1.67,1.67,1.67,0,0,1,1.67-1.67Zm0,19a1.67,1.67,0,1,1-1.67,1.67A1.67,1.67,0,0,1,1741.15,508.11Z"/><path class="cls-68" d="M1749.06,492.35a1.67,1.67,0,0,1,0,2.37,1.68,1.68,0,1,1,0-2.37Zm-13.45,13.46a1.67,1.67,0,1,1-2.37,0A1.67,1.67,0,0,1,1735.61,505.81Z"/><path class="cls-68" d="M1752.34,500.26a1.67,1.67,0,1,1-1.67-1.67,1.68,1.68,0,0,1,1.67,1.67Zm-19,0a1.68,1.68,0,1,1-1.67-1.67A1.68,1.68,0,0,1,1733.31,500.26Z"/><path class="cls-68" d="M1749.06,508.17a1.67,1.67,0,0,1-2.36-2.36,1.67,1.67,0,0,1,2.36,0,1.65,1.65,0,0,1,0,2.36Zm-13.45-13.45a1.68,1.68,0,1,1,0-2.37A1.68,1.68,0,0,1,1735.61,494.72Z"/><path class="cls-61" d="M1686.9,378.6H1726A10.41,10.41,0,0,1,1736.42,389v10.39H1686.9Z"/><path class="cls-61" d="M1693.94,481.32a50.9,50.9,0,0,1,47.21-31.91v9.44a41.4,41.4,0,0,0-36.83,22.47Z"/><path class="cls-34" d="M1670.59,366.19v24.22a2.91,2.91,0,0,1-2.9,2.89h0a2.9,2.9,0,0,1-2.9-2.89V366.19a2.91,2.91,0,0,1,2.9-2.9h0A2.92,2.92,0,0,1,1670.59,366.19Z"/><rect class="cls-63" x="1670.58" y="375.29" width="8.14" height="24.08"/></g></g></svg>