<svg xmlns="http://www.w3.org/2000/svg" viewBox="0 0 369.22 104.01"><defs><style>.cls-1{fill:#7a7a74;opacity:0.5;}.cls-2{fill:#fcfcf0;}</style></defs><title>Village_name_banner</title><g id="Layer_2" data-name="Layer 2"><g id="Layer_1-2" data-name="Layer 1"><path class="cls-1" d="M0,104H68.52c3.44,0,6.23-1.34,6.23-3V92H294.48v9c0,1.67,2.79,3,6.24,3h68.5L344.31,61.85l24.91-42.17H319.4v-9c0-1.67-2.79-3-6.23-3H56.06c-3.44,0-6.22,1.35-6.22,3v9H0L24.92,61.85,0,104Z"/><path class="cls-2" d="M0,96.38H68.52c3.44,0,6.23-1.35,6.23-3v-9H294.48v9c0,1.66,2.79,3,6.24,3h68.5L344.31,54.22l24.91-42.17H319.4V3c0-1.66-2.79-3-6.23-3H56.06c-3.44,0-6.22,1.35-6.22,3v9H0L24.92,54.22,0,96.38Z"/></g></g></svg>