<svg xmlns="http://www.w3.org/2000/svg" viewBox="0 0 1016.68 473.19"><defs><style>.cls-1{fill:#e6ab2b;}.cls-1,.cls-10,.cls-11,.cls-12,.cls-2,.cls-20,.cls-21,.cls-22,.cls-23,.cls-24,.cls-27,.cls-28,.cls-29,.cls-3,.cls-30,.cls-31,.cls-32,.cls-33,.cls-34,.cls-37,.cls-4,.cls-40,.cls-42,.cls-45,.cls-47,.cls-48,.cls-5,.cls-52,.cls-55,.cls-59,.cls-60,.cls-62,.cls-66,.cls-67,.cls-68,.cls-7,.cls-8,.cls-9{fill-rule:evenodd;}.cls-2,.cls-49{fill:#fff;}.cls-3,.cls-53{fill:#db9809;}.cls-4{fill:#feb418;}.cls-5{fill:#f5c04f;}.cls-23,.cls-6{fill:#6b370d;}.cls-7{fill:#f0a608;}.cls-8{fill:#c77c3d;}.cls-13,.cls-9{fill:#ab652b;}.cls-10{fill:#fac75a;}.cls-11,.cls-38{fill:#d6a946;}.cls-12{fill:#c98c08;}.cls-14,.cls-20{fill:#8c4b17;}.cls-15{fill:#f5f2d7;}.cls-16,.cls-24{fill:#dedab6;}.cls-17{fill:#c4c099;}.cls-18{fill:#9cc;}.cls-19{fill:#699;}.cls-21{fill:#ba1f00;}.cls-22{fill:#9e1e05;}.cls-25{fill:#9e9a79;}.cls-26{fill:#c47e44;}.cls-27{fill:#13a9d6;}.cls-28{fill:#42d3ff;}.cls-29{fill:#3bbec9;}.cls-30{fill:#64d3de;}.cls-31{fill:#995a26;}.cls-32{fill:#7d9408;}.cls-33{fill:#7f4618;}.cls-34,.cls-36{fill:#333;}.cls-35,.cls-37{fill:#9b6130;}.cls-39{fill:#9bb51b;}.cls-40{fill:#bbd923;}.cls-41,.cls-48{fill:#063;}.cls-42{fill:#093;}.cls-43{fill:#11b046;}.cls-44{fill:#dc0e00;}.cls-45{fill:#fe3b00;}.cls-46,.cls-47{fill:#f60;}.cls-50{fill:#e5e5e5;}.cls-51{fill:#b2b2b2;}.cls-52{fill:#dc3300;}.cls-54{fill:#ffe241;}.cls-55{fill:#ba830d;}.cls-56{fill:#dc0000;}.cls-57{fill:red;}.cls-58,.cls-59{fill:#ff4141;}.cls-60{fill:#4c4c4c;}.cls-61,.cls-66{fill:#666;}.cls-62,.cls-63{fill:#231f20;}.cls-64,.cls-67{fill:#414042;}.cls-65{fill:#ccc;}.cls-68{fill:#b07c0a;}</style></defs><title>Village_full</title><g id="Layer_2" data-name="Layer 2"><g id="Layer_1-2" data-name="Layer 1"><path class="cls-1" d="M2.3,434.63H1016.68v19.28a19.33,19.33,0,0,1-19.28,19.28H21.58A19.33,19.33,0,0,1,2.3,453.91Z"/><path class="cls-2" d="M621.59,136.51a18.83,18.83,0,0,0-18.82,18.82H906.9a9.06,9.06,0,0,0-13.6-7.85,21.32,21.32,0,0,0-13.07-12.32,8.22,8.22,0,0,0,.06-1,8.53,8.53,0,0,0-14.86-5.73,9,9,0,0,0-1.38-.12,8,8,0,0,0-3.94,1,25.51,25.51,0,0,0-48-11.68,12.52,12.52,0,0,0-14.89,16.26,26.37,26.37,0,0,0-21.84-4.16,7.55,7.55,0,0,0-7-4.66,8.1,8.1,0,0,0-1.49.14,11.39,11.39,0,0,0-.56-15.6,9.88,9.88,0,0,0,2.38-6.44v-.13a9.34,9.34,0,1,0-9.92-14.24A7.84,7.84,0,0,0,756,88.3a7.71,7.71,0,0,0-5.72,2.53,17.18,17.18,0,0,0-24.91,10.26,53.94,53.94,0,0,0-6.64-.4c-1.85,0-3.69.09-5.49.27A10.69,10.69,0,0,0,695,95.71a14.13,14.13,0,0,0-5.25-1,14.29,14.29,0,0,0-12.84,8c-.48,0-1,0-1.45,0A19.31,19.31,0,0,0,656.18,121a35.35,35.35,0,0,0-23.79,18.94A18.69,18.69,0,0,0,621.59,136.51Z"/><path class="cls-2" d="M364.48,162.49a13.73,13.73,0,0,0-3.16.36,6.71,6.71,0,0,0-6-3.69,6.85,6.85,0,0,0-2.49.48,37.44,37.44,0,0,0-3.68-5.83,23.15,23.15,0,0,0,4.08-13.15l0-.91a10.09,10.09,0,1,0-9-17.49,23.22,23.22,0,0,0-35.68,9.68,8.57,8.57,0,0,0-1.69-.16,8.88,8.88,0,0,0-7.67,13.37,37.38,37.38,0,0,0-17.08,31.41H387a8.46,8.46,0,0,0-11-8.06,14.05,14.05,0,0,0-11.53-6ZM52.2,167.83a8.72,8.72,0,0,0-8.72,8.73H263.9a16.88,16.88,0,0,0-33.65-1.91,10.12,10.12,0,0,0-16.43-5.88,27,27,0,0,0-2.39-5.56,14.94,14.94,0,0,0-21-21.25,8.76,8.76,0,0,0-13.05,7.64,8.67,8.67,0,0,0,.23,2,27.1,27.1,0,0,0-14.79,15,10,10,0,0,0-1.9-.18,10.11,10.11,0,0,0-8.51,4.64,23.5,23.5,0,0,0-43.75-5.25,13.32,13.32,0,0,0-7.94-2.61,13.05,13.05,0,0,0-1.41.07A9.67,9.67,0,0,0,84,160.79a18.27,18.27,0,0,0-26.24,9A8.76,8.76,0,0,0,52.2,167.83Z"/><path class="cls-3" d="M349.92,208.51a205,205,0,0,1,170.27,90.71H179.65A205,205,0,0,1,349.92,208.51Z"/><path class="cls-1" d="M464.18,299.22H179.65a205.13,205.13,0,0,1,142.26-88.8A205.15,205.15,0,0,1,464.18,299.22Z"/><path class="cls-1" d="M661.12,208.51a205,205,0,0,1,170.27,90.71H490.85A205,205,0,0,1,661.12,208.51Z"/><path class="cls-3" d="M495.07,208.51a205,205,0,0,1,170.27,90.71H324.8A205,205,0,0,1,495.07,208.51Z"/><path class="cls-4" d="M600.42,299.22H324.8a205.23,205.23,0,0,1,137.81-88.15A205.23,205.23,0,0,1,600.42,299.22Z"/><path class="cls-5" d="M664.58,299.22H155.71a44.68,44.68,0,0,0-41.85,29.4H706.44A44.68,44.68,0,0,0,664.58,299.22Z"/><rect class="cls-6" x="537.63" y="272.47" width="11.07" height="26.75"/><rect class="cls-6" x="547.57" y="272.47" width="3.51" height="26.75"/><rect class="cls-6" x="549.15" y="278.7" width="66.68" height="5.01"/><rect class="cls-6" x="549.15" y="288.62" width="66.68" height="5.01"/><rect class="cls-6" x="615.43" y="272.47" width="11.07" height="26.75"/><rect class="cls-6" x="625.37" y="272.47" width="3.51" height="26.75"/><rect class="cls-6" x="459.84" y="272.47" width="11.07" height="26.75"/><rect class="cls-6" x="469.77" y="272.47" width="3.51" height="26.75"/><rect class="cls-6" x="471.35" y="278.7" width="66.68" height="5.01"/><rect class="cls-6" x="471.35" y="288.62" width="66.68" height="5.01"/><rect class="cls-6" x="537.63" y="272.47" width="11.07" height="26.75"/><rect class="cls-6" x="547.57" y="272.47" width="3.51" height="26.75"/><path class="cls-7" d="M846.48,299.22H337.61a44.68,44.68,0,0,0-41.85,29.4H888.34A44.68,44.68,0,0,0,846.48,299.22Z"/><path class="cls-4" d="M685.77,299.12H337.45a44.68,44.68,0,0,0-41.86,29.41h432A44.68,44.68,0,0,0,685.77,299.12Z"/><path class="cls-3" d="M755.86,326h13.45l-3.83-6.23H830l3.83,6.23h13.44L830.8,299.22H817.36l3.43,5.59H756.32l-3.44-5.59H739.44L755.86,326Zm71-11.25H762.41l-3-4.9h64.47Z"/><path class="cls-8" d="M51.07,358H963A51.22,51.22,0,0,1,1014,409.09v25.54H0V409.09A51.22,51.22,0,0,1,51.07,358Z"/><path class="cls-9" d="M53.37,358H682.74A51.22,51.22,0,0,1,733.8,409.1v25.53H2.3V409.1A51.22,51.22,0,0,1,53.37,358Z"/><path class="cls-10" d="M417.16,245.44a53.79,53.79,0,0,1,53.78,53.78H363.38A53.8,53.8,0,0,1,417.16,245.44Z"/><path class="cls-11" d="M421.51,245.62l1.3.12a53.78,53.78,0,0,0-48.15,53.48h-2.58a53.79,53.79,0,0,1,49.43-53.6Zm5.05.64a53.8,53.8,0,0,0-44.39,53h2.57a53.79,53.79,0,0,1,43.1-52.71l-1.28-.25Zm5,1.15a53.8,53.8,0,0,0-39.34,51.81h2.57a53.82,53.82,0,0,1,38.05-51.44l-1.28-.37Zm5,1.67a53.82,53.82,0,0,0-34.3,50.14h2.58a53.78,53.78,0,0,1,33-49.61Z"/><path class="cls-11" d="M440.38,250.7a53.79,53.79,0,0,1,30.56,48.52H409.82A53.79,53.79,0,0,1,440.38,250.7Z"/><path class="cls-9" d="M901.27,328.62H106.42A44.69,44.69,0,0,0,64.56,358H943.13A44.69,44.69,0,0,0,901.27,328.62Z"/><path class="cls-8" d="M769.84,328.62H106.42A44.69,44.69,0,0,0,64.56,358H811.7A44.69,44.69,0,0,0,769.84,328.62Z"/><path class="cls-9" d="M591.59,328.63H574.85l-4.28,4.46H490.42l4.28-4.46H478l-18.08,18.84h16.74L479,345h80.14l-2.36,2.46h16.74l18.08-18.84ZM563,341H482.83l3.75-3.92h80.15Z"/><path class="cls-8" d="M110.74,358H160.6a51.21,51.21,0,0,0-51.06,51.06v25.54H59.68V409.09A51.21,51.21,0,0,1,110.74,358Z"/><path class="cls-9" d="M160.6,358h49.86a51.22,51.22,0,0,0-51.07,51.06v25.54H109.54V409.09A51.21,51.21,0,0,1,160.6,358Z"/><path class="cls-8" d="M208.65,358h49.86a51.22,51.22,0,0,0-51.07,51.06v25.54H157.58V409.09A51.22,51.22,0,0,1,208.65,358Z"/><path class="cls-9" d="M258.51,358h49.86a51.22,51.22,0,0,0-51.07,51.06v25.54H207.44V409.09A51.22,51.22,0,0,1,258.51,358Z"/><path class="cls-8" d="M306.55,358h49.86a51.21,51.21,0,0,0-51.06,51.06v25.54H255.49V409.09A51.21,51.21,0,0,1,306.55,358Z"/><path class="cls-9" d="M356.41,358h49.86a51.22,51.22,0,0,0-51.07,51.06v25.54H305.35V409.09A51.21,51.21,0,0,1,356.41,358Z"/><path class="cls-8" d="M404.46,358h49.86a51.22,51.22,0,0,0-51.07,51.06v25.54H353.39V409.09A51.22,51.22,0,0,1,404.46,358Z"/><path class="cls-9" d="M454.32,358h49.86a51.22,51.22,0,0,0-51.07,51.06v25.54H403.25V409.09A51.22,51.22,0,0,1,454.32,358Z"/><polygon class="cls-12" points="126.76 332.34 131.72 345.19 136.68 358.03 126.76 358.03 116.84 358.03 121.8 345.19 126.76 332.34"/><polygon class="cls-4" points="114.28 339.89 119.24 352.73 124.2 365.57 114.28 365.57 104.36 365.57 109.32 352.73 114.28 339.89"/><polygon class="cls-5" points="101.8 347.43 106.76 360.28 111.72 373.12 101.8 373.12 91.88 373.12 96.83 360.28 101.8 347.43"/><polygon class="cls-3" points="89.31 354.98 94.28 367.83 99.23 380.67 89.31 380.67 79.39 380.67 84.35 367.83 89.31 354.98"/><polygon class="cls-12" points="225.62 332.34 230.58 345.19 235.54 358.03 225.62 358.03 215.7 358.03 220.66 345.19 225.62 332.34"/><polygon class="cls-4" points="213.14 339.89 218.1 352.73 223.06 365.57 213.14 365.57 203.22 365.57 208.18 352.73 213.14 339.89"/><polygon class="cls-5" points="200.65 347.43 205.61 360.28 210.57 373.12 200.65 373.12 190.73 373.12 195.69 360.28 200.65 347.43"/><polygon class="cls-3" points="188.17 354.98 193.13 367.83 198.09 380.67 188.17 380.67 178.25 380.67 183.21 367.83 188.17 354.98"/><polygon class="cls-12" points="320.95 332.34 325.91 345.19 330.87 358.03 320.95 358.03 311.03 358.03 315.99 345.19 320.95 332.34"/><polygon class="cls-4" points="308.47 339.89 313.43 352.73 318.39 365.57 308.47 365.57 298.55 365.57 303.51 352.73 308.47 339.89"/><polygon class="cls-5" points="295.99 347.43 300.94 360.28 305.91 373.12 295.99 373.12 286.06 373.12 291.02 360.28 295.99 347.43"/><polygon class="cls-3" points="283.5 354.98 288.46 367.83 293.42 380.67 283.5 380.67 273.58 380.67 278.54 367.83 283.5 354.98"/><polygon class="cls-12" points="420.72 332.34 425.68 345.19 430.64 358.03 420.72 358.03 410.8 358.03 415.76 345.19 420.72 332.34"/><polygon class="cls-4" points="408.24 339.89 413.2 352.73 418.16 365.57 408.24 365.57 398.32 365.57 403.28 352.73 408.24 339.89"/><rect class="cls-13" x="66.89" y="397.42" width="3.95" height="37.2"/><rect class="cls-13" x="77.18" y="397.42" width="3.95" height="37.2"/><rect class="cls-13" x="87.46" y="397.42" width="3.95" height="37.2"/><rect class="cls-13" x="97.74" y="397.42" width="3.95" height="37.2"/><rect class="cls-13" x="164.89" y="397.42" width="3.95" height="37.2"/><rect class="cls-13" x="175.17" y="397.42" width="3.95" height="37.2"/><rect class="cls-13" x="185.46" y="397.42" width="3.95" height="37.2"/><rect class="cls-13" x="195.74" y="397.42" width="3.95" height="37.2"/><rect class="cls-13" x="263.36" y="397.42" width="3.95" height="37.2"/><rect class="cls-13" x="273.64" y="397.42" width="3.95" height="37.2"/><rect class="cls-13" x="283.92" y="397.42" width="3.95" height="37.2"/><rect class="cls-13" x="294.2" y="397.42" width="3.95" height="37.2"/><rect class="cls-13" x="361.42" y="397.42" width="3.95" height="37.2"/><rect class="cls-13" x="371.7" y="397.42" width="3.96" height="37.2"/><rect class="cls-13" x="381.99" y="397.42" width="3.95" height="37.2"/><rect class="cls-13" x="392.27" y="397.42" width="3.95" height="37.2"/><path class="cls-9" d="M910.57,358H860.72a51.21,51.21,0,0,1,51.06,51.06v25.54h49.86V409.09A51.22,51.22,0,0,0,910.57,358Z"/><path class="cls-9" d="M797.13,358H747.27a51.22,51.22,0,0,1,51.07,51.06v25.54h49.85V409.09A51.21,51.21,0,0,0,797.13,358Z"/><rect class="cls-13" x="739.44" y="272.47" width="11.07" height="26.75"/><rect class="cls-14" x="749.38" y="272.47" width="3.51" height="26.75"/><rect class="cls-13" x="751.08" y="278.7" width="66.68" height="5.01"/><rect class="cls-13" x="751.08" y="288.62" width="66.68" height="5.01"/><rect class="cls-13" x="817.36" y="272.47" width="11.07" height="26.75"/><rect class="cls-14" x="827.29" y="272.47" width="3.51" height="26.75"/><rect class="cls-13" x="340.83" y="272.47" width="11.07" height="26.75"/><rect class="cls-14" x="350.76" y="272.47" width="3.51" height="26.75"/><rect class="cls-13" x="352.46" y="278.7" width="66.68" height="5.01"/><rect class="cls-13" x="352.46" y="288.62" width="66.68" height="5.01"/><rect class="cls-13" x="418.74" y="272.47" width="11.07" height="26.75"/><rect class="cls-14" x="428.68" y="272.47" width="3.51" height="26.75"/><rect class="cls-13" x="430.26" y="278.7" width="66.68" height="5.01"/><rect class="cls-13" x="430.26" y="288.62" width="66.68" height="5.01"/><rect class="cls-13" x="496.54" y="272.47" width="11.07" height="26.75"/><rect class="cls-14" x="506.47" y="272.47" width="3.51" height="26.75"/><path class="cls-3" d="M322.83,319.75h13.44l4.2-4.78h64.47l-4.2,4.78h13.45l4.19-4.78h64.35l-4.19,4.78H492l18-20.53H496.54l-3.76,4.29H428.43l3.76-4.29H418.74L415,303.51H350.51l3.76-4.29H340.83l-18,20.53Zm163.28-8.63H421.75l3.3-3.76h64.36l-3.3,3.76Zm-77.8,0H343.84l3.3-3.76h64.47Z"/><rect class="cls-13" x="674.98" y="221.03" width="90.79" height="6.97" transform="translate(-15.75 390.26) rotate(-30)"/><rect class="cls-13" x="765.32" y="179.12" width="6.97" height="90.79" transform="translate(189.96 778.06) rotate(-60)"/><rect class="cls-15" x="619.04" y="243.87" width="71.87" height="55.35"/><rect class="cls-16" x="690.91" y="243.87" width="90.36" height="55.35"/><rect class="cls-14" x="616.05" y="241.38" width="9.89" height="57.84"/><rect class="cls-16" x="625.94" y="243.87" width="3.75" height="55.35"/><rect class="cls-13" x="616.05" y="241.38" width="7.68" height="57.84"/><rect class="cls-14" x="681.02" y="241.38" width="9.89" height="57.84"/><rect class="cls-17" x="690.91" y="243.87" width="6.44" height="55.35"/><rect class="cls-13" x="681.02" y="241.38" width="7.67" height="57.84"/><rect class="cls-14" x="773.6" y="241.38" width="7.68" height="57.84"/><rect class="cls-13" x="776.2" y="241.38" width="5.07" height="57.84"/><rect class="cls-13" x="635.01" y="256.81" width="33.56" height="6.02"/><rect class="cls-14" x="635.01" y="261.18" width="33.56" height="1.64"/><rect class="cls-14" x="668.57" y="256.81" width="3" height="6.02"/><rect class="cls-13" x="635.01" y="278.42" width="33.56" height="6.02"/><rect class="cls-14" x="635.01" y="282.79" width="33.56" height="1.64"/><rect class="cls-14" x="668.57" y="278.42" width="3" height="6.02"/><rect class="cls-17" x="635.01" y="262.83" width="36.56" height="2.05"/><rect class="cls-18" x="641.16" y="264.88" width="22.55" height="13.54"/><rect class="cls-19" x="641.16" y="262.83" width="22.55" height="2.05"/><rect class="cls-13" x="639.24" y="262.83" width="3.55" height="15.59"/><rect class="cls-14" x="642.41" y="262.83" width="1.5" height="15.59"/><rect class="cls-13" x="661.92" y="262.83" width="3.55" height="15.59"/><rect class="cls-14" x="665.09" y="262.83" width="1.5" height="15.59"/><rect class="cls-13" x="718.37" y="256.81" width="33.56" height="6.02"/><rect class="cls-14" x="718.37" y="261.18" width="33.56" height="1.64"/><rect class="cls-14" x="715.37" y="256.81" width="3" height="6.02"/><rect class="cls-13" x="718.37" y="278.42" width="33.56" height="6.02"/><rect class="cls-14" x="718.37" y="282.79" width="33.56" height="1.64"/><rect class="cls-14" x="715.37" y="278.42" width="3" height="6.02"/><rect class="cls-17" x="715.37" y="262.83" width="36.56" height="2.05"/><rect class="cls-18" x="723.24" y="264.88" width="22.55" height="13.54"/><rect class="cls-19" x="723.24" y="262.83" width="22.55" height="2.05"/><rect class="cls-13" x="744.15" y="262.83" width="3.55" height="15.59"/><rect class="cls-14" x="743.03" y="262.83" width="1.5" height="15.59"/><rect class="cls-13" x="721.48" y="262.83" width="3.55" height="15.59"/><rect class="cls-14" x="720.35" y="262.83" width="1.5" height="15.59"/><rect class="cls-13" x="650.78" y="262.83" width="2.36" height="15.59"/><rect class="cls-14" x="653.15" y="262.83" width="0.83" height="15.59"/><rect class="cls-13" x="733.74" y="262.83" width="2.36" height="15.59"/><rect class="cls-14" x="732.91" y="262.83" width="0.83" height="15.59"/><rect class="cls-14" x="690.91" y="235.18" width="103.12" height="6.2"/><rect class="cls-17" x="690.91" y="241.38" width="82.69" height="4.87"/><polygon class="cls-20" points="739.78 252.78 736.94 252.78 736.94 249.45 731.26 249.45 731.26 252.78 728.42 252.78 728.42 256.81 731.26 256.81 736.94 256.81 739.78 256.81 739.78 252.78"/><polygon class="cls-9" points="741.43 252.78 738.59 252.78 738.59 249.45 732.91 249.45 732.91 252.78 730.08 252.78 730.08 256.81 732.91 256.81 738.59 256.81 741.43 256.81 741.43 252.78"/><rect class="cls-16" x="625.94" y="241.38" width="55.08" height="4.87"/><polygon class="cls-20" points="646.88 252.78 649.72 252.78 649.72 249.45 655.39 249.45 655.39 252.78 658.23 252.78 658.23 256.81 655.39 256.81 649.72 256.81 646.88 256.81 646.88 252.78"/><polygon class="cls-9" points="645.22 252.78 648.06 252.78 648.06 249.45 653.74 249.45 653.74 252.78 656.58 252.78 656.58 256.81 653.74 256.81 648.06 256.81 645.22 256.81 645.22 252.78"/><polygon class="cls-20" points="617.76 235.18 653.47 214.56 689.18 235.18 617.76 235.18"/><polygon class="cls-21" points="653.47 206.51 744.59 206.51 794.03 235.18 703.12 235.18 653.47 206.51"/><polygon class="cls-22" points="653.47 206.51 660.22 206.51 709.87 235.18 703.12 235.18 653.47 206.51"/><polygon class="cls-22" points="672.5 206.51 679.25 206.51 728.89 235.18 722.15 235.18 672.5 206.51"/><polygon class="cls-22" points="691.53 206.51 698.27 206.51 747.92 235.18 741.17 235.18 691.53 206.51"/><polygon class="cls-22" points="710.55 206.51 717.3 206.51 766.95 235.18 760.2 235.18 710.55 206.51"/><polygon class="cls-22" points="729.58 206.51 736.32 206.51 785.97 235.18 779.22 235.18 729.58 206.51"/><polygon class="cls-23" points="634.78 230.26 653.47 219.47 672.16 230.26 634.78 230.26"/><path class="cls-9" d="M700.55,240.15h4.73v59.07h-4.73V240.15Zm-95.36-5h85.72v6.2H607v57.84h-4.73V240.15h2.91Z"/><rect class="cls-6" x="605.81" y="243.3" width="1.2" height="55.93"/><path class="cls-23" d="M700.55,240.15h4.73v7.5l-4.73-2.73v-4.77Zm-91.22-5-4.14,2.39v2.58h-2.91v7.14l4.73-2.73v-3.18h5.51l10.75-6.2Zm74.35,0,7.23,4.17v-4.17Z"/><rect class="cls-13" x="789.3" y="241.38" width="4.73" height="57.84"/><polygon class="cls-24" points="707.79 189.79 725.2 189.79 725.2 218.18 718.46 218.18 707.79 212.01 707.79 189.79"/><rect class="cls-17" x="718.53" y="189.79" width="6.67" height="28.39"/><rect class="cls-16" x="705.45" y="185.91" width="13.08" height="7.94"/><rect class="cls-17" x="707.8" y="193.86" width="10.73" height="2.19"/><rect class="cls-17" x="718.53" y="185.91" width="8.52" height="7.94"/><rect class="cls-25" x="718.53" y="193.86" width="6.67" height="2.19"/><rect class="cls-17" x="755.21" y="264.05" width="10.5" height="6.56" rx="1.99" ry="1.99"/><path class="cls-17" d="M753.2,271.85h4.65a1.41,1.41,0,0,1,1.41,1.41v1.84a1.42,1.42,0,0,1-1.42,1.42h-4.65a1.41,1.41,0,0,1-1.41-1.41v-1.84A1.41,1.41,0,0,1,753.2,271.85Z"/><rect class="cls-17" x="761.19" y="271.65" width="7.48" height="4.67" rx="1.41" ry="1.41"/><path class="cls-17" d="M757.95,277.41h4.65a1.42,1.42,0,0,1,1.42,1.42v1.84a1.41,1.41,0,0,1-1.41,1.41h-4.65a1.41,1.41,0,0,1-1.41-1.41v-1.84A1.41,1.41,0,0,1,757.95,277.41Z"/><rect class="cls-17" x="729.16" y="285.1" width="10.5" height="6.56" rx="1.99" ry="1.99"/><rect class="cls-17" x="740.58" y="285.06" width="7.48" height="4.67" rx="1.41" ry="1.41"/><rect class="cls-17" x="720.37" y="285.35" width="7.48" height="4.67" rx="1.41" ry="1.41"/><path class="cls-17" d="M708.31,267.27H713a1.41,1.41,0,0,1,1.41,1.41v1.84a1.41,1.41,0,0,1-1.41,1.41h-4.65a1.41,1.41,0,0,1-1.41-1.41v-1.84A1.42,1.42,0,0,1,708.31,267.27Z"/><rect class="cls-17" x="711.26" y="272.64" width="7.48" height="4.67" rx="1.41" ry="1.41"/><rect class="cls-16" x="664.29" y="291.31" width="7.47" height="4.67" rx="1.41" ry="1.41"/><rect class="cls-16" x="659.74" y="286.15" width="7.47" height="4.66" rx="1.41" ry="1.41"/><path class="cls-17" d="M657,291.42h4.65a1.41,1.41,0,0,1,1.41,1.41v1.84a1.41,1.41,0,0,1-1.41,1.41H657a1.42,1.42,0,0,1-1.42-1.42v-1.84A1.41,1.41,0,0,1,657,291.42Z"/><rect class="cls-16" x="632.19" y="285.95" width="7.48" height="4.67" rx="1.41" ry="1.41"/><rect class="cls-16" x="630.72" y="269.13" width="5.12" height="3.2" rx="0.97" ry="0.97"/><rect class="cls-16" x="638.62" y="252.82" width="5.12" height="3.2" rx="0.97" ry="0.97"/><rect class="cls-16" x="632.99" y="272.68" width="5.12" height="3.2" rx="0.97" ry="0.97"/><rect class="cls-16" x="668.64" y="269.71" width="6.54" height="4.08" rx="1.24" ry="1.24"/><rect class="cls-17" x="672.49" y="274.32" width="4.86" height="3.03" rx="0.92" ry="0.92"/><rect class="cls-17" x="666.59" y="262.83" width="1.98" height="15.59"/><rect class="cls-13" x="583.87" y="221.03" width="90.79" height="6.97" transform="translate(-27.95 344.71) rotate(-30)"/><rect class="cls-13" x="674.2" y="179.12" width="6.97" height="90.79" transform="translate(144.41 699.15) rotate(-60)"/><rect class="cls-6" x="616.05" y="241.38" width="9.89" height="2.43"/><rect class="cls-6" x="681.02" y="241.38" width="9.89" height="2.43"/><rect class="cls-26" x="620.98" y="238.74" width="30.61" height="1.22"/><rect class="cls-26" x="643.67" y="236.61" width="30.61" height="1.22"/><rect class="cls-26" x="652.96" y="196.3" width="1.22" height="30.61" transform="translate(143.52 671.8) rotate(-60)"/><rect class="cls-26" x="683.77" y="211.6" width="1.22" height="30.61" transform="translate(145.67 706.12) rotate(-60)"/><rect class="cls-26" x="596.87" y="233.16" width="30.61" height="1.22" transform="translate(-34.87 337.39) rotate(-30)"/><rect class="cls-26" x="683.68" y="246.56" width="1.59" height="34.17"/><rect class="cls-26" x="620.99" y="261.96" width="1.59" height="37.26"/><rect class="cls-6" x="703.7" y="245.28" width="1.59" height="53.95"/><rect class="cls-6" x="788.51" y="241.38" width="1.59" height="57.84"/><rect class="cls-6" x="788.51" y="241.38" width="5.52" height="1.72"/><rect class="cls-6" x="773.6" y="241.38" width="7.67" height="1.72"/><path class="cls-27" d="M322.19,299.22h-17a44.68,44.68,0,0,0-41.85,29.4h17A44.68,44.68,0,0,1,322.19,299.22Z"/><path class="cls-28" d="M322.19,299.22h-14a44.68,44.68,0,0,0-41.85,29.4h14A44.68,44.68,0,0,1,322.19,299.22Z"/><path class="cls-27" d="M326.62,328.62h31.47A44.68,44.68,0,0,1,400,358H368.48A44.68,44.68,0,0,0,326.62,328.62Z"/><path class="cls-28" d="M326.62,328.62h26.91A44.68,44.68,0,0,1,395.39,358H368.48A44.68,44.68,0,0,0,326.62,328.62Z"/><polygon class="cls-5" points="395.75 347.43 400.72 360.28 405.68 373.12 395.75 373.12 385.83 373.12 390.79 360.28 395.75 347.43"/><path class="cls-29" d="M515.75,358H563.2a51.21,51.21,0,0,1,51.06,51.06v25.54H566.81V409.09A51.21,51.21,0,0,0,515.75,358Z"/><path class="cls-30" d="M515.75,358h42.69a51.22,51.22,0,0,1,51.07,51.06v25.54h-42.7V409.09A51.21,51.21,0,0,0,515.75,358Z"/><path class="cls-9" d="M692.9,343.65c11.05,0,20.06-1.82,20.06-4s-9-4-20.06-4-20,1.81-20,4S681.86,343.65,692.9,343.65Z"/><path class="cls-10" d="M694.37,339.87H682.6a13.23,13.23,0,0,1,0-26.45h11.77Z"/><path class="cls-11" d="M694.38,339.87a13.23,13.23,0,1,0-13.23-13.23A13.26,13.26,0,0,0,694.38,339.87Z"/><path class="cls-12" d="M694.38,337.52a10.88,10.88,0,1,0-10.88-10.88A10.9,10.9,0,0,0,694.38,337.52Z"/><path class="cls-11" d="M694.38,334.21a7.57,7.57,0,1,0-7.57-7.57A7.58,7.58,0,0,0,694.38,334.21Z"/><path class="cls-12" d="M694.38,330.84a4.2,4.2,0,1,0-4.2-4.2A4.21,4.21,0,0,0,694.38,330.84Z"/><path class="cls-11" d="M687,339.87h-2.11a13.23,13.23,0,1,1,0-26.45H687a13.23,13.23,0,0,0,0,26.45Z"/><path class="cls-11" d="M691.08,339.87H689a13.23,13.23,0,0,1,0-26.45h2.12a13.23,13.23,0,1,0,0,26.45Z"/><path class="cls-31" d="M764.37,370.53c16.45,0,29.88-2.7,29.88-6s-13.43-6-29.88-6-29.88,2.71-29.88,6S747.91,370.53,764.37,370.53Z"/><path class="cls-10" d="M769.36,364.91H750.45a21.24,21.24,0,0,1,0-42.48h18.91Z"/><path class="cls-11" d="M769.36,364.91a21.24,21.24,0,1,0-21.24-21.24A21.28,21.28,0,0,0,769.36,364.91Z"/><path class="cls-12" d="M769.36,361.14a17.47,17.47,0,1,0-17.47-17.47A17.5,17.5,0,0,0,769.36,361.14Z"/><path class="cls-11" d="M769.36,355.83a12.16,12.16,0,1,0-12.16-12.16A12.18,12.18,0,0,0,769.36,355.83Z"/><path class="cls-12" d="M769.36,350.41a6.75,6.75,0,1,0-6.74-6.74A6.76,6.76,0,0,0,769.36,350.41Z"/><path class="cls-11" d="M757.57,364.91h-3.4a21.24,21.24,0,0,1,0-42.48h3.4a21.24,21.24,0,0,0,0,42.48Z"/><path class="cls-11" d="M764.06,364.91h-3.4a21.24,21.24,0,0,1,0-42.48h3.4a21.24,21.24,0,1,0,0,42.48Z"/><path class="cls-32" d="M816.58,335.55c8.49,0,15.4-1.39,15.4-3.1s-6.91-3.1-15.4-3.1-15.4,1.39-15.4,3.1S808.1,335.55,816.58,335.55Z"/><path class="cls-10" d="M818.31,333.15h-9.87a11.07,11.07,0,0,1,0-22.14h9.87Z"/><path class="cls-11" d="M818.31,333.15a11.08,11.08,0,1,0-11.08-11.07A11.09,11.09,0,0,0,818.31,333.15Z"/><path class="cls-12" d="M818.31,331.19a9.11,9.11,0,1,0-9.11-9.11A9.13,9.13,0,0,0,818.31,331.19Z"/><path class="cls-11" d="M818.31,328.42a6.34,6.34,0,1,0-6.34-6.34A6.35,6.35,0,0,0,818.31,328.42Z"/><path class="cls-12" d="M818.31,325.59a3.52,3.52,0,1,0-3.52-3.51A3.51,3.51,0,0,0,818.31,325.59Z"/><path class="cls-11" d="M812.16,333.15h-1.78a11.07,11.07,0,0,1,0-22.14h1.78a11.07,11.07,0,1,0,0,22.14Z"/><path class="cls-11" d="M815.54,333.15h-1.77a11.07,11.07,0,1,1,0-22.14h1.77a11.07,11.07,0,1,0,0,22.14Z"/><path class="cls-31" d="M893.83,367.48c11.31,0,20.54-1.86,20.54-4.14s-9.23-4.13-20.54-4.13-20.53,1.86-20.53,4.13S882.52,367.48,893.83,367.48Z"/><path class="cls-32" d="M639.53,378.12c13.92,0,25.28-1.82,25.28-4s-11.36-4-25.28-4-25.28,1.82-25.28,4S625.61,378.12,639.53,378.12Z"/><path class="cls-33" d="M652.89,315.38h1.62v4.93H651.3V317A1.61,1.61,0,0,1,652.89,315.38Z"/><path class="cls-34" d="M651.71,316.84h-5.29a5.3,5.3,0,0,0-5.28,5.29v15.75h6.47V324.51a5.31,5.31,0,0,1,4.1-5.15Z"/><path class="cls-34" d="M623.83,340.36h-5.29a5.3,5.3,0,0,0-5.29,5.29V361.4h6.48V348a5.3,5.3,0,0,1,4.1-5.16Z"/><rect class="cls-35" x="620.8" y="352.71" width="4.87" height="22.19" transform="translate(-0.54 0.92) rotate(-0.08)"/><polygon class="cls-33" points="628.28 352.7 633.15 352.7 633.16 374.88 628.29 374.89 628.28 352.7"/><rect class="cls-35" x="642.89" y="351.21" width="4.87" height="23.66" transform="translate(-0.49 0.88) rotate(-0.08)"/><polygon class="cls-33" points="650.37 352.69 655.24 352.68 655.25 374.87 650.38 374.88 650.37 352.69"/><rect class="cls-36" x="628.29" y="372.07" width="4.87" height="2.82"/><rect class="cls-36" x="620.81" y="372.08" width="4.87" height="2.82"/><rect class="cls-36" x="650.38" y="372.05" width="4.87" height="2.82"/><rect class="cls-36" x="642.89" y="372.06" width="4.87" height="2.82"/><path class="cls-37" d="M630.17,337.87l25.05,0,0,16.14-34.44,0v-6.76A9.42,9.42,0,0,1,630.17,337.87Z"/><path class="cls-37" d="M643.57,339h11.66V327.77h7.84v-4.66a3.77,3.77,0,0,0-3.76-3.75h-9.92a5.86,5.86,0,0,0-5.82,5.84Z"/><path class="cls-37" d="M648.67,315.38h1.61v4.93h-3.22V317A1.62,1.62,0,0,1,648.67,315.38Z"/><rect class="cls-36" x="653.24" y="321.6" width="2.78" height="1.39" rx="0.43" ry="0.43" transform="translate(-0.5 1.02) rotate(-0.09)"/><rect class="cls-36" x="651.13" y="316.84" width="4.53" height="2.52"/><path class="cls-10" d="M908.71,363.34H893.83a16.71,16.71,0,0,1,0-33.42h14.88Z"/><path class="cls-11" d="M908.71,363.34A16.71,16.71,0,1,0,892,346.63,16.73,16.73,0,0,0,908.71,363.34Z"/><path class="cls-12" d="M908.71,360.38A13.75,13.75,0,1,0,895,346.63,13.77,13.77,0,0,0,908.71,360.38Z"/><circle class="cls-38" cx="908.71" cy="346.63" r="9.57" transform="translate(-43.79 150.04) rotate(-9.22)"/><path class="cls-12" d="M908.71,351.94a5.31,5.31,0,1,0-5.3-5.31A5.31,5.31,0,0,0,908.71,351.94Z"/><path class="cls-11" d="M899.43,363.34h-2.67a16.71,16.71,0,0,1,0-33.42h2.67a16.71,16.71,0,1,0,0,33.42Z"/><path class="cls-11" d="M904.55,363.34h-2.68a16.71,16.71,0,0,1,0-33.42h2.68a16.71,16.71,0,1,0,0,33.42Z"/><rect class="cls-13" x="477.96" y="295.31" width="13.79" height="33.32"/><rect class="cls-14" x="490.33" y="295.31" width="4.37" height="33.32"/><rect class="cls-13" x="492.3" y="303.07" width="83.04" height="6.24"/><rect class="cls-13" x="492.3" y="315.42" width="83.04" height="6.24"/><rect class="cls-13" x="574.85" y="295.31" width="13.79" height="33.32"/><rect class="cls-14" x="587.22" y="295.31" width="4.37" height="33.32"/><path class="cls-10" d="M831.72,319.32A38.71,38.71,0,0,1,870.43,358H793A38.72,38.72,0,0,1,831.72,319.32Z"/><path class="cls-11" d="M834.85,319.45l.94.08A38.72,38.72,0,0,0,801.13,358h-1.85a38.7,38.7,0,0,1,35.57-38.58Zm3.63.46a38.73,38.73,0,0,0-32,38.12h1.86a38.72,38.72,0,0,1,31-37.94q-.46-.1-.93-.18Zm3.63.82A38.73,38.73,0,0,0,813.79,358h1.86A38.73,38.73,0,0,1,843,321l-.93-.27Zm3.63,1.21A38.74,38.74,0,0,0,821.05,358h1.86a38.72,38.72,0,0,1,23.76-35.72Z"/><path class="cls-11" d="M848.43,323.11a38.69,38.69,0,0,1,22,34.92h-44A38.7,38.7,0,0,1,848.43,323.11Z"/><path class="cls-2" d="M580.36,8.7A21,21,0,0,1,597.77,23a11,11,0,0,1,17.71-.12,15.74,15.74,0,0,1,30,6.62H509.31A6.69,6.69,0,0,1,516,22.86a6.58,6.58,0,0,1,1.48.16,15.09,15.09,0,0,1,21.43-6.37,6.75,6.75,0,0,1,11.41,3.13,10.28,10.28,0,0,1,3.86-.74A10.39,10.39,0,0,1,559,20.21a21,21,0,0,1,3.45-5A9.81,9.81,0,1,1,580.36,8.7Z"/><path class="cls-9" d="M832.65,273.88h7.75v21.17a1.81,1.81,0,0,1-1.8,1.81h-4.15a1.81,1.81,0,0,1-1.8-1.81Z"/><rect class="cls-39" x="820.39" y="216.43" width="32.21" height="65.56" rx="12.64" ry="12.64"/><path class="cls-40" d="M831.9,281.94a12.69,12.69,0,0,1-11.51-12.59V229.07a11.56,11.56,0,1,1,23,0v40.28A12.69,12.69,0,0,1,831.9,281.94Z"/><rect class="cls-39" x="812.34" y="239.14" width="16.1" height="32.78" rx="6.32" ry="6.32"/><rect class="cls-39" x="848.75" y="231.2" width="9.77" height="19.9" rx="3.84" ry="3.84"/><path class="cls-9" d="M932.42,342.15h9.37v25.59a2.19,2.19,0,0,1-2.18,2.18h-5a2.19,2.19,0,0,1-2.18-2.18Z"/><rect class="cls-41" x="917.61" y="272.73" width="38.91" height="79.22" rx="15.28" ry="15.28"/><path class="cls-42" d="M931.52,351.89a15.33,15.33,0,0,1-13.91-15.22V288a14,14,0,1,1,27.81,0v48.66A15.33,15.33,0,0,1,931.52,351.89Z"/><rect class="cls-43" x="907.88" y="300.18" width="19.46" height="39.61" rx="7.64" ry="7.64"/><rect class="cls-41" x="951.88" y="290.59" width="11.81" height="24.05" rx="4.64" ry="4.64"/><path class="cls-9" d="M66.12,346.05h6.72V364.4A1.56,1.56,0,0,1,71.28,366h-3.6a1.57,1.57,0,0,1-1.56-1.56Z"/><rect class="cls-44" x="55.5" y="296.27" width="27.91" height="56.81" rx="10.96" ry="10.96"/><path class="cls-45" d="M65.47,353a11,11,0,0,1-10-10.91V307.22a11,11,0,0,1,10-10.91,11,11,0,0,1,10,10.91v34.91A11,11,0,0,1,65.47,353Z"/><rect class="cls-46" x="48.53" y="315.95" width="13.95" height="28.41" rx="5.48" ry="5.48"/><path class="cls-44" d="M83.4,309.07h1.82a3.33,3.33,0,0,1,3.33,3.33V323a3.33,3.33,0,0,1-3.33,3.33H83.4A3.32,3.32,0,0,1,80.08,323V312.4A3.32,3.32,0,0,1,83.4,309.07Z"/><path class="cls-40" d="M829.09,289.23h12.68a5,5,0,0,1,5,5v5H824.09v-5A5,5,0,0,1,829.09,289.23Z"/><path class="cls-47" d="M45,379.05a12.39,12.39,0,0,1-12.38-12.38c0-6.84,5.53-16,12.38-20.64Z"/><path class="cls-45" d="M45,379.05a12.39,12.39,0,0,0,12.39-12.38c0-6.84-5.54-16-12.39-20.64Z"/><path class="cls-47" d="M58.09,382.13a6.19,6.19,0,0,1-6.19-6.19c0-3.42,2.77-8,6.19-10.32Z"/><path class="cls-45" d="M58.09,382.13a6.19,6.19,0,0,0,6.19-6.19c0-3.42-2.76-8-6.19-10.32Z"/><path class="cls-42" d="M268.75,333.45a12.59,12.59,0,0,1-12.58-12.59c0-6.94,5.62-16.27,12.58-21Z"/><path class="cls-48" d="M268.75,333.45a12.59,12.59,0,0,0,12.58-12.59c0-6.94-5.62-16.27-12.58-21Z"/><path class="cls-42" d="M256.17,333.45a7,7,0,0,1-7-7c0-3.87,3.13-9.06,7-11.67Z"/><path class="cls-48" d="M256.17,333.45a7,7,0,0,0,7-7c0-3.87-3.13-9.06-7-11.67Z"/><path class="cls-42" d="M793.45,299.22a14.53,14.53,0,0,1-3.11-9c0-8.06,6.53-18.88,14.6-24.33v33.34Z"/><path class="cls-48" d="M816.43,299.22a14.53,14.53,0,0,0,3.11-9c0-8.06-6.52-18.88-14.6-24.33v33.34Z"/><path class="cls-42" d="M782.13,299.22a7.22,7.22,0,0,1-1.56-4.5c0-4,3.26-9.44,7.3-12.17v16.67Z"/><path class="cls-48" d="M793.61,299.22a7.22,7.22,0,0,0,1.56-4.5c0-4-3.26-9.44-7.3-12.17v16.67Z"/><path class="cls-42" d="M699.4,299.22a8.9,8.9,0,0,1-1.9-5.51c0-4.94,4-11.57,8.94-14.91v20.42Z"/><path class="cls-48" d="M713.47,299.22a8.85,8.85,0,0,0,1.91-5.51c0-4.94-4-11.57-8.94-14.91v20.42Z"/><path class="cls-32" d="M467.13,242.94c4.92,0,8.94-.64,8.94-1.43s-4-1.43-8.94-1.43-8.94.64-8.94,1.43S462.21,242.94,467.13,242.94Z"/><rect class="cls-49" x="460.93" y="230.16" width="13.83" height="8.6" rx="2.34" ry="2.34"/><rect class="cls-49" x="463.65" y="237.65" width="1.97" height="3.85"/><rect class="cls-49" x="469.78" y="237.65" width="1.97" height="3.85"/><rect class="cls-49" x="457.77" y="228.13" width="5.85" height="3.64" rx="0.99" ry="0.99"/><rect class="cls-49" x="464.92" y="231.36" width="0.66" height="5.35"/><rect class="cls-49" x="466.88" y="231.36" width="0.66" height="5.35"/><rect class="cls-49" x="468.85" y="231.36" width="0.66" height="5.35"/><rect class="cls-49" x="470.81" y="231.36" width="0.66" height="5.35"/><rect class="cls-49" x="463.65" y="240.63" width="1.97" height="0.87"/><rect class="cls-49" x="469.78" y="240.63" width="1.97" height="0.87"/><path class="cls-2" d="M474.32,231.69h.89a.3.3,0,0,1,.31.3v1.32a.31.31,0,0,1-.31.3h-.89Z"/><path class="cls-32" d="M505.66,255.56c5.83,0,10.58-.76,10.58-1.69s-4.75-1.69-10.58-1.69-10.58.76-10.58,1.69S499.83,255.56,505.66,255.56Z"/><path class="cls-49" d="M499.87,239.45h11.79a3,3,0,0,1,3,3v5a3,3,0,0,1-3,3H499.87a3,3,0,0,1-3-3v-5A3,3,0,0,1,499.87,239.45Z"/><rect class="cls-49" x="508.65" y="249.11" width="2.54" height="4.96"/><rect class="cls-49" x="500.74" y="249.11" width="2.53" height="4.96"/><rect class="cls-49" x="511.2" y="236.84" width="7.54" height="4.69" rx="1.28" ry="1.28"/><rect class="cls-50" x="508.7" y="241" width="0.85" height="6.9"/><rect class="cls-50" x="506.17" y="241" width="0.85" height="6.9"/><rect class="cls-50" x="503.64" y="241" width="0.85" height="6.9"/><rect class="cls-50" x="501.1" y="241" width="0.85" height="6.9"/><rect class="cls-51" x="508.65" y="252.94" width="2.54" height="1.12"/><rect class="cls-51" x="500.74" y="252.94" width="2.53" height="1.12"/><path class="cls-2" d="M497.42,241.42h-1.15a.4.4,0,0,0-.39.39v1.7a.39.39,0,0,0,.39.39h1.15Z"/><path class="cls-32" d="M360.58,228.74c4.92,0,8.94-.64,8.94-1.43s-4-1.43-8.94-1.43-8.94.64-8.94,1.43S355.65,228.74,360.58,228.74Z"/><rect class="cls-49" x="352.7" y="216.15" width="13.61" height="8.46" rx="2.3" ry="2.3"/><rect class="cls-49" x="361.7" y="223.52" width="1.94" height="3.79"/><rect class="cls-49" x="355.66" y="223.52" width="1.94" height="3.79"/><rect class="cls-49" x="363.65" y="214.16" width="5.76" height="3.58" rx="0.98" ry="0.98"/><rect class="cls-49" x="361.74" y="217.33" width="0.65" height="5.27"/><rect class="cls-49" x="359.81" y="217.33" width="0.65" height="5.27"/><rect class="cls-49" x="357.88" y="217.33" width="0.65" height="5.27"/><rect class="cls-49" x="355.94" y="217.33" width="0.65" height="5.27"/><rect class="cls-49" x="361.7" y="226.45" width="1.94" height="0.86"/><rect class="cls-49" x="355.66" y="226.45" width="1.94" height="0.86"/><path class="cls-2" d="M353.13,217.65h-.88a.31.31,0,0,0-.3.3v1.3a.3.3,0,0,0,.3.3h.88Z"/><polygon class="cls-3" points="383.27 354.98 388.23 367.83 393.19 380.67 383.27 380.67 373.35 380.67 378.31 367.83 383.27 354.98"/><path class="cls-31" d="M140.93,391.17c8,0,14.5-1.81,14.5-4s-6.51-4-14.5-4-14.5,1.82-14.5,4S132.94,391.17,140.93,391.17Z"/><path class="cls-47" d="M138.56,389.41c6.59,0,12-3.56,12-7.92s-5.37-7.92-12-7.92-12,3.56-12,7.92S132,389.41,138.56,389.41Z"/><path class="cls-52" d="M138.56,389.41c3.51,0,6.38-3.56,6.38-7.92s-2.87-7.92-6.38-7.92-6.38,3.56-6.38,7.92S135.05,389.41,138.56,389.41Z"/><path class="cls-47" d="M138.56,389.41c1.61,0,2.92-3.56,2.92-7.92s-1.31-7.92-2.92-7.92-2.92,3.56-2.92,7.92S137,389.41,138.56,389.41Z"/><path class="cls-31" d="M156,374.05c6.31,0,11.45-1.43,11.45-3.19s-5.14-3.19-11.45-3.19-11.46,1.43-11.46,3.19S149.68,374.05,156,374.05Z"/><path class="cls-47" d="M153.75,372c4.85,0,8.8-2.62,8.8-5.82s-4-5.83-8.8-5.83-8.8,2.62-8.8,5.83S148.91,372,153.75,372Z"/><path class="cls-52" d="M153.75,372c2.59,0,4.7-2.62,4.7-5.82s-2.11-5.83-4.7-5.83-4.69,2.62-4.69,5.83S151.17,372,153.75,372Z"/><path class="cls-47" d="M153.75,372c1.19,0,2.15-2.62,2.15-5.82s-1-5.83-2.15-5.83-2.15,2.62-2.15,5.83S152.57,372,153.75,372Z"/><path class="cls-31" d="M236.61,391.17c8,0,14.5-1.81,14.5-4s-6.51-4-14.5-4-14.5,1.82-14.5,4S228.62,391.17,236.61,391.17Z"/><path class="cls-47" d="M234.24,389.41c6.59,0,12-3.56,12-7.92s-5.37-7.92-12-7.92-12,3.56-12,7.92S227.65,389.41,234.24,389.41Z"/><path class="cls-52" d="M234.24,389.41c3.52,0,6.38-3.56,6.38-7.92s-2.86-7.92-6.38-7.92-6.38,3.56-6.38,7.92S230.73,389.41,234.24,389.41Z"/><path class="cls-47" d="M234.24,389.41c1.61,0,2.92-3.56,2.92-7.92s-1.31-7.92-2.92-7.92-2.92,3.56-2.92,7.92S232.63,389.41,234.24,389.41Z"/><path class="cls-31" d="M251.67,374.05c6.31,0,11.45-1.43,11.45-3.19s-5.14-3.19-11.45-3.19-11.45,1.43-11.45,3.19S245.36,374.05,251.67,374.05Z"/><path class="cls-47" d="M249.43,372c4.85,0,8.8-2.62,8.8-5.82s-4-5.83-8.8-5.83-8.8,2.62-8.8,5.83S244.59,372,249.43,372Z"/><path class="cls-52" d="M249.43,372c2.59,0,4.7-2.62,4.7-5.82s-2.11-5.83-4.7-5.83-4.69,2.62-4.69,5.83S246.85,372,249.43,372Z"/><path class="cls-47" d="M249.44,372c1.18,0,2.15-2.62,2.15-5.82s-1-5.83-2.15-5.83-2.16,2.62-2.16,5.83S248.25,372,249.44,372Z"/><rect class="cls-53" x="349.39" y="344.45" width="1.87" height="26.81"/><rect class="cls-54" x="346.94" y="332.69" width="6.37" height="19.71" rx="2.63" ry="2.63"/><rect class="cls-53" x="360.6" y="344.45" width="1.87" height="26.81"/><rect class="cls-54" x="358.15" y="332.69" width="6.37" height="19.71" rx="2.63" ry="2.63"/><rect class="cls-53" x="331.05" y="364.29" width="1.87" height="26.81"/><rect class="cls-54" x="328.6" y="352.52" width="6.37" height="19.71" rx="2.63" ry="2.63"/><rect class="cls-53" x="342.25" y="364.29" width="1.87" height="26.81"/><rect class="cls-54" x="339.8" y="352.52" width="6.37" height="19.71" rx="2.63" ry="2.63"/><rect class="cls-53" x="445.01" y="344.45" width="1.87" height="26.81"/><rect class="cls-54" x="442.56" y="332.69" width="6.37" height="19.71" rx="2.63" ry="2.63"/><rect class="cls-53" x="456.22" y="344.45" width="1.87" height="26.81"/><rect class="cls-54" x="453.77" y="332.69" width="6.37" height="19.71" rx="2.63" ry="2.63"/><rect class="cls-53" x="426.67" y="364.29" width="1.87" height="26.81"/><rect class="cls-54" x="424.22" y="352.52" width="6.37" height="19.71" rx="2.63" ry="2.63"/><rect class="cls-53" x="437.87" y="364.29" width="1.87" height="26.81"/><rect class="cls-54" x="435.42" y="352.52" width="6.37" height="19.71" rx="2.63" ry="2.63"/><path class="cls-55" d="M786.63,441.92h97.92a7.49,7.49,0,0,1,7.47,7.47h0a7.5,7.5,0,0,1-7.47,7.48H786.63a7.51,7.51,0,0,1-7.48-7.48h0A7.5,7.5,0,0,1,786.63,441.92Z"/><path class="cls-34" d="M802.63,378.38h21.14a2.54,2.54,0,0,1,2.54,2.54h0a2.54,2.54,0,0,1-2.54,2.53H802.63a2.54,2.54,0,0,1-2.53-2.53h0A2.54,2.54,0,0,1,802.63,378.38Z"/><rect class="cls-56" x="803.65" y="402.31" width="72.44" height="16.83"/><rect class="cls-57" x="803.66" y="385.46" width="44.56" height="16.85"/><rect class="cls-58" x="868.21" y="380.61" width="7.89" height="38.53"/><rect class="cls-51" x="876.1" y="386.46" width="3.85" height="32.68"/><rect class="cls-57" x="843.45" y="385.46" width="24.76" height="16.85"/><path class="cls-59" d="M857.85,404.09H859a3.33,3.33,0,0,1,3.32,3.33v11.72h-7.76V407.42A3.34,3.34,0,0,1,857.85,404.09Z"/><rect class="cls-57" x="856.82" y="419.14" width="4.72" height="13.97"/><path class="cls-34" d="M808.36,391A29.32,29.32,0,1,1,779,420.28,29.32,29.32,0,0,1,808.36,391Z"/><path class="cls-60" d="M808.36,399.82a20.47,20.47,0,1,1-20.47,20.46A20.46,20.46,0,0,1,808.36,399.82Z"/><circle class="cls-61" cx="808.36" cy="420.28" r="17.65"/><path class="cls-62" d="M805.94,388.83l1-.57a1.26,1.26,0,0,1,1.74.46l2.55,4.42a1.28,1.28,0,0,1-.46,1.74l-1,.58A1.28,1.28,0,0,1,808,395l-2.55-4.42A1.26,1.26,0,0,1,805.94,388.83Z"/><rect class="cls-63" x="806.5" y="444.88" width="3.7" height="7.65" rx="1.27" ry="1.27" transform="translate(-116.05 464.38) rotate(-30.01)"/><path class="cls-62" d="M797.88,390.53l.82-.82a1.27,1.27,0,0,1,1.8,0l3.61,3.61a1.29,1.29,0,0,1,0,1.8l-.82.82a1.29,1.29,0,0,1-1.8,0l-3.61-3.61A1.29,1.29,0,0,1,797.88,390.53Z"/><path class="cls-62" d="M812.6,445.44l.81-.81a1.27,1.27,0,0,1,1.8,0l3.61,3.61a1.27,1.27,0,0,1,0,1.8l-.81.81a1.27,1.27,0,0,1-1.8,0l-3.61-3.61A1.27,1.27,0,0,1,812.6,445.44Z"/><path class="cls-63" d="M793.56,391.84h1.15a1.28,1.28,0,0,1,1.28,1.28v5.1a1.27,1.27,0,0,1-1.27,1.27h-1.15a1.28,1.28,0,0,1-1.28-1.28v-5.1A1.27,1.27,0,0,1,793.56,391.84Z" transform="translate(53.98 884.91) rotate(-59.95)"/><rect class="cls-63" x="820.72" y="441.07" width="3.7" height="7.65" rx="1.27" ry="1.27" transform="translate(26.21 935.17) rotate(-60.03)"/><path class="cls-63" d="M787.68,396.36h1.15a1.27,1.27,0,0,1,1.27,1.27v5.1a1.28,1.28,0,0,1-1.28,1.28h-1.15a1.27,1.27,0,0,1-1.27-1.27v-5.11A1.27,1.27,0,0,1,787.68,396.36Z" transform="translate(197.14 1057.51) rotate(-74.95)"/><path class="cls-63" d="M827.88,436.56H829a1.28,1.28,0,0,1,1.28,1.28v5.1a1.27,1.27,0,0,1-1.27,1.27h-1.15a1.27,1.27,0,0,1-1.27-1.27v-5.11A1.27,1.27,0,0,1,827.88,436.56Z" transform="translate(188.08 1126.09) rotate(-74.95)"/><path class="cls-62" d="M779.91,406.64v-1.15a1.27,1.27,0,0,1,1.27-1.27h5.11a1.27,1.27,0,0,1,1.27,1.27v1.15a1.27,1.27,0,0,1-1.27,1.28h-5.11A1.27,1.27,0,0,1,779.91,406.64Z"/><path class="cls-62" d="M829.14,435.07v-1.15a1.3,1.3,0,0,1,1.28-1.28h5.1a1.27,1.27,0,0,1,1.28,1.27v1.15a1.28,1.28,0,0,1-1.28,1.28h-5.1A1.29,1.29,0,0,1,829.14,435.07Z"/><path class="cls-62" d="M777.35,414.47l-.3-1.11a1.28,1.28,0,0,1,.9-1.56l4.93-1.32a1.27,1.27,0,0,1,1.56.9l.3,1.11a1.27,1.27,0,0,1-.9,1.56l-4.93,1.32A1.27,1.27,0,0,1,777.35,414.47Z"/><path class="cls-63" d="M833.26,425.79h5.1a1.28,1.28,0,0,1,1.28,1.28v1.15a1.27,1.27,0,0,1-1.27,1.27h-5.1a1.28,1.28,0,0,1-1.28-1.28v-1.15a1.27,1.27,0,0,1,1.27-1.27Z" transform="matrix(0.97, -0.26, 0.26, 0.97, -82.11, 230.49)"/><path class="cls-62" d="M776.9,422.69l-.57-1a1.28,1.28,0,0,1,.46-1.74l4.42-2.55a1.29,1.29,0,0,1,1.75.46l.57,1a1.28,1.28,0,0,1-.47,1.74l-4.42,2.55A1.28,1.28,0,0,1,776.9,422.69Z"/><path class="cls-62" d="M833.75,422.7l-.57-1a1.3,1.3,0,0,1,.46-1.75l4.43-2.54a1.27,1.27,0,0,1,1.74.46l.57,1a1.28,1.28,0,0,1-.46,1.74l-4.43,2.55A1.28,1.28,0,0,1,833.75,422.7Z"/><path class="cls-62" d="M778.6,430.75l-.82-.81a1.3,1.3,0,0,1,0-1.81l3.61-3.6a1.27,1.27,0,0,1,1.8,0l.82.81a1.28,1.28,0,0,1,0,1.8l-3.61,3.61A1.27,1.27,0,0,1,778.6,430.75Z"/><rect class="cls-63" x="831.99" y="411.08" width="7.65" height="3.7" rx="1.27" ry="1.27" transform="translate(-47.06 712.3) rotate(-45.02)"/><path class="cls-63" d="M781.19,432.65h5.1a1.27,1.27,0,0,1,1.27,1.27v1.15a1.27,1.27,0,0,1-1.27,1.27h-5.11a1.27,1.27,0,0,1-1.27-1.27v-1.15a1.28,1.28,0,0,1,1.28-1.28Z" transform="translate(15.57 895.95) rotate(-60)"/><rect class="cls-63" x="829.15" y="404.22" width="7.65" height="3.7" rx="1.27" ry="1.27" transform="translate(64.76 924.32) rotate(-59.99)"/><rect class="cls-63" x="784.43" y="438.53" width="7.65" height="3.7" rx="1.27" ry="1.27" transform="translate(159.11 1088.04) rotate(-75.02)"/><path class="cls-62" d="M828,404l-1.11-.3a1.27,1.27,0,0,1-.9-1.56l1.32-4.93a1.27,1.27,0,0,1,1.56-.9l1.11.3a1.27,1.27,0,0,1,.9,1.56l-1.32,4.93A1.28,1.28,0,0,1,828,404Z"/><rect class="cls-63" x="792.29" y="441.07" width="3.7" height="7.65" rx="1.27" ry="1.27"/><path class="cls-62" d="M823.14,399.49H822a1.27,1.27,0,0,1-1.27-1.27v-5.11a1.27,1.27,0,0,1,1.27-1.27h1.15a1.28,1.28,0,0,1,1.28,1.27v5.11A1.28,1.28,0,0,1,823.14,399.49Z"/><path class="cls-63" d="M800.42,443.92h1.15a1.28,1.28,0,0,1,1.28,1.28v5.1a1.27,1.27,0,0,1-1.27,1.27h-1.15a1.27,1.27,0,0,1-1.27-1.27v-5.1A1.28,1.28,0,0,1,800.42,443.92Z" transform="translate(-88.5 222.23) rotate(-14.98)"/><path class="cls-62" d="M817.26,396.37l-1.12.3a1.28,1.28,0,0,1-1.56-.9l-1.32-4.93a1.28,1.28,0,0,1,.91-1.56l1.11-.3a1.28,1.28,0,0,1,1.56.9l1.32,4.93A1.27,1.27,0,0,1,817.26,396.37Z"/><circle class="cls-64" cx="808.36" cy="420.28" r="13.71"/><rect class="cls-58" x="839.37" y="372.21" width="4.08" height="13.25"/><rect class="cls-65" x="876.09" y="401.11" width="8.66" height="3.19"/><rect class="cls-65" x="876.09" y="406.14" width="8.67" height="3.19"/><rect class="cls-65" x="876.1" y="411.18" width="8.66" height="3.19"/><rect class="cls-65" x="876.09" y="416.22" width="8.67" height="3.19"/><path class="cls-59" d="M808.36,381.82a38.45,38.45,0,0,1,38.44,37.32h-4.68A33.8,33.8,0,0,0,797,388.45v-4.93A38.37,38.37,0,0,1,808.36,381.82Z"/><path class="cls-66" d="M808.36,424.17a3.89,3.89,0,1,0-3.89-3.89A3.89,3.89,0,0,0,808.36,424.17Z"/><path class="cls-66" d="M808.35,409.86a1.56,1.56,0,1,1-1.55,1.56,1.55,1.55,0,0,1,1.55-1.56Zm0,17.73a1.56,1.56,0,1,1-1.55,1.56A1.56,1.56,0,0,1,808.35,427.59Z"/><path class="cls-66" d="M815.73,412.91a1.56,1.56,0,0,1-2.21,2.2,1.56,1.56,0,1,1,2.21-2.2Zm-12.54,12.54a1.56,1.56,0,1,1-2.21,0A1.55,1.55,0,0,1,803.19,425.45Z"/><path class="cls-66" d="M818.78,420.28a1.56,1.56,0,1,1-1.56-1.56,1.56,1.56,0,0,1,1.56,1.56Zm-17.73,0a1.56,1.56,0,1,1-1.56-1.56A1.56,1.56,0,0,1,801.05,420.28Z"/><path class="cls-66" d="M815.73,427.65a1.56,1.56,0,1,1,0-2.2,1.56,1.56,0,0,1,0,2.2Zm-12.54-12.54a1.56,1.56,0,1,1,0-2.2A1.56,1.56,0,0,1,803.19,415.11Z"/><path class="cls-34" d="M870.58,420.17a15.73,15.73,0,1,1-15.74,15.73A15.73,15.73,0,0,1,870.58,420.17Z"/><path class="cls-60" d="M870.58,424.92a11,11,0,1,1-11,11A11,11,0,0,1,870.58,424.92Z"/><path class="cls-66" d="M870.58,445.37a9.47,9.47,0,1,0-9.48-9.47A9.49,9.49,0,0,0,870.58,445.37Z"/><rect class="cls-63" x="869.58" y="418.59" width="1.99" height="4.11" rx="0.68" ry="0.68" transform="translate(-93.67 491.94) rotate(-30.02)"/><rect class="cls-63" x="869.58" y="449.1" width="1.99" height="4.11" rx="0.68" ry="0.68" transform="translate(-109.04 493.58) rotate(-29.87)"/><rect class="cls-63" x="865.63" y="419.11" width="1.98" height="4.11" rx="0.68" ry="0.68" transform="translate(-43.98 736.15) rotate(-45)"/><path class="cls-63" d="M874.22,448.58h.62a.68.68,0,0,1,.68.68V452a.69.69,0,0,1-.69.69h-.62a.68.68,0,0,1-.68-.68v-2.74a.68.68,0,0,1,.68-.68Z" transform="translate(-62.7 749.76) rotate(-44.96)"/><rect class="cls-63" x="861.96" y="420.64" width="1.99" height="4.11" rx="0.68" ry="0.68" transform="translate(64.46 957.25) rotate(-59.9)"/><path class="cls-63" d="M877.89,447.06h.62a.68.68,0,0,1,.68.68v2.74a.69.69,0,0,1-.69.69h-.62a.68.68,0,0,1-.68-.68v-2.74a.69.69,0,0,1,.69-.69Z" transform="matrix(0.5, -0.87, 0.87, 0.5, 49.7, 984.38)"/><rect class="cls-63" x="858.8" y="423.06" width="1.99" height="4.11" rx="0.68" ry="0.68" transform="translate(227.01 1145.91) rotate(-75.03)"/><path class="cls-62" d="M879.3,446.45l.16-.59a.69.69,0,0,1,.84-.49l2.64.71a.69.69,0,0,1,.48.84l-.15.6a.69.69,0,0,1-.84.48l-2.65-.71A.68.68,0,0,1,879.3,446.45Z"/><path class="cls-62" d="M855.31,428.58V428a.69.69,0,0,1,.69-.69h2.73a.69.69,0,0,1,.69.69v.61a.68.68,0,0,1-.69.68H856A.69.69,0,0,1,855.31,428.58Z"/><rect class="cls-63" x="881.73" y="442.53" width="4.11" height="1.98" rx="0.68" ry="0.68"/><rect class="cls-63" x="853.79" y="430.96" width="4.11" height="1.99" rx="0.68" ry="0.68" transform="translate(-82.56 235.87) rotate(-14.98)"/><path class="cls-63" d="M883.94,438.86h2.74a.69.69,0,0,1,.69.69v.62a.68.68,0,0,1-.68.68h-2.74a.68.68,0,0,1-.68-.68v-.62A.68.68,0,0,1,883.94,438.86Z" transform="matrix(0.97, -0.26, 0.26, 0.97, -83.57, 243.61)"/><rect class="cls-63" x="853.27" y="434.91" width="4.11" height="1.99" rx="0.68" ry="0.68" transform="matrix(0.87, -0.5, 0.5, 0.87, -103.34, 486.39)"/><rect class="cls-63" x="883.78" y="434.91" width="4.11" height="1.99" rx="0.68" ry="0.68" transform="translate(-99.25 501.65) rotate(-30.02)"/><rect class="cls-63" x="853.79" y="438.86" width="4.11" height="1.99" rx="0.68" ry="0.68" transform="translate(-60.78 732.65) rotate(-44.92)"/><path class="cls-63" d="M883.94,431h2.74a.68.68,0,0,1,.68.68v.62a.68.68,0,0,1-.68.68h-2.74a.68.68,0,0,1-.68-.68v-.62a.69.69,0,0,1,.69-.69Z" transform="translate(-46.11 752.6) rotate(-45)"/><path class="cls-63" d="M856,442.54h2.74a.68.68,0,0,1,.68.68v.62a.68.68,0,0,1-.68.68H856a.69.69,0,0,1-.69-.69v-.61a.68.68,0,0,1,.68-.68Z" transform="translate(44.4 963.98) rotate(-59.98)"/><path class="cls-63" d="M882.42,427.28h2.74a.68.68,0,0,1,.68.68v.62a.68.68,0,0,1-.68.68h-2.74a.69.69,0,0,1-.69-.69V428a.68.68,0,0,1,.68-.68Z" transform="matrix(0.5, -0.87, 0.87, 0.5, 72.16, 981.22)"/><path class="cls-63" d="M858.42,445.69h2.74a.68.68,0,0,1,.68.68V447a.68.68,0,0,1-.68.68h-2.74a.69.69,0,0,1-.69-.69v-.62a.68.68,0,0,1,.68-.68Z" transform="translate(205.53 1161.33) rotate(-74.98)"/><path class="cls-63" d="M880,424.12h2.74a.69.69,0,0,1,.69.69v.62a.68.68,0,0,1-.68.68H880a.68.68,0,0,1-.68-.68v-.62a.68.68,0,0,1,.68-.68Z" transform="translate(241.03 1165.04) rotate(-74.88)"/><rect class="cls-63" x="861.96" y="447.06" width="1.99" height="4.11" rx="0.68" ry="0.68"/><rect class="cls-63" x="877.21" y="420.64" width="1.99" height="4.11" rx="0.68" ry="0.68" transform="translate(-1.22 2.54) rotate(-0.17)"/><path class="cls-63" d="M866.32,448.58h.62a.68.68,0,0,1,.68.68V452a.68.68,0,0,1-.68.68h-.62a.69.69,0,0,1-.69-.69v-2.73A.68.68,0,0,1,866.32,448.58Z" transform="translate(-86.97 239.05) rotate(-14.96)"/><path class="cls-62" d="M875.35,423.07l-.59.16a.68.68,0,0,1-.84-.49l-.71-2.64a.69.69,0,0,1,.48-.84l.6-.16a.7.7,0,0,1,.84.49l.71,2.64A.69.69,0,0,1,875.35,423.07Z"/><path class="cls-67" d="M870.58,443.25a7.36,7.36,0,1,0-7.36-7.35A7.36,7.36,0,0,0,870.58,443.25Z"/><path class="cls-66" d="M870.58,438a2.09,2.09,0,1,0-2.09-2.09A2.09,2.09,0,0,0,870.58,438Z"/><path class="cls-66" d="M870.58,430.31a.83.83,0,0,1,.83.83.84.84,0,1,1-.83-.83Zm0,9.51a.84.84,0,1,1-.84.84A.83.83,0,0,1,870.58,439.82Z"/><path class="cls-66" d="M874.53,431.94a.84.84,0,1,1-1.18,0,.84.84,0,0,1,1.18,0Zm-6.73,6.73a.83.83,0,1,1-1.18,0A.85.85,0,0,1,867.8,438.67Z"/><path class="cls-66" d="M876.17,435.9a.84.84,0,1,1-.84-.84.84.84,0,0,1,.84.84Zm-9.52,0a.84.84,0,0,1-.83.84.84.84,0,0,1,0-1.68A.84.84,0,0,1,866.65,435.9Z"/><path class="cls-66" d="M874.53,439.85a.83.83,0,0,1-1.18-1.18.85.85,0,0,1,1.18,0,.83.83,0,0,1,0,1.18Zm-6.73-6.72a.84.84,0,1,1,0-1.19A.85.85,0,0,1,867.8,433.13Z"/><path class="cls-59" d="M843.45,375.07H863a5.2,5.2,0,0,1,5.19,5.19v5.2H843.45Z"/><path class="cls-59" d="M847,426.43a25.45,25.45,0,0,1,23.61-16v4.72a20.7,20.7,0,0,0-18.42,11.24Z"/><path class="cls-34" d="M835.29,368.86V381a1.45,1.45,0,0,1-1.45,1.45h0a1.46,1.46,0,0,1-1.45-1.45V368.86a1.46,1.46,0,0,1,1.45-1.45h0A1.46,1.46,0,0,1,835.29,368.86Z"/><rect class="cls-61" x="835.29" y="373.41" width="4.07" height="12.04"/><rect class="cls-53" x="191.53" y="444.91" width="16.44" height="16.44" transform="translate(-261.9 273.97) rotate(-45)"/><polygon class="cls-68" points="211.38 453.13 199.76 464.76 188.13 453.13 211.38 453.13"/><rect class="cls-53" x="166.49" y="454.83" width="8.22" height="8.22" transform="translate(-274.54 255.03) rotate(-45)"/><polygon class="cls-68" points="176.42 458.95 170.6 464.76 164.79 458.95 176.42 458.95"/><rect class="cls-53" x="130.99" y="444.91" width="16.44" height="16.44" transform="translate(-279.64 231.16) rotate(-45)"/><polygon class="cls-68" points="150.84 453.13 139.21 464.76 127.58 453.13 150.84 453.13"/><rect class="cls-53" x="98.85" y="454.83" width="8.22" height="8.22" transform="translate(-294.37 207.23) rotate(-45)"/><polygon class="cls-68" points="108.77 458.95 102.96 464.76 97.14 458.95 108.77 458.95"/><rect class="cls-53" x="487.07" y="444.91" width="16.44" height="16.44" transform="translate(-175.34 482.94) rotate(-45)"/><polygon class="cls-68" points="506.92 453.13 495.29 464.76 483.66 453.13 506.92 453.13"/><rect class="cls-53" x="462.03" y="454.83" width="8.22" height="8.22" transform="translate(-187.99 464.04) rotate(-45)"/><polygon class="cls-68" points="471.95 458.95 466.14 464.76 460.32 458.95 471.95 458.95"/><rect class="cls-53" x="426.52" y="444.91" width="16.45" height="16.45" transform="translate(-193.08 440.13) rotate(-45)"/><polygon class="cls-68" points="446.37 453.13 434.75 464.76 423.12 453.13 446.37 453.13"/><rect class="cls-53" x="394.38" y="454.83" width="8.22" height="8.22" transform="translate(-207.81 416.2) rotate(-45)"/><polygon class="cls-68" points="404.31 458.95 398.49 464.76 392.68 458.95 404.31 458.95"/><rect class="cls-53" x="568.16" y="442.82" width="8.22" height="8.22" transform="translate(-148.41 535.56) rotate(-45)"/><polygon class="cls-68" points="578.08 446.93 572.27 452.75 566.45 446.93 578.08 446.93"/><rect class="cls-53" x="606.51" y="458.97" width="8.22" height="8.22" transform="translate(-148.6 567.4) rotate(-45)"/><polygon class="cls-68" points="616.43 463.08 610.62 468.89 604.8 463.08 616.43 463.08"/><rect class="cls-53" x="625.98" y="442.82" width="8.22" height="8.22" transform="translate(-131.47 576.48) rotate(-45)"/><polygon class="cls-68" points="635.91 446.93 630.09 452.75 624.28 446.93 635.91 446.93"/><rect class="cls-53" x="761.86" y="456.87" width="8.22" height="8.22" transform="translate(-101.62 676.6) rotate(-45)"/><polygon class="cls-68" points="771.79 460.98 765.97 466.79 760.16 460.98 771.79 460.98"/><rect class="cls-53" x="747.66" y="442.82" width="8.22" height="8.22" transform="translate(-95.83 662.53) rotate(-45)"/><polygon class="cls-68" points="757.59 446.93 751.77 452.75 745.96 446.93 757.59 446.93"/><rect class="cls-53" x="918.65" y="448.75" width="14.94" height="14.94" transform="translate(-51.33 788.55) rotate(-45)"/><polygon class="cls-68" points="936.69 456.23 926.12 466.79 915.55 456.23 936.69 456.23"/></g></g></svg>