<svg xmlns="http://www.w3.org/2000/svg" viewBox="0 0 154.85 26.26"><defs><style>.cls-1{fill:#4fc0dd;}.cls-2{fill:#fff;opacity:0.1;}</style></defs><title>Yield_graph_button</title><g id="Layer_2" data-name="Layer 2"><g id="Layer_1-2" data-name="Layer 1"><path class="cls-1" d="M154.85,13.11v0a13.14,13.14,0,0,1-13.13,13.13H13.13A13.13,13.13,0,0,1,0,13.13v0A13.14,13.14,0,0,1,13.13,0H141.72A13.13,13.13,0,0,1,154.85,13.11Z"/><path class="cls-2" d="M154.85,13.11C130.3,14.94,103.93,16,76,16c-26.88,0-52.26-1.11-75.95-2.87A13.14,13.14,0,0,1,13.13,0H141.72A13.13,13.13,0,0,1,154.85,13.11Z"/></g></g></svg>