<svg xmlns="http://www.w3.org/2000/svg" viewBox="0 0 781.65 197.79"><defs><style>.cls-1,.cls-3{fill:#fcfcf0;}.cls-1,.cls-2{stroke:#ccccc1;}.cls-1,.cls-2,.cls-3{stroke-miterlimit:10;}.cls-1{stroke-width:1.43px;}.cls-11,.cls-2{fill:#e6e6da;}.cls-2{stroke-width:1.65px;}.cls-3{stroke:#e6e6da;stroke-width:0.29px;}.cls-10,.cls-12,.cls-4,.cls-8{font-size:20px;fill:#0f667d;}.cls-10,.cls-4,.cls-8{font-family:SourceSansPro-Regular, Source Sans Pro;}.cls-4{letter-spacing:-0.09em;}.cls-10,.cls-5{letter-spacing:-0.07em;}.cls-6{letter-spacing:-0.09em;}.cls-7{letter-spacing:-0.09em;}.cls-8{letter-spacing:-0.08em;}.cls-9{letter-spacing:-0.08em;}.cls-12{font-family:SourceSansPro-Light, Source Sans Pro;letter-spacing:-0.1em;}.cls-13{letter-spacing:-0.1em;}.cls-14{letter-spacing:-0.09em;}</style></defs><title>Water_background</title><g id="Layer_2" data-name="Layer 2"><g id="Layer_1-2" data-name="Layer 1"><rect class="cls-1" x="0.82" y="0.72" width="780" height="49.25"/><rect class="cls-2" x="0.82" y="49.71" width="260" height="147.25"/><rect class="cls-2" x="260.82" y="49.71" width="260" height="147.25"/><rect class="cls-2" x="520.82" y="49.71" width="260" height="147.25"/><rect class="cls-3" x="17.51" y="98.95" width="196.96" height="46.78" rx="4.72" ry="4.72"/><text class="cls-4" transform="translate(30.9 82.18)">W<tspan class="cls-5" x="13.8" y="0">a</tspan><tspan class="cls-6" x="22.54" y="0">t</tspan><tspan class="cls-5" x="27.6" y="0">er mana</tspan><tspan class="cls-7" x="86" y="0">g</tspan><tspan class="cls-5" x="94.3" y="0">er:</tspan></text><text class="cls-8" transform="translate(290.9 82.18)">R<tspan class="cls-9" x="9.82" y="0">ain:</tspan></text><text class="cls-10" transform="translate(549.9 82.18)">Main <tspan class="cls-6" x="37.08" y="0">c</tspan><tspan x="44.5" y="0">anal</tspan></text><polygon class="cls-11" points="189.98 113.44 200.25 113.44 195.12 122.34 189.98 131.24 184.84 122.34 179.71 113.44 189.98 113.44"/><path class="cls-3" d="M366.41,98h63.15c.88,0,1.59,1.12,1.59,2.5v19.76c0,1.39-.71,2.5-1.59,2.5H366.41c-.87,0-1.59-1.11-1.59-2.5V100.46C364.82,99.08,365.54,98,366.41,98Z"/><text class="cls-12" transform="translate(290.95 116.08)">S<tspan class="cls-13" x="8.5" y="0">t</tspan><tspan class="cls-5" x="12.8" y="0">a</tspan><tspan class="cls-14" x="21.12" y="0">g</tspan><tspan class="cls-9" x="29.14" y="0">e1:</tspan></text><polygon class="cls-11" points="423.15 111.96 428.59 111.96 425.87 116.67 423.15 121.38 420.43 116.67 417.71 111.96 423.15 111.96"/><polygon class="cls-11" points="423.15 108.96 417.71 108.96 420.43 104.25 423.15 99.54 425.87 104.25 428.59 108.96 423.15 108.96"/><path class="cls-3" d="M366.41,128h63.15c.88,0,1.59,1.12,1.59,2.5v19.76c0,1.39-.71,2.5-1.59,2.5H366.41c-.87,0-1.59-1.11-1.59-2.5V130.46C364.82,129.08,365.54,128,366.41,128Z"/><text class="cls-12" transform="translate(290.95 146.08)">S<tspan class="cls-13" x="8.5" y="0">t</tspan><tspan class="cls-5" x="12.8" y="0">a</tspan><tspan class="cls-14" x="21.12" y="0">g</tspan><tspan class="cls-9" x="29.14" y="0">e1:</tspan></text><polygon class="cls-11" points="423.15 141.96 428.59 141.96 425.87 146.67 423.15 151.38 420.43 146.67 417.71 141.96 423.15 141.96"/><polygon class="cls-11" points="423.15 138.96 417.71 138.96 420.43 134.25 423.15 129.54 425.87 134.25 428.59 138.96 423.15 138.96"/><path class="cls-3" d="M366.41,158h63.15c.88,0,1.59,1.12,1.59,2.5v19.76c0,1.39-.71,2.5-1.59,2.5H366.41c-.87,0-1.59-1.11-1.59-2.5V160.46C364.82,159.08,365.54,158,366.41,158Z"/><text class="cls-12" transform="translate(290.95 176.08)">S<tspan class="cls-13" x="8.5" y="0">t</tspan><tspan class="cls-5" x="12.8" y="0">a</tspan><tspan class="cls-14" x="21.12" y="0">g</tspan><tspan class="cls-9" x="29.14" y="0">e1:</tspan></text><polygon class="cls-11" points="423.15 171.96 428.59 171.96 425.87 176.67 423.15 181.38 420.43 176.67 417.71 171.96 423.15 171.96"/><polygon class="cls-11" points="423.15 168.96 417.71 168.96 420.43 164.25 423.15 159.54 425.87 164.25 428.59 168.96 423.15 168.96"/><path class="cls-3" d="M625.41,98h63.15c.88,0,1.59,1.12,1.59,2.5v19.76c0,1.39-.71,2.5-1.59,2.5H625.41c-.87,0-1.59-1.11-1.59-2.5V100.46C623.82,99.08,624.54,98,625.41,98Z"/><text class="cls-12" transform="translate(549.95 116.08)">S<tspan class="cls-13" x="8.5" y="0">t</tspan><tspan class="cls-5" x="12.8" y="0">a</tspan><tspan class="cls-14" x="21.12" y="0">g</tspan><tspan class="cls-9" x="29.14" y="0">e1:</tspan></text><polygon class="cls-11" points="682.15 111.96 687.59 111.96 684.87 116.67 682.15 121.38 679.43 116.67 676.71 111.96 682.15 111.96"/><polygon class="cls-11" points="682.15 108.96 676.71 108.96 679.43 104.25 682.15 99.54 684.87 104.25 687.59 108.96 682.15 108.96"/><path class="cls-3" d="M625.41,128h63.15c.88,0,1.59,1.12,1.59,2.5v19.76c0,1.39-.71,2.5-1.59,2.5H625.41c-.87,0-1.59-1.11-1.59-2.5V130.46C623.82,129.08,624.54,128,625.41,128Z"/><text class="cls-12" transform="translate(549.95 146.08)">S<tspan class="cls-13" x="8.5" y="0">t</tspan><tspan class="cls-5" x="12.8" y="0">a</tspan><tspan class="cls-14" x="21.12" y="0">g</tspan><tspan class="cls-9" x="29.14" y="0">e1:</tspan></text><polygon class="cls-11" points="682.15 141.96 687.59 141.96 684.87 146.67 682.15 151.38 679.43 146.67 676.71 141.96 682.15 141.96"/><polygon class="cls-11" points="682.15 138.96 676.71 138.96 679.43 134.25 682.15 129.54 684.87 134.25 687.59 138.96 682.15 138.96"/><path class="cls-3" d="M625.41,158h63.15c.88,0,1.59,1.12,1.59,2.5v19.76c0,1.39-.71,2.5-1.59,2.5H625.41c-.87,0-1.59-1.11-1.59-2.5V160.46C623.82,159.08,624.54,158,625.41,158Z"/><text class="cls-12" transform="translate(549.95 176.08)">S<tspan class="cls-13" x="8.5" y="0">t</tspan><tspan class="cls-5" x="12.8" y="0">a</tspan><tspan class="cls-14" x="21.12" y="0">g</tspan><tspan class="cls-9" x="29.14" y="0">e1:</tspan></text><polygon class="cls-11" points="682.15 171.96 687.59 171.96 684.87 176.67 682.15 181.38 679.43 176.67 676.71 171.96 682.15 171.96"/><polygon class="cls-11" points="682.15 168.96 676.71 168.96 679.43 164.25 682.15 159.54 684.87 164.25 687.59 168.96 682.15 168.96"/></g></g></svg>