<svg xmlns="http://www.w3.org/2000/svg" viewBox="0 0 50 50"><defs><style>.cls-1{fill:#fff;}</style></defs><title>arrow_NextStage</title><g id="Layer_2" data-name="Layer 2"><g id="Layer_1-2" data-name="Layer 1"><path class="cls-1" d="M25,0A25,25,0,1,0,50,25,25,25,0,0,0,25,0Zm0,45.16A20.16,20.16,0,1,1,45.16,25,20.15,20.15,0,0,1,25,45.16Z"/><path class="cls-1" d="M12.1,27V23a1.21,1.21,0,0,1,1.21-1.21H25V15a1.22,1.22,0,0,1,2.07-.86l10,10a1.23,1.23,0,0,1,0,1.72l-10,10A1.21,1.21,0,0,1,25,35V28.23H13.31A1.21,1.21,0,0,1,12.1,27Z"/></g></g></svg>