<svg xmlns="http://www.w3.org/2000/svg" viewBox="0 0 184 49.5"><defs><style>.cls-1{fill:#917147;}</style></defs><title>Button_Stroke</title><g id="Layer_2" data-name="Layer 2"><g id="Layer_1-2" data-name="Layer 1"><path class="cls-1" d="M175.89,1.44a6.67,6.67,0,0,1,6.67,6.67V41.39a6.67,6.67,0,0,1-6.67,6.67H8.11a6.67,6.67,0,0,1-6.67-6.67V8.11A6.67,6.67,0,0,1,8.11,1.44H175.89m0-1.44H8.11A8.11,8.11,0,0,0,0,8.11V41.39A8.11,8.11,0,0,0,8.11,49.5H175.89A8.11,8.11,0,0,0,184,41.39V8.11A8.11,8.11,0,0,0,175.89,0Z"/></g></g></svg>