<svg xmlns="http://www.w3.org/2000/svg" viewBox="0 0 59.5 59.5"><defs><style>.cls-1{fill:#fff;fill-rule:evenodd;}</style></defs><title>Cash</title><g id="Layer_2" data-name="Layer 2"><g id="Layer_1-2" data-name="Layer 1"><path class="cls-1" d="M23.86,19.25H18.79c-.17,0-.25.08-.29.25l-.92,7.57c0,.16.05.24.21.24h5.08a4.47,4.47,0,0,0,4.61-4A3.38,3.38,0,0,0,23.86,19.25Zm0,0H18.79c-.17,0-.25.08-.29.25l-.92,7.57c0,.16.05.24.21.24h5.08a4.47,4.47,0,0,0,4.61-4A3.38,3.38,0,0,0,23.86,19.25ZM29.75,0A29.75,29.75,0,1,0,59.5,29.75,29.75,29.75,0,0,0,29.75,0ZM22.91,32h-5.7a.29.29,0,0,0-.29.24L15.67,42.62a.74.74,0,0,1-.79.71H10.55c-.41,0-.62-.25-.58-.71l3.41-27.74a.71.71,0,0,1,.75-.71H25.32c5.37,0,8.49,3.62,7.82,9A9.84,9.84,0,0,1,22.91,32Zm27.66-4.41L40.09,37.71c-.13.17-.08.29.08.29h9c.45,0,.66.25.58.71l-.46,3.91a.74.74,0,0,1-.79.71H33.35c-.41,0-.62-.25-.58-.71l.5-4.12a1.53,1.53,0,0,1,.41-.87L43.92,27.52c.12-.16.08-.29-.09-.29H35.6c-.46,0-.67-.25-.63-.71l.5-3.86a.71.71,0,0,1,.75-.71H50.9c.46,0,.67.25.63.71L51,26.73A1.41,1.41,0,0,1,50.57,27.61ZM23.86,19.25H18.79c-.17,0-.25.08-.29.25l-.92,7.57c0,.16.05.24.21.24h5.08a4.47,4.47,0,0,0,4.61-4A3.38,3.38,0,0,0,23.86,19.25Z"/></g></g></svg>