<svg xmlns="http://www.w3.org/2000/svg" viewBox="0 0 73.28 59.85"><defs><style>.cls-1{fill:#0f667d;}.cls-2{fill:#4fc0dd;}</style></defs><title>Water_Manager_crown_1</title><g id="Layer_2" data-name="Layer 2"><g id="Layer_1-2" data-name="Layer 1"><path class="cls-1" d="M36.33,42.74A70.46,70.46,0,0,1,9.51,37.43a4,4,0,0,0-1.36,2c-1.75,6.1,13,20.14,28.63,20.44,15.91.32,31.28-13.68,29.63-19.69a5,5,0,0,0-2.81-2.87A70.68,70.68,0,0,1,36.33,42.74Z"/><path class="cls-2" d="M55.77,9.81C42.05,2.45,42.09.18,37.13,0c-4.61-.16-5.26,1.78-21.38,10.7C5.63,16.3-.41,19,0,22c.39,2.67,5.5,3,6.92,7.89a30.82,30.82,0,0,1,.69,4.7c.23,2.19.32,4,.37,5.29a2.93,2.93,0,0,1,1-1.32A3,3,0,0,1,10.5,38c-.06-.51-.11-1-.16-1.54q-.12-1.26-.21-2.49A147.14,147.14,0,0,0,37,36.36,147.46,147.46,0,0,0,63.3,34c-.07.66-.16,1.35-.28,2.06s-.19,1.1-.29,1.62a5.7,5.7,0,0,1,1.84.62,5.61,5.61,0,0,1,1.54,1.23c-.82-2.91-1.43-7,.44-10.79,2.35-4.7,6.58-5,6.73-7.66C73.45,17.75,67,15.85,55.77,9.81Zm-14,13.55c-.93,2.08-1,2.67-1.79,3.57a4.51,4.51,0,0,1-3.15,1.67c-1.86,0-3.12-1.63-3.52-2.16-.79-1-.56-1.4-1.6-3.55-1.11-2.34-1.59-2.35-1.64-3.17-.13-2.2,3.09-5.12,6.59-5.26s7,2.5,7,4.81C43.69,20.2,43.14,20.18,41.73,23.36Z"/></g></g></svg>