<svg xmlns="http://www.w3.org/2000/svg" viewBox="0 0 289.63 68.4"><defs><style>.cls-1{fill:#7a7a74;opacity:0.5;}.cls-2{fill:#0f667d;}.cls-3{opacity:0.2;}.cls-4{fill:#4fc0dd;fill-rule:evenodd;}.cls-5{fill:#64d3de;}.cls-6{font-size:40px;fill:#fff;font-family:SourceSansPro-ExtraLight, Source Sans Pro;letter-spacing:-0.07em;}.cls-7{letter-spacing:-0.08em;}.cls-8{letter-spacing:-0.08em;}</style></defs><title>Asset 40</title><g id="Layer_2" data-name="Layer 2"><g id="Layer_1-2" data-name="Layer 1"><path class="cls-1" d="M286.47,0q1.57,17.1,3.16,34.21L257.79,68.4C181.86,66.49,75.93,64.58,0,62.67,85.49,41.78,201,20.89,286.47,0Z"/><path class="cls-2" d="M252.94,62.67H0V19L19,0H286.47V29.14Z"/><g class="cls-3"><path class="cls-4" d="M19,0q-.67,7.62-1.34,15.24L0,19Z"/></g><g class="cls-3"><path class="cls-4" d="M285,30.64,252,42.49l.93,20.18Z"/></g><path class="cls-5" d="M45.8,19.68v-13H26.69A2.28,2.28,0,0,0,24.4,9V53.31a2.28,2.28,0,0,0,2.29,2.29h32.1a2.28,2.28,0,0,0,2.29-2.29V22h-13A2.3,2.3,0,0,1,45.8,19.68Zm6.11,22.55a1.14,1.14,0,0,1-1.14,1.14H34.72a1.15,1.15,0,0,1-1.15-1.14v-.77a1.15,1.15,0,0,1,1.15-1.14H50.77a1.14,1.14,0,0,1,1.14,1.14Zm0-6.12a1.15,1.15,0,0,1-1.14,1.15H34.72a1.16,1.16,0,0,1-1.15-1.15v-.76a1.16,1.16,0,0,1,1.15-1.15H50.77a1.15,1.15,0,0,1,1.14,1.15Zm0-6.88V30a1.14,1.14,0,0,1-1.14,1.14H34.72A1.15,1.15,0,0,1,33.57,30v-.77a1.15,1.15,0,0,1,1.15-1.14H50.77A1.14,1.14,0,0,1,51.91,29.23Zm9.17-10.89v.58H48.86V6.69h.58a2.29,2.29,0,0,1,1.62.67l9.35,9.36A2.29,2.29,0,0,1,61.08,18.34Z"/><text class="cls-6" transform="translate(84.19 45.11)">Documen<tspan class="cls-7" x="135.48" y="0">t</tspan><tspan class="cls-8" x="144.16" y="0">s</tspan></text></g></g></svg>