<svg xmlns="http://www.w3.org/2000/svg" viewBox="0 0 409.87 89.5"><defs><style>.cls-1{fill:#7a7a74;opacity:0.5;}.cls-2{fill:#cfc3b6;}.cls-3{fill:#827b75;}.cls-4{font-size:40px;font-family:SourceSansPro-ExtraLight, Source Sans Pro;letter-spacing:-0.09em;}.cls-4,.cls-7{fill:#0f667d;}.cls-5{letter-spacing:-0.08em;}.cls-6{letter-spacing:-0.07em;}.cls-8{fill:#4fc0dd;fill-rule:evenodd;}</style></defs><title>Documents_water_allocation_down</title><g id="Layer_2" data-name="Layer 2"><g id="Layer_1-2" data-name="Layer 1"><path class="cls-1" d="M14.89,4.44H395a14.89,14.89,0,0,1,14.89,14.89V75.77A13.74,13.74,0,0,1,396.13,89.5H13.74A13.74,13.74,0,0,1,0,75.77V19.33A14.89,14.89,0,0,1,14.89,4.44Z"/><path class="cls-2" d="M13.74,84.56A13.26,13.26,0,0,1,.5,71.32V14.88A14.4,14.4,0,0,1,14.89.5H395a14.4,14.4,0,0,1,14.39,14.38V71.32a13.26,13.26,0,0,1-13.24,13.24Z"/><path class="cls-3" d="M395,1a13.9,13.9,0,0,1,13.89,13.88V71.32a12.76,12.76,0,0,1-12.74,12.74H13.74A12.76,12.76,0,0,1,1,71.32V14.88A13.9,13.9,0,0,1,14.89,1H395m0-1H14.89A14.89,14.89,0,0,0,0,14.88V71.32A13.74,13.74,0,0,0,13.74,85.06H396.13a13.74,13.74,0,0,0,13.74-13.74V14.88A14.89,14.89,0,0,0,395,0Z"/><text class="cls-4" transform="translate(140.52 54.69)">W<tspan class="cls-5" x="26.76" y="0">at</tspan><tspan class="cls-6" x="51.48" y="0" xml:space="preserve">er  Allo</tspan><tspan class="cls-5" x="135.32" y="0">ca</tspan><tspan class="cls-6" x="165.8" y="0">tion</tspan></text><path class="cls-7" d="M80.56,49.34a3.62,3.62,0,0,0-4.67,0l-10.12,8.1A7,7,0,0,1,61.38,59h-13a1.76,1.76,0,1,1,0-3.51H57a3.65,3.65,0,0,0,3.65-2.91,3.52,3.52,0,0,0-3.47-4.1H39.65a12.91,12.91,0,0,0-8.12,2.88l-5.1,4.13H20.36a1.75,1.75,0,0,0-1.75,1.76V67.74a1.75,1.75,0,0,0,1.75,1.75h39.1A7,7,0,0,0,63.85,68L80.42,54.7A3.5,3.5,0,0,0,80.56,49.34Z"/><path class="cls-8" d="M61.29,33a10.88,10.88,0,0,1-21.76,0,9.51,9.51,0,0,1,.81-3.43c2.52-6.25,10.07-14.55,10.07-14.55S58,23.36,60.48,29.61A9.51,9.51,0,0,1,61.29,33Z"/></g></g></svg>