<svg xmlns="http://www.w3.org/2000/svg" viewBox="0 0 409.87 89.5"><defs><style>.cls-1{fill:#7a7a74;opacity:0.5;}.cls-2{fill:#cfc3b6;}.cls-3{fill:#827b75;}.cls-4{font-size:40px;font-family:SourceSansPro-ExtraLight, Source Sans Pro;letter-spacing:-0.07em;}.cls-4,.cls-7{fill:#0f667d;}.cls-5{letter-spacing:-0.09em;}.cls-6{fill:#4fc0dd;}</style></defs><title>Documents_finances_down</title><g id="Layer_2" data-name="Layer 2"><g id="Layer_1-2" data-name="Layer 1"><path class="cls-1" d="M14.89,4.44H395a14.89,14.89,0,0,1,14.89,14.89V75.77A13.74,13.74,0,0,1,396.13,89.5H13.74A13.74,13.74,0,0,1,0,75.77V19.33A14.89,14.89,0,0,1,14.89,4.44Z"/><path class="cls-2" d="M13.74,84.56A13.26,13.26,0,0,1,.5,71.32V14.88A14.4,14.4,0,0,1,14.89.5H395a14.4,14.4,0,0,1,14.39,14.38V71.32a13.26,13.26,0,0,1-13.24,13.24Z"/><path class="cls-3" d="M395,1a13.9,13.9,0,0,1,13.89,13.88V71.32a12.76,12.76,0,0,1-12.74,12.74H13.74A12.76,12.76,0,0,1,1,71.32V14.88A13.9,13.9,0,0,1,14.89,1H395m0-1H14.89A14.89,14.89,0,0,0,0,14.88V71.32A13.74,13.74,0,0,0,13.74,85.06H396.13a13.74,13.74,0,0,0,13.74-13.74V14.88A14.89,14.89,0,0,0,395,0Z"/><text class="cls-4" transform="translate(189.52 53.43)">Finan<tspan class="cls-5" x="74.2" y="0">c</tspan><tspan x="88.4" y="0">es</tspan></text><path class="cls-6" d="M21.36,61.61v4.8c0,4,9.68,7.21,21.61,7.21s21.61-3.23,21.61-7.21v-4.8c-4.65,3.27-13.15,4.8-21.61,4.8S26,64.88,21.36,61.61Z"/><ellipse class="cls-7" cx="57.38" cy="23.19" rx="21.61" ry="7.2"/><path class="cls-6" d="M21.36,49.8v5.81c0,4,9.68,7.2,21.61,7.2s21.61-3.23,21.61-7.2V49.8C59.93,53.63,51.42,55.61,43,55.61S26,53.63,21.36,49.8Z"/><path class="cls-7" d="M68.18,51C74.63,49.79,79,47.47,79,44.8V40c-2.61,1.85-6.45,3.11-10.81,3.89Z"/><ellipse class="cls-6" cx="42.97" cy="43" rx="21.61" ry="9"/><path class="cls-7" d="M67.65,40.33C74.41,39.12,79,36.73,79,34v-4.8C75,32,68.13,33.53,60.9,33.89,64.22,35.5,66.66,37.66,67.65,40.33Z"/></g></g></svg>