<svg xmlns="http://www.w3.org/2000/svg" viewBox="0 0 409.87 89.5"><defs><style>.cls-1{fill:#7a7a74;opacity:0.5;}.cls-2{fill:#f2f2e7;}.cls-3{fill:#fcfcf0;}.cls-4{font-size:40px;font-family:SourceSansPro-ExtraLight, Source Sans Pro;letter-spacing:-0.07em;}.cls-4,.cls-5{fill:#0f667d;}.cls-6{fill:#4fc0dd;}</style></defs><title>Documents_landholding_up</title><g id="Layer_2" data-name="Layer 2"><g id="Layer_1-2" data-name="Layer 1"><path class="cls-1" d="M14.89,4.44H395a14.89,14.89,0,0,1,14.89,14.89V75.77A13.74,13.74,0,0,1,396.13,89.5H13.74A13.74,13.74,0,0,1,0,75.77V19.33A14.89,14.89,0,0,1,14.89,4.44Z"/><path class="cls-2" d="M409.87,14.88V71.32a13.74,13.74,0,0,1-13.74,13.74H13.74A13.74,13.74,0,0,1,0,71.32V14.88A14.89,14.89,0,0,1,14.89,0H395A14.89,14.89,0,0,1,409.87,14.88Z"/><path class="cls-3" d="M409.87,14.88v32a70.74,70.74,0,0,1-20.8,3.1H32.94A70.65,70.65,0,0,1,0,41.93v-27A14.89,14.89,0,0,1,14.89,0H395A14.89,14.89,0,0,1,409.87,14.88Z"/><text class="cls-4" transform="translate(162.98 50.83)">Landholding</text><path class="cls-5" d="M42.67,58.06a1.18,1.18,0,0,0-1.09-.7A1.17,1.17,0,0,0,40.5,58l-.82,1.65a1.72,1.72,0,0,1-3.17-.22L34.7,54l-1.14,3.43a4.63,4.63,0,0,1-4.41,3.17H27.82a1.72,1.72,0,0,1,0-3.44h1.33a1.22,1.22,0,0,0,1.15-.82l1.95-5.87a2.59,2.59,0,0,1,4.9,0L38.64,55a4.82,4.82,0,0,1,7.09,1.53,1.22,1.22,0,0,0,1,.67V48.34L60.49,34.68v-5H45.87A2.58,2.58,0,0,1,43.3,27.1V12.49H21.81a2.57,2.57,0,0,0-2.58,2.58V64.92a2.57,2.57,0,0,0,2.58,2.58h36.1a2.57,2.57,0,0,0,2.58-2.58v-4.3H46.73A4.61,4.61,0,0,1,42.67,58.06Z"/><path class="cls-6" d="M60.49,25.59a2.55,2.55,0,0,0-.76-1.82L49.22,13.24a2.6,2.6,0,0,0-1.83-.75h-.66V26.24H60.49Z"/><polygon class="cls-6" points="50.17 49.77 50.17 57.19 57.58 57.19 74.95 39.7 67.66 32.4 50.17 49.77"/><path class="cls-5" d="M80.31,30.47,76.89,27A2.73,2.73,0,0,0,73,27L70.09,30l7.3,7.29,2.92-2.92a2.73,2.73,0,0,0,0-3.87Z"/></g></g></svg>