<svg xmlns="http://www.w3.org/2000/svg" viewBox="0 0 570.87 436.25"><defs><style>.cls-1,.cls-16{fill:#fcfcf0;}.cls-1{stroke:#ccccc1;stroke-width:0.53px;}.cls-1,.cls-17,.cls-18,.cls-19,.cls-2,.cls-20,.cls-3{stroke-miterlimit:10;}.cls-2,.cls-20,.cls-3{fill:#fff;}.cls-18,.cls-2{stroke:#4fc0dd;}.cls-2,.cls-20{stroke-width:0.99px;}.cls-17,.cls-3{stroke:#0f667d;}.cls-3{stroke-width:1.11px;}.cls-12,.cls-13,.cls-21,.cls-4{font-size:20px;letter-spacing:-0.07em;}.cls-12,.cls-4{fill:#0f667d;}.cls-4{font-family:SourceSansPro-Light, Source Sans Pro;}.cls-5{letter-spacing:-0.09em;}.cls-6{letter-spacing:-0.09em;}.cls-7{letter-spacing:-0.08em;}.cls-8{letter-spacing:-0.09em;}.cls-9{letter-spacing:-0.09em;}.cls-10{letter-spacing:-0.08em;}.cls-11{letter-spacing:-0.09em;}.cls-12,.cls-13,.cls-15,.cls-16,.cls-21{font-family:SourceSansPro-Regular, Source Sans Pro;}.cls-13{fill:#4fc0dd;}.cls-14{letter-spacing:-0.1em;}.cls-15,.cls-16{font-size:13px;letter-spacing:-0.07em;}.cls-15{fill:#e6e6da;}.cls-17,.cls-18,.cls-19{fill:none;stroke-width:2.83px;}.cls-19,.cls-20{stroke:#e9d9b7;}.cls-21{fill:#e9d9b7;}.cls-22{letter-spacing:-0.08em;}.cls-23{letter-spacing:-0.09em;}</style></defs><title>Documents_graphic</title><g id="Layer_2" data-name="Layer 2"><g id="Layer_1-2" data-name="Layer 1"><rect class="cls-1" x="42.05" y="6.66" width="32.56" height="34.73"/><rect class="cls-1" x="74.62" y="6.66" width="32.56" height="34.73"/><rect class="cls-1" x="107.18" y="6.66" width="32.56" height="34.73"/><rect class="cls-1" x="139.74" y="6.66" width="32.56" height="34.73"/><rect class="cls-1" x="172.3" y="6.66" width="32.56" height="34.73"/><rect class="cls-1" x="204.87" y="6.66" width="32.56" height="34.73"/><rect class="cls-1" x="237.43" y="6.66" width="32.56" height="34.73"/><rect class="cls-1" x="269.99" y="6.66" width="32.56" height="34.73"/><rect class="cls-1" x="302.55" y="6.66" width="32.56" height="34.73"/><rect class="cls-1" x="335.12" y="6.66" width="32.56" height="34.73"/><rect class="cls-1" x="367.68" y="6.66" width="32.56" height="34.73"/><rect class="cls-1" x="400.24" y="6.66" width="32.56" height="34.73"/><rect class="cls-1" x="432.8" y="6.66" width="32.56" height="34.73"/><rect class="cls-1" x="465.37" y="6.66" width="32.56" height="34.73"/><rect class="cls-1" x="497.93" y="6.66" width="32.56" height="34.73"/><rect class="cls-1" x="530.49" y="6.66" width="32.56" height="34.73"/><rect class="cls-1" x="42.05" y="41.39" width="32.56" height="34.73"/><rect class="cls-1" x="74.62" y="41.39" width="32.56" height="34.73"/><rect class="cls-1" x="107.18" y="41.39" width="32.56" height="34.73"/><rect class="cls-1" x="139.74" y="41.39" width="32.56" height="34.73"/><rect class="cls-1" x="172.3" y="41.39" width="32.56" height="34.73"/><rect class="cls-1" x="204.87" y="41.39" width="32.56" height="34.73"/><rect class="cls-1" x="237.43" y="41.39" width="32.56" height="34.73"/><rect class="cls-1" x="269.99" y="41.39" width="32.56" height="34.73"/><rect class="cls-1" x="302.55" y="41.39" width="32.56" height="34.73"/><rect class="cls-1" x="335.12" y="41.39" width="32.56" height="34.73"/><rect class="cls-1" x="367.68" y="41.39" width="32.56" height="34.73"/><rect class="cls-1" x="400.24" y="41.39" width="32.56" height="34.73"/><rect class="cls-1" x="432.8" y="41.39" width="32.56" height="34.73"/><rect class="cls-1" x="465.37" y="41.39" width="32.56" height="34.73"/><rect class="cls-1" x="497.93" y="41.39" width="32.56" height="34.73"/><rect class="cls-1" x="530.49" y="41.39" width="32.56" height="34.73"/><rect class="cls-1" x="42.05" y="76.13" width="32.56" height="34.73"/><rect class="cls-1" x="74.62" y="76.13" width="32.56" height="34.73"/><rect class="cls-1" x="107.18" y="76.13" width="32.56" height="34.73"/><rect class="cls-1" x="139.74" y="76.13" width="32.56" height="34.73"/><rect class="cls-1" x="172.3" y="76.13" width="32.56" height="34.73"/><rect class="cls-1" x="204.87" y="76.13" width="32.56" height="34.73"/><rect class="cls-1" x="237.43" y="76.13" width="32.56" height="34.73"/><rect class="cls-1" x="269.99" y="76.13" width="32.56" height="34.73"/><rect class="cls-1" x="302.55" y="76.13" width="32.56" height="34.73"/><rect class="cls-1" x="335.12" y="76.13" width="32.56" height="34.73"/><rect class="cls-1" x="367.68" y="76.13" width="32.56" height="34.73"/><rect class="cls-1" x="400.24" y="76.13" width="32.56" height="34.73"/><rect class="cls-1" x="432.8" y="76.13" width="32.56" height="34.73"/><rect class="cls-1" x="465.37" y="76.13" width="32.56" height="34.73"/><rect class="cls-1" x="497.93" y="76.13" width="32.56" height="34.73"/><rect class="cls-1" x="530.49" y="76.13" width="32.56" height="34.73"/><rect class="cls-1" x="42.05" y="110.86" width="32.56" height="34.73"/><rect class="cls-1" x="74.62" y="110.86" width="32.56" height="34.73"/><rect class="cls-1" x="107.18" y="110.86" width="32.56" height="34.73"/><rect class="cls-1" x="139.74" y="110.86" width="32.56" height="34.73"/><rect class="cls-1" x="172.3" y="110.86" width="32.56" height="34.73"/><rect class="cls-1" x="204.87" y="110.86" width="32.56" height="34.73"/><rect class="cls-1" x="237.43" y="110.86" width="32.56" height="34.73"/><rect class="cls-1" x="269.99" y="110.86" width="32.56" height="34.73"/><rect class="cls-1" x="302.55" y="110.86" width="32.56" height="34.73"/><rect class="cls-1" x="335.12" y="110.86" width="32.56" height="34.73"/><rect class="cls-1" x="367.68" y="110.86" width="32.56" height="34.73"/><rect class="cls-1" x="400.24" y="110.86" width="32.56" height="34.73"/><rect class="cls-1" x="432.8" y="110.86" width="32.56" height="34.73"/><rect class="cls-1" x="465.37" y="110.86" width="32.56" height="34.73"/><rect class="cls-1" x="497.93" y="110.86" width="32.56" height="34.73"/><rect class="cls-1" x="530.49" y="110.86" width="32.56" height="34.73"/><rect class="cls-1" x="42.05" y="145.59" width="32.56" height="34.73"/><rect class="cls-1" x="74.62" y="145.59" width="32.56" height="34.73"/><rect class="cls-1" x="107.18" y="145.59" width="32.56" height="34.73"/><rect class="cls-1" x="139.74" y="145.59" width="32.56" height="34.73"/><rect class="cls-1" x="172.3" y="145.59" width="32.56" height="34.73"/><rect class="cls-1" x="204.87" y="145.59" width="32.56" height="34.73"/><rect class="cls-1" x="237.43" y="145.59" width="32.56" height="34.73"/><rect class="cls-1" x="269.99" y="145.59" width="32.56" height="34.73"/><rect class="cls-1" x="302.55" y="145.59" width="32.56" height="34.73"/><rect class="cls-1" x="335.12" y="145.59" width="32.56" height="34.73"/><rect class="cls-1" x="367.68" y="145.59" width="32.56" height="34.73"/><rect class="cls-1" x="400.24" y="145.59" width="32.56" height="34.73"/><rect class="cls-1" x="432.8" y="145.59" width="32.56" height="34.73"/><rect class="cls-1" x="465.37" y="145.59" width="32.56" height="34.73"/><rect class="cls-1" x="497.93" y="145.59" width="32.56" height="34.73"/><rect class="cls-1" x="530.49" y="145.59" width="32.56" height="34.73"/><rect class="cls-1" x="42.05" y="180.33" width="32.56" height="34.73"/><rect class="cls-1" x="74.62" y="180.33" width="32.56" height="34.73"/><rect class="cls-1" x="107.18" y="180.33" width="32.56" height="34.73"/><rect class="cls-1" x="139.74" y="180.33" width="32.56" height="34.73"/><rect class="cls-1" x="172.3" y="180.33" width="32.56" height="34.73"/><rect class="cls-1" x="204.87" y="180.33" width="32.56" height="34.73"/><rect class="cls-1" x="237.43" y="180.33" width="32.56" height="34.73"/><rect class="cls-1" x="269.99" y="180.33" width="32.56" height="34.73"/><rect class="cls-1" x="302.55" y="180.33" width="32.56" height="34.73"/><rect class="cls-1" x="335.12" y="180.33" width="32.56" height="34.73"/><rect class="cls-1" x="367.68" y="180.33" width="32.56" height="34.73"/><rect class="cls-1" x="400.24" y="180.33" width="32.56" height="34.73"/><rect class="cls-1" x="432.8" y="180.33" width="32.56" height="34.73"/><rect class="cls-1" x="465.37" y="180.33" width="32.56" height="34.73"/><rect class="cls-1" x="497.93" y="180.33" width="32.56" height="34.73"/><rect class="cls-1" x="530.49" y="180.33" width="32.56" height="34.73"/><rect class="cls-1" x="42.05" y="215.06" width="32.56" height="34.73"/><rect class="cls-1" x="74.62" y="215.06" width="32.56" height="34.73"/><rect class="cls-1" x="107.18" y="215.06" width="32.56" height="34.73"/><rect class="cls-1" x="139.74" y="215.06" width="32.56" height="34.73"/><rect class="cls-1" x="172.3" y="215.06" width="32.56" height="34.73"/><rect class="cls-1" x="204.87" y="215.06" width="32.56" height="34.73"/><rect class="cls-1" x="237.43" y="215.06" width="32.56" height="34.73"/><rect class="cls-1" x="269.99" y="215.06" width="32.56" height="34.73"/><rect class="cls-1" x="302.55" y="215.06" width="32.56" height="34.73"/><rect class="cls-1" x="335.12" y="215.06" width="32.56" height="34.73"/><rect class="cls-1" x="367.68" y="215.06" width="32.56" height="34.73"/><rect class="cls-1" x="400.24" y="215.06" width="32.56" height="34.73"/><rect class="cls-1" x="432.8" y="215.06" width="32.56" height="34.73"/><rect class="cls-1" x="465.37" y="215.06" width="32.56" height="34.73"/><rect class="cls-1" x="497.93" y="215.06" width="32.56" height="34.73"/><rect class="cls-1" x="530.49" y="215.06" width="32.56" height="34.73"/><rect class="cls-1" x="42.05" y="249.79" width="32.56" height="34.73"/><rect class="cls-1" x="74.62" y="249.79" width="32.56" height="34.73"/><rect class="cls-1" x="107.18" y="249.79" width="32.56" height="34.73"/><rect class="cls-1" x="139.74" y="249.79" width="32.56" height="34.73"/><rect class="cls-1" x="172.3" y="249.79" width="32.56" height="34.73"/><rect class="cls-1" x="204.87" y="249.79" width="32.56" height="34.73"/><rect class="cls-1" x="237.43" y="249.79" width="32.56" height="34.73"/><rect class="cls-1" x="269.99" y="249.79" width="32.56" height="34.73"/><rect class="cls-1" x="302.55" y="249.79" width="32.56" height="34.73"/><rect class="cls-1" x="335.12" y="249.79" width="32.56" height="34.73"/><rect class="cls-1" x="367.68" y="249.79" width="32.56" height="34.73"/><rect class="cls-1" x="400.24" y="249.79" width="32.56" height="34.73"/><rect class="cls-1" x="432.8" y="249.79" width="32.56" height="34.73"/><rect class="cls-1" x="465.37" y="249.79" width="32.56" height="34.73"/><rect class="cls-1" x="497.93" y="249.79" width="32.56" height="34.73"/><rect class="cls-1" x="530.49" y="249.79" width="32.56" height="34.73"/><rect class="cls-1" x="42.05" y="284.53" width="32.56" height="34.73"/><rect class="cls-1" x="74.62" y="284.53" width="32.56" height="34.73"/><rect class="cls-1" x="107.18" y="284.53" width="32.56" height="34.73"/><rect class="cls-1" x="139.74" y="284.53" width="32.56" height="34.73"/><rect class="cls-1" x="172.3" y="284.53" width="32.56" height="34.73"/><rect class="cls-1" x="204.87" y="284.53" width="32.56" height="34.73"/><rect class="cls-1" x="237.43" y="284.53" width="32.56" height="34.73"/><rect class="cls-1" x="269.99" y="284.53" width="32.56" height="34.73"/><rect class="cls-1" x="302.55" y="284.53" width="32.56" height="34.73"/><rect class="cls-1" x="335.12" y="284.53" width="32.56" height="34.73"/><rect class="cls-1" x="367.68" y="284.53" width="32.56" height="34.73"/><rect class="cls-1" x="400.24" y="284.53" width="32.56" height="34.73"/><rect class="cls-1" x="432.8" y="284.53" width="32.56" height="34.73"/><rect class="cls-1" x="465.37" y="284.53" width="32.56" height="34.73"/><rect class="cls-1" x="497.93" y="284.53" width="32.56" height="34.73"/><rect class="cls-1" x="530.49" y="284.53" width="32.56" height="34.73"/><rect class="cls-1" x="42.05" y="319.26" width="32.56" height="34.73"/><rect class="cls-1" x="74.62" y="319.26" width="32.56" height="34.73"/><rect class="cls-1" x="107.18" y="319.26" width="32.56" height="34.73"/><rect class="cls-1" x="139.74" y="319.26" width="32.56" height="34.73"/><rect class="cls-1" x="172.3" y="319.26" width="32.56" height="34.73"/><rect class="cls-1" x="204.87" y="319.26" width="32.56" height="34.73"/><rect class="cls-1" x="237.43" y="319.26" width="32.56" height="34.73"/><rect class="cls-1" x="269.99" y="319.26" width="32.56" height="34.73"/><rect class="cls-1" x="302.55" y="319.26" width="32.56" height="34.73"/><rect class="cls-1" x="335.12" y="319.26" width="32.56" height="34.73"/><rect class="cls-1" x="367.68" y="319.26" width="32.56" height="34.73"/><rect class="cls-1" x="400.24" y="319.26" width="32.56" height="34.73"/><rect class="cls-1" x="432.8" y="319.26" width="32.56" height="34.73"/><rect class="cls-1" x="465.37" y="319.26" width="32.56" height="34.73"/><rect class="cls-1" x="497.93" y="319.26" width="32.56" height="34.73"/><rect class="cls-1" x="530.49" y="319.26" width="32.56" height="34.73"/><rect class="cls-1" x="42.05" y="353.99" width="32.56" height="34.73"/><rect class="cls-1" x="74.62" y="353.99" width="32.56" height="34.73"/><rect class="cls-1" x="107.18" y="353.99" width="32.56" height="34.73"/><rect class="cls-1" x="139.74" y="353.99" width="32.56" height="34.73"/><rect class="cls-1" x="172.3" y="353.99" width="32.56" height="34.73"/><rect class="cls-1" x="204.87" y="353.99" width="32.56" height="34.73"/><rect class="cls-1" x="237.43" y="353.99" width="32.56" height="34.73"/><rect class="cls-2" x="274.55" y="242.69" width="37" height="23"/><rect class="cls-3" x="191.55" y="293.69" width="46" height="23"/><rect class="cls-1" x="269.99" y="353.99" width="32.56" height="34.73"/><rect class="cls-1" x="302.55" y="353.99" width="32.56" height="34.73"/><rect class="cls-1" x="335.12" y="353.99" width="32.56" height="34.73"/><rect class="cls-1" x="367.68" y="353.99" width="32.56" height="34.73"/><rect class="cls-1" x="400.24" y="353.99" width="32.56" height="34.73"/><rect class="cls-1" x="432.8" y="353.99" width="32.56" height="34.73"/><rect class="cls-1" x="465.37" y="353.99" width="32.56" height="34.73"/><rect class="cls-1" x="497.93" y="353.99" width="32.56" height="34.73"/><rect class="cls-1" x="530.49" y="353.99" width="32.56" height="34.73"/><text class="cls-4" transform="translate(16.6 243.09) rotate(-90)">Pri<tspan class="cls-5" x="17.4" y="0">c</tspan><tspan x="24.54" y="0">e (</tspan><tspan class="cls-6" x="39.28" y="0">P</tspan><tspan class="cls-7" x="48.36" y="0">z+</tspan><tspan class="cls-8" x="63.02" y="0">t</tspan><tspan class="cls-7" x="67.54" y="0">on)</tspan></text><text class="cls-4" transform="translate(186.68 430.57)">P<tspan class="cls-9" x="9.48" y="0">r</tspan><tspan x="14.12" y="0">odu</tspan><tspan class="cls-10" x="41.78" y="0">c</tspan><tspan x="49.06" y="0">tion of the </tspan><tspan class="cls-5" x="117.64" y="0">c</tspan><tspan class="cls-7" x="124.78" y="0">ommunity (</tspan><tspan class="cls-11" x="203.3" y="0">t</tspan><tspan class="cls-7" x="207.82" y="0">on)</tspan></text><text class="cls-12" transform="translate(193.64 310.57)">Mai<tspan class="cls-9" x="25.1" y="0">z</tspan><tspan x="31.9" y="0">e</tspan></text><text class="cls-13" transform="translate(277.27 259.57)">Ri<tspan class="cls-14" x="13.44" y="0">c</tspan><tspan x="20.64" y="0">e</tspan></text><text class="cls-15" transform="translate(22.3 392.79)">200</text><text class="cls-16" transform="translate(22.3 392.79)">200</text><text class="cls-15" transform="translate(38.5 400.79)">0</text><text class="cls-16" transform="translate(38.5 400.79)">0</text><text class="cls-15" transform="translate(100.76 400.79)">50</text><text class="cls-16" transform="translate(100.76 400.79)">50</text><text class="cls-15" transform="translate(164.01 400.79)">100</text><text class="cls-16" transform="translate(164.01 400.79)">100</text><text class="cls-15" transform="translate(229.01 400.79)">150</text><text class="cls-16" transform="translate(229.01 400.79)">150</text><text class="cls-15" transform="translate(294.01 400.79)">200</text><text class="cls-16" transform="translate(294.01 400.79)">200</text><text class="cls-15" transform="translate(359.01 400.79)">250</text><text class="cls-16" transform="translate(359.01 400.79)">250</text><text class="cls-15" transform="translate(424.01 400.79)">300</text><text class="cls-16" transform="translate(424.01 400.79)">300</text><text class="cls-15" transform="translate(489.01 400.79)">350</text><text class="cls-16" transform="translate(489.01 400.79)">350</text><text class="cls-15" transform="translate(554.01 400.79)">400</text><text class="cls-16" transform="translate(554.01 400.79)">400</text><text class="cls-15" transform="translate(22.3 357.79)">300</text><text class="cls-16" transform="translate(22.3 357.79)">300</text><text class="cls-15" transform="translate(22.3 322.79)">400</text><text class="cls-16" transform="translate(22.3 322.79)">400</text><text class="cls-15" transform="translate(22.3 287.79)">500</text><text class="cls-16" transform="translate(22.3 287.79)">500</text><text class="cls-15" transform="translate(22.3 253.79)">600</text><text class="cls-16" transform="translate(22.3 253.79)">600</text><text class="cls-15" transform="translate(22.3 218.79)">700</text><text class="cls-16" transform="translate(22.3 218.79)">700</text><text class="cls-15" transform="translate(22.3 183.79)">800</text><text class="cls-16" transform="translate(22.3 183.79)">800</text><text class="cls-15" transform="translate(22.3 148.79)">900</text><text class="cls-16" transform="translate(22.3 148.79)">900</text><text class="cls-15" transform="translate(16.81 114.79)">1000</text><text class="cls-16" transform="translate(16.81 114.79)">1000</text><text class="cls-15" transform="translate(16.81 79.79)">1100</text><text class="cls-16" transform="translate(16.81 79.79)">1100</text><text class="cls-15" transform="translate(16.81 45.79)">1200</text><text class="cls-16" transform="translate(16.81 45.79)">1200</text><text class="cls-15" transform="translate(16.81 10.79)">1300</text><text class="cls-16" transform="translate(16.81 10.79)">1300</text><path class="cls-17" d="M42.05,250.19h98l195,69h228"/><path class="cls-18" d="M42.05,232.19h131l310,122h80"/><path class="cls-19" d="M42.05,24.19h40l98,172h383"/><rect class="cls-20" x="156.05" y="121.19" width="65" height="23"/><text class="cls-21" transform="translate(156.75 138.57)">S<tspan class="cls-22" x="9.08" y="0">o</tspan><tspan x="18.34" y="0">yb</tspan><tspan class="cls-23" x="35.78" y="0">e</tspan><tspan x="43.92" y="0">an</tspan></text></g></g></svg>