<svg xmlns="http://www.w3.org/2000/svg" viewBox="0 0 409.87 89.5"><defs><style>.cls-1{fill:#7a7a74;opacity:0.5;}.cls-2{fill:#f2f2e7;}.cls-3{fill:#fcfcf0;}.cls-4{font-size:40px;font-family:SourceSansPro-ExtraLight, Source Sans Pro;letter-spacing:-0.07em;}.cls-4,.cls-6{fill:#0f667d;}.cls-5{letter-spacing:-0.09em;}.cls-7{fill:#4fc0dd;}</style></defs><title>Documents_manager_up</title><g id="Layer_2" data-name="Layer 2"><g id="Layer_1-2" data-name="Layer 1"><path class="cls-1" d="M14.89,4.44H395a14.89,14.89,0,0,1,14.89,14.89V75.77A13.74,13.74,0,0,1,396.13,89.5H13.74A13.74,13.74,0,0,1,0,75.77V19.33A14.89,14.89,0,0,1,14.89,4.44Z"/><path class="cls-2" d="M409.87,14.88V71.32a13.74,13.74,0,0,1-13.74,13.74H13.74A13.74,13.74,0,0,1,0,71.32V14.88A14.89,14.89,0,0,1,14.89,0H395A14.89,14.89,0,0,1,409.87,14.88Z"/><path class="cls-3" d="M409.87,14.88v32a70.74,70.74,0,0,1-20.8,3.1H32.94A70.65,70.65,0,0,1,0,41.93v-27A14.89,14.89,0,0,1,14.89,0H395A14.89,14.89,0,0,1,409.87,14.88Z"/><text class="cls-4" transform="translate(188.98 54.49)">Mana<tspan class="cls-5" x="75.84" y="0">g</tspan><tspan x="91.64" y="0">er</tspan></text><path class="cls-6" d="M48.35,57.89a70.58,70.58,0,0,1-26.82-5.32,4.06,4.06,0,0,0-1.36,2C18.42,60.64,33.2,74.68,48.8,75c15.91.31,31.28-13.68,29.63-19.7a5,5,0,0,0-2.81-2.87A70.88,70.88,0,0,1,48.35,57.89Z"/><path class="cls-7" d="M67.79,25c-13.73-7.36-13.68-9.63-18.64-9.8-4.61-.15-5.26,1.79-21.39,10.7C17.65,31.44,11.61,34.16,12,37.16c.38,2.67,5.5,3,6.92,7.9a29.73,29.73,0,0,1,.68,4.7c.24,2.18.33,4,.38,5.28a2.93,2.93,0,0,1,1-1.32,3,3,0,0,1,1.53-.62c-.05-.5-.11-1-.15-1.54-.09-.84-.15-1.67-.21-2.49A147,147,0,0,0,49,51.51a147.4,147.4,0,0,0,26.32-2.4c-.07.66-.16,1.35-.28,2.06-.09.56-.19,1.1-.3,1.63a5.48,5.48,0,0,1,3.38,1.84c-.81-2.91-1.42-7,.45-10.79,2.35-4.7,6.58-5,6.72-7.65C85.47,32.89,79.05,31,67.79,25ZM53.74,38.5c-.92,2.08-1,2.67-1.78,3.57a4.51,4.51,0,0,1-3.16,1.67c-1.85,0-3.11-1.63-3.51-2.15-.79-1-.57-1.41-1.6-3.56-1.11-2.34-1.59-2.35-1.64-3.17-.13-2.19,3.09-5.12,6.59-5.26s6.94,2.5,7,4.81C55.7,35.34,55.15,35.33,53.74,38.5Z"/></g></g></svg>