<svg xmlns="http://www.w3.org/2000/svg" viewBox="0 0 938.54 619.26"><defs><style>.cls-1{fill:#fcfcf0;stroke-width:1.43px;}.cls-1,.cls-2{stroke:#ccccc1;stroke-miterlimit:10;}.cls-2{fill:#e6e6da;stroke-width:1.65px;}.cls-12,.cls-3{font-size:30px;fill:#0f667d;font-family:SourceSansPro-ExtraLight, Source Sans Pro;}.cls-3{letter-spacing:-0.07em;}.cls-4{letter-spacing:-0.08em;}.cls-5{letter-spacing:-0.09em;}.cls-6{letter-spacing:-0.06em;}.cls-7{letter-spacing:-0.09em;}.cls-8{letter-spacing:-0.08em;}.cls-9{letter-spacing:-0.04em;}.cls-10{letter-spacing:-0.04em;}.cls-11,.cls-12{letter-spacing:-0.09em;}.cls-13{letter-spacing:-0.1em;}</style></defs><title>Start_situation_background</title><g id="Layer_2" data-name="Layer 2"><g id="Layer_1-2" data-name="Layer 1"><rect class="cls-1" x="0.72" y="77.94" width="171" height="58.78"/><rect class="cls-1" x="171.72" y="0.94" width="766" height="58.78"/><rect class="cls-1" x="0.72" y="0.94" width="171" height="58.78"/><rect class="cls-2" x="171.72" y="146.83" width="140" height="58.78"/><rect class="cls-2" x="171.72" y="77.72" width="140" height="58.78"/><rect class="cls-1" x="171.72" y="0.72" width="140" height="58.78"/><rect class="cls-2" x="171.72" y="215.72" width="140" height="58.78"/><rect class="cls-2" x="171.72" y="284.6" width="140" height="58.78"/><rect class="cls-2" x="171.72" y="352.99" width="140" height="58.78"/><rect class="cls-2" x="171.72" y="421.88" width="140" height="58.78"/><rect class="cls-2" x="171.72" y="490.77" width="140" height="58.78"/><rect class="cls-2" x="171.72" y="559.66" width="140" height="58.78"/><rect class="cls-1" x="0.72" y="146.72" width="171" height="58.78"/><rect class="cls-1" x="0.72" y="215.49" width="171" height="58.78"/><rect class="cls-1" x="0.72" y="284.27" width="171" height="58.78"/><rect class="cls-1" x="0.72" y="353.05" width="171" height="58.78"/><rect class="cls-1" x="0.72" y="421.83" width="171" height="58.78"/><rect class="cls-1" x="0.72" y="490.6" width="171" height="58.78"/><rect class="cls-1" x="0.72" y="559.38" width="171" height="58.78"/><text class="cls-3" transform="translate(13.4 115.77)">Rive<tspan class="cls-4" x="40.68" y="0">r</tspan><tspan class="cls-5" x="47.31" y="0">g</tspan><tspan class="cls-4" x="59.04" y="0">at</tspan><tspan x="77.58" y="0">e</tspan></text><text class="cls-3" transform="translate(13.4 40.77)">Villa<tspan class="cls-4" x="38.25" y="0">g</tspan><tspan x="50.1" y="0">e</tspan></text><text class="cls-3" transform="translate(194.4 40.77)">Mon<tspan class="cls-6" x="45.93" y="0">e</tspan><tspan x="58.44" y="0">y</tspan></text><text class="cls-3" transform="translate(13.4 184.62)">Sunc<tspan class="cls-4" x="51.36" y="0">r</tspan><tspan x="57.99" y="0">eek</tspan></text><text class="cls-3" transform="translate(13.4 253.48)">Cl<tspan class="cls-7" x="19.26" y="0">e</tspan><tspan class="cls-8" x="30.87" y="0">a</tspan><tspan class="cls-9" x="43.2" y="0">r</tspan><tspan class="cls-4" x="51.03" y="0">wat</tspan><tspan x="87.18" y="0">er</tspan></text><text class="cls-3" transform="translate(13.4 322.34)">Blueha<tspan class="cls-10" x="70.92" y="0">r</tspan><tspan x="79.05" y="0">ve</tspan><tspan class="cls-11" x="101.55" y="0">s</tspan><tspan x="110.7" y="0">t</tspan></text><text class="cls-12" transform="translate(13.4 391.19)">S<tspan class="cls-13" x="12.63" y="0">t</tspan><tspan class="cls-8" x="18.78" y="0">arfields</tspan></text><text class="cls-3" transform="translate(13.4 460.05)">Aquarun</text><text class="cls-3" transform="translate(13.4 528.91)">G<tspan class="cls-4" x="15.75" y="0">r</tspan><tspan x="22.38" y="0">eenbounty</tspan></text><text class="cls-3" transform="translate(13.4 597.77)">Moon<tspan class="cls-7" x="59.64" y="0">b</tspan><tspan class="cls-8" x="73.05" y="0">anks</tspan></text><rect class="cls-2" x="311.51" y="77.72" width="156.55" height="58.78"/><rect class="cls-2" x="468.06" y="77.72" width="156.55" height="58.78"/><rect class="cls-2" x="624.61" y="77.72" width="156.55" height="58.78"/><rect class="cls-2" x="781.16" y="77.72" width="156.55" height="58.78"/><rect class="cls-2" x="311.51" y="146.83" width="156.55" height="58.78"/><rect class="cls-2" x="468.06" y="146.83" width="156.55" height="58.78"/><rect class="cls-2" x="624.61" y="146.83" width="156.55" height="58.78"/><rect class="cls-2" x="781.16" y="146.83" width="156.55" height="58.78"/><rect class="cls-2" x="311.51" y="215.72" width="156.55" height="58.78"/><rect class="cls-2" x="468.06" y="215.72" width="156.55" height="58.78"/><rect class="cls-2" x="624.61" y="215.72" width="156.55" height="58.78"/><rect class="cls-2" x="781.16" y="215.72" width="156.55" height="58.78"/><rect class="cls-2" x="311.51" y="284.6" width="156.55" height="58.78"/><rect class="cls-2" x="468.06" y="284.6" width="156.55" height="58.78"/><rect class="cls-2" x="624.61" y="284.6" width="156.55" height="58.78"/><rect class="cls-2" x="781.16" y="284.6" width="156.55" height="58.78"/><rect class="cls-2" x="311.51" y="352.99" width="156.55" height="58.78"/><rect class="cls-2" x="468.06" y="352.99" width="156.55" height="58.78"/><rect class="cls-2" x="624.61" y="352.99" width="156.55" height="58.78"/><rect class="cls-2" x="781.16" y="352.99" width="156.55" height="58.78"/><rect class="cls-2" x="311.51" y="421.88" width="156.55" height="58.78"/><rect class="cls-2" x="468.06" y="421.88" width="156.55" height="58.78"/><rect class="cls-2" x="624.61" y="421.88" width="156.55" height="58.78"/><rect class="cls-2" x="781.16" y="421.88" width="156.55" height="58.78"/><rect class="cls-2" x="311.51" y="490.77" width="156.55" height="58.78"/><rect class="cls-2" x="468.06" y="490.77" width="156.55" height="58.78"/><rect class="cls-2" x="624.61" y="490.77" width="156.55" height="58.78"/><rect class="cls-2" x="781.16" y="490.77" width="156.55" height="58.78"/><rect class="cls-2" x="311.51" y="559.66" width="156.55" height="58.78"/><rect class="cls-2" x="468.06" y="559.66" width="156.55" height="58.78"/><rect class="cls-2" x="624.61" y="559.66" width="156.55" height="58.78"/><rect class="cls-2" x="781.16" y="559.66" width="156.55" height="58.78"/><rect class="cls-1" x="311.51" y="0.94" width="156.55" height="58.78"/><rect class="cls-1" x="468.06" y="0.94" width="156.55" height="58.78"/><rect class="cls-1" x="624.61" y="0.94" width="156.55" height="58.78"/><rect class="cls-1" x="781.16" y="0.94" width="156.55" height="58.78"/><text class="cls-3" transform="translate(325.4 40.77)"><tspan xml:space="preserve">Fields  1 FEF</tspan></text><text class="cls-3" transform="translate(484.4 40.77)"><tspan xml:space="preserve">Fields  2 FEF</tspan></text><text class="cls-3" transform="translate(643.4 40.77)"><tspan xml:space="preserve">Fields  3 FEF</tspan></text><text class="cls-3" transform="translate(802.4 40.77)"><tspan xml:space="preserve">Fields  4 FEF</tspan></text></g></g></svg>