<svg xmlns="http://www.w3.org/2000/svg" viewBox="0 0 170.84 163.28"><defs><style>.cls-1{fill:#cfc3b6;}.cls-2{fill:#827b75;}.cls-3{font-size:75.26px;fill:#0f667d;font-family:SourceSansPro-LightIt, Source Sans Pro;font-style:italic;letter-spacing:-0.07em;}</style></defs><title>Trade_button_down</title><g id="Layer_2" data-name="Layer 2"><g id="Layer_1-2" data-name="Layer 1"><path class="cls-1" d="M18.83,162.78A18.35,18.35,0,0,1,.5,144.46V18.82A18.35,18.35,0,0,1,18.83.5H152a18.34,18.34,0,0,1,18.32,18.32V144.46A18.34,18.34,0,0,1,152,162.78Z"/><path class="cls-2" d="M152,1a17.84,17.84,0,0,1,17.82,17.82V144.46A17.84,17.84,0,0,1,152,162.28H18.83A17.84,17.84,0,0,1,1,144.46V18.82A17.84,17.84,0,0,1,18.83,1H152m0-1H18.83A18.82,18.82,0,0,0,0,18.82V144.46a18.83,18.83,0,0,0,18.83,18.82H152a18.82,18.82,0,0,0,18.82-18.82V18.82A18.81,18.81,0,0,0,152,0Z"/><text class="cls-3" transform="translate(15.77 102.45)">Send </text></g></g></svg>