<svg xmlns="http://www.w3.org/2000/svg" viewBox="0 0 139.58 49.55"><defs><style>.cls-1{fill:#f2f2e7;}.cls-2{fill:#e6e6da;}.cls-3{fill:#fcfcf0;}</style></defs><title>Chat_global_button_up</title><g id="Layer_2" data-name="Layer 2"><g id="Layer_1-2" data-name="Layer 1"><rect class="cls-1" x="2.12" y="2.12" width="135.33" height="45.3" rx="7.19" ry="7.19"/><path class="cls-2" d="M130.26,4.25a5.07,5.07,0,0,1,5.07,5.06V40.23a5.07,5.07,0,0,1-5.07,5.07H9.31a5.07,5.07,0,0,1-5.06-5.07V9.31A5.07,5.07,0,0,1,9.31,4.25h121m0-4.25H9.31A9.33,9.33,0,0,0,0,9.31V40.23a9.33,9.33,0,0,0,9.31,9.32h121a9.33,9.33,0,0,0,9.32-9.32V9.31A9.33,9.33,0,0,0,130.26,0Z"/><path class="cls-3" d="M135.34,9.08V19.94c0,2.67-6.91,4.84-15.44,4.84H19.67c-8.53,0-15.41-2.17-15.41-4.84V9.08c0-2.67,6.88-4.83,15.41-4.83H119.9C128.43,4.25,135.34,6.41,135.34,9.08Z"/></g></g></svg>