<svg xmlns="http://www.w3.org/2000/svg" viewBox="0 0 169.96 169.95"><defs><style>.cls-1{fill:#f2f2e7;}.cls-2{fill:#fcfcf0;}.cls-3{fill:#4fc0dd;}.cls-4{fill:#0f667d;}</style></defs><title>ChatBubble</title><g id="Layer_2" data-name="Layer 2"><g id="Layer_1-2" data-name="Layer 1"><path class="cls-1" d="M170,0V170H0A169.84,169.84,0,0,1,170,0Z"/><path class="cls-2" d="M170,0V100c-22.71,8.75-50,13.84-79.3,13.84-28,0-54.08-4.64-76.15-12.66A170,170,0,0,1,170,0Z"/><path class="cls-3" d="M125.09,86.6c0-17.95-18.91-32.49-42.24-32.49S40.61,68.65,40.61,86.6c0,7,2.86,13.39,7.71,18.69a45.61,45.61,0,0,1-7.27,11.06,1.62,1.62,0,0,0-.3,1.77,1.59,1.59,0,0,0,1.48,1,35.72,35.72,0,0,0,18-5.08,51.67,51.67,0,0,0,22.61,5.08C106.18,119.1,125.09,104.56,125.09,86.6Z"/><path class="cls-4" d="M149.87,131.28a27.52,27.52,0,0,0,7.71-18.68c0-13.59-10.86-25.23-26.26-30.08a29,29,0,0,1,.27,4.08c0,21.51-21.87,39-48.74,39a61.69,61.69,0,0,1-6.44-.39c6.4,11.68,21.43,19.88,38.93,19.88a51.32,51.32,0,0,0,22.6-5.08,35.79,35.79,0,0,0,18,5.08,1.59,1.59,0,0,0,1.48-1,1.63,1.63,0,0,0-.3-1.77A45.07,45.07,0,0,1,149.87,131.28Z"/></g></g></svg>