<svg xmlns="http://www.w3.org/2000/svg" viewBox="0 0 73.15 44.72"><defs><style>.cls-1{fill:#ccccc1;}.cls-2{fill:#e6e6da;}</style></defs><title>NewChannel_Creer_button_down</title><g id="Layer_2" data-name="Layer 2"><g id="Layer_1-2" data-name="Layer 1"><rect class="cls-1" x="1.52" y="1.52" width="70.12" height="41.69" rx="5.03"/><path class="cls-2" d="M66.6,3a3.51,3.51,0,0,1,3.52,3.52V38.17a3.52,3.52,0,0,1-3.52,3.52h-60A3.53,3.53,0,0,1,3,38.17V6.55A3.52,3.52,0,0,1,6.55,3H66.6m0-3h-60A6.56,6.56,0,0,0,0,6.55V38.17a6.56,6.56,0,0,0,6.55,6.55H66.6a6.56,6.56,0,0,0,6.55-6.55V6.55A6.56,6.56,0,0,0,66.6,0Z"/></g></g></svg>