<svg xmlns="http://www.w3.org/2000/svg" viewBox="0 0 120 33.46"><defs><style>.cls-1{fill:#f2f2e7;}.cls-2{fill:#e6e6da;}.cls-3{fill:#fcfcf0;}</style></defs><title>NewChannel_Village_button_up</title><g id="Layer_2" data-name="Layer 2"><g id="Layer_1-2" data-name="Layer 1"><rect class="cls-1" x="1.51" y="1.51" width="116.97" height="30.43" rx="5.38"/><path class="cls-2" d="M113.11,3A3.86,3.86,0,0,1,117,6.89V26.57a3.86,3.86,0,0,1-3.86,3.86H6.89A3.86,3.86,0,0,1,3,26.57V6.89A3.86,3.86,0,0,1,6.89,3H113.11m0-3H6.89A6.9,6.9,0,0,0,0,6.89V26.57a6.9,6.9,0,0,0,6.89,6.89H113.11A6.9,6.9,0,0,0,120,26.57V6.89A6.9,6.9,0,0,0,113.11,0Z"/><rect class="cls-3" x="3.03" y="3.03" width="113.93" height="14.43" rx="4.77"/></g></g></svg>