<svg xmlns="http://www.w3.org/2000/svg" viewBox="0 0 120 33.46"><defs><style>.cls-1{fill:#ccccc1;}.cls-2{fill:#e6e6da;}</style></defs><title>NewChannel_Village_button_down</title><g id="Layer_2" data-name="Layer 2"><g id="Layer_1-2" data-name="Layer 1"><path class="cls-1" d="M6.89,1.52H113.11a5.37,5.37,0,0,1,5.37,5.37V26.57a5.37,5.37,0,0,1-5.37,5.37H6.89a5.38,5.38,0,0,1-5.37-5.37V6.89A5.37,5.37,0,0,1,6.89,1.52Z"/><path class="cls-2" d="M113.11,3A3.86,3.86,0,0,1,117,6.89V26.57a3.86,3.86,0,0,1-3.86,3.86H6.89A3.86,3.86,0,0,1,3,26.57V6.89A3.86,3.86,0,0,1,6.89,3H113.11m0-3H6.89A6.9,6.9,0,0,0,0,6.89V26.57a6.9,6.9,0,0,0,6.89,6.89H113.11A6.9,6.9,0,0,0,120,26.57V6.89A6.9,6.9,0,0,0,113.11,0Z"/></g></g></svg>