<svg xmlns="http://www.w3.org/2000/svg" viewBox="0 0 366.74 189.51"><defs><style>.cls-1{fill:#099dce;}.cls-2{fill:#fff;}</style></defs><title>WM_logo</title><g id="Layer_2" data-name="Layer 2"><g id="Layer_1-2" data-name="Layer 1"><path class="cls-1" d="M164.49,15.79a36.82,36.82,0,0,1-.2,3.78,22.88,22.88,0,0,1-.72,3.78q-.58,3.13-1,6.26c-.28,2.09-.47,4.2-.55,6.33a17.55,17.55,0,0,1,0,2.9,15.61,15.61,0,0,0,0,2.9c0,1,0,2-.1,2.87s-.14,1.87-.23,2.87a51.7,51.7,0,0,1-3,11,38.63,38.63,0,0,1-6.49,10.66,49.5,49.5,0,0,1-4.6,5,36.65,36.65,0,0,1-6.16,4.73,37.56,37.56,0,0,1-8.05,3.68,41.88,41.88,0,0,1-10.33,1.89,35.71,35.71,0,0,1-6.75-.23,37.94,37.94,0,0,1-6.06-1.27,33.35,33.35,0,0,1-5.22-2,26.48,26.48,0,0,1-4.14-2.48,28.81,28.81,0,0,1-3.75-3c-1.11-1.06-2.14-2.14-3.1-3.22S92.21,70,91.34,68.93s-1.76-2.18-2.68-3.26q-1.23,2-2.67,4.2a36.17,36.17,0,0,1-3.36,4.43,39.4,39.4,0,0,1-4.33,4.21,26.46,26.46,0,0,1-5.61,3.55,32.71,32.71,0,0,1-7.2,2.41,42.5,42.5,0,0,1-9.1.88,49.61,49.61,0,0,1-8.67-1.1,45,45,0,0,1-7.5-2.32,28.77,28.77,0,0,1-6-3.26,16.94,16.94,0,0,1-4-3.88,21.53,21.53,0,0,1-2.67-5.37,36,36,0,0,1-1.37-5.58c-.31-1.87-.52-3.75-.66-5.64s-.3-3.75-.52-5.57a32.18,32.18,0,0,0,0-4.4,20.49,20.49,0,0,1,.16-4.4,79,79,0,0,1,1.83-11,72.1,72.1,0,0,1,3.58-10.92q2-3.45,3.92-7a33.31,33.31,0,0,1,4.59-6.51,25.54,25.54,0,0,1,6.75-5.22A31.81,31.81,0,0,1,56.2,0a14.31,14.31,0,0,1,6.19.88,7.41,7.41,0,0,1,3.23,2.58,6.25,6.25,0,0,1,1,3.33A15.9,15.9,0,0,1,66.43,10q-.72,2.8-1.69,5.51a44.46,44.46,0,0,1-2.42,5.44A7.85,7.85,0,0,1,61,23.09a12.14,12.14,0,0,0-1.47,2.16c-.91,2-1.84,4-2.77,6s-1.79,4-2.57,6-1.46,4-2,6A37.25,37.25,0,0,0,51,49.3a15.48,15.48,0,0,0,.72,6.46A19,19,0,0,0,55.22,62,39.59,39.59,0,0,0,67.31,50.9,43.13,43.13,0,0,0,71,44.8c1-2.08,2-4.17,2.87-6.25s1.77-4.18,2.64-6.26a56.9,56.9,0,0,1,3-6.13,15.66,15.66,0,0,1,1.21-4c.58-1.31,1.2-2.63,1.86-4a7.88,7.88,0,0,1,1.56-2,10.73,10.73,0,0,1,2.54-1.79,14.48,14.48,0,0,1,3.46-1.24,15.25,15.25,0,0,1,4.24-.33,26.84,26.84,0,0,1,6.84.75,15.4,15.4,0,0,1,4.63,2,10,10,0,0,1,2.87,2.87,15.52,15.52,0,0,1,1.63,3.39,21.61,21.61,0,0,1,.85,3.49c.17,1.15.36,2.23.58,3.23q.39,3.25.62,6.48c.15,2.15.32,4.32.49,6.49a66.13,66.13,0,0,0,2.77,11.64,37.51,37.51,0,0,0,6.1,11.05,21.33,21.33,0,0,0,4.3-4.89,28.1,28.1,0,0,0,2.51-5.19,40.2,40.2,0,0,0,1.5-5.28q.56-2.64,1.27-5.31,1.17-5.8,1.83-11.54t1.5-11.47q.45-2.8.81-5.55a44.05,44.05,0,0,1,1.08-5.47,29.27,29.27,0,0,0,1.2-3.2A6.16,6.16,0,0,1,139,4l.53-1,1-1.1c1-.57,1.85-1,2.41-1.21a3.06,3.06,0,0,1,1.7-.23A28.43,28.43,0,0,1,154,2.26,19,19,0,0,1,160,6a13.92,13.92,0,0,1,3.32,4.83A15.72,15.72,0,0,1,164.49,15.79Z"/><path class="cls-2" d="M175.55,57.93q-2-8.48.84-14.84a13.75,13.75,0,0,1,4.38-5.53A10.7,10.7,0,0,1,187,35.38a11.78,11.78,0,0,1,6.62,1.72,18,18,0,0,1,5.56,5.43q4.69,6.64,6.37,18.55a87.32,87.32,0,0,1,1,10.57,48.77,48.77,0,0,1-.77,11.27,5.31,5.31,0,0,1-2.31,3.53,5.57,5.57,0,0,1-4.13,1,15.55,15.55,0,0,1-5.46,2.52,19.09,19.09,0,0,1-7.76.21,22,22,0,0,1-7.43-2.73,17.08,17.08,0,0,1-5.53-5.18,11.31,11.31,0,0,1-1.82-8.34,12.76,12.76,0,0,1,5-7.69,30.78,30.78,0,0,1,9.94-4.62,32.12,32.12,0,0,1,6.8-1.33H194q-1.4-7.43-4.06-11.27a6.16,6.16,0,0,0-2-2,1.38,1.38,0,0,0-.42-.21v-.07l-.07.07a2.89,2.89,0,0,0-.7,1.05c-.84,1.86-.88,4.36-.14,7.49a5.41,5.41,0,0,1-.66,4.3,5.56,5.56,0,0,1-3.54,2.56,5.46,5.46,0,0,1-4.3-.67A5.54,5.54,0,0,1,175.55,57.93Zm7,17.92a.93.93,0,0,1,.14.14,5.47,5.47,0,0,0,1.82,1.68,8.8,8.8,0,0,0,6.65,1.26,4.24,4.24,0,0,0,2-1.19,7.18,7.18,0,0,0,1.47-3.5,5.2,5.2,0,0,1,.56-1.68v-.91q-1.6-.36-5.74.84a19.35,19.35,0,0,0-6.16,2.66C183,75.43,182.74,75.66,182.55,75.85Z"/><path class="cls-2" d="M219.44,47.15a24,24,0,0,0-5.81,2.17,5.3,5.3,0,0,1-4.27.56,5.64,5.64,0,0,1-3.43-2.66,5.39,5.39,0,0,1-.56-4.31A5.59,5.59,0,0,1,208,39.45a39,39,0,0,1,14.07-4.27,89.64,89.64,0,0,1,13.51-.91,5.74,5.74,0,0,1,5.67,5.7,5.39,5.39,0,0,1-1.68,4,5.5,5.5,0,0,1-4,1.65c-1.58,0-3.1,0-4.55.14-.09.56-.18,1.19-.28,1.88,0,.19-.1,1-.31,2.42l-.39,2.63q-.84,6.23-1.26,10.29-1.19,12.66.28,19.18a5.34,5.34,0,0,1-.7,4.3A5.51,5.51,0,0,1,224.87,89a5.42,5.42,0,0,1-4.27-.73A5.67,5.67,0,0,1,218,84.67q-1.89-8.34-.49-22.82.42-4.27,1.33-10.72C218.93,50.86,219.12,49.53,219.44,47.15Z"/><path class="cls-2" d="M271.66,67.31a11.42,11.42,0,0,0-1.19.07q-4.12.34-6.09.56A83.72,83.72,0,0,0,253,69.76c.1.28.19.51.28.7,1,2.94,2.62,4.62,4.9,5q6.93,1.19,10.92-1.12a5.68,5.68,0,0,1,8.37,6.33,5.24,5.24,0,0,1-2.63,3.4,22.42,22.42,0,0,1-9.52,2.94,33.78,33.78,0,0,1-9.1-.42,16.58,16.58,0,0,1-8.89-4.55,20.78,20.78,0,0,1-4.83-7.91,34.5,34.5,0,0,1-.7-18.34q2-10.23,7.77-16a16.27,16.27,0,0,1,8.26-4.66,15,15,0,0,1,9.38,1.23,17.78,17.78,0,0,1,7,5.81,25.28,25.28,0,0,1,3.5,7.14A26.86,26.86,0,0,1,279,56a17.35,17.35,0,0,1-1.19,7.56,5.5,5.5,0,0,1-2,2.48,5.59,5.59,0,0,1-3,1A5,5,0,0,1,271.66,67.31Zm-4-11.06A13.08,13.08,0,0,0,266.9,53q-1.61-5-4.55-6.3a3.81,3.81,0,0,0-2.38-.42,5.38,5.38,0,0,0-2.38,1.54c-2.24,2.28-3.82,5.74-4.76,10.35v.08a103.08,103.08,0,0,1,10.43-1.54C264.43,56.53,265.9,56.38,267.67,56.25Z"/><path class="cls-2" d="M312.68,90.13a13.83,13.83,0,0,1-10.15-5.46,23.06,23.06,0,0,1-2.59-4.2c-.56-1.12-1.14-2.48-1.75-4.06-.14-.33-.44-1.1-.91-2.31-.51.28-1,.53-1.54.77a77.39,77.39,0,0,1-1,8.75,5.41,5.41,0,0,1-2.38,3.64,5.59,5.59,0,0,1-4.27.91,5.66,5.66,0,0,1-4.55-6.58,78.73,78.73,0,0,0,1.05-10.08c.05-2.38.05-6,0-10.78v-.07c0-4.25,0-7.42.07-9.53.05-1.77.12-3.42.21-5a8.18,8.18,0,0,1-.63-.91,5.65,5.65,0,0,1-.35-4.34,5.53,5.53,0,0,1,2.8-3.36q9.74-5,17.92-2.59a15.55,15.55,0,0,1,6.86,4.23,15.25,15.25,0,0,1,3.78,7q1.83,8.11-4,16.24a31,31,0,0,1-4.41,5,23.29,23.29,0,0,1,.91,2.31l.21.56c.14.37.29.75.46,1.15a6.45,6.45,0,0,1,.31.88,24,24,0,0,0,2.59,5.18,3.4,3.4,0,0,0,2.17,1.33,5.36,5.36,0,0,1,3.92,1.92,5.68,5.68,0,0,1-.59,8A5.44,5.44,0,0,1,312.68,90.13ZM296,61.63a23.56,23.56,0,0,0,6-5.73q2.88-4,2.17-7.14a3.88,3.88,0,0,0-2.87-2.94,9.58,9.58,0,0,0-3.71-.14,8.64,8.64,0,0,0-1.4.28q-.14,2.45-.21,5.46c0,2-.07,5-.07,9.1v.07A7.78,7.78,0,0,1,296,61.63Z"/><path class="cls-1" d="M0,173.72a34.19,34.19,0,0,1,.2-3.78,22.84,22.84,0,0,1,.71-3.78c.39-2.09.73-4.17,1-6.26s.47-4.19.56-6.32a15.61,15.61,0,0,1,0-2.9,17.67,17.67,0,0,0,0-2.91c0-1,0-2,.1-2.87S2.72,143,2.8,142a52.25,52.25,0,0,1,3-11,38.39,38.39,0,0,1,6.49-10.66,50.43,50.43,0,0,1,4.59-5A36.78,36.78,0,0,1,31.07,107a41.79,41.79,0,0,1,10.33-1.89,36.56,36.56,0,0,1,6.75.23,39.07,39.07,0,0,1,6.06,1.27,33.35,33.35,0,0,1,5.22,2,26.83,26.83,0,0,1,4.13,2.48,27.52,27.52,0,0,1,3.75,3c1.11,1.06,2.15,2.14,3.1,3.23s1.87,2.17,2.74,3.26,1.76,2.17,2.67,3.26l2.67-4.21a36.17,36.17,0,0,1,3.36-4.43A39.52,39.52,0,0,1,86.19,111a27,27,0,0,1,5.6-3.55A33.33,33.33,0,0,1,99,105a42.34,42.34,0,0,1,9.09-.88,49.36,49.36,0,0,1,8.67,1.11,45,45,0,0,1,7.5,2.31,29.11,29.11,0,0,1,6,3.26,17.33,17.33,0,0,1,4,3.88,21.94,21.94,0,0,1,2.67,5.38,35.64,35.64,0,0,1,1.37,5.57q.45,2.81.65,5.64t.52,5.58a35.74,35.74,0,0,0,0,4.4,19.89,19.89,0,0,1-.16,4.4,79.08,79.08,0,0,1-1.82,11,72.16,72.16,0,0,1-3.59,10.92c-1.35,2.31-2.65,4.63-3.91,7a32.71,32.71,0,0,1-4.6,6.52,25.15,25.15,0,0,1-6.75,5.21,31.5,31.5,0,0,1-10.36,3.2,14.13,14.13,0,0,1-6.19-.88A7.28,7.28,0,0,1,98.87,186a6.26,6.26,0,0,1-1.05-3.32,16.71,16.71,0,0,1,.23-3.2c.48-1.87,1-3.7,1.7-5.51a43.53,43.53,0,0,1,2.41-5.44,8.14,8.14,0,0,1,1.34-2.15,12.56,12.56,0,0,0,1.46-2.15q1.38-3,2.77-6t2.58-6c.78-2,1.46-4,2-6a35.24,35.24,0,0,0,1.17-6.06,15.61,15.61,0,0,0-.71-6.45,19.17,19.17,0,0,0-3.52-6.2,39.76,39.76,0,0,0-7,5.28,41.09,41.09,0,0,0-5.06,5.77,43.13,43.13,0,0,0-3.65,6.1c-1,2.09-2,4.17-2.87,6.26s-1.77,4.17-2.64,6.26a55,55,0,0,1-3,6.12,15.33,15.33,0,0,1-1.2,4.05c-.59,1.3-1.21,2.63-1.86,4a8.17,8.17,0,0,1-1.56,2,11,11,0,0,1-2.55,1.8,15,15,0,0,1-7.69,1.56A26.92,26.92,0,0,1,63.3,176a15.09,15.09,0,0,1-4.62-2,9.8,9.8,0,0,1-2.87-2.87,14.67,14.67,0,0,1-1.63-3.39,20.5,20.5,0,0,1-.85-3.48c-.17-1.16-.37-2.23-.59-3.23-.26-2.18-.46-4.34-.62-6.49s-.31-4.31-.49-6.49a64.1,64.1,0,0,0-2.77-11.63,37.23,37.23,0,0,0-6.09-11.05,21,21,0,0,0-4.31,4.89,27.66,27.66,0,0,0-2.5,5.18,40.2,40.2,0,0,0-1.5,5.28q-.55,2.64-1.28,5.31-1.17,5.81-1.82,11.54T29.86,169c-.3,1.87-.58,3.71-.82,5.54A42.73,42.73,0,0,1,28,180.05a27,27,0,0,0-1.21,3.19,5.94,5.94,0,0,1-1.27,2.28l-.52,1-1,1.11c-1.05.56-1.85,1-2.42,1.2a3,3,0,0,1-1.69.23,28.17,28.17,0,0,1-9.29-1.79,18.61,18.61,0,0,1-6-3.75,14.15,14.15,0,0,1-3.33-4.82A16,16,0,0,1,0,173.72Z"/><path class="cls-2" d="M153,151.93q-2-8.48.84-14.84a13.75,13.75,0,0,1,4.38-5.53,10.7,10.7,0,0,1,6.26-2.18,11.78,11.78,0,0,1,6.62,1.72,18,18,0,0,1,5.56,5.43q4.69,6.65,6.37,18.55a87.32,87.32,0,0,1,1,10.57,48.77,48.77,0,0,1-.77,11.27,5.31,5.31,0,0,1-2.31,3.53,5.57,5.57,0,0,1-4.13,1,15.55,15.55,0,0,1-5.46,2.52,19.14,19.14,0,0,1-7.77.21,22,22,0,0,1-7.42-2.73,17.08,17.08,0,0,1-5.53-5.18,11.31,11.31,0,0,1-1.82-8.34,12.76,12.76,0,0,1,5-7.69,30.78,30.78,0,0,1,9.94-4.62,32.17,32.17,0,0,1,6.79-1.33h.84q-1.4-7.43-4.06-11.27a6.16,6.16,0,0,0-2-2,1.38,1.38,0,0,0-.42-.21v-.07l-.07.07a2.89,2.89,0,0,0-.7,1.05c-.84,1.86-.88,4.36-.14,7.49a5.41,5.41,0,0,1-.66,4.3,5.56,5.56,0,0,1-3.54,2.56,5.45,5.45,0,0,1-4.3-.67A5.54,5.54,0,0,1,153,151.93Zm7,17.92a.93.93,0,0,1,.14.14,5.47,5.47,0,0,0,1.82,1.68,8.8,8.8,0,0,0,6.65,1.26,4.24,4.24,0,0,0,2-1.19,7.18,7.18,0,0,0,1.47-3.5,5.2,5.2,0,0,1,.56-1.68v-.91q-1.6-.36-5.74.84a19.35,19.35,0,0,0-6.16,2.66C160.45,169.43,160.19,169.66,160,169.85Z"/><path class="cls-2" d="M196.89,141.15a24,24,0,0,0-5.81,2.17,5.3,5.3,0,0,1-4.27.56,5.64,5.64,0,0,1-3.43-2.66,5.39,5.39,0,0,1-.56-4.31,5.59,5.59,0,0,1,2.66-3.46,39,39,0,0,1,14.07-4.27,89.64,89.64,0,0,1,13.51-.91,5.74,5.74,0,0,1,5.67,5.7,5.39,5.39,0,0,1-1.68,4,5.5,5.5,0,0,1-4,1.65c-1.58,0-3.1,0-4.55.14-.09.56-.18,1.19-.28,1.88,0,.19-.1,1-.31,2.42l-.39,2.63q-.84,6.23-1.26,10.29-1.19,12.66.28,19.18a5.34,5.34,0,0,1-.7,4.3,5.51,5.51,0,0,1-3.53,2.52,5.42,5.42,0,0,1-4.27-.73,5.67,5.67,0,0,1-2.56-3.57q-1.89-8.34-.49-22.82.42-4.28,1.33-10.72C196.38,144.86,196.57,143.53,196.89,141.15Z"/><path class="cls-2" d="M231.54,141.15a24,24,0,0,0-5.81,2.17,5.3,5.3,0,0,1-4.27.56,5.64,5.64,0,0,1-3.43-2.66,5.39,5.39,0,0,1-.56-4.31,5.59,5.59,0,0,1,2.66-3.46,39,39,0,0,1,14.07-4.27,89.64,89.64,0,0,1,13.51-.91,5.74,5.74,0,0,1,5.67,5.7,5.39,5.39,0,0,1-1.68,4,5.5,5.5,0,0,1-4,1.65c-1.58,0-3.1,0-4.55.14-.09.56-.18,1.19-.28,1.88,0,.19-.1,1-.31,2.42l-.39,2.63q-.84,6.23-1.26,10.29-1.18,12.66.28,19.18a5.34,5.34,0,0,1-.7,4.3A5.51,5.51,0,0,1,237,183a5.42,5.42,0,0,1-4.27-.73,5.67,5.67,0,0,1-2.56-3.57q-1.89-8.34-.49-22.82.42-4.28,1.33-10.72C231,144.86,231.22,143.53,231.54,141.15Z"/><path class="cls-2" d="M283.76,161.31a11.42,11.42,0,0,0-1.19.07q-4.12.35-6.09.56a83.72,83.72,0,0,0-11.41,1.82c.1.28.19.51.28.7,1,2.94,2.62,4.62,4.9,5q6.93,1.19,10.92-1.12a5.68,5.68,0,0,1,8.37,6.33,5.24,5.24,0,0,1-2.63,3.4,22.42,22.42,0,0,1-9.52,2.94,33.78,33.78,0,0,1-9.1-.42,16.58,16.58,0,0,1-8.89-4.55,20.78,20.78,0,0,1-4.83-7.91,34.5,34.5,0,0,1-.7-18.34q2-10.23,7.77-16a16.27,16.27,0,0,1,8.26-4.66,15,15,0,0,1,9.38,1.23,17.78,17.78,0,0,1,7,5.81,25.28,25.28,0,0,1,3.5,7.14,26.86,26.86,0,0,1,1.33,6.65,17.35,17.35,0,0,1-1.19,7.56,5.5,5.5,0,0,1-2,2.48,5.59,5.59,0,0,1-3,1A5,5,0,0,1,283.76,161.31Zm-4-11.06A13.08,13.08,0,0,0,279,147q-1.61-5-4.55-6.3a3.81,3.81,0,0,0-2.38-.42,5.38,5.38,0,0,0-2.38,1.54c-2.24,2.28-3.82,5.74-4.76,10.35v.08a103.08,103.08,0,0,1,10.43-1.54C276.53,150.53,278,150.38,279.77,150.25Z"/><path class="cls-2" d="M324.78,184.13a13.83,13.83,0,0,1-10.15-5.46,23.06,23.06,0,0,1-2.59-4.2c-.56-1.12-1.14-2.48-1.75-4.06-.14-.33-.44-1.1-.91-2.31-.51.28-1,.53-1.54.77a79.76,79.76,0,0,1-1,8.75,5.41,5.41,0,0,1-2.38,3.64,5.59,5.59,0,0,1-4.27.91,5.66,5.66,0,0,1-4.55-6.58,80.57,80.57,0,0,0,1-10.08c.05-2.38.05-6,0-10.78v-.07c0-4.25,0-7.42.07-9.53.05-1.77.12-3.42.21-5a8.18,8.18,0,0,1-.63-.91,5.65,5.65,0,0,1-.35-4.34,5.53,5.53,0,0,1,2.8-3.36q9.74-5,17.92-2.59a15.55,15.55,0,0,1,6.86,4.23,15.25,15.25,0,0,1,3.78,7q1.83,8.12-4,16.24a31,31,0,0,1-4.41,5,23.29,23.29,0,0,1,.91,2.31l.21.56c.14.37.29.75.46,1.15a8.24,8.24,0,0,1,.31.88,23.53,23.53,0,0,0,2.59,5.18,3.37,3.37,0,0,0,2.17,1.33,5.36,5.36,0,0,1,3.92,1.92,5.68,5.68,0,0,1-.59,8A5.44,5.44,0,0,1,324.78,184.13Zm-16.66-28.5a23.73,23.73,0,0,0,6-5.73q2.88-4,2.17-7.14a3.9,3.9,0,0,0-2.87-2.94,9.58,9.58,0,0,0-3.71-.14,8.64,8.64,0,0,0-1.4.28q-.13,2.44-.21,5.46c-.05,2-.07,5-.07,9.1v.07A7.78,7.78,0,0,1,308.12,155.63Z"/><path class="cls-2" d="M352.29,149.34a5.24,5.24,0,0,1,.49-3.05,5.44,5.44,0,0,1,2-2.27,10.22,10.22,0,0,0-1.26-1.68,6.61,6.61,0,0,0-4.06-2.24,4.21,4.21,0,0,0-1.89.28,8.07,8.07,0,0,0-2.73,1.82,5.94,5.94,0,0,0-1.82,2.73,3.32,3.32,0,0,0,.35,1.61,17.14,17.14,0,0,0,2.66,3.36c.93,1,2.52,2.42,4.76,4.34.37.32.66.56.84.7l3.71,3.36a34.59,34.59,0,0,1,3.5,3.85,19.17,19.17,0,0,1,2.73,4.76,12.8,12.8,0,0,1,.84,6.16,9.8,9.8,0,0,1-2.31,5.49,10.88,10.88,0,0,1-5,3.26,18,18,0,0,1-9.66,0,22.14,22.14,0,0,1-8.61-4.06,14.93,14.93,0,0,1-3.36-3.71,10.7,10.7,0,0,1-1.61-5.6,5.5,5.5,0,0,1,1.65-4,5.39,5.39,0,0,1,4-1.68,5.45,5.45,0,0,1,3.89,1.57,5.6,5.6,0,0,1,1.78,3.82,2.56,2.56,0,0,0,.7.7,11,11,0,0,0,4.2,2,8.52,8.52,0,0,0,2.94.28A.26.26,0,0,1,351,171a12.36,12.36,0,0,0-1.12-1.89,55.76,55.76,0,0,0-5.74-5.6c-.14-.1-.4-.31-.77-.63q-3.7-3.22-5.46-5a25.91,25.91,0,0,1-4.62-6.3,13.26,13.26,0,0,1-1.4-8.75,17,17,0,0,1,5-8.61q6.23-6.24,13.86-5.39a17.59,17.59,0,0,1,11,5.67,16.58,16.58,0,0,1,5,9.94,9.38,9.38,0,0,1-1.92,6.72,8.76,8.76,0,0,1-6.27,3.22,5.42,5.42,0,0,1-4.16-1.19A5.32,5.32,0,0,1,352.29,149.34Z"/></g></g></svg>