<svg xmlns="http://www.w3.org/2000/svg" viewBox="0 0 559.75 372.25"><defs><style>.cls-1,.cls-12,.cls-13,.cls-14,.cls-4{fill:none;}.cls-1{stroke:#606060;stroke-opacity:0;}.cls-1,.cls-12,.cls-13,.cls-14,.cls-18,.cls-19,.cls-23,.cls-4{stroke-miterlimit:10;}.cls-11,.cls-2,.cls-3,.cls-5{isolation:isolate;}.cls-3{font-size:32px;font-family:ArialMT, Arial;}.cls-4{stroke:#ccccc1;stroke-width:0.53px;}.cls-20,.cls-21,.cls-24,.cls-5{font-size:17.02px;letter-spacing:-0.08em;}.cls-20,.cls-5{fill:#0f667d;}.cls-5{font-family:SourceSansPro-Light, Source Sans Pro;}.cls-6{letter-spacing:-0.09em;}.cls-7{letter-spacing:-0.08em;}.cls-8{letter-spacing:-0.09em;}.cls-9{letter-spacing:-0.09em;}.cls-10,.cls-11{font-size:11.06px;letter-spacing:-0.07em;}.cls-10{fill:#e6e6da;}.cls-10,.cls-11,.cls-20,.cls-21,.cls-24{font-family:SourceSansPro-Regular, Source Sans Pro;}.cls-11{fill:#fcfcf0;}.cls-12,.cls-23{stroke:#e9d9b7;}.cls-12,.cls-13,.cls-14{stroke-width:2.83px;}.cls-13,.cls-18{stroke:#4fc0dd;}.cls-14,.cls-19{stroke:#0f667d;}.cls-15{letter-spacing:-0.1em;}.cls-16{letter-spacing:-0.06em;}.cls-17{letter-spacing:-0.07em;}.cls-18,.cls-19,.cls-23{fill:#fff;}.cls-18,.cls-23{stroke-width:0.99px;}.cls-19{stroke-width:1.11px;}.cls-21{fill:#4fc0dd;}.cls-22{letter-spacing:-0.1em;}.cls-24{fill:#e9d9b7;}.cls-25{letter-spacing:-0.08em;}.cls-26{letter-spacing:-0.09em;}</style></defs><title>Documents_graphic_v2</title><g id="Layer_2" data-name="Layer 2"><g id="svg2"><rect class="cls-1" x="0.5" y="0.5" width="558.75" height="371.25"/><g id="text6395" class="cls-2"><text class="cls-3" transform="translate(486.54 250.56) rotate(90)"> </text></g><g id="a6112"><path id="path6109" class="cls-4" d="M103.17,25.5l16.94.06,16.52.07L154,25.7l17.77.07,16.11.06L206,25.9l16.11.07,16.94.07,16.73.06,17.35.07,15.08.06,18.59.07,18.18.08,16.11.06,16.53.06,16.73.07,17.77.07,16.73.07,16.73.06,17.56.07,15.7.07,16.94.06,16.73.07,17.3.07,0,24.18L510,75.88l.05,25.21.06,25.52.06,24.9.05,24.6.06,26.44.05,23,.06,25.83.06,26.74,0,24,.06,24.9H70.11l0-25.51,0-25.21,0-25.83,0-24.28,0-24,0-26.13,0-24,0-27.06,0-24.59,0-25.52,0-24V38.18l0-12.81,15.75.06Z"/><path id="path6109-2" data-name="path6109" class="cls-4" d="M103.17,25.5l16.94.06,16.52.07L154,25.7l17.77.07,16.11.06L206,25.9l16.11.07,16.94.07,16.73.06,17.35.07,15.08.06,18.59.07,18.18.08,16.11.06,16.53.06,16.73.07,17.77.07,16.73.07,16.73.06,17.56.07,15.7.07,16.94.06,16.73.07,17.3.07,0,24.18L510,75.88l.05,25.21.06,25.52.06,24.9.05,24.6.06,26.44.05,23,.06,25.83.06,26.74,0,24,.06,24.9H70.11l0-25.51,0-25.21,0-25.83,0-24.28,0-24,0-26.13,0-24,0-27.06,0-24.59,0-25.52,0-24V38.18l0-12.81,15.75.06Z"/></g><path id="path6115" class="cls-4" d="M98.16,25.36V327.05"/><path id="path6121" class="cls-4" d="M262.87,25.7V327.42"/><path id="path6123" class="cls-4" d="M153.06,26.16v301"/><path id="path6125" class="cls-4" d="M208,25.88V327.27"/><path id="path6127" class="cls-4" d="M180.2,25.68l.62,301.37"/><path id="path6129" class="cls-4" d="M235.42,25.81V327.35"/><path id="path6131" class="cls-4" d="M125.61,26V327.05"/><path id="path6133" class="cls-4" d="M290.32,26.57V327.5"/><path id="path6135" class="cls-4" d="M317.77,26.36V327.57"/><path id="path6156" class="cls-4" d="M345.22,26.15V327.64"/><path id="path6158" class="cls-4" d="M372.67,26.37V327.71"/><path id="path6160" class="cls-4" d="M400.12,27V327.79"/><path id="path6162" class="cls-4" d="M427.58,26.36V327.85"/><path id="path6164" class="cls-4" d="M455,27.23v300.7"/><path id="path6166" class="cls-4" d="M482.48,27.27V328"/><path id="path6198" class="cls-4" d="M70.61,52.29,510,52.91"/><path id="path6200" class="cls-4" d="M70.56,80.06l439.63.41"/><path id="path6202" class="cls-4" d="M510.33,108.11l-439.82-1"/><path id="path6204" class="cls-4" d="M70.46,136.14l439.42-.42"/><path id="path6206" class="cls-4" d="M510.51,162.42H70.41"/><path id="path6208" class="cls-4" d="M70.36,191l440.09.21"/><path id="path6210" class="cls-4" d="M509.91,216.53l-439.6.41"/><path id="path6212" class="cls-4" d="M70.26,243.76l440.05.62"/><path id="path6214" class="cls-4" d="M510.58,273.36,70.21,272.12"/><path id="path6216" class="cls-4" d="M70.16,299.35l440.28.42"/><g id="text6261"><text class="cls-5" transform="translate(181.92 361.18)">P<tspan class="cls-6" x="8.07" y="0">r</tspan><tspan x="12.01" y="0">odu</tspan><tspan class="cls-7" x="35.55" y="0">c</tspan><tspan x="41.74" y="0">tion of the </tspan><tspan class="cls-8" x="100.09" y="0">c</tspan><tspan x="106.17" y="0">ommunity (</tspan><tspan class="cls-9" x="172.98" y="0">t</tspan><tspan x="176.83" y="0">on)</tspan></text></g><g id="text6277"><text class="cls-10" transform="translate(50.83 192.63)">700</text><text class="cls-11" transform="translate(50.83 192.63)">700</text></g><g id="text6301"><text class="cls-10" transform="translate(50.83 165.25)">800</text><text class="cls-11" transform="translate(50.83 165.25)">800</text></g><g id="text6305"><text class="cls-10" transform="translate(50.83 137.87)">900</text><text class="cls-11" transform="translate(50.83 137.87)">900</text></g><g id="text6309"><text class="cls-10" transform="translate(41.66 110.48)">1000</text><text class="cls-11" transform="translate(41.66 110.48)">1000</text></g><g id="text6399"><text class="cls-10" transform="translate(65.16 336.4)">0</text><text class="cls-11" transform="translate(65.16 336.4)">0</text></g><g id="text6403"><text class="cls-10" transform="translate(120.53 336.4)">50</text><text class="cls-11" transform="translate(120.53 336.4)">50</text></g><g id="text6407"><text class="cls-10" transform="translate(173.4 336.4)">100</text><text class="cls-11" transform="translate(173.4 336.4)">100</text></g><g id="text6411"><text class="cls-10" transform="translate(228 336.4)">150</text><text class="cls-11" transform="translate(228 336.4)">150</text></g><g id="text6415"><text class="cls-10" transform="translate(282.5 336.4)">200</text><text class="cls-11" transform="translate(282.5 336.4)">200</text></g><g id="text6419"><text class="cls-10" transform="translate(337.8 336.4)">250</text><text class="cls-11" transform="translate(337.8 336.4)">250</text></g><g id="text6423"><text class="cls-10" transform="translate(392.7 336.4)">300</text><text class="cls-11" transform="translate(392.7 336.4)">300</text></g><g id="text6427"><text class="cls-10" transform="translate(447.61 336.4)">350</text><text class="cls-11" transform="translate(447.61 336.4)">350</text></g><g id="text6431"><text class="cls-10" transform="translate(502.5 336.4)">400</text><text class="cls-11" transform="translate(502.5 336.4)">400</text></g><g id="text4154"><text class="cls-10" transform="translate(50.83 219.63)">600</text><text class="cls-11" transform="translate(50.83 219.63)">600</text></g><g id="text4158"><text class="cls-10" transform="translate(50.83 246.63)">500</text><text class="cls-11" transform="translate(50.83 246.63)">500</text></g><g id="text4162"><text class="cls-10" transform="translate(50.83 275.13)">400</text><text class="cls-11" transform="translate(50.83 275.13)">400</text></g><g id="text4166"><text class="cls-10" transform="translate(50.83 302.13)">300</text><text class="cls-11" transform="translate(50.83 302.13)">300</text></g><g id="text4170"><text class="cls-10" transform="translate(50.75 329.13)">200</text><text class="cls-11" transform="translate(50.75 329.13)">200</text></g><g id="text4174"><text class="cls-10" transform="translate(41.66 83.48)">1100</text><text class="cls-11" transform="translate(41.66 83.48)">1100</text></g><g id="text4178"><text class="cls-10" transform="translate(41.66 54.98)">1200</text><text class="cls-11" transform="translate(41.66 54.98)">1200</text></g><g id="text4182"><text class="cls-10" transform="translate(41.66 27.98)">1300</text><text class="cls-11" transform="translate(41.66 27.98)">1300</text></g><path id="path4192" class="cls-12" d="M70,38.55l35.8.26L190.88,176.7l319-.8h0"/><path id="path4194" class="cls-13" d="M69.87,203.75l110.63.38,262.88,95.25,67.12.37"/><path id="path4196" class="cls-14" d="M70.25,216.5l78.38.38L323,272.75l187.12.38h-.37"/><g id="text5005" class="cls-2"><text class="cls-5" transform="translate(36.65 223.48) rotate(-90.24)">Pri<tspan class="cls-8" x="14.8" y="0">c</tspan><tspan x="20.88" y="0">e (</tspan><tspan class="cls-15" x="33.42" y="0">P</tspan><tspan x="41.15" y="0">z</tspan><tspan class="cls-16" x="46.75" y="0">/</tspan><tspan class="cls-9" x="51.83" y="0">t</tspan><tspan class="cls-17" x="55.68" y="0">on)</tspan></text></g><rect class="cls-18" x="273.96" y="210.12" width="31.48" height="19.57"/><rect class="cls-19" x="203.34" y="253.52" width="39.14" height="19.57"/><text class="cls-20" transform="translate(205.12 267.88)">Mai<tspan class="cls-7" x="21.36" y="0">z</tspan><tspan x="27.14" y="0">e</tspan></text><text class="cls-21" transform="translate(276.28 224.48)">Ri<tspan class="cls-22" x="11.44" y="0">c</tspan><tspan x="17.56" y="0">e</tspan></text><rect class="cls-23" x="173.14" y="106.74" width="55.31" height="19.57"/><text class="cls-24" transform="translate(173.73 121.53)">S<tspan class="cls-25" x="7.73" y="0">o</tspan><tspan x="15.6" y="0">yb</tspan><tspan class="cls-26" x="30.44" y="0">e</tspan><tspan x="37.37" y="0">an</tspan></text></g></g></svg>