<svg xmlns="http://www.w3.org/2000/svg" viewBox="0 0 275.2 70.1"><defs><style>.cls-1{fill:#fcfcf0;}.cls-2{font-size:40px;font-family:SourceSansPro-ExtraLight, Source Sans Pro;letter-spacing:-0.07em;}.cls-2,.cls-5,.cls-6{fill:#0f667d;}.cls-3{letter-spacing:-0.09em;}.cls-4{letter-spacing:-0.08em;}.cls-6,.cls-7{fill-rule:evenodd;}.cls-7{fill:#4fc0dd;}</style></defs><title>Irrigation_title</title><g id="Layer_2" data-name="Layer 2"><g id="Layer_1-2" data-name="Layer 1"><path class="cls-1" d="M14.89,0H260.31A14.89,14.89,0,0,1,275.2,14.89V47.46A13.74,13.74,0,0,1,261.46,61.2H13.74A13.74,13.74,0,0,1,0,47.46V14.89A14.89,14.89,0,0,1,14.89,0Z"/><text class="cls-2" transform="translate(105.47 44.57)">Irri<tspan class="cls-3" x="30.64" y="0">g</tspan><tspan class="cls-4" x="46.28" y="0">a</tspan><tspan x="62.32" y="0">tion</tspan></text><circle class="cls-5" cx="40.31" cy="28.53" r="10.85"/><path class="cls-6" d="M41.29,7.88h-2a3.52,3.52,0,0,0-3.52,3.52v14h9v-14A3.52,3.52,0,0,0,41.29,7.88Z"/><path class="cls-6" d="M15.79,27.55v2A3.53,3.53,0,0,0,19.31,33H47.89V24H19.31A3.53,3.53,0,0,0,15.79,27.55Z"/><path class="cls-6" d="M62.52,29.77V42h-9V35a2,2,0,0,0-2-2H49.39V24h7.39A5.74,5.74,0,0,1,62.52,29.77Z"/><rect class="cls-5" x="30.06" y="9.88" width="20.5" height="5.58" rx="2.18" ry="2.18"/><rect class="cls-5" x="50.77" y="39.24" width="14.5" height="5.58" rx="2.18" ry="2.18"/><path class="cls-7" d="M65.27,63.39a6.72,6.72,0,0,1-13.43,0,5.89,5.89,0,0,1,.5-2.12c1.55-3.86,6.21-9,6.21-9s4.66,5.12,6.22,9A5.89,5.89,0,0,1,65.27,63.39Z"/></g></g></svg>