<svg xmlns="http://www.w3.org/2000/svg" viewBox="0 0 572.95 61.2"><defs><style>.cls-1{fill:#fcfcf0;}.cls-2{font-size:40px;font-family:SourceSansPro-ExtraLight, Source Sans Pro;letter-spacing:-0.09em;}.cls-2,.cls-9{fill:#0f667d;}.cls-3{letter-spacing:-0.08em;}.cls-4{letter-spacing:-0.07em;}.cls-5{letter-spacing:-0.09em;}.cls-6{letter-spacing:-0.07em;}.cls-7{letter-spacing:-0.09em;}.cls-8{letter-spacing:-0.1em;}.cls-10{fill:#4fc0dd;fill-rule:evenodd;}</style></defs><title>WaterManagement_title</title><g id="Layer_2" data-name="Layer 2"><g id="Layer_1-2" data-name="Layer 1"><path class="cls-1" d="M14.89,0H530.26a14.89,14.89,0,0,1,14.89,14.89V47.46A13.74,13.74,0,0,1,531.41,61.2H13.74A13.74,13.74,0,0,1,0,47.46V14.89A14.89,14.89,0,0,1,14.89,0Z"/><text class="cls-2" transform="translate(113.63 46.24)">W<tspan class="cls-3" x="26.76" y="0">at</tspan><tspan class="cls-4" x="51.48" y="0">er mana</tspan><tspan class="cls-5" x="162" y="0">g</tspan><tspan class="cls-6" x="177.8" y="0">ement ne</tspan><tspan x="305.56" y="0">x</tspan><tspan class="cls-6" x="317.44" y="0">t </tspan><tspan class="cls-7" x="331.51" y="0">s</tspan><tspan class="cls-8" x="343.72" y="0">t</tspan><tspan class="cls-6" x="351.92" y="0">a</tspan><tspan class="cls-3" x="368.35" y="0">g</tspan><tspan class="cls-6" x="384.16" y="0">e</tspan></text><path class="cls-9" d="M77.3,36.77a3.07,3.07,0,0,0-3.94,0L64.83,43.6a5.91,5.91,0,0,1-3.7,1.29H50.2a1.48,1.48,0,1,1,0-3h7.23a3.07,3.07,0,0,0,3.08-2.45A3,3,0,0,0,57.59,36H42.81A10.9,10.9,0,0,0,36,38.45l-4.29,3.48H26.55a1.49,1.49,0,0,0-1.48,1.48v8.87a1.49,1.49,0,0,0,1.48,1.48h33a5.93,5.93,0,0,0,3.7-1.29l14-11.18A3,3,0,0,0,77.3,36.77Z"/><path class="cls-10" d="M61.06,23a9.18,9.18,0,1,1-18.35,0,8.17,8.17,0,0,1,.68-2.89c2.13-5.27,8.49-12.26,8.49-12.26s6.37,7,8.49,12.26A8,8,0,0,1,61.06,23Z"/></g></g></svg>